<?xml version="1.0" encoding="utf-8"?>
<!-- Generator: Adobe Illustrator 19.1.0, SVG Export Plug-In . SVG Version: 6.00 Build 0)  -->
<svg version="1.1" id="Layer_1" xmlns="http://www.w3.org/2000/svg" xmlns:xlink="http://www.w3.org/1999/xlink" x="0px" y="0px"
	 width="2560px" height="600px" viewBox="-153.1 975.1 2560 600" style="enable-background:new -153.1 975.1 2560 600;"
	 xml:space="preserve">
<style type="text/css">
	.st0{fill:url(#sky_x2F_space_2_);}
	.st1{fill:url(#river_2_);}
	.st2{opacity:0.9;}
	.st3{fill:url(#SVGID_1_);}
	.st4{fill:url(#SVGID_2_);}
	.st5{opacity:0.8;}
	.st6{fill:url(#SVGID_3_);}
	.st7{fill:#FDD8CD;}
	.st8{fill:url(#SVGID_4_);}
	.st9{fill:url(#SVGID_5_);}
	.st10{opacity:0.8;fill:url(#SVGID_6_);enable-background:new    ;}
	.st11{opacity:0.8;fill:url(#SVGID_7_);enable-background:new    ;}
	.st12{fill:#445763;}
	.st13{fill:url(#SVGID_8_);}
	.st14{opacity:3.000000e-02;fill:#FFFFFF;enable-background:new    ;}
	.st15{opacity:5.000000e-02;fill:#FFFFFF;enable-background:new    ;}
	.st16{opacity:7.000000e-02;fill:#FFFFFF;enable-background:new    ;}
	.st17{opacity:4.000000e-02;fill:#FFFFFF;enable-background:new    ;}
	.st18{opacity:6.000000e-02;fill:#FFFFFF;enable-background:new    ;}
	.st19{opacity:0.1;fill:#FFFFFF;enable-background:new    ;}
	.st20{fill:#575C7A;}
	.st21{display:none;fill:#575C7A;}
	.st22{opacity:0.8;fill:#FFF4CF;enable-background:new    ;}
	.st23{fill:url(#SVGID_9_);}
	.st24{fill:url(#SVGID_10_);}
	.st25{fill:url(#SVGID_11_);}
	.st26{fill:url(#SVGID_12_);}
	.st27{fill:url(#SVGID_13_);}
</style>
<linearGradient id="sky_x2F_space_2_" gradientUnits="userSpaceOnUse" x1="1141.7133" y1="-579.985" x2="1115.8784" y2="-94.4794" gradientTransform="matrix(1 0 0 -1 0 903.9999)">
	<stop  offset="0" style="stop-color:#F3C187"/>
	<stop  offset="5.274168e-02" style="stop-color:#F4AA8D"/>
	<stop  offset="0.1315" style="stop-color:#D47A66"/>
	<stop  offset="0.3231" style="stop-color:#4E5763"/>
	<stop  offset="0.5913" style="stop-color:#0C3C4C"/>
	<stop  offset="1" style="stop-color:#0E1C22"/>
</linearGradient>
<rect id="sky_x2F_space_1_" x="-153.1" y="974.7" class="st0" width="2560" height="463.5"/>
<linearGradient id="river_2_" gradientUnits="userSpaceOnUse" x1="1562.9023" y1="-274.7762" x2="1704.7247" y2="-775.1689" gradientTransform="matrix(1 0 0 -1 0 903.9999)">
	<stop  offset="7.882074e-02" style="stop-color:#C5817E"/>
	<stop  offset="0.3645" style="stop-color:#57606D"/>
	<stop  offset="0.6989" style="stop-color:#33434C"/>
	<stop  offset="1" style="stop-color:#2D3A41"/>
</linearGradient>
<polygon id="river_1_" class="st1" points="2406.9,1575.1 1071.8,1575.1 892.2,1575.1 964,1460 1071.8,1394.1 2406.9,1394.1 "/>
<g id="mountain_1_" class="st2">
	
		<linearGradient id="SVGID_1_" gradientUnits="userSpaceOnUse" x1="1510.9565" y1="-489.8051" x2="1510.9565" y2="-337.2079" gradientTransform="matrix(1 0 0 -1 0 903.9999)">
		<stop  offset="0" style="stop-color:#425B6A"/>
		<stop  offset="1" style="stop-color:#30414A"/>
	</linearGradient>
	<polygon class="st3" points="1278.2,1396.1 1260,1396.2 1260.8,1394 1322.2,1360.2 1342,1355 1347.4,1345.3 1358.4,1341.6 
		1367.1,1335.9 1379.8,1343 1385.1,1344.4 1395.6,1342.9 1419.3,1325.6 1447.3,1306.1 1456.5,1307.4 1478.2,1285.2 1486.8,1289.2 
		1491.1,1282.8 1500.6,1278.9 1509.8,1268.5 1518.6,1263 1529.5,1250.5 1536.6,1254 1547.5,1262.9 1559,1272.2 1568.9,1275.8 
		1574.2,1280.1 1576.1,1280.9 1584.2,1278.6 1588.7,1283.1 1593.6,1288 1598.6,1293 1601.6,1291.1 1613.7,1301.1 1627.3,1310.6 
		1639.2,1322.6 1639.8,1325.5 1646.3,1324.8 1653.1,1329.4 1658.3,1329.4 1680,1345.1 1762,1396.1 	"/>
	
		<linearGradient id="SVGID_2_" gradientUnits="userSpaceOnUse" x1="1675.9008" y1="-505.4402" x2="1798.681" y2="-450.2969" gradientTransform="matrix(1 0 0 -1 0 903.9999)">
		<stop  offset="0" style="stop-color:#475E6D"/>
		<stop  offset="1" style="stop-color:#30414A"/>
	</linearGradient>
	<polygon class="st4" points="1786.4,1396.1 1824.4,1396.1 1773.3,1377.4 1731.6,1355.1 1711.3,1342.2 1700.3,1345.2 1680.5,1360.6 
		1668.3,1368.6 1650.2,1380.2 1635.7,1387.3 1613.7,1396.1 1616.6,1396.1 	"/>
	<g class="st5">
		
			<linearGradient id="SVGID_3_" gradientUnits="userSpaceOnUse" x1="1519.8619" y1="-372.181" x2="1598.562" y2="-372.181" gradientTransform="matrix(1 0 0 -1 0 903.9999)">
			<stop  offset="0" style="stop-color:#FDD8CD"/>
			<stop  offset="1" style="stop-color:#E9B8AD"/>
		</linearGradient>
		<polygon class="st6" points="1545.6,1278.7 1536.9,1268.5 1533,1253.8 1529.5,1250.5 1536.6,1254 1547.5,1262.9 1559,1272.2 
			1568.9,1275.8 1574.2,1280.1 1577.6,1283.5 1581.1,1285 1584.2,1278.6 1598.6,1293 1592.8,1296.4 1591,1300.3 1587.1,1297.1 
			1579.6,1300.1 1570.6,1293 1562.4,1287.6 1575,1301.4 1573.2,1301.9 1564.3,1296.3 1557.5,1289.4 1550.2,1283.5 1553.3,1290.2 
			1548.9,1290.3 1531.8,1274.3 1519.9,1264.1 1527.9,1267.6 1532.8,1268.7 		"/>
		<polygon class="st7" points="1549.1,1301.4 1554.2,1307.9 1548.8,1305.3 1539.8,1302.9 1549.2,1312.3 1557.3,1317.4 
			1557.3,1317.4 1558.4,1318.5 1565.1,1315.7 1567.8,1314.6 		"/>
		
			<linearGradient id="SVGID_4_" gradientUnits="userSpaceOnUse" x1="1593.941" y1="-412.6245" x2="1678.0846" y2="-467.0549" gradientTransform="matrix(1 0 0 -1 0 903.9999)">
			<stop  offset="0" style="stop-color:#FDD8CD"/>
			<stop  offset="1" style="stop-color:#E9B8AD"/>
		</linearGradient>
		<polygon class="st8" points="1684.6,1348 1670.3,1338 1658.3,1329.4 1659,1334.8 1653.1,1329.4 1646.3,1324.8 1644.2,1325 
			1639.2,1322.6 1632.2,1315.5 1627.3,1310.6 1617.4,1303.6 1613.7,1301.1 1601.6,1291.1 1600.2,1302 1602.4,1309.8 1587.1,1297.1 
			1584,1304.4 1585.8,1307.4 1599.2,1319.7 1588,1313.4 1576.9,1310 1579.9,1317.8 1586.3,1322.4 1600.1,1334.9 1596.3,1334.4 
			1600.4,1339 1582.9,1332.9 1579.8,1333 1566.2,1324.1 1566.9,1329.6 1582.6,1339.7 1588.4,1340.6 1625.8,1350.7 1617,1344.5 
			1638.6,1353.7 1651.1,1354.7 1655,1355 1625.1,1330 1662.5,1353.4 1676.7,1358.8 1680.5,1360.6 1691.2,1352.3 		"/>
		
			<linearGradient id="SVGID_5_" gradientUnits="userSpaceOnUse" x1="1710.662" y1="-455.781" x2="1773.262" y2="-455.781" gradientTransform="matrix(1 0 0 -1 0 903.9999)">
			<stop  offset="0" style="stop-color:#FDD8CD"/>
			<stop  offset="1" style="stop-color:#BF8980"/>
		</linearGradient>
		<polygon class="st9" points="1722.6,1366.2 1711.8,1357.8 1722.9,1364 1721.5,1361.8 1726,1364.2 1713.2,1350.1 1710.7,1345.4 
			1713.2,1346.8 1711.3,1342.2 1731.6,1355.1 1773.3,1377.4 1749.2,1369.6 1737,1362.9 1745.1,1370 1737.7,1368.1 1732.9,1371.1 		
			"/>
	</g>
</g>
<g id="mountain_-_foreground_1_">
	
		<linearGradient id="SVGID_6_" gradientUnits="userSpaceOnUse" x1="1255.3262" y1="-455.431" x2="1624.562" y2="-455.431" gradientTransform="matrix(1 0 0 -1 0 903.9999)">
		<stop  offset="0" style="stop-color:#3B4952"/>
		<stop  offset="0.6358" style="stop-color:#3F515E"/>
		<stop  offset="0.9998" style="stop-color:#4E6271"/>
	</linearGradient>
	<polygon class="st10" points="1624.6,1396 1572.3,1369.5 1552,1357.6 1536.3,1348.3 1530.9,1345.1 1520.3,1336.8 1507.1,1326.3 
		1503.2,1326.2 1497.8,1322.9 1485.3,1331.1 1483.4,1329.7 1463.3,1341.2 1460.2,1341.2 1454.2,1344 1454.2,1346.6 1449.5,1348.7 
		1441,1353.9 1434.4,1357.3 1426.9,1361 1425.4,1361.8 1417.2,1363.7 1405.6,1358.2 1397.2,1352.6 1388.7,1345.8 1384.4,1344.4 
		1380,1343 1367.2,1335.9 1358.6,1341.6 1347.6,1345.3 1342.1,1355 1323.1,1359.8 1260.2,1394.3 1255.3,1396 1278.1,1396 	"/>
	
		<linearGradient id="SVGID_7_" gradientUnits="userSpaceOnUse" x1="1504.9153" y1="-430.0294" x2="1555.9408" y2="-470.3896" gradientTransform="matrix(1 0 0 -1 0 903.9999)">
		<stop  offset="2.882479e-02" style="stop-color:#FDD8CD"/>
		<stop  offset="0.4645" style="stop-color:#D9A499"/>
		<stop  offset="1" style="stop-color:#BF8980"/>
	</linearGradient>
	<polygon class="st11" points="1575.8,1371.6 1545.9,1354.3 1530.8,1344.2 1521.4,1337.6 1507.1,1326.3 1512.7,1336.6 1505.7,1333 
		1506.5,1334.5 1506.3,1335.9 1508.3,1337.7 1513.1,1343.1 1524.9,1351.2 1525.9,1354.4 1509.9,1343.1 1504.9,1340.3 1492.9,1332.4 
		1494.1,1335.1 1483.4,1329.7 1484.6,1332.4 1487.5,1334.9 1488.5,1337.3 1488.6,1339.6 1519.4,1358.1 1524.4,1359.8 1516.5,1353.1 
		1530.1,1360.1 1541.2,1363.1 1554.7,1366.4 1546.8,1360 1560.3,1367.7 	"/>
</g>
<path id="land-right3_1_" class="st12" d="M2256.9,1375.9h-36.8l-54.4-1.1h-9.3l-20.4-1.1l-31.5-3.4l-22.3,4.5l-18.7-3.5l-19.5,4.1
	l-29.7-12l-35.1,7l-47.1,8.3l-49.8-2.3l-26.1,3l-11.8,7l-12-6.2l-51.7,3.9l-47.3-3.9l-44.5,8.9l-73.2-4.4l-45.8,10.5l-17,3.3
	l12.5,3.9h2.5l15.2,5.4l51.1-0.1l17.7,11.6l148.4-2.7l340.6-7.6c0,0,124.8,5,124.8-23.7L2256.9,1375.9z"/>
<linearGradient id="SVGID_8_" gradientUnits="userSpaceOnUse" x1="2161.572" y1="1146.5634" x2="1926.8579" y2="1456.5867">
	<stop  offset="0" style="stop-color:#F4B49C"/>
	<stop  offset="0.3648" style="stop-color:#5A576C"/>
	<stop  offset="0.9951" style="stop-color:#3D4E59"/>
</linearGradient>
<polygon class="st13" points="2406.9,1395 2406.9,1350.3 2394.9,1353.6 2365.2,1349.6 2330.1,1348.6 2283,1356.9 2233.2,1354.6 
	2207.1,1357.6 2155,1351.6 2099.8,1363.9 2042.9,1368.1 1991.4,1366 1956.1,1378 1906.2,1380.1 1883.7,1386.4 1842.8,1390.8 
	1791.4,1393.9 1761,1400.2 1738,1393.8 1715.5,1400.2 1696.5,1397.8 1674,1400.2 1667.9,1407.7 1623.7,1411.6 1606.5,1417.2 
	1587,1423.1 1581.7,1424.9 1511.5,1432.7 1543.3,1434.6 1735.9,1433 1764.3,1438.3 1912.8,1438.3 2211.1,1434.7 2211.1,1408.4 "/>
<polygon class="st14" points="2092.4,1351.6 1545.2,1351.6 1539.8,1355.8 1545.2,1360 1692.3,1360 1690.5,1363.7 1690.5,1363.7 
	1698,1369.6 2080.5,1369.6 2097.9,1355.8 "/>
<path class="st14" d="M1557.9,1340.6l6.6-5.1h749c3.6,0,6.6,2.3,6.6,5.1l0,0c0,2.8-3,5.1-6.6,5.1h-749L1557.9,1340.6z"/>
<polygon class="st15" points="1340.2,1339.7 674.2,1339.7 668.1,1335.4 668.1,1335.4 674.2,1331.2 1340.2,1331.2 1346.4,1335.4 
	1346.4,1335.4 "/>
<path class="st14" d="M330.5,1355.3h886.3l7.8-5.5l0,0l-7.8-5.5H330.5c-4.3,0-7.8,2.5-7.8,5.5l0,0
	C322.6,1352.9,326.2,1355.3,330.5,1355.3z"/>
<polygon class="st14" points="818,1364 1185.4,1364 1191.8,1359.4 1191.8,1359.4 1185.4,1354.9 818,1354.9 811.6,1359.4 
	811.6,1359.4 "/>
<polygon class="st15" points="1184.8,1291.9 1021,1291.9 1021.4,1293.9 1021.4,1293.9 1013,1299.8 619.2,1299.8 602.4,1288 
	608,1284 1184.8,1284 1190.5,1288 "/>
<polygon class="st15" points="144.8,1328.6 656.8,1328.6 662.3,1324.6 662.3,1324.6 656.8,1320.7 144.8,1320.7 139.1,1324.6 
	139.1,1324.6 "/>
<polygon class="st16" points="1760,1366.1 2071.5,1366.1 2075.1,1363.3 2075.1,1363.3 2071.5,1360.6 1760,1360.6 1756.3,1363.3 
	1756.3,1363.3 "/>
<polygon class="st17" points="1114.8,1318.1 1413.7,1318.1 1422.1,1312.2 1422.1,1312.2 1413.7,1306.3 1114.8,1306.3 1106.4,1312.2 
	1106.4,1312.2 "/>
<path class="st18" d="M1829.8,1305.2h539.3c3.2,0,5.9-1.7,5.9-3.7l0,0c0-2-2.7-3.7-5.9-3.7h-539.3l-5.9,3.7l0,0L1829.8,1305.2z"/>
<polygon class="st19" points="2153,1320.8 1681.1,1320.8 1677.3,1318.5 1677.3,1318.5 1681.1,1316.1 2153,1316.1 2156.8,1318.5 
	2156.8,1318.5 "/>
<g id="stars_1_">
	
		<rect x="390" y="991.5" transform="matrix(-0.7071 -0.7071 0.7071 -0.7071 -33.5275 1972.4662)" class="st20" width="3.4" height="3.4"/>
	
		<rect x="579" y="1124.8" transform="matrix(-0.7071 -0.7071 0.7071 -0.7071 195.5164 2335.3787)" class="st20" width="4.8" height="4.8"/>
	
		<rect x="800.7" y="1037.9" transform="matrix(-0.7071 -0.7071 0.7071 -0.7071 635.3911 2343.8857)" class="st20" width="4.8" height="4.8"/>
	
		<rect x="444.8" y="1093.7" transform="matrix(-0.7071 -0.7071 0.7071 -0.7071 -11.5921 2187.3904)" class="st20" width="4.8" height="4.8"/>
	
		<rect x="944.5" y="981" transform="matrix(-0.7071 -0.7071 0.7071 -0.7071 920.7762 2347.2991)" class="st20" width="4" height="4"/>
	
		<rect x="1208.5" y="1067.5" transform="matrix(-0.7071 -0.7071 0.7071 -0.7071 1309.5629 2680.2935)" class="st20" width="2.8" height="2.8"/>
	
		<rect x="1093.4" y="1015" transform="matrix(-0.7071 -0.7071 0.7071 -0.7071 1151.2428 2511.5771)" class="st21" width="4.8" height="4.8"/>
	
		<rect x="1211" y="1121.6" transform="matrix(-0.7071 -0.7071 0.7071 -0.7071 1276.546 2776.8276)" class="st20" width="4.8" height="4.8"/>
	
		<rect x="389.3" y="1121.1" transform="matrix(-0.7071 -0.7071 0.7071 -0.7071 -125.7342 2194.8284)" class="st20" width="4.8" height="4.8"/>
	
		<rect x="400.9" y="1173.6" transform="matrix(-0.7071 -0.7071 0.7071 -0.7071 -143.0943 2292.7815)" class="st20" width="4.8" height="4.8"/>
	
		<rect x="1200.2" y="1213.3" transform="matrix(-0.7071 -0.7071 0.7071 -0.7071 1193.3364 2925.7402)" class="st20" width="4.8" height="4.8"/>
	
		<rect x="1096.9" y="1147.3" transform="matrix(-0.7071 -0.7071 0.7071 -0.7071 1063.6414 2739.928)" class="st20" width="4.8" height="4.8"/>
	
		<rect x="1272.2" y="1041.4" transform="matrix(-0.7071 -0.7071 0.7071 -0.7071 1437.8064 2683.1111)" class="st20" width="4.8" height="4.8"/>
	
		<rect x="780.7" y="1154.1" transform="matrix(-0.7071 -0.7071 0.7071 -0.7071 519.0571 2528.0852)" class="st21" width="4.8" height="4.8"/>
	
		<rect x="873" y="1004.6" transform="matrix(-0.7071 -0.7071 0.7071 -0.7071 782.4106 2338.0059)" class="st20" width="4.8" height="4.8"/>
	
		<rect x="1135" y="1100.5" transform="matrix(-0.7071 -0.7071 0.7071 -0.7071 1161.823 2687.0903)" class="st20" width="4.8" height="4.8"/>
	
		<rect x="981.3" y="1043.2" transform="matrix(-0.7071 -0.7071 0.7071 -0.7071 939.9282 2480.5105)" class="st20" width="4.8" height="4.8"/>
	
		<rect x="744.6" y="1199.5" transform="matrix(-0.7071 -0.7071 0.7071 -0.7071 425.3123 2580.0542)" class="st20" width="4.8" height="4.8"/>
	
		<rect x="1076.2" y="1113.7" transform="matrix(-0.7071 -0.7071 0.7071 -0.7071 1052.1068 2668.0605)" class="st20" width="4.8" height="4.8"/>
	
		<rect x="828.4" y="977.2" transform="matrix(-0.7071 -0.7071 0.7071 -0.7071 725.5493 2259.7546)" class="st20" width="4.8" height="4.8"/>
	
		<rect x="691.5" y="1052.9" transform="matrix(-0.7071 -0.7071 0.7071 -0.7071 438.3811 2292.1548)" class="st20" width="4.8" height="4.8"/>
	
		<rect x="472.4" y="1042.7" transform="matrix(-0.7071 -0.7071 0.7071 -0.7071 71.5926 2119.9336)" class="st20" width="4.8" height="4.8"/>
	
		<rect x="949.5" y="1006.7" transform="matrix(-0.7071 -0.7071 0.7071 -0.7071 911.4939 2395.679)" class="st21" width="4.8" height="4.8"/>
	
		<rect x="1388.8" y="1086.9" transform="matrix(-0.7071 -0.7071 0.7071 -0.7071 1604.7366 2843.2466)" class="st20" width="4.8" height="4.8"/>
	
		<rect x="1011.4" y="1170.3" transform="matrix(-0.7071 -0.7071 0.7071 -0.7071 901.4366 2718.7639)" class="st20" width="4.8" height="4.8"/>
	
		<rect x="1064.8" y="999.1" transform="matrix(-0.7071 -0.7071 0.7071 -0.7071 1113.6774 2464.3767)" class="st20" width="4.8" height="4.8"/>
	
		<rect x="945.3" y="1144.8" transform="matrix(-0.7071 -0.7071 0.7071 -0.7071 806.6818 2628.5312)" class="st21" width="4.8" height="4.8"/>
	
		<rect x="897.1" y="1053.9" transform="matrix(-0.7071 -0.7071 0.7071 -0.7071 788.6101 2439.1721)" class="st21" width="4.8" height="4.8"/>
	
		<rect x="1165.5" y="1015.8" transform="matrix(-0.7071 -0.7071 0.7071 -0.7071 1272.839 2561.543)" class="st20" width="2.8" height="2.8"/>
	
		<rect x="535.8" y="1170.2" transform="matrix(-0.7071 -0.7071 0.7071 -0.7071 89.6354 2382.3762)" class="st20" width="4.8" height="4.8"/>
	
		<rect x="651.4" y="1117.6" transform="matrix(-0.7071 -0.7071 0.7071 -0.7071 324.1573 2374.3464)" class="st20" width="4.8" height="4.8"/>
	
		<rect x="585.3" y="1092.2" transform="matrix(-0.7071 -0.7071 0.7071 -0.7071 229.2318 2284.1846)" class="st20" width="4.8" height="4.8"/>
	
		<rect x="951.9" y="1157.9" transform="matrix(-0.7071 -0.7071 0.7071 -0.7071 808.6103 2655.5007)" class="st20" width="4.8" height="4.8"/>
	
		<rect x="446.7" y="1203" transform="matrix(-0.7071 -0.7071 0.7071 -0.7071 -85.7026 2375.2314)" class="st20" width="4.8" height="4.8"/>
	
		<rect x="1008" y="1030.2" transform="matrix(-0.7071 -0.7071 0.7071 -0.7071 994.6839 2477.1328)" class="st20" width="4.8" height="4.8"/>
	
		<rect x="277.3" y="1204.7" transform="matrix(-0.7071 -0.7071 0.7071 -0.7071 -376.0937 2258.51)" class="st20" width="4.8" height="4.8"/>
	
		<rect x="965.6" y="1027.6" transform="matrix(-0.7071 -0.7071 0.7071 -0.7071 923.3865 2440.717)" class="st20" width="3.1" height="3.1"/>
	
		<rect x="780.9" y="1132.6" transform="matrix(-0.7071 -0.7071 0.7071 -0.7071 533.864 2489.3574)" class="st20" width="3.1" height="3.1"/>
	
		<rect x="759.3" y="997.8" transform="matrix(-0.7071 -0.7071 0.7071 -0.7071 592.1442 2243.9128)" class="st20" width="3.1" height="3.1"/>
	
		<rect x="832.6" y="1188.1" transform="matrix(-0.7071 -0.7071 0.7071 -0.7071 582.8243 2620.7307)" class="st20" width="3.1" height="3.1"/>
	
		<rect x="261.1" y="1065.1" transform="matrix(-0.7071 -0.7071 0.7071 -0.7071 -305.8287 2006.6749)" class="st20" width="3.1" height="3.1"/>
	
		<rect x="818.8" y="1101.4" transform="matrix(-0.1174 -0.9931 0.9931 -0.1174 -178.6401 2047.1742)" class="st20" width="3.1" height="3.1"/>
	
		<rect x="542.7" y="1020.4" transform="matrix(-0.7071 -0.7071 0.7071 -0.7071 206.5173 2129.4836)" class="st20" width="3.1" height="3.1"/>
	
		<rect x="452.4" y="1003.8" transform="matrix(-0.7071 -0.7071 0.7071 -0.7071 63.989 2037.1443)" class="st20" width="3.1" height="3.1"/>
	
		<rect x="797.9" y="1087.1" transform="matrix(-0.7071 -0.7071 0.7071 -0.7071 595.1404 2424.0225)" class="st21" width="3.4" height="3.4"/>
	
		<rect x="504" y="989.1" transform="matrix(-0.7071 -0.7071 0.7071 -0.7071 162.7532 2048.9856)" class="st20" width="3.4" height="3.4"/>
	
		<rect x="682.4" y="1157.5" transform="matrix(-0.7071 -0.7071 0.7071 -0.7071 348.8429 2464.3345)" class="st20" width="4.8" height="4.8"/>
	
		<rect x="898.8" y="1113.9" transform="matrix(-0.7071 -0.7071 0.7071 -0.7071 748.5029 2541.1433)" class="st20" width="3.4" height="3.4"/>
	
		<rect x="1017.2" y="1051" transform="matrix(-0.7071 -0.7071 0.7071 -0.7071 995.6917 2519.2666)" class="st21" width="4.8" height="4.8"/>
	
		<rect x="831.5" y="1093.8" transform="matrix(-0.7071 -0.7071 0.7071 -0.7071 647.7094 2459.3843)" class="st21" width="3.4" height="3.4"/>
	
		<rect x="642.6" y="993.2" transform="matrix(-0.7071 -0.7071 0.7071 -0.7071 396.4007 2154.0024)" class="st20" width="3.4" height="3.4"/>
	
		<rect x="1251.3" y="1131.7" transform="matrix(-0.7071 -0.7071 0.7071 -0.7071 1338.2791 2822.5796)" class="st20" width="4.8" height="4.8"/>
	
		<rect x="867" y="1058" transform="matrix(-0.7071 -0.7071 0.7071 -0.7071 733.6092 2423.3438)" class="st21" width="3.4" height="3.4"/>
	
		<rect x="1034.8" y="1105" transform="matrix(-0.7071 -0.7071 0.7071 -0.7071 987.5665 2623.7832)" class="st21" width="4.8" height="4.8"/>
	
		<rect x="1106.4" y="1046.4" transform="matrix(-0.7071 -0.7071 0.7071 -0.7071 1150.7771 2573.3704)" class="st20" width="4" height="4"/>
	
		<rect x="1079.6" y="1206.3" transform="matrix(-0.7071 -0.7071 0.7071 -0.7071 992.5015 2828.4182)" class="st20" width="4.8" height="4.8"/>
	
		<rect x="297.8" y="1156.4" transform="matrix(-0.7071 -0.7071 0.7071 -0.7071 -306.8724 2190.5774)" class="st20" width="4.8" height="4.8"/>
	
		<rect x="847.7" y="1035.2" transform="matrix(-0.7071 -0.7071 0.7071 -0.7071 716.7355 2370.7273)" class="st20" width="3.4" height="3.4"/>
	
		<rect x="949.7" y="1177.6" transform="matrix(-0.7071 -0.7071 0.7071 -0.7071 790.1495 2685.9639)" class="st20" width="3.4" height="3.4"/>
	
		<rect x="920.9" y="1059.5" transform="matrix(-0.7071 -0.7071 0.7071 -0.7071 824.5038 2463.9585)" class="st20" width="3.4" height="3.4"/>
	
		<rect x="806.9" y="979.1" transform="matrix(-0.7071 -0.7071 0.7071 -0.7071 687.4849 2247.844)" class="st20" width="4.8" height="4.8"/>
	
		<rect x="1372.4" y="1161.2" transform="matrix(-0.7071 -0.7071 0.7071 -0.7071 1524.053 2958.5747)" class="st20" width="4.8" height="4.8"/>
	
		<rect x="1366.9" y="993.2" transform="matrix(-0.7071 -0.7071 0.7071 -0.7071 1633.4869 2667.8818)" class="st20" width="4.8" height="4.8"/>
	
		<rect x="776.1" y="1060.4" transform="matrix(-0.7071 -0.7071 0.7071 -0.7071 576.7711 2363.1707)" class="st20" width="3.4" height="3.4"/>
	
		<rect x="1192" y="1067.1" transform="matrix(-0.7071 -0.7071 0.7071 -0.7071 1281.6571 2667.9402)" class="st20" width="2.8" height="2.8"/>
	
		<rect x="611.9" y="1057.4" transform="matrix(-0.7071 -0.7071 0.7071 -0.7071 299.2921 2243.4907)" class="st20" width="4.8" height="4.8"/>
	
		<rect x="720.9" y="1099.2" transform="matrix(-0.7071 -0.7071 0.7071 -0.7071 455.0448 2389.9319)" class="st20" width="3.1" height="3.1"/>
	
		<rect x="499.5" y="1003.8" transform="matrix(-0.7071 -0.7071 0.7071 -0.7071 144.5537 2070.5293)" class="st20" width="3.1" height="3.1"/>
	
		<rect x="441.5" y="1052.4" transform="matrix(-0.7071 -0.7071 0.7071 -0.7071 11.1311 2112.5256)" class="st20" width="3.1" height="3.1"/>
	
		<rect x="1548.5" y="1094.6" transform="matrix(0.9282 0.3721 -0.3721 0.9282 519.1624 -498.0557)" class="st20" width="3.1" height="3.1"/>
	
		<rect x="1621.4" y="1209.9" transform="matrix(0.9282 0.3721 -0.3721 0.9282 567.3286 -516.9047)" class="st20" width="3.1" height="3.1"/>
	
		<rect x="1479" y="1063.8" transform="matrix(0.9282 0.3721 -0.3721 0.9282 502.7242 -474.4207)" class="st20" width="3.1" height="3.1"/>
	
		<rect x="1525.9" y="1138.1" transform="matrix(0.4985 0.8669 -0.8669 0.4985 1753.9431 -752.5569)" class="st20" width="3.1" height="3.1"/>
	
		<rect x="1811.5" y="1104" transform="matrix(0.9282 0.3721 -0.3721 0.9282 541.5744 -595.2365)" class="st20" width="3.1" height="3.1"/>
	
		<rect x="1901.2" y="1083.8" transform="matrix(0.9282 0.3721 -0.3721 0.9282 540.4705 -630.0898)" class="st20" width="3.1" height="3.1"/>
	
		<rect x="1859.2" y="1117.4" transform="matrix(0.9282 0.3721 -0.3721 0.9282 550.0345 -612.0716)" class="st20" width="3.4" height="3.4"/>
	
		<rect x="1447.1" y="1157.9" transform="matrix(0.9282 0.3721 -0.3721 0.9282 535.5287 -455.814)" class="st20" width="3.4" height="3.4"/>
	
		<rect x="1730" y="1168.1" transform="matrix(0.9282 0.3721 -0.3721 0.9282 559.6147 -560.3786)" class="st20" width="3.4" height="3.4"/>
	
		<rect x="1792.2" y="1166.9" transform="matrix(0.9282 0.3721 -0.3721 0.9282 563.6573 -583.5898)" class="st20" width="3.4" height="3.4"/>
	
		<rect x="1525" y="1210" transform="matrix(0.9282 0.3721 -0.3721 0.9282 560.4949 -481.0606)" class="st20" width="3.4" height="3.4"/>
	
		<rect x="1448.1" y="1216.5" transform="matrix(0.9282 0.3721 -0.3721 0.9282 557.4022 -452.0036)" class="st20" width="3.4" height="3.4"/>
	
		<rect x="1580.9" y="1158.8" transform="matrix(0.9282 0.3721 -0.3721 0.9282 545.4707 -505.5511)" class="st20" width="3.4" height="3.4"/>
	
		<rect x="1616.8" y="1101.7" transform="matrix(0.9282 0.3721 -0.3721 0.9282 526.7166 -522.9659)" class="st20" width="3.1" height="3.1"/>
	
		<rect x="1857.8" y="1102.4" transform="matrix(0.9282 0.3721 -0.3721 0.9282 544.2801 -612.6051)" class="st20" width="3.1" height="3.1"/>
	
		<rect x="1892" y="1034.9" transform="matrix(0.9282 0.3721 -0.3721 0.9282 521.6155 -630.1611)" class="st20" width="3.1" height="3.1"/>
	
		<rect x="1788.6" y="985" transform="matrix(0.9917 0.1285 -0.1285 0.9917 141.7349 -221.9639)" class="st20" width="4.8" height="4.8"/>
	
		<rect x="1427.4" y="1022.5" transform="matrix(0.9917 0.1285 -0.1285 0.9917 143.5597 -175.24)" class="st20" width="4.8" height="4.8"/>
	
		<rect x="1318.2" y="1058.1" transform="matrix(0.9917 0.1285 -0.1285 0.9917 147.2189 -160.9011)" class="st20" width="4.8" height="4.8"/>
	
		<rect x="1611.8" y="1026.9" transform="matrix(0.9917 0.1285 -0.1285 0.9917 145.6546 -198.8887)" class="st20" width="4.8" height="4.8"/>
	
		<rect x="1479.4" y="1017.1" transform="matrix(0.9917 0.1285 -0.1285 0.9917 143.292 -181.9661)" class="st20" width="4.8" height="4.8"/>
	
		<rect x="1803.4" y="1014.7" transform="matrix(0.9917 0.1285 -0.1285 0.9917 145.6753 -223.6183)" class="st20" width="4.8" height="4.8"/>
	
		<rect x="1686.6" y="1022.3" transform="matrix(0.9917 0.1285 -0.1285 0.9917 145.6788 -208.5493)" class="st20" width="4.8" height="4.8"/>
	
		<rect x="1495.3" y="1002.4" transform="matrix(0.9917 0.1285 -0.1285 0.9917 141.5318 -184.1292)" class="st20" width="4.8" height="4.8"/>
	
		<rect x="1803.7" y="1058.6" transform="matrix(0.9917 0.1285 -0.1285 0.9917 151.315 -223.2946)" class="st20" width="4.8" height="4.8"/>
	
		<rect x="1723.8" y="1085.1" transform="matrix(-0.7071 -0.7071 0.7071 -0.7071 2177.8975 3077.0698)" class="st20" width="4.8" height="4.8"/>
	
		<rect x="1668.3" y="1112.4" transform="matrix(-0.7071 -0.7071 0.7071 -0.7071 2063.7554 3084.5078)" class="st20" width="4.8" height="4.8"/>
	
		<rect x="1821.6" y="1196.1" transform="matrix(-0.7071 -0.7071 0.7071 -0.7071 2266.2896 3335.8101)" class="st20" width="4.8" height="4.8"/>
	
		<rect x="1839.7" y="1037.9" transform="matrix(-0.7071 -0.7071 0.7071 -0.7071 2409.0754 3078.5454)" class="st20" width="4.8" height="4.8"/>
	
		<rect x="1638" y="1006.7" transform="matrix(-0.7071 -0.7071 0.7071 -0.7071 2085.9939 2880.468)" class="st20" width="3.1" height="3.1"/>
	
		<rect x="90.1" y="1067.7" transform="matrix(-0.7071 -0.7071 0.7071 -0.7071 -599.8492 1889.7692)" class="st20" width="2.8" height="2.8"/>
	
		<rect x="92.5" y="1121.8" transform="matrix(-0.7071 -0.7071 0.7071 -0.7071 -632.866 1986.3033)" class="st20" width="4.8" height="4.8"/>
	
		<rect x="81.8" y="1213.5" transform="matrix(-0.7071 -0.7071 0.7071 -0.7071 -716.0757 2135.2158)" class="st20" width="4.8" height="4.8"/>
	
		<rect x="-21.6" y="1147.5" transform="matrix(-0.7071 -0.7071 0.7071 -0.7071 -845.7706 1949.4038)" class="st20" width="4.8" height="4.8"/>
	
		<rect x="16.6" y="1100.7" transform="matrix(-0.7071 -0.7071 0.7071 -0.7071 -747.589 1896.566)" class="st20" width="4.8" height="4.8"/>
	
		<rect x="-137.1" y="1043.4" transform="matrix(-0.7071 -0.7071 0.7071 -0.7071 -969.4838 1689.9862)" class="st20" width="4.8" height="4.8"/>
	
		<rect x="-42.2" y="1113.9" transform="matrix(-0.7071 -0.7071 0.7071 -0.7071 -857.3052 1877.5364)" class="st20" width="4.8" height="4.8"/>
	
		<rect x="-107" y="1170.5" transform="matrix(-0.7071 -0.7071 0.7071 -0.7071 -1007.9755 1928.2397)" class="st20" width="4.8" height="4.8"/>
	
		<rect x="-53.6" y="999.3" transform="matrix(-0.7071 -0.7071 0.7071 -0.7071 -795.7347 1673.8524)" class="st20" width="4.8" height="4.8"/>
	
		<rect x="47.1" y="1015.9" transform="matrix(-0.7071 -0.7071 0.7071 -0.7071 -636.5731 1771.0187)" class="st20" width="2.8" height="2.8"/>
	
		<rect x="-110.5" y="1030.4" transform="matrix(-0.7071 -0.7071 0.7071 -0.7071 -914.7281 1686.6086)" class="st20" width="4.8" height="4.8"/>
	
		<rect x="132.9" y="1131.9" transform="matrix(-0.7071 -0.7071 0.7071 -0.7071 -571.1331 2032.0554)" class="st20" width="4.8" height="4.8"/>
	
		<rect x="-12.1" y="1046.5" transform="matrix(-0.7071 -0.7071 0.7071 -0.7071 -758.6349 1782.8462)" class="st20" width="4" height="4"/>
	
		<rect x="-38.8" y="1206.4" transform="matrix(-0.7071 -0.7071 0.7071 -0.7071 -916.9105 2037.894)" class="st20" width="4.8" height="4.8"/>
	
		<rect x="73.5" y="1067.3" transform="matrix(-0.7071 -0.7071 0.7071 -0.7071 -627.7549 1877.416)" class="st20" width="2.8" height="2.8"/>
	
		<rect x="125" y="1018.4" transform="matrix(-0.7071 -0.7071 0.7071 -0.7071 -504.3233 1832.7991)" class="st20" width="4.8" height="4.8"/>
	
		<rect x="278.5" y="995.3" transform="matrix(0.4985 0.8669 -0.8669 0.4985 1004.6047 257.1423)" class="st20" width="3.1" height="3.1"/>
	
		<rect x="199.7" y="1015.1" transform="matrix(0.9282 0.3721 -0.3721 0.9282 392.827 -1.9343)" class="st20" width="3.4" height="3.4"/>
	
		<rect x="277.6" y="1067.2" transform="matrix(0.9282 0.3721 -0.3721 0.9282 417.7932 -27.1808)" class="st20" width="3.4" height="3.4"/>
	
		<rect x="200.8" y="1073.7" transform="matrix(0.9282 0.3721 -0.3721 0.9282 414.7005 1.8761)" class="st20" width="3.4" height="3.4"/>
	
		<rect x="333.6" y="1016" transform="matrix(0.9282 0.3721 -0.3721 0.9282 402.769 -51.6713)" class="st20" width="3.4" height="3.4"/>
	
		<rect x="224.8" y="1217.1" transform="matrix(-0.7071 -0.7071 0.7071 -0.7071 -474.4745 2242.4519)" class="st20" width="4.8" height="4.8"/>
	
		<rect x="261.1" y="1150.1" transform="matrix(-0.7071 -0.7071 0.7071 -0.7071 -365.9228 2151.7549)" class="st20" width="3.1" height="3.1"/>
	
		<rect x="162.6" y="1175.1" transform="matrix(-0.7071 -0.7071 0.7071 -0.7071 -550.9438 2126.7319)" class="st20" width="4.8" height="4.8"/>
	
		<rect x="201.1" y="1116.7" transform="matrix(-0.7071 -0.7071 0.7071 -0.7071 -444.742 2052.3296)" class="st20" width="3.1" height="3.1"/>
	
		<rect x="1956.5" y="1107.9" transform="matrix(-0.7071 -0.7071 0.7071 -0.7071 2558.9282 3280.5811)" class="st20" width="4.8" height="4.8"/>
	
		<rect x="2178.2" y="1021.1" transform="matrix(-0.7071 -0.7071 0.7071 -0.7071 2998.803 3289.0881)" class="st20" width="4.8" height="4.8"/>
	
		<rect x="2250.5" y="987.7" transform="matrix(-0.7071 -0.7071 0.7071 -0.7071 3145.8225 3283.2083)" class="st20" width="4.8" height="4.8"/>
	
		<rect x="2358.8" y="1026.3" transform="matrix(-0.7071 -0.7071 0.7071 -0.7071 3303.3401 3425.7129)" class="st20" width="4.8" height="4.8"/>
	
		<rect x="2122.1" y="1182.7" transform="matrix(-0.7071 -0.7071 0.7071 -0.7071 2788.7241 3525.2566)" class="st20" width="4.8" height="4.8"/>
	
		<rect x="2069" y="1036" transform="matrix(-0.7071 -0.7071 0.7071 -0.7071 2801.793 3237.3572)" class="st20" width="4.8" height="4.8"/>
	
		<rect x="2028.9" y="1100.8" transform="matrix(-0.7071 -0.7071 0.7071 -0.7071 2687.5691 3319.5488)" class="st20" width="4.8" height="4.8"/>
	
		<rect x="1962.7" y="1075.3" transform="matrix(-0.7071 -0.7071 0.7071 -0.7071 2592.6438 3229.387)" class="st20" width="4.8" height="4.8"/>
	
		<rect x="2329.3" y="1141" transform="matrix(-0.7071 -0.7071 0.7071 -0.7071 3172.0222 3600.7031)" class="st20" width="4.8" height="4.8"/>
	
		<rect x="2343.1" y="1010.7" transform="matrix(-0.7071 -0.7071 0.7071 -0.7071 3286.7983 3385.9194)" class="st20" width="3.1" height="3.1"/>
	
		<rect x="2158.4" y="1115.7" transform="matrix(-0.7071 -0.7071 0.7071 -0.7071 2897.2759 3434.5598)" class="st20" width="3.1" height="3.1"/>
	
		<rect x="2136.7" y="980.9" transform="matrix(-0.7071 -0.7071 0.7071 -0.7071 2955.5562 3189.1152)" class="st20" width="3.1" height="3.1"/>
	
		<rect x="2210.1" y="1171.2" transform="matrix(-0.7071 -0.7071 0.7071 -0.7071 2946.2363 3565.9331)" class="st20" width="3.1" height="3.1"/>
	
		<rect x="2196.3" y="1084.5" transform="matrix(-0.1174 -0.9931 0.9931 -0.1174 1377.2961 3396.2539)" class="st20" width="3.1" height="3.1"/>
	
		<rect x="2059.9" y="1140.6" transform="matrix(-0.7071 -0.7071 0.7071 -0.7071 2712.2549 3409.5366)" class="st20" width="4.8" height="4.8"/>
	
		<rect x="2276.3" y="1097" transform="matrix(-0.7071 -0.7071 0.7071 -0.7071 3111.9148 3486.3455)" class="st20" width="3.4" height="3.4"/>
	
		<rect x="2020.1" y="976.3" transform="matrix(-0.7071 -0.7071 0.7071 -0.7071 2759.8125 3099.2046)" class="st20" width="3.4" height="3.4"/>
	
		<rect x="2225.1" y="1018.3" transform="matrix(-0.7071 -0.7071 0.7071 -0.7071 3080.1475 3315.9297)" class="st20" width="3.4" height="3.4"/>
	
		<rect x="2327.1" y="1160.8" transform="matrix(-0.7071 -0.7071 0.7071 -0.7071 3153.5613 3631.166)" class="st20" width="3.4" height="3.4"/>
	
		<rect x="2298.3" y="1042.6" transform="matrix(-0.7071 -0.7071 0.7071 -0.7071 3187.9158 3409.1609)" class="st20" width="3.4" height="3.4"/>
	
		<rect x="2153.6" y="1043.6" transform="matrix(-0.7071 -0.7071 0.7071 -0.7071 2940.1829 3308.3728)" class="st20" width="3.4" height="3.4"/>
	
		<rect x="1989.4" y="1040.5" transform="matrix(-0.7071 -0.7071 0.7071 -0.7071 2662.7039 3188.6929)" class="st20" width="4.8" height="4.8"/>
	
		<rect x="2098.4" y="1082.3" transform="matrix(-0.7071 -0.7071 0.7071 -0.7071 2818.4565 3335.1343)" class="st20" width="3.1" height="3.1"/>
</g>
<path id="moon_1_" class="st22" d="M1689.7,1152.8c1.5,1.7,2.4,3.9,2.4,6.3c0,5.3-4.3,9.6-9.6,9.6c-1.7,0-3.3-0.4-4.6-1.2
	c1.8,2,4.4,3.3,7.3,3.3c5.3,0,9.6-4.3,9.6-9.6C1694.7,1157.7,1692.7,1154.5,1689.7,1152.8z"/>
<linearGradient id="SVGID_9_" gradientUnits="userSpaceOnUse" x1="-116.553" y1="1394.5831" x2="1168.248" y2="1346.5746">
	<stop  offset="0" style="stop-color:#404F58"/>
	<stop  offset="0.3424" style="stop-color:#41535D"/>
	<stop  offset="0.8823" style="stop-color:#445E6D"/>
	<stop  offset="1" style="stop-color:#456171"/>
</linearGradient>
<polygon class="st23" points="1219.3,1409 1218.8,1408.7 1211.2,1407.6 1201.6,1402.8 1199.3,1402 1210.6,1401.3 1215.2,1399 
	1225.1,1399.7 1252.5,1394 1234,1394.1 1225.5,1394.1 1205.8,1392.4 1199.8,1393.2 1193.4,1392.4 1174,1393.7 1149.1,1389.2 
	1123.6,1389.8 1114.3,1392 1096.1,1390.2 1089,1387.5 1071.2,1389.3 1055.9,1389.5 1041.4,1386.9 1017.2,1386.9 994.7,1386.9 
	982.3,1381.6 951,1381.6 910.3,1381.6 896.2,1374.5 846.7,1382.2 808.5,1375 702.8,1377.7 643.2,1362.7 600.8,1365.2 539.6,1360.2 
	535.7,1358.5 504.3,1358.5 463.6,1358.5 449.6,1351.4 400.1,1359.1 361.9,1351.9 256.1,1354.6 196.5,1339.6 123.6,1324.6 
	46.8,1331.2 -24.1,1320.7 -81.8,1328.6 -153,1315 -153,1387.7 254.2,1387.7 324.7,1393.4 369.7,1404.3 501.3,1397.9 520.3,1400.7 
	520.3,1410.8 700.8,1410.8 771.3,1416.5 816.3,1427.4 948,1421 1002.4,1429.1 1057.8,1427.4 1106.5,1429.8 1090,1423.5 
	1108.5,1417.2 1111.3,1414.1 1112.8,1414.2 1149.2,1415 1154.2,1414.2 1191,1413.7 1214.4,1413.7 1216.8,1413.7 1219.3,1413.3 
	1230.3,1412.6 1226.5,1411 "/>
<linearGradient id="SVGID_10_" gradientUnits="userSpaceOnUse" x1="765.0405" y1="2069.4834" x2="552.7649" y2="1544.6904">
	<stop  offset="0.1139" style="stop-color:#334D5A"/>
	<stop  offset="1" style="stop-color:#384A56"/>
</linearGradient>
<polygon class="st24" points="1171.7,1435.7 1142.6,1431 1102.8,1428.5 1076,1421.5 1055.1,1419.6 1007.4,1423.7 936.7,1409.2 
	869.1,1416.2 809.6,1407.5 757.8,1409.8 715.8,1405.4 702,1397.6 657.6,1394 621.8,1394 615.3,1397.9 591,1391.5 570,1389.6 
	522.3,1393.7 475.7,1373.5 404,1375.1 341.4,1360.5 289.7,1362.8 254.7,1370.5 216.9,1367.6 115.4,1364 33.7,1355.3 -80.3,1359.5 
	-142,1367.6 -153,1366.6 -153,1451.6 -110,1451.3 185.5,1449.5 281.9,1451 412,1450.5 457.5,1451 494.7,1431.9 531.6,1433.5 
	547.9,1429.4 547.9,1481.6 590.9,1481.3 670.6,1479.5 766.9,1481 897,1480.5 942.6,1481 979.7,1461.9 1016.6,1463.5 1056.4,1453.5 
	1074,1445.2 1107.1,1441.1 1154.3,1441.8 1177.6,1437.8 "/>
<linearGradient id="SVGID_11_" gradientUnits="userSpaceOnUse" x1="2294.9607" y1="1608.5327" x2="357.0782" y2="1502.6819">
	<stop  offset="4.998519e-04" style="stop-color:#303D44"/>
	<stop  offset="0.5639" style="stop-color:#34424A"/>
	<stop  offset="0.9715" style="stop-color:#223239"/>
</linearGradient>
<polygon class="st25" points="997.3,1533.6 1041.1,1530.6 1080.9,1524.2 1119.7,1521.5 1135.5,1522.9 1155,1522.9 1174.7,1513.3 
	1214.7,1511.6 1172.1,1493.7 1137.3,1488.7 1084.4,1469.2 1039.4,1470.3 999.1,1460 933.5,1457.5 870.8,1446.9 797.5,1447.5 
	692.6,1435.2 655.1,1437.7 655.1,1437.6 508.1,1427.4 508.1,1429.5 498.4,1426.7 432.7,1423.9 370.1,1412.2 296.7,1412.8 
	191.9,1399.2 154.4,1402 154.4,1401.8 76.9,1390.5 15.8,1397.7 -60.8,1379.5 -146.3,1379.5 -153,1377.5 -153,1575.1 141.8,1575.1 
	151.1,1575.1 187.5,1575.1 210.6,1575.1 234.8,1575.1 285.5,1575.1 508.1,1575.1 508.1,1575.1 642.5,1575.1 651.8,1575.1 
	688.2,1575.1 711.3,1575.1 735.5,1575.1 786.2,1575.1 1163.2,1575.1 1092.4,1568.9 1032.4,1565.6 973.2,1551.6 944.4,1540.9 
	987.9,1542.9 "/>
<linearGradient id="SVGID_12_" gradientUnits="userSpaceOnUse" x1="847.4498" y1="1102.8562" x2="975.3885" y2="1104.8074" gradientTransform="matrix(0.999 4.384206e-02 -4.384206e-02 0.999 11.0518 -35.7291)">
	<stop  offset="0" style="stop-color:#F2FAFE"/>
	<stop  offset="0.2092" style="stop-color:#F3C187"/>
	<stop  offset="0.4322" style="stop-color:#EB8D80"/>
	<stop  offset="0.4645" style="stop-color:#C77E75"/>
	<stop  offset="0.5125" style="stop-color:#996B66"/>
	<stop  offset="0.5623" style="stop-color:#705A59"/>
	<stop  offset="0.613" style="stop-color:#504C4E"/>
	<stop  offset="0.665" style="stop-color:#364146"/>
	<stop  offset="0.7187" style="stop-color:#243A41"/>
	<stop  offset="0.7754" style="stop-color:#19353D"/>
	<stop  offset="0.8399" style="stop-color:#16343C"/>
</linearGradient>
<path class="st26" d="M817.5,1101.6c-2.4-0.1-4.8-0.2-7.2-0.3l-1.2,0.6l1.1,0.7c5.4,0.2,10.9,0.4,16.5,0.6
	c46.1,2,86.9,5.8,112.1,9.8C915.3,1108.4,869.8,1103.9,817.5,1101.6z"/>
<linearGradient id="SVGID_13_" gradientUnits="userSpaceOnUse" x1="1962.0811" y1="1202.05" x2="1892.2927" y2="1862.35">
	<stop  offset="0" style="stop-color:#F6D59B"/>
	<stop  offset="0.1469" style="stop-color:#BEA39B"/>
	<stop  offset="0.2595" style="stop-color:#676279"/>
	<stop  offset="0.4019" style="stop-color:#3A4C57"/>
	<stop  offset="1" style="stop-color:#3A4850"/>
</linearGradient>
<polygon class="st27" points="2406.9,1366.8 2378.7,1375.9 2351.6,1370.6 2320.8,1380 2250.7,1388.8 2226.1,1392 2211.1,1389.7 
	2211.1,1388.8 2199.4,1387.9 2196.1,1387.4 2195.3,1387.6 2168.1,1385.7 2117.2,1378.2 2094.6,1382.7 2057.6,1392.5 2034.6,1405.2 
	2002.4,1396.6 1977.8,1396.7 1956.7,1396.7 1931.8,1392.5 1886.1,1407.2 1859,1401.9 1828.2,1411.3 1794.8,1415.6 1758.1,1420.1 
	1733.5,1423.3 1703.5,1418.7 1680.8,1424.3 1644.6,1441.9 1608,1451.5 1588.3,1456.1 1564.5,1456.1 1531.8,1462.2 1509,1462.7 
	1479.2,1473.2 1463.6,1473.2 1448.7,1477.3 1557.9,1478.1 1540.7,1482.5 1523.3,1482.5 1508.7,1486 1485.7,1487.8 1508.7,1489.9 
	1536.5,1493.9 1557.9,1493.9 1578.5,1493.9 1593.9,1498.7 1627.4,1504.7 1647,1504.7 1663.8,1504.7 1679.1,1505 1684.3,1505.6 
	1715.5,1508.8 1736.1,1511.3 1736.1,1510.8 1779.5,1515.2 1882.4,1548 1928.6,1575.1 2005.8,1575.1 2086.6,1575.1 2240.2,1575.1 
	2406.9,1575.1 "/>
</svg>
