<?xml version="1.0" encoding="utf-8"?>
<!-- Generator: Adobe Illustrator 17.0.0, SVG Export Plug-In . SVG Version: 6.00 Build 0)  -->
<!DOCTYPE svg PUBLIC "-//W3C//DTD SVG 1.1//EN" "http://www.w3.org/Graphics/SVG/1.1/DTD/svg11.dtd">
<svg version="1.1" id="Layer_1" xmlns="http://www.w3.org/2000/svg" xmlns:xlink="http://www.w3.org/1999/xlink" x="0px" y="0px"
	 width="314px" height="200px" viewBox="0 0 314 200" enable-background="new 0 0 314 200" xml:space="preserve">
<path fill="#DEDEDD" d="M179.021,189.741c13.158-3.251,25.28-0.001,38.468-0.423c31.361-1.002,54.878-31.269,86.515-26.34
	c0.063-0.057,0.12-0.108,0.12-0.108l-3.273-19.258l-51.498-18.462c0,0-81.214,24.966-95.806,52.097c0,0,2.875,9.494,14.887,17.362
	C171.526,192.415,175.029,190.725,179.021,189.741z"/>
<path fill="#FFFFFF" d="M300.851,143.612l-51.498-18.462c0,0-81.214,24.966-95.806,52.097c0,0,21.758,5.265,75.191-1.852
	C228.741,175.391,287.191,164.958,300.851,143.612z"/>
<path fill="#526C71" d="M74.27,139.539c0,0,8.524,2.622,25.069-4.495c5.873-2.56,14.038-0.125,14.038-0.125
	s-8.595-1.123-14.038,1.624C93.895,139.289,84.727,142.411,74.27,139.539z"/>
<path fill="#526C71" d="M190.518,137.594c0,0,6.931-2.622,20.386,4.495c4.776,2.56,11.416,0.125,11.416,0.125
	s-6.99,1.123-11.416-1.624C206.477,137.844,199.022,134.722,190.518,137.594z"/>
<path fill="#526C71" d="M138.088,126.421c0,0,6.931-2.622,20.386,4.495c4.776,2.56,11.416,0.125,11.416,0.125
	s-6.99,1.123-11.416-1.624C154.047,126.67,146.592,123.548,138.088,126.421z"/>
<path fill="#002B36" d="M141.943,134.82c0,0,3.768-0.897,5.958,0.317c0,0-4.889,0.158-6.518,1.373L141.943,134.82z"/>
<path fill="#002B36" d="M107.915,145.621c0,0-4.244-1.719-7.253-2.955c0,0,8.112-0.376,11.227-1.719
	c3.115-1.343,28.579-4.566,36.637,1.826c0,0-4.136-0.806-9.455-0.376C133.753,142.826,107.915,145.621,107.915,145.621z"/>
<path fill="#526C71" d="M70.624,146.612c0,0,3.502-1.153,5.222-2.157c0,0-11.747,3.152-20.055-0.573
	C55.791,143.884,59.672,150.488,70.624,146.612z"/>
<path fill="#E9BAA9" d="M69.104,125.9c-2.777-0.175-5.557-0.278-8.341-0.189c-1.619,6.329-1.965,15.166,0.371,21.828
	c2.569,0.461,5.217,0.293,7.776-0.386C64.657,135.648,66.524,130.1,69.104,125.9z"/>
<path fill="#DFA696" d="M72.453,97.777c0,0,3.715,2.343,4.682,5.136c0.967,2.793,0.43,7.413-4.298,10.099
	c-2.565,1.458-9.347,3.545-11.711,11.388c-1.3,4.312-1.976,10.114-1.503,15.626c0.48-1.538,1.048-3.045,1.759-4.494
	c1.751-3.565,4.151-7.557,7.565-9.766c0.098-0.064,0.193-0.075,0.281-0.065c0.303-0.484,0.613-0.952,0.923-1.409
	c3.223-4.727,12.033-7.736,12.463-12.033S79.007,96.703,72.453,97.777z"/>
<path fill="#E9BAA9" d="M187.692,134.046c0.241,0.975,0.455,2.014,0.642,3.141c0.4,2.397,0.383,5.041-0.193,7.656
	c2.443,0.337,4.872,0.45,7.27,0.068c0.414-2.007,0.694-4.058,0.873-6.113c0.139-1.605,0.135-3.133,0.016-4.585
	C193.433,133.975,190.563,133.859,187.692,134.046z"/>
<path fill="#DFA696" d="M177.59,121.07c3.426,1.99,5.796,3.984,7.484,6.587c0.096-0.018,0.201-0.008,0.31,0.062
	c6.121,3.921,4.358,13.617,10.033,17.064c0.417-2.02,0.697-4.033,0.867-5.986c1.074-12.355-6.231-20.306-10.636-22.347
	s-8.488-5.909-8.488-8.81c0-2.901,3.653-5.264,3.653-5.264C172.218,101.087,170.929,117.203,177.59,121.07z"/>
<path fill="#E9BAA9" d="M106.931,33.437c0,0-12.893-5.73-18.336,3.724c-5.444,9.455-1.147,18.05-8.882,20.342
	c0,0,12.033,6.017,24.066-1.146S106.931,33.437,106.931,33.437z"/>
<path fill="#DFA696" d="M106.931,33.437c0,0-1.909-0.844-4.565-1.349c-2.594,4.481-3.72,10.455-3.744,15.279
	c-0.018,3.54,0.43,7.413,1.337,10.838c1.264-0.486,2.542-1.088,3.82-1.85C115.813,49.194,106.931,33.437,106.931,33.437z"/>
<path fill="#E9BAA9" d="M175.865,108.357c0.651-0.115,0.838,0.537,1.008,1.505s0.44,1.828-0.211,1.943
	c-0.652,0.115-2.053-0.438-2.224-1.406C174.267,109.431,175.214,108.472,175.865,108.357z"/>
<path fill="#CC7792" d="M107.934,83.001c0,0-7.592,3.582-3.582,10.6c0.717,1.254,2.597,2.034,5.198,2.475l-0.229,12.555
	c-0.762-0.865-1.863-1.422-3.106-1.422c-2.294,0-4.154,1.86-4.154,4.154s1.86,4.154,4.154,4.154c0.23,0,0.452-0.032,0.673-0.068
	c0.012,1.529,0.304,4.459,2.095,7.295c0.171,3.313,0.584,16.312-3.017,22.125c2.56,1.111,5.228,1.944,8.01,2.207
	c5.305,0.501,10.11-0.933,15.159-2.342c4.482-1.25,8.916-2.23,13.301-2.41c-0.407-6.433,0.897-15.302,1.233-17.439
	c3.541-3.398,4.318-7.958,3.625-12.006c0.199,0.03,0.399,0.061,0.607,0.061c2.215,0,4.011-1.796,4.011-4.011
	s-1.796-4.011-4.011-4.011c-1.244,0-2.342,0.578-3.078,1.467c0.095-3.558,0.213-9.555,0.276-12.849
	c2.277-0.387,3.661-0.652,3.661-0.652s4.154-6.017-1.575-9.025c0,0,3.294-10.458-7.592-22.204
	c-8.882-9.883-8.309-16.043-8.309-16.043s9.455-1.863,14.038-9.455c4.585-7.592,6.017-15.184-2.865-22.204
	s-15.041-3.438-22.633,1.003s-21.488,18.05-17.19,46.843C104.783,74.263,106.502,79.707,107.934,83.001z"/>
<path fill="#CC7792" d="M177.495,122.682c2.242,1.261,4.922,3.686,6.444,5.173c3.028,3.909,3.776,10.284,1.796,16.591
	c1.049,0.194,2.095,0.36,3.139,0.484c2.102-10.232,1.263-13.695-0.914-17.421c-0.772-1.972-2.388-3.219-3.017-3.539
	c-8.072-4.101-9.266-7.627-8.814-10.889c-0.005-0.479,0.025-0.977,0.118-1.515c0.315-1.82,0.793-3.996,1.827-5.693
	c1.068-2.452,3.218-3.611,6.537-3.8c4.985-0.284,10.364,2.787,13.772,6.209c4.306,4.324,5.168,10.071,7.559,15.396
	c3.899,7.439,11.232,10.177,11.232,10.177c-3.152-2.865-1.863-11.603-0.716-15.471c1.147-3.868,0.573-10.028-2.579-16.76
	c-3.152-6.733-5.157-9.168-19.482-10.028c-14.325-0.86-16.617,3.582-19.482,11.46C172.052,110.935,170.619,118.814,177.495,122.682z
	"/>
<path fill="#CC7792" d="M51.122,119.382c2.39-5.326,3.252-11.071,7.559-15.396c3.408-3.422,8.788-6.493,13.772-6.209
	c3.319,0.189,5.47,1.348,6.537,3.8c1.034,1.698,1.514,3.873,1.827,5.693c0.093,0.538,0.123,1.037,0.118,1.515
	c0.453,3.262-0.742,6.789-8.814,10.889c-9.025,4.584-7.449,23.636-6.16,26.931c0.095,0.243,0.254,0.597,0.471,1.037
	c1.418-0.185,2.823-0.535,4.192-1.029c-1.716-3.34-1.814-7.069-1.511-11.754c0.572-8.882,3.581-12.606,10.457-16.474
	c6.876-3.868,5.443-11.747,2.579-19.625C79.284,90.88,76.991,86.44,62.666,87.3s-16.331,3.294-19.482,10.028
	c-3.152,6.733-3.724,12.893-2.579,16.76c1.146,3.868,2.435,12.606-0.716,15.471C39.89,129.558,47.223,126.821,51.122,119.382z"/>
<ellipse transform="matrix(-0.09 -0.9959 0.9959 -0.09 24.9956 221.2122)" fill="#FFFFFF" cx="113.559" cy="99.187" rx="9.364" ry="9.856"/>
<ellipse transform="matrix(0.1161 -0.9932 0.9932 0.1161 25.3535 226.8574)" fill="#FFFFFF" cx="140.137" cy="99.184" rx="9.261" ry="9.748"/>
<path fill="#3A3B3B" d="M119.766,98.488c-0.462,1.402-1.766,2.42-3.323,2.42c-1.777,0-3.231-1.325-3.466-3.037
	c-1.799,0.939-3.015,2.715-3.015,4.756c0,3.019,2.657,5.466,5.934,5.466s5.934-2.447,5.934-5.466
	C121.831,100.971,121.029,99.49,119.766,98.488z"/>
<path fill="#3A3B3B" d="M144.113,96.598c-0.12,1.613-1.238,3.042-2.893,3.454c-1.891,0.47-3.787-0.554-4.49-2.314
	c-1.665,1.475-2.488,3.686-1.949,5.856c0.799,3.21,4.273,5.111,7.758,4.243c3.486-0.867,5.664-4.174,4.865-7.384
	C146.966,98.692,145.721,97.33,144.113,96.598z"/>
<path fill="#3A3B3B" d="M153.522,92.671c0,0-1.509,2.182-4.053,1.41c-0.119-0.196-0.238-0.39-0.37-0.578
	c0.603-0.246,2.27-1.172,2.23-3.891c0,0-0.896,2.45-3.5,2.388c-0.168-0.165-0.346-0.32-0.525-0.474
	c0.515-0.338,2.021-1.579,1.414-4.282c0,0-0.388,2.696-3.103,3.083c-1.3-0.751-2.775-1.266-4.376-1.453
	c-3.753-0.438-7.273,0.985-9.545,3.508c-4.193-2.089-8.48-0.554-9.8,0.021c-2.212-2.456-5.601-3.888-9.264-3.557
	c-1.716,0.155-3.299,0.689-4.682,1.492c-2.768-0.355-3.16-3.093-3.16-3.093c-0.625,2.782,0.989,4.016,1.457,4.31
	c-0.166,0.144-0.329,0.291-0.486,0.444c-2.669,0.118-3.583-2.386-3.583-2.386c-0.042,2.822,1.751,3.71,2.29,3.914
	c-0.12,0.174-0.236,0.351-0.345,0.53c-2.597,0.849-4.139-1.386-4.139-1.386c0.692,2.83,2.763,3.175,3.258,3.217
	c-0.486,1.339-0.7,2.788-0.564,4.285c0.517,5.712,5.809,9.902,11.823,9.358c6.013-0.543,10.469-5.615,9.952-11.327
	c-0.141-1.56-0.648-3-1.419-4.267c4.512-1.276,6.702-0.287,7.407,0.176c-0.659,1.143-1.104,2.425-1.265,3.806
	c-0.666,5.697,3.656,10.883,9.652,11.584c5.997,0.701,11.397-3.349,12.063-9.045c0.187-1.597-0.03-3.149-0.554-4.578
	C150.929,95.813,152.858,95.387,153.522,92.671z M114.267,107.153c-4.459,0.403-8.408-2.997-8.79-7.234
	c-0.383-4.237,2.933-8.011,7.393-8.415c4.46-0.403,8.399,2.715,8.782,6.953C122.035,102.694,118.727,106.75,114.267,107.153z
	 M148.098,100.132c-0.494,4.225-4.563,7.516-9.011,6.996c-4.447-0.52-7.614-4.657-7.12-8.882c0.494-4.225,4.514-7.24,8.961-6.72
	C145.375,92.047,148.593,95.907,148.098,100.132z"/>
<path fill="#B75978" d="M119.895,120.641c0,0,7.198,3.331,15.579,0.322C135.474,120.963,130.317,128.913,119.895,120.641z"/>
<path fill="#B75978" d="M116.131,80.091c-2.866-0.462-5.941,0.156-8.796,1.366l0.599,1.545c0,0,9.061-1.683,13.788,0.573
	C121.722,83.574,120.431,81.317,116.131,80.091z"/>
<path fill="#B75978" d="M133.103,82.533c-0.994,0.791-1.282,1.471-1.282,1.471c8.648-3.385,15.364-0.144,15.364-0.144
	c0.225-0.503,0.334-1.618,0.386-2.436C143.039,79.492,137.459,80.003,133.103,82.533z"/>
<path fill="#B75978" d="M54.16,102.001c-5.801,8.364-3.861,21.954-13.943,27.19c-0.107,0.125-0.208,0.258-0.327,0.366
	c0,0,7.333-2.738,11.232-10.177c2.39-5.326,3.252-11.071,7.559-15.396c3.408-3.422,8.788-6.493,13.772-6.209
	c1.159,0.066,2.167,0.259,3.044,0.575c-0.313-0.252-0.647-0.486-1-0.706c-0.012-0.004-0.021-0.009-0.034-0.013
	C67.745,95.349,58.614,95.581,54.16,102.001z"/>
<path fill="#B75978" d="M202.79,107.306c-3.827-4.2-11.052-6.153-17.451-5.243c4.775,0.033,9.802,2.964,13.045,6.22
	c4.306,4.324,5.168,10.071,7.559,15.396c2.055,3.921,5.058,6.525,7.444,8.121c-2.34-2.461-3.834-5.68-4.903-9.012
	c-0.892-2.781-1.572-5.623-2.426-8.415C205.314,111.941,204.543,109.23,202.79,107.306z"/>
<path fill="#E9BAA9" d="M133.719,69.536c0,0-6.41-6.16-16.402-3.259c-8.917,2.579-8.237,9.992-8.237,9.992
	S113.807,67.53,133.719,69.536z"/>
<path fill="#E9BAA9" d="M124.623,54.888c0,0-5.973-5.536-13.967-2.364c-6.769,2.686-4.727,9.562-4.727,9.562
	S110.011,52.417,124.623,54.888z"/>
<path fill="#E9BAA9" d="M120.218,43.715c0,0-4.835-5.479-12.893-2.901c-5.479,1.719-4.19,7.843-4.19,7.843
	C103.457,48.764,106.895,41.888,120.218,43.715z"/>
<path fill="#E9BAA9" d="M53.069,95.178c-3.514-2.475-6.372-2.279-7.608-2.016c-0.584,0.832-1.108,1.773-1.637,2.836
	C47.644,94.936,53.069,95.178,53.069,95.178z"/>
<path fill="#E9BAA9" d="M42.645,98.532c-0.349,0.816-0.658,1.621-0.933,2.413c2.886-1.033,6.249-1.466,6.249-1.466
	C45.71,98.416,43.894,98.343,42.645,98.532z"/>
<path fill="#E9BAA9" d="M40.816,104.008c-0.174,0.723-0.317,1.429-0.429,2.117c2.316-1.199,5.087-1.949,5.087-1.949
	C43.411,103.524,41.85,103.692,40.816,104.008z"/>
<path fill="#E9BAA9" d="M204.016,99.511c3.514-2.475,6.372-2.279,7.608-2.016c0.584,0.832,1.108,1.773,1.637,2.836
	C209.441,99.27,204.016,99.511,204.016,99.511z"/>
<path fill="#E9BAA9" d="M214.439,102.866c0.349,0.816,0.658,1.621,0.933,2.413c-2.886-1.033-6.249-1.466-6.249-1.466
	C211.374,102.749,213.191,102.677,214.439,102.866z"/>
<path fill="#E9BAA9" d="M216.268,108.341c0.174,0.723,0.317,1.429,0.429,2.117c-2.316-1.199-5.087-1.949-5.087-1.949
	C213.674,107.858,215.234,108.026,216.268,108.341z"/>
<ellipse transform="matrix(-0.9923 -0.1242 0.1242 -0.9923 367.0365 306.6801)" fill="#FBCDC6" cx="193.077" cy="141.9" rx="1.803" ry="1.904"/>
<path fill="#E9BAA9" d="M193.301,140.012c-0.518-0.065-0.981,0.052-1.355,0.384c0.372,0.804,0.737,1.612,1.265,2.328
	c0.22,0.297,0.468,0.594,0.722,0.855c0.48-0.29,0.842-0.834,0.92-1.454C194.984,141.082,194.289,140.136,193.301,140.012z"/>
<ellipse transform="matrix(-0.9999 -0.01 0.01 -0.9999 385.731 274.4897)" fill="#E9BAA9" cx="193.552" cy="136.28" rx="1.851" ry="1.954"/>
<ellipse transform="matrix(-0.9755 0.2201 -0.2201 -0.9755 409.8378 215.8638)" fill="#E9BAA9" cx="192.894" cy="130.763" rx="1.802" ry="1.902"/>
<ellipse transform="matrix(-0.8773 0.48 -0.48 -0.8773 418.2956 144.0561)" fill="#E9BAA9" cx="190.731" cy="125.504" rx="1.845" ry="1.947"/>
<ellipse transform="matrix(-0.5745 0.8185 -0.8185 -0.5745 393.6123 37.6338)" fill="#E9BAA9" cx="187.024" cy="121.126" rx="1.844" ry="1.948"/>
<ellipse transform="matrix(-0.5745 0.8185 -0.8185 -0.5745 383.6417 36.369)" fill="#E9BAA9" cx="182.368" cy="117.902" rx="1.753" ry="1.948"/>
<path fill="#E9BAA9" d="M177.477,112.73c0.657-0.471,1.473-0.157,2.046,0.641c0.573,0.798,0.685,1.778,0.028,2.25
	c-0.657,0.471-1.654,0.206-2.227-0.592C176.752,114.231,176.82,113.201,177.477,112.73z"/>
<path fill="#E9BAA9" d="M80.696,106.752c-0.008-0.04-0.002-0.076,0-0.113c-0.298-0.401-0.707-0.693-1.041-0.753
	c-0.652-0.119-0.838,0.554-1.008,1.553c-0.171,0.999-0.44,1.887,0.211,2.005c0.558,0.101,1.661-0.306,2.076-1.051
	C80.874,107.844,80.802,107.296,80.696,106.752z"/>
<path fill="#FBCDC6" d="M62.554,147.726c0.723,0.065,1.45,0.086,2.176,0.059c0.573-0.447,0.869-1.243,0.689-2.047
	c-0.239-1.073-1.231-1.753-2.215-1.52c-0.985,0.234-1.589,1.293-1.35,2.365C61.961,147.059,62.219,147.45,62.554,147.726z"/>
<path fill="#FBCDC6" d="M62.22,138.556c-0.988,0.127-1.684,1.104-1.553,2.181c0.131,1.077,1.037,1.846,2.026,1.718
	c0.988-0.127,1.684-1.104,1.553-2.181C64.115,139.198,63.208,138.429,62.22,138.556z"/>
<ellipse transform="matrix(-1 0.0097 -0.0097 -1 125.2286 268.803)" fill="#E9BAA9" cx="61.962" cy="134.705" rx="1.851" ry="2.017"/>
<path fill="#E9BAA9" d="M63.053,127.096c-0.97-0.226-1.945,0.448-2.176,1.505c-0.231,1.057,0.368,2.098,1.338,2.324
	c0.97,0.226,1.945-0.448,2.176-1.505C64.624,128.363,64.024,127.323,63.053,127.096z"/>
<path fill="#E9BAA9" d="M65.721,121.828c-0.894-0.505-2.036-0.125-2.553,0.849c-0.517,0.974-0.21,2.172,0.683,2.677
	c0.893,0.505,2.036,0.125,2.553-0.849C66.921,123.53,66.615,122.332,65.721,121.828z"/>
<path fill="#E9BAA9" d="M70.102,117.913c-0.585-0.86-1.773-1.042-2.654-0.404c-0.88,0.638-1.12,1.852-0.535,2.713
	c0.585,0.86,1.773,1.042,2.654,0.404C70.449,119.989,70.688,118.775,70.102,117.913z"/>
<path fill="#E9BAA9" d="M74.758,114.587c-0.556-0.818-1.722-0.964-2.602-0.327c-0.88,0.638-1.143,1.818-0.587,2.636
	c0.556,0.818,1.722,0.964,2.602,0.327C75.052,116.586,75.314,115.405,74.758,114.587z"/>
<path fill="#E9BAA9" d="M78.042,110.399c-0.657-0.486-1.473-0.162-2.046,0.662c-0.573,0.824-0.685,1.836-0.028,2.322
	c0.657,0.486,1.654,0.213,2.227-0.611C78.768,111.948,78.7,110.885,78.042,110.399z"/>
<path fill="#002B36" d="M110.369,151.572c0,0,8.524,2.622,25.069-4.495c5.873-2.56,14.038-0.125,14.038-0.125
	s-8.595-1.123-14.038,1.624C129.994,151.323,120.826,154.444,110.369,151.572z"/>
<path fill="#526C71" d="M37.526,147.049c0,0,6.931-2.622,20.386,4.495c4.776,2.56,11.416,0.125,11.416,0.125
	s-6.99,1.123-11.416-1.624C53.485,147.298,46.029,144.177,37.526,147.049z"/>
<path fill="#526C71" d="M204.915,149.853c0,0,8.524,2.622,25.069-4.495c5.873-2.56,14.038-0.125,14.038-0.125
	s-8.595-1.123-14.038,1.624C224.54,149.604,215.372,152.725,204.915,149.853z"/>
<path fill="#776B5D" d="M158.181,175.202c0,0,88.352,8.3,136.465-29.178l-46.13-16.757
	C248.516,129.27,178.341,152.243,158.181,175.202z"/>
<path fill="#3A3B3B" d="M129.448,116.254c0,0,0.562,0.258,1.862,0.434c2.19,0.505,3.046-1.405,3.046-1.405l2.158-3.286
	c0.004-0.041,0.007-0.083,0.011-0.123c-0.041-0.088-0.159-0.182-0.493,0.235c-2.004,2.143-5.19,3.243-6.01,3.547
	C129.202,115.96,129.448,116.254,129.448,116.254z"/>
<g>
	<path fill="#5C5B5D" d="M202.836,131.332c-4.201-2.356-8.969-0.879-8.969-0.879s1.473-3.309,5.041-4.721
		c2.516-0.995,5.415-0.197,6.906,0.36C204.726,127.778,203.688,129.501,202.836,131.332z"/>
	<path fill="#4F4E51" d="M202.836,131.332c-4.201-2.356-8.969-0.879-8.969-0.879s4.623-4.173,10.32-1.709
		C203.703,129.587,203.248,130.447,202.836,131.332z"/>
	<path fill="#A1D4E9" d="M213.707,160.172l-1.371,13.195c0,0-1.374,2.285-4.684,1.76c0,0-0.21,1.974-2.594,2.815
		c0,0-3.1-1.103-3.497-5.089c0,0-2.436-1.292-1.794-3.979c0,0-0.76-3.757,0.538-5.728c0,0,1.131-1.539,2.768-1.975
		c0,0-0.192-2.14,0.203-2.709C203.276,158.462,209.062,156.534,213.707,160.172z"/>
	<path fill="#EAF7FE" d="M243.607,159.083c-0.321,0.572-1.537,0.459-1.537,0.459c0.668-2.062,2.134-5.169,1.179-6.418
		c-0.338,0.149-0.235,0.226-0.814,0.319c1.506-3.858,0.652-8.656,0.652-8.656s-1.435-2.657-2.673-4.424
		c1.388-0.736,1.194-1.927,1.194-1.927c-1.673-0.131-5.399-2.316-5.399-2.316c-0.692-0.569-0.975-1.147-0.975-1.147
		c1.442-0.96-0.044-3.024-0.044-3.024c-0.738,0.932-2.231-0.106-2.231-0.106c1.191-1.082,0.642-2.677,0.642-2.677
		c-1.978,1.18-3.387-1.973-3.758-2.923l-1.824-6.389c-1.317-3.765,1.493-8.75,1.493-8.75c-1.003-0.442-2.576-0.359-2.576-0.359
		c0.064-1.336,1.62-4.176,1.62-4.176c-1.553-0.468-4.006-0.191-4.006-0.191c0.292-1.167,1.547-4.337,1.547-4.337
		s-3.279-0.154-6.47,0.413c-3.134,0.557-5.006,2.425-5.006,2.425c-0.677-2.316-0.066-6.856-0.066-6.856
		c-6.706,1.885-11.103,11.52-11.103,11.52c-1.332-1.796-1.816-4.815-1.816-4.815c-5.052,5.193-3.11,12.449-3.11,12.449
		c-1.415-0.068-3.309-1.428-3.309-1.428c1.227,7.305,6.212,12.17,6.212,12.17s-0.813,4.648-0.615,7.099c0,0-2.988-0.93-6.522,0.083
		l0.672,2.001c0,0-1.475,0.797-2.604,1.422c0.452,0.397,0.912,0.786,1.392,1.151c0.396,0.301,0.795,0.842,1.217,1.107l2.131,28.487
		l2.639,0.126c-0.36-3.224,0.551-5.988,0.551-5.988c1.386-1.33,2.774-2.105,2.774-2.105c-0.059-1.839,0.562-2.536,0.562-2.536
		c5.899-1.996,10.067,1.623,10.067,1.623c-1.205,0.751-4.673-0.74-4.673-0.74c0.073,1.56,0.999,2.157,0.999,2.157
		c-1.965,1.155-5.766,0.793-5.766,0.793c0.464,2.593,2.278,3.02,2.278,3.02c-2.314,0.771-2.551,4.193-2.551,4.193
		c1.292-0.893,2.506-0.175,2.506-0.175c-0.904,2.014-0.215,4.838-0.215,4.838c2.59-1.933,6.728-0.561,6.728-0.561l-0.042,0.88
		c3.297-1.9,8.381-1.216,8.381-1.216c-0.185,0.799,0.331,1.044,0.331,1.044c1.137-1.856,4.212-1.856,4.212-1.856l-0.035,0.733
		c0,0,8.146-1.223,12.819-2.175c4.674-0.952,3.669-9.591,3.669-9.591C243.666,161.428,243.607,159.083,243.607,159.083z"/>
	<path fill="#A1D4E9" d="M224.766,133.04c0,0-1.623-4.559-4.443-8.178c0,0,0.085-5.49-0.277-7.811c0,0-5.068-1.476-12.025,0.943
		c-0.262-1.108-1.314-1.167-1.314-1.167l-0.46,0.982c-1.243-1.182-2.45-0.649-2.45-0.649c0.626,0.502,1.018,2.182,1.018,2.182
		l0.314-0.154l0,0c-1.551,0.746-3.166,1.693-4.816,2.893c0,0,0.626,2.976,3.281,5.524c0,0-1.159,6.95-0.121,11.768
		c0,0,2.7-0.875,3.921-0.463c0,0,0.047,2.72,0.463,3.921c0,0,2.366-1.305,3.144-1.504c0,0,0.558,1.917,1.507,3.085
		c0,0,2.432-3.353,3.906-4.523c0,0,1.439,0.719,1.801,1.799c0,0,2.063-2.528,2.767-4.916c0,0,2.001-0.184,2.734,0.56
		c0,0,0.405-2.304-0.895-3.522C222.817,133.812,224.067,132.83,224.766,133.04z"/>
	
		<ellipse transform="matrix(0.9989 0.0477 -0.0477 0.9989 6.1913 -10.0646)" fill="#85C1CE" cx="214.096" cy="124.766" rx="1.825" ry="2.31"/>
	
		<ellipse transform="matrix(0.9989 0.0477 -0.0477 0.9989 6.1604 -10.0587)" fill="#FFFFFF" cx="213.958" cy="124.121" rx="1.797" ry="2.274"/>
	<path fill="#4F4E51" d="M214.491,122.972c0.012,0.056,0.019,0.115,0.016,0.177c-0.015,0.32-0.236,0.569-0.493,0.557
		c-0.229-0.011-0.408-0.225-0.435-0.497c-0.156,0.185-0.259,0.44-0.272,0.726c-0.028,0.593,0.335,1.091,0.811,1.114
		c0.476,0.023,0.885-0.439,0.914-1.032C215.054,123.544,214.826,123.131,214.491,122.972z"/>
	<path fill="#85C1CE" d="M212.523,118.946c0,0,2.093-0.901,4.104-0.108C216.627,118.838,214.817,116.27,212.523,118.946z"/>
	
		<ellipse transform="matrix(0.9989 0.0477 -0.0477 0.9989 6.2618 -9.7887)" fill="#85C1CE" cx="208.348" cy="126.382" rx="1.825" ry="2.31"/>
	
		<ellipse transform="matrix(0.9989 0.0477 -0.0477 0.9989 6.2309 -9.7829)" fill="#FFFFFF" cx="208.21" cy="125.737" rx="1.797" ry="2.274"/>
	<path fill="#4F4E51" d="M208.743,124.588c0.012,0.056,0.019,0.115,0.016,0.177c-0.015,0.32-0.236,0.569-0.493,0.557
		c-0.229-0.011-0.408-0.225-0.435-0.497c-0.156,0.185-0.259,0.44-0.272,0.726c-0.028,0.593,0.335,1.091,0.811,1.114
		c0.476,0.023,0.885-0.439,0.914-1.032C209.306,125.16,209.078,124.747,208.743,124.588z"/>
	<path fill="#85C1CE" d="M204.413,122.733c0,0,1.385-1.809,3.527-2.1C207.94,120.633,205.105,119.277,204.413,122.733z"/>
	<path fill="#CDEAF5" d="M200.817,135.017c0,0,0.207,6.767,1.45,9.189c0,0,1.696-1.566,3.315-1.103c0,0,0.004,3.308,0.888,5.241
		c0,0,1.283-1.475,2.175-1.609c0,0,2.123,2.937,4.057,3.679c0,0,1.081-4.324,3.392-5.71c0,0,1.331,0.575,1.62,1.948
		c0,0,2.728-2.21,4.313-5.197c0,0,1.029-0.304,3.139,1.67c0,0,1.442-1.344,1.804-2.745c0,0,0.268,3.053-1.635,4.557
		c0,0-1.155-1.548-2.957-2.165c0,0-2.005,3.889-5.225,5.744c0,0,0.062-1.297-1.016-2.234c0,0-2.148,1.654-2.713,5.939
		c0,0-4.299-2.568-5.21-4.206c0,0-0.776,0.436-1.815,1.804c0,0-1.631-1.128-1.745-5.44c0,0-1.089-0.13-2.815,1.382
		c0,0-1.646-6.375-1.491-10.86L200.817,135.017z"/>
	<path fill="#747F83" d="M229.194,118.121c-2.156-0.141-4.186,0.893-5.545,1.82c-0.279,1.509-0.28,3.209,0.406,4.575
		c0.33,0.657,0.759,1.201,1.242,1.691c0.353,0.164,0.58,0.212,0.605,0.176c0.108-0.159,0.475-0.646,0.475-0.646
		c3.134-4.593,9.057-4.66,9.057-4.66S233.011,118.37,229.194,118.121z"/>
	<path fill="#5C5B5D" d="M235.434,121.076c0,0-6.815-3.076-11.598,2.923c0.064,0.176,0.135,0.349,0.219,0.516
		c0.29,0.578,0.659,1.066,1.072,1.51l-0.002,0.002c0.028,0.03,0.109-0.516,0.137-0.487c0.011,0.011,0.073-0.54,0.084-0.54
		c0,0,0.002,0,0.003,0c0.021,0-0.012,0.618,0.009,0.639c0.314,0.175,0.854,0.741,1.323,0.771c0,0-0.269-0.207-0.492-0.547
		c0.107-0.144,0.194-0.199,0.194-0.199C229.518,121.071,235.434,121.076,235.434,121.076z"/>
	<path fill="#CDEAF5" d="M213.698,160.356c0,0,1.542-1.249,0.829-2.679c0,0,1.022,0.71,1.575,1.434c0,0,0.513-1.702,0.975-2.047
		c0,0,1.339,0.945,1.673,3.533c0,0,1.1-1.49,0.482-2.401c0,0,7.546,0.434,9.239,3.453c0,0-3.429-7.437,0.305-11.777
		c0,0-3.482,1.377-2.498,8.476c0,0-4.668-1.472-7.433-1.273c0,0-0.677-0.914-1.492-1.926c0,0-1.236,0.988-1.524,2.002
		c0,0-0.686-0.731-2.313-0.661c0,0,0.884,2.093-0.963,3.113C212.552,159.603,213.209,159.965,213.698,160.356z"/>
	<path fill="#CDEAF5" d="M200.869,137.414c-0.274-1.012-0.516-2.036-0.52-2.515c0,0-3.463-0.864-6.054,0.2l0.672,2.001l-1.456,0.791
		l5.7,3.553c0,0,0.982-1.073,1.856-1.338C200.947,139.216,200.884,138.319,200.869,137.414z"/>
	<path fill="#CDEAF5" d="M200.306,163.146c0,0,0.706-0.787,1.779-1.406c-0.86-4.869,2.567-11.293,2.567-11.293
		c-4.084,3.185-4.462,11.101-4.462,11.101c-0.571,0.046-2.311-0.845-2.311-0.845c0.364,1.881,1.63,2.518,2.338,2.735
		C200.271,163.335,200.243,163.241,200.306,163.146z"/>
	<path fill="#85C1CE" d="M201.561,172.853c0,0-0.262-2.216,0.32-3.621c0,0-1.071,0.867-1.171,2.96
		C200.71,172.192,201.235,172.764,201.561,172.853z"/>
	<path fill="#85C1CE" d="M199.767,168.874c0,0,0.171-2.049,1.484-3.382c-0.183-0.005-1.366,0.311-1.57,1.652
		C199.681,167.144,199.586,168.057,199.767,168.874z"/>
	<path fill="#FFFFFF" d="M207.139,131.031c0,0,0.141-1.155,0.713-1.759c0,0,1.018,0.805,1.428,2.001
		C209.28,131.272,207.714,131.233,207.139,131.031z"/>
	<path fill="#4F4E51" d="M216.316,127.911c0.342,0.074,0.908,1.268,0.908,1.268c-0.607,0.454-1.924,1.034-3.326,1.462
		c0,0-3.536,1.019-7.144,0.225c0,0,4.266,2.128,10.839-1.062l0.359,0.706C218.188,128.4,216.316,127.911,216.316,127.911z"/>
	<path fill="#4F4E51" d="M204.292,124.863c0,0,2.741-2.303,6.103-1.672c0,0,2.545-4.929,8.194-3.22l-1.252,0.837l1.35,1.34
		c0,0-3.289-1.472-7.981,2.278c0,0-3.653,0.017-5.777,2.073C204.93,126.501,204.652,125.781,204.292,124.863z"/>
	<path fill="#747F83" d="M216.034,120.694c0.413,0.031,0.878,0.015,1.304,0.115l1.458-0.91c-5.65-1.709-8.679,2.138-8.679,2.138
		c-3.363-0.631-6.054,2.44-6.054,2.44c0.074,0.239,0.392,0.832,0.475,1.021c1.348-1.309,4.161-2.706,5.858-2.306
		C211.892,121.283,213.562,120.508,216.034,120.694z"/>
</g>
<g>
	<path fill="#A1D4E9" d="M165.282,160.515c0.097,0.517,0.269,1.369,0.502,2.261l-0.823,0.985l1.088,0.17
		c0.197,0.625,0.444,1.07,0.692,1.519c0,0,1.69,1.379,3.47-0.794c1.779-2.173-0.476-4.085-0.476-4.085s-0.374-1.767-0.17-3.072
		l0.801-5.119C167.008,153.67,165.36,157.28,165.282,160.515z"/>
	<path fill="#85C1CE" d="M165.78,157.455c-0.044,1.525,0.174,2.98,0.973,5.175c0.011,0.03,0.203,0.043,0.212,0.07
		c0.884,0.337,1.839,0.481,2.701,0.181c0.382-0.226,0.88-0.642,0.98-1.066c-0.341-0.759-0.912-1.245-0.912-1.245
		s-0.374-1.767-0.17-3.072l0.801-5.119C168.134,153.237,166.542,155.339,165.78,157.455z"/>
	<path fill="#A1D4E9" d="M166.328,159.296c-0.233-0.893-0.405-1.744-0.502-2.261c0.079-3.235,1.727-6.845,5.084-8.135l-0.801,5.119
		c-0.204,1.305,0.17,3.072,0.17,3.072s2.255,1.913,0.476,4.085c-1.779,2.173-3.47,0.794-3.47,0.794
		c-0.248-0.449-0.495-0.894-0.692-1.519L166.328,159.296z"/>
	<path fill="#85C1CE" d="M166.325,153.975c-0.044,1.525,0.174,2.98,0.973,5.175c0.011,0.03,0.203,0.043,0.212,0.07
		c0.884,0.337,1.839,0.481,2.701,0.181c0.382-0.226,0.88-0.642,0.98-1.066c-0.341-0.759-0.912-1.245-0.912-1.245
		s-0.374-1.767-0.17-3.072l0.801-5.119C168.678,149.757,167.087,151.859,166.325,153.975z"/>
	<path fill="#A1D4E9" d="M166.872,155.816c-0.233-0.893-0.405-1.744-0.502-2.261c0.079-3.235,1.387-4.67,4.743-5.96l-0.461,2.944
		c-0.204,1.305,0.17,3.072,0.17,3.072s2.255,1.913,0.476,4.085c-1.779,2.173-3.47,0.794-3.47,0.794
		c-0.248-0.449-0.495-0.894-0.692-1.519L166.872,155.816z"/>
	<path fill="#85C1CE" d="M169.144,148.485c0.404,0.49,1.079,0.993,1.396,1.251c0.07,0.057,0.141,0.112,0.213,0.168l0.412-2.634
		C170.401,147.562,169.732,147.982,169.144,148.485z"/>
	<path fill="#A1D4E9" d="M171.231,149.274c0,0-2.872-1.87-1.827-4.419c1.044-2.549,2.764-1.569,2.764-1.569L171.231,149.274z"/>
</g>
<g>
	<path fill="#EAF7FE" d="M199.274,167.715c0.494,0.1,0.975-0.291,0.975-0.291s-1.384-0.63-1.737-1.989
		c-0.293-1.13-1.055-1.188-1.301-1.47l-0.513-8.679c0,0-0.022-1.169-0.067-3.614c-0.045-2.445,1.504-3.514,1.504-3.514
		c-1.063,0.02-1.55,0.986-1.55,0.986s-0.001-0.053-0.096-5.156c-0.095-5.103,2.467-7.436,2.467-7.436
		c-0.798-0.038-1.31,0.343-1.31,0.343c0.302-3.781,1.444-4.919,1.444-4.919c-4.273-1.037-6.595,1.505-6.595,1.505
		c-0.521-2.277,1.327-3.641,1.327-3.641c-2.188-0.438-3.978,0.233-3.978,0.233c-0.062-3.349,1.249-4.49,1.249-4.49
		c-6.644,0.123-10.324,5.189-10.324,5.189c-0.305-2.121,0.246-3.994,0.246-3.994c-6.381,2.83-7.971,8.865-7.971,8.865
		c-0.444-1.002-0.539-3.294-0.539-3.294s-2.575,4.501-2.997,7.592c-0.421,3.092,0.646,11.925,0.646,11.925s-0.435-0.523-1.34-0.613
		c0,0,0.96,0.172,1.005,2.564c0,0-0.378-0.312-1.013-0.141c0,0,0.816,0.706,1.088,1.952c0.264,0.075,0.316,0.609,0.347,0.807
		c0.152,0.949,0.73,3.363,0.718,4.321c-0.014,1.179,0.534,3.837,0.53,5.016c-0.239,0.5-0.606,0.383-0.984,1.31
		c-0.171-0.092-0.585-0.275-0.879-0.101c0,0,0.43,0.378,0.54,0.924c-0.027,0.07-0.053,0.142-0.08,0.214
		c0.001,0.005,0.003,0.009,0.003,0.015c-0.001,0.552-0.17,1.156-0.48,1.637c-0.108,0.495-0.274,0.97-0.493,1.425
		c0.001,0,0.001,0,0.002,0c-0.47,1.833-0.771,3.16-0.606,5.013l32.767-0.607C201.194,170.903,199.274,167.715,199.274,167.715z"/>
	<path fill="#CDEAF5" d="M199.274,167.715c0.494,0.1,0.975-0.291,0.975-0.291s-1.384-0.63-1.737-1.989
		c-0.293-1.13-1.055-1.188-1.301-1.47l-0.197-3.34c-0.284,1.037-0.587,2.068-0.953,3.079c-0.97,2.68-2.486,4.178-4.657,6.048
		c-2.326,2.004-5.516,3.087-8.595,2.665c-1.041-0.143-2.057-0.432-3.027-0.839c-1.231-0.583-1.85-1.573-1.867-2.484
		c-0.431,0.308-0.618,0.54-0.691,1.065c-0.356-0.249-1.366-1.555-1.314-2.648c-0.289,0.151-0.504,0.337-0.631,1.017
		c-1.993-1.989-3.453-3.69-3.75-6.521l-0.475,0.009c0.153,1.28,0.438,2.904,0.436,3.756c-0.239,0.5-0.606,0.383-0.984,1.31
		c-0.171-0.092-0.585-0.275-0.879-0.101c0,0,0.43,0.378,0.54,0.924c-0.208,0.547-0.21,0.697-0.417,1.317l0-0.003
		c0,0-0.533,1.458-1.409,1.365c0,0,0.478,0.296,0.988,0.17c-0.47,1.833-0.981,3.601-0.816,5.454l32.767-0.607
		C201.194,170.903,199.274,167.715,199.274,167.715z"/>
	<path fill="#CDEAF5" d="M180.769,130.771c-0.305-2.121,0.246-3.994,0.246-3.994c-6.381,2.83-7.971,8.865-7.971,8.865
		c-0.444-1.002-0.539-3.294-0.539-3.294s-2.575,4.501-2.997,7.592c-0.421,3.092,0.646,11.925,0.646,11.925s-0.435-0.523-1.34-0.613
		c0,0,0.96,0.172,1.005,2.564c0,0-0.378-0.312-1.013-0.141c0,0,1.027,0.885,1.162,2.424c0,0-0.105,1.056-0.239,2.718
		c0.322,0.174,0.633,0.371,0.937,0.582c-0.069-12.205,4.496-14.274,4.496-14.274c-0.856-0.303-1.759-0.26-1.759-0.26
		c0.94-2.383,4.147-5.74,4.147-5.74c-0.876,0.07-4.287,1.063-4.287,1.063c2.706-7.468,5.54-9.487,5.54-9.487
		c-0.18,1.784,0.546,3.659,0.546,3.659c6.025-7.742,10.985-7.478,10.985-7.478c0.353-0.772,0.761-1.301,0.761-1.301
		C184.449,125.705,180.769,130.771,180.769,130.771z"/>
	<path fill="#5C5B5D" d="M172.083,142.102c-0.151,0.014-0.634,0.035-0.634,0.035c-4.377,0.387-7.661-2.949-7.661-2.949
		s-0.239,2.656,1.708,4.944c1.947,2.288,5.814,2.614,5.814,2.614c0.135,0.541-0.114,1.757-0.114,1.757s1.105-1.269,1.348-3.639
		C172.714,143.203,172.176,142.094,172.083,142.102"/>
	<path fill="#747F83" d="M172.083,142.102c-0.145,0.011-0.634,0.035-0.634,0.035c-4.377,0.387-7.661-2.949-7.661-2.949
		s2.109,5.757,8.787,5.175C172.575,144.363,172.74,143.288,172.083,142.102"/>
	<path fill="#5C5B5D" d="M193.964,141.697c0.151,0.008,0.635,0.011,0.635,0.011c4.388,0.225,7.547-3.231,7.547-3.231
		s0.337,2.646-1.524,5.004c-1.861,2.358-5.713,2.827-5.713,2.827c-0.115,0.545,0.179,1.752,0.179,1.752s-1.152-1.227-1.482-3.587
		C193.374,142.82,193.87,141.692,193.964,141.697"/>
	<path fill="#747F83" d="M193.964,141.697c0.145,0.006,0.635,0.011,0.635,0.011c4.388,0.225,7.547-3.231,7.547-3.231
		s-1.895,5.831-8.59,5.497C193.556,143.975,193.351,142.906,193.964,141.697"/>
	
		<ellipse transform="matrix(-0.9998 0.0185 -0.0185 -0.9998 378.1595 308.5249)" fill="#CDEAF5" cx="187.651" cy="156.014" rx="1.728" ry="2.187"/>
	
		<ellipse transform="matrix(-0.9998 0.0185 -0.0185 -0.9998 378.1802 307.3555)" fill="#FFFFFF" cx="187.667" cy="155.429" rx="1.701" ry="2.153"/>
	<path fill="#4F4E51" d="M186.865,154.224c-0.013,0.053-0.021,0.108-0.02,0.167c0.006,0.303,0.208,0.545,0.451,0.541
		c0.216-0.004,0.392-0.202,0.425-0.458c0.142,0.18,0.232,0.423,0.238,0.694c0.01,0.562-0.347,1.023-0.798,1.032
		c-0.451,0.008-0.826-0.44-0.836-1.001C186.316,154.75,186.543,154.365,186.865,154.224z"/>
	
		<ellipse transform="matrix(-0.9998 0.0185 -0.0185 -0.9998 364.4492 309.9987)" fill="#CDEAF5" cx="180.789" cy="156.687" rx="1.728" ry="2.187"/>
	
		<ellipse transform="matrix(-0.9998 0.0185 -0.0185 -0.9998 364.4699 308.8293)" fill="#FFFFFF" cx="180.805" cy="156.103" rx="1.701" ry="2.153"/>
	<path fill="#4F4E51" d="M180.864,154.663c-0.013,0.053-0.021,0.108-0.02,0.167c0.006,0.303,0.208,0.545,0.451,0.541
		c0.216-0.004,0.392-0.202,0.425-0.458c0.142,0.18,0.232,0.423,0.238,0.694c0.01,0.562-0.347,1.023-0.798,1.032
		s-0.826-0.44-0.836-1.001C180.315,155.189,180.542,154.804,180.864,154.663z"/>
	<path fill="#A1D4E9" d="M181.282,151.89c0,0-2.141-0.973-3.32,0.929c0,0-0.16-1.866,1.55-2.107
		C181.221,150.471,181.282,151.89,181.282,151.89z"/>
	<path fill="#A1D4E9" d="M180.358,149.427c0,0-1.797-0.808-2.578,0.823c0,0-0.291-1.407,0.974-1.771
		C180.018,148.115,180.358,149.427,180.358,149.427z"/>
	<path fill="#A1D4E9" d="M185.688,147.861c0,0,2.03-1.015,3.236,0.778c0,0,0.088-1.806-1.57-1.977
		C185.696,146.491,185.688,147.861,185.688,147.861z"/>
	<path fill="#A1D4E9" d="M187.203,145.445c0,0,1.506-0.272,1.79,1.103c0,0,0.483-1.006-0.402-1.517
		C187.705,144.519,187.203,145.445,187.203,145.445z"/>
	<path fill="#B2DEEF" d="M180.491,164.156c0,0,1.233-0.306,1.852-0.185c0,0-0.329,1.303,0.027,2.134c0,0,1.666-0.675,2.935-0.305
		c0,0,0.07,0.806,0.497,1.25l-0.006,0.007c0.145,0.185,0.332,0.387,0.537,0.518c0,0,0.869-0.172,1.361-0.884
		c0,0-0.535,1.686-1.907,2.213c0,0-0.654-0.677-1.001-1.507c-0.111-0.23-0.219-0.49-0.249-0.68c0,0-2.313,0.633-2.65,1.351
		c0,0-0.858-1.778-0.948-2.94c0,0-0.988-0.042-1.299,0.049c0,0-0.289-1.424-0.051-2.528
		C179.587,162.648,180.147,163.778,180.491,164.156z"/>
	<path fill="#CDEAF5" d="M186.554,163.401c-0.306,0.024-0.615,0.069-0.905,0.174c-0.147,0.053-0.293,0.112-0.426,0.195
		c-0.056,0.035-0.157,0.14-0.224,0.141c-0.103,0.002-0.227-0.055-0.331-0.07c-0.16-0.023-0.321-0.038-0.482-0.036
		c-0.311,0.003-0.623,0.037-0.924,0.116c-0.381,0.099-0.745,0.246-1.075,0.452c1.412,2.397,4.469,0.931,5.166-0.968
		C187.086,163.384,186.819,163.38,186.554,163.401z"/>
	<path fill="#ACDBE3" d="M172.974,168.293c0,0-0.833,4.204-0.693,5.84l-1.317-0.34C170.963,173.794,171.222,170.038,172.974,168.293
		z"/>
	<path fill="#ACDBE3" d="M196.289,168.59l0.061-2.587c0,0,1.884,1.458,2.863,5.155C199.213,171.158,196.23,171.323,196.289,168.59z"
		/>
	<path fill="#EAF7FE" d="M194.86,173.297c0,0-1.523-0.004-2.879,0.54l0.311,0.384c0,0-0.831,0.671-1.493,1.783l9.557-0.177
		C200.356,175.828,197.858,169.267,194.86,173.297z"/>
	<path fill="#ACDBE3" d="M196.422,175.006c-0.989,0.022-1.98,0.042-2.969,0.092c-0.75,0.038-1.5,0.084-2.251,0.099
		c-0.137,0.179-0.276,0.378-0.407,0.598l9.557-0.177c0,0-0.1-0.258-0.284-0.639C198.853,174.969,197.638,174.979,196.422,175.006z"
		/>
	<path fill="#CDEAF5" d="M201.934,170.343c0,0,1.867-1.314,4.719-0.712l-0.501,0.587l1.201-0.022c0,0-1.094,2.857-4.207,2.942
		S201.232,171.476,201.934,170.343z"/>
	<path fill="#ACDBE3" d="M207.24,170.026c-0.555,0.684-1.188,1.306-1.934,1.769c-0.789,0.49-1.65,0.76-2.547,0.811
		c0,0.149-0.006,0.298-0.015,0.446c0.125,0.003,0.259,0.003,0.401-0.001c3.112-0.085,4.205-3.028,4.205-3.028L207.24,170.026z"/>
	<path fill="#DEEFF8" d="M198.649,170.677c0,0,2.054-1.185,4.312-0.189c0,0-0.864,0.562-1.023,0.784c0,0,2.909,2.736,2.342,5.529
		c-0.2,0.987-0.114,1.231-0.114,1.231s-1.325-0.768-1.985-0.974l-0.376,0.362c0,0-2.47-0.637-2.602-3.339
		C199.072,171.379,198.649,170.677,198.649,170.677z"/>
	<path fill="#ACDBE3" d="M204.152,177.685c-0.892-0.243-1.801-0.69-2.287-1.486c-0.036,0.214-0.063,0.429-0.065,0.647
		c0,0.045-0.042,0.064-0.076,0.057c-0.012,0.003-0.026,0.004-0.04-0.003c-1.261-0.562-1.526-1.824-2.018-2.98
		c0.01,0.039-0.019,0.089-0.07,0.075c-0.136-0.037-0.266-0.085-0.403-0.109c0.004,0.064,0.007,0.129,0.01,0.195
		c0.132,2.702,2.602,3.339,2.602,3.339l0.376-0.362c0.659,0.206,1.985,0.974,1.985,0.974S204.138,177.948,204.152,177.685z"/>
	<path fill="#EAF7FE" d="M194.627,173.264c0,0,0.439-2.467,0.852-3.239c0,0-0.406-0.348-0.415-0.839l0.771,0.04l0.47-0.774
		c0,0,4.217,1.37,3.619,6.024c0,0-3.245,0.306-3.828-1.923l-0.695,0.942L194.627,173.264z"/>
	<path fill="#ACDBE3" d="M196.395,171.578c-0.122,0.349-0.182,0.714-0.268,1.073c0.652,2.122,3.798,1.826,3.798,1.826
		c0.014-0.106,0.024-0.211,0.033-0.314C198.359,173.871,196.562,173.229,196.395,171.578z"/>
	<path fill="#EAF7FE" d="M176.21,173.643c0,0,1.522-0.06,2.897,0.433l-0.297,0.395c0,0,0.855,0.639,1.558,1.727l-9.557,0.177
		C170.811,176.375,173.064,169.727,176.21,173.643z"/>
	<path fill="#ACDBE3" d="M174.712,175.408c0.99-0.015,1.981-0.031,2.97-0.018c0.751,0.01,1.502,0.029,2.253,0.015
		c0.144,0.174,0.29,0.367,0.429,0.582l-9.557,0.177c0,0,0.09-0.262,0.26-0.649C172.281,175.462,173.496,175.426,174.712,175.408z"/>
	<path fill="#CDEAF5" d="M168.965,172.083c0,0-3.558,0.612-4.617,3.58l0.703-0.097l-0.744,0.943c0,0,3.005,0.91,4.955-1.517
		C171.212,172.564,170.292,172.208,168.965,172.083z"/>
	<path fill="#ACDBE3" d="M164.376,176.421c0.88-0.028,1.758-0.156,2.579-0.47c0.867-0.332,1.603-0.854,2.186-1.537
		c0.118,0.091,0.24,0.176,0.364,0.258c-0.073,0.102-0.154,0.208-0.243,0.319c-1.95,2.427-4.955,1.517-4.955,1.517L164.376,176.421z"
		/>
	<path fill="#DEEFF8" d="M172.326,171.164c0,0-2.097-1.108-4.316-0.029c0,0,0.884,0.53,1.052,0.745c0,0-2.806,2.842-2.136,5.612
		c0.237,0.979,0.159,1.226,0.159,1.226s1.296-0.816,1.947-1.047l0.389,0.348c0,0,2.445-0.728,2.477-3.433
		C171.93,171.882,172.326,171.164,172.326,171.164z"/>
	<path fill="#ACDBE3" d="M167.086,178.371c0.883-0.276,1.774-0.756,2.23-1.569c0.043,0.213,0.079,0.426,0.089,0.645
		c0.002,0.045,0.044,0.062,0.078,0.054c0.013,0.003,0.026,0.003,0.04-0.004c1.239-0.609,1.457-1.879,1.907-3.053
		c-0.009,0.04,0.022,0.088,0.072,0.072c0.134-0.042,0.263-0.095,0.398-0.124c-0.001,0.064-0.002,0.129-0.003,0.195
		c-0.032,2.705-2.477,3.433-2.477,3.433l-0.389-0.348c-0.651,0.231-1.947,1.047-1.947,1.047S167.111,178.634,167.086,178.371z"/>
	<path fill="#EAF7FE" d="M176.441,173.601c0,0-0.53-2.449-0.972-3.205c0,0,0.392-0.362,0.383-0.854l-0.769,0.069l-0.499-0.756
		c0,0-4.163,1.525-3.393,6.154c0,0,3.254,0.186,3.754-2.064l0.73,0.915L176.441,173.601z"/>
	<path fill="#ACDBE3" d="M174.612,171.982c0.135,0.344,0.208,0.706,0.308,1.062c-0.573,2.144-3.728,1.966-3.728,1.966
		c-0.018-0.106-0.032-0.21-0.044-0.312C172.735,174.346,174.506,173.638,174.612,171.982z"/>
	<path fill="#5C5B5D" d="M193.277,153.146c-0.693-0.063-1.899-0.112-3.335,0.04c-1.869,0.198-3.461,0.546-4.411,0.753
		c-0.284,0.062-0.507,0.111-0.677,0.143l-0.186,0.036c-0.209,0.04-0.346,0.066-0.463,0.078c-0.118,0.001-0.257-0.01-0.469-0.028
		l-0.189-0.015c-0.173-0.013-0.4-0.038-0.689-0.069c-0.968-0.103-2.588-0.276-4.467-0.271c-1.444,0.005-2.638,0.184-3.32,0.322
		c0,0-0.729,0.133-1.341,0.433l0.163,0.791c0,0,0.367-0.161,1.01-0.282c0.181,1.118,0.207,2.583,0.207,2.583l0.005,0.045
		c0.008,0.073,0.33,0.108,0.352,0.184c0.164,0.561,0.459,0.871,1.003,1.042c0.534,0.169,1.854,0.276,3.106,0.273
		c0.466-0.001,1.027-0.063,1.556-0.169c0.784-0.158,1.506-0.412,1.768-0.629c0.382-0.315,0.563-1.067,0.677-1.564l0.039-0.147
		c0.041-0.169,0.077-0.347,0.109-0.519c0.047-0.247,0.096-0.503,0.144-0.593c0.009-0.016,0.051-0.071,0.223-0.106
		c0.053-0.011,0.114-0.018,0.18-0.023c0.066-0.003,0.127-0.002,0.182,0.003c0.175,0.016,0.223,0.066,0.233,0.081
		c0.058,0.084,0.133,0.333,0.207,0.573c0.051,0.168,0.104,0.34,0.163,0.504l0.05,0.142c0.167,0.481,0.42,1.209,0.834,1.481
		c0.284,0.187,1.011,0.361,1.808,0.434c0.537,0.049,1.066,0.049,1.529-0.001c1.245-0.132,2.474-0.382,2.986-0.608
		c0.522-0.229,0.636-0.57,0.739-1.146c0.014-0.078,0.026-0.15,0.04-0.224l0.001-0.045c0,0,0.156-1.458,0.215-2.589
		c0.652,0.051,1.324,0.173,1.324,0.173l0.076-0.804C194.016,153.2,193.277,153.146,193.277,153.146z M183,155.439v0.013
		c0,0.26-0.098,1.594-0.35,2.056c-0.244,0.446-0.32,0.585-1.147,0.759c-0.035,0.007-0.069,0.015-0.107,0.023
		c-0.889,0.186-2.53,0.278-3.456,0.152l-0.065-0.016c-0.946-0.13-1.279-0.193-1.391-0.479c-0.152-0.386-0.502-2.193-0.542-2.582
		c-0.03-0.295,0.241-0.447,0.315-0.471c0.046-0.015,0.122-0.034,0.224-0.054c0.652-0.132,2.083-0.304,2.763-0.311
		c0.861-0.008,2.956,0.174,3.44,0.36C183.043,155.027,183,155.164,183,155.439z M192.286,157.085
		c-0.081,0.296-0.405,0.392-1.331,0.623l-0.063,0.016c-0.907,0.226-2.548,0.292-3.453,0.21c-0.039-0.003-0.077-0.007-0.113-0.011
		c-0.84-0.096-1.324-0.154-1.615-0.57c-0.301-0.431-0.941-1.687-0.971-1.945l-0.002-0.013c-0.032-0.273,0.312-0.452,0.654-0.628
		c0.461-0.237,2.731-0.669,3.588-0.754c0.676-0.067,2.214-0.061,2.876-0.001c0.104,0.01,0.229,0.014,0.277,0.024
		c0.077,0.016,0.386,0.133,0.388,0.43C192.523,154.855,192.395,156.685,192.286,157.085z"/>
	<path fill="#5C5B5D" d="M184.256,160.885c2.861,0.581,5.518-0.308,5.518-0.308c0.212-0.073,0.442-0.156,0.698-0.25
		c-0.09-0.224-0.209-0.394-0.211-0.397c-0.017-0.025-0.012-0.056,0.012-0.075c0.025-0.019,0.061-0.021,0.089-0.005
		c0.32,0.187,0.496,0.406,0.525,0.651c0.045,0.386-0.258,1.578-0.272,1.591c-0.014,0.012,0.008,0.908-0.01,0.908H190.6
		c-0.038,0-0.112-0.917-0.111-0.951c0-0.018-0.011-0.478,0.004-0.489c0.106-0.149,0.105-0.548,0.072-0.726
		c-0.113,0.069-0.403,0.124-0.805,0.307c-0.886,0.397-1.788,0.462-2.598,0.442C184.757,161.631,184.256,160.885,184.256,160.885z"/>
</g>
</svg>
