<?xml version="1.0" encoding="utf-8"?>
<!-- Generator: Adobe Illustrator 17.0.0, SVG Export Plug-In . SVG Version: 6.00 Build 0)  -->
<!DOCTYPE svg PUBLIC "-//W3C//DTD SVG 1.1//EN" "http://www.w3.org/Graphics/SVG/1.1/DTD/svg11.dtd">
<svg version="1.1" id="Layer_1" xmlns="http://www.w3.org/2000/svg" xmlns:xlink="http://www.w3.org/1999/xlink" x="0px" y="0px"
	 width="600px" height="350px" viewBox="0 0 600 350" enable-background="new 0 0 600 350" xml:space="preserve">
<g id="Layer_2" display="none">
	<path display="inline" fill="#E5E5E5" d="M575.008,346.149c0,1.536-15.293,2.782-34.155,2.782H154.457
		c-18.862,0-34.155-1.245-34.155-2.782l0,0c0-1.536,15.293-2.782,34.155-2.782h386.396
		C559.715,343.367,575.008,344.613,575.008,346.149L575.008,346.149z"/>
	<g display="inline">
		<path fill="#EAF7FE" d="M113.954,330.774c0,0-1.22-16.661,0.844-22.857c2.065-6.195-36.514-13.939-36.514-13.939
			s0.938,18.022,2.628,23.655"/>
		<path fill="#E5E5E5" d="M129.2,328.366c-66.554,0.401-118.877,4.519-118.877,9.542c0,5.064,53.191,9.209,120.528,9.551
			C130.227,341.1,129.62,334.741,129.2,328.366z"/>
		<path fill="#A1D4E9" d="M59.322,235.217l-5.069,7.509l-3.192,1.502l2.628,0.939c0,0-9.95,12.015-11.077,19.149
			c0,0,3.38-1.69,4.881-2.065c0,0-4.694,8.26-4.694,12.766c0,0,3.004-1.878,4.318-1.69c0,0-4.694,4.881-7.134,6.008
			c0,0,2.816,0.376,3.942,0c0,0-5.632,6.571-5.069,20.088c0,0,1.878-2.065,3.192-2.628c0,0,1.502,14.268,23.655,21.965
			c0,0-2.44-6.195-2.44-9.574c0,0,4.318,2.391,9.199,2.579c0,0-3.285-5.558-2.91-7.558h4.225l-0.376-8.4c0,0-6.336-2.791-5.022-9.55
			c0,0-1.431-2.428-5.374-12.566C59.347,264.279,66.541,230.924,59.322,235.217z"/>
		<path fill="#EAF7FE" d="M113.671,315.098c0.025-1.516-1.029-1.736-2.828-1.058c-3.424-2.374-8.913,0.629-8.913,0.629
			c-0.722,0.024-1.431,0.053-2.128,0.086c-2.126-0.2-9.244-0.801-13.619-0.343c0,0,1.08,0.751,1.481,1.492
			c-4.591,0.693-13.505,1.628-16.721,2.735c-2.513,0.697-7.98,2.271-10.443,3.424c0,0,1.338,0.12,1.82,0.558
			c-1.72,1.026-4.349,3.002-6.845,6.532c0,0,0.833-0.35,1.589-0.613c-1.955,3.37-2.221,5.072-2.062,7.734
			c-0.098,0.78-0.239,1.685-0.421,2.555c1.6-0.156,3.195-0.361,4.798-0.479c0.035,0.165,0.024,0.354,0.049,0.613l0.196,1.252
			l4.75-0.317l0.738-0.036l0.12,1.605c0,0,32.575-1.12,47.311-1.308c0,0,2.253,0.07,2.182-1.619
			C114.645,336.567,113.531,323.546,113.671,315.098z"/>
		<path fill="#EAF7FE" d="M119.632,122.764c0,0-9.34,0.563-15.817,8.448l-1.96-8.166l-8.929,4.036c0,0-6.568-11.639-3.47-17.835
			c0,0-16.052-0.563-29.006,26.471c0,0-5.915-7.603-3.943-14.925c0,0-21.965,16.615-16.896,39.706c0,0-4.788-1.408-6.196-6.758
			c0,0-2.534,27.879,18.304,66.458c0,0-3.849-3.191-5.163-3.004c0,0,4.131,5.632,5.82,9.574c0,0-2.628-0.751-4.318-0.188
			c0,0,9.011,3.004,11.264,8.636c1.624,3.393,3.256,14.254,4.13,38.298c6.056,12.111,14.783,37.075,55.945,34.355L119.632,122.764z"
			/>
		
			<ellipse transform="matrix(0.9787 -0.2052 0.2052 0.9787 -43.9001 21.8152)" fill="#CDEAF5" cx="83.229" cy="222.565" rx="6.102" ry="7.722"/>
		
			<ellipse transform="matrix(0.9787 -0.2052 0.2052 0.9787 -41.4513 27.4019)" fill="#CDEAF5" cx="111.388" cy="213.552" rx="6.102" ry="7.722"/>
		
			<ellipse transform="matrix(0.9787 -0.2052 0.2052 0.9787 -40.997 27.3778)" fill="#FFFFFF" cx="111.499" cy="211.35" rx="6.008" ry="7.603"/>
		<path fill="#4F4E51" d="M110.25,207.279c-0.009,0.193-0.001,0.39,0.041,0.592c0.22,1.049,1.081,1.754,1.923,1.577
			c0.749-0.157,1.228-0.958,1.172-1.87c0.613,0.529,1.086,1.316,1.283,2.252c0.408,1.94-0.528,3.779-2.088,4.106
			s-3.155-0.98-3.562-2.922C108.694,209.464,109.227,207.98,110.25,207.279z"/>
		
			<ellipse transform="matrix(0.9787 -0.2052 0.2052 0.9787 -43.4458 21.7912)" fill="#FFFFFF" cx="83.34" cy="220.363" rx="6.008" ry="7.603"/>
		<path fill="#4F4E51" d="M82.653,216.291c-0.009,0.193-0.001,0.39,0.041,0.592c0.22,1.049,1.081,1.754,1.923,1.577
			c0.749-0.157,1.228-0.958,1.172-1.87c0.613,0.529,1.086,1.316,1.283,2.252c0.408,1.94-0.528,3.779-2.088,4.106
			s-3.155-0.98-3.562-2.922C81.097,218.475,81.63,216.992,82.653,216.291z"/>
		<path fill="#5C5B5D" d="M99.873,238.127c0,0,3.285-2.721,3.567-4.318c0,0,9.95-2.535,14.643-9.293
			C118.083,224.516,116.863,242.163,99.873,238.127z"/>
		<path fill="#A1D4E9" d="M78.659,198.234c0,0-7.509,0.376-8.072,7.509c0,0-3.192-5.069,1.314-8.26
			C76.406,194.291,78.659,198.234,78.659,198.234z"/>
		<path fill="#A1D4E9" d="M71.713,190.724c0,0-6.946,0.376-6.758,6.758c0,0-3.192-3.943,0.188-7.134
			C68.521,187.157,71.713,190.724,71.713,190.724z"/>
		<path fill="#CDEAF5" d="M114.727,308.129c0,0-22.176-2.6-36.256-15.836l3.661,0.925c0,0-9.293-8.012-14.08-23.012h2.534
			c0,0-1.873-9.468-5.799-20.011c-0.027-0.917-0.02-1.538-0.02-1.538c-1.926-5.175-5.562-17.349-6.801-24.068
			c-1.163-11.116-6.476-20.987-6.727-24.141c1.251-3.657,4.517-10.649,4.517-10.649c-1.315,0.375-5.444,2.621-5.444,2.621
			c-1.69-12.578,7.134-25.535,7.134-25.535c-5.444-0.563-12.39,4.316-12.39,4.316c-2.441-17.459,6.383-32.479,6.383-32.479
			c-0.375,6.383,8.636,15.206,8.636,15.206c6.409-28.669,24.782-39.461,28.453-41.359c0.121-1.149,0.407-2.276,0.93-3.322
			c0,0-16.052-0.563-29.006,26.471c0,0-5.915-7.603-3.943-14.925c0,0-10.717,8.109-15.451,20.869
			c-1.667-1.745-3.135-6.695-3.135-6.695c-2.816,9.574,1.501,25.157,1.501,25.157s0.021-0.105,0.056-0.28
			c0.043,0.218,0.084,0.436,0.133,0.655c0,0-4.788-1.408-6.196-6.758c0,0-2.534,27.879,18.304,66.458c0,0-3.849-3.191-5.163-3.004
			c0,0,4.131,5.632,5.82,9.574c0,0-2.628-0.751-4.318-0.188c0,0,5.905,2.446,8.278,7.047c0.011,0.031,0.018,0.054,0.03,0.086
			c1.69,4.787,2.957,9.574,2.957,9.574l-2.253,5.632l1.83,0.563c0.282,1.126,1.267,12.39,1.267,12.39s0.073-0.453,0.176-1.151
			c0.128,0.965,0.276,1.975,0.45,3.023c-0.665-0.161-1.556-0.365-1.841-0.385c-0.558-0.161-1.032-0.266-1.306-0.22
			c0,0,0.226,1.262,1.979,3.666c0.031,0.225,0.098,0.445,0.178,0.662c1.139,5.42,2.959,11.502,5.862,17.37
			c0.64,2.102,0.717,5.419,1.12,6.462l1.267-1.69c0.791,1.189,0.563,0.892,1.032,2.206l1.924,4.693l0.275-2.611
			c2.122,2.742,4.583,5.306,7.432,7.578c0.485,0.397,0.988,0.776,1.504,1.142c0.168,0.122,0.333,0.247,0.504,0.367
			c0,0-0.014-0.018-0.03-0.039c0.377,0.254,0.767,0.496,1.164,0.733c3.223,4.156,5.536,7.473,5.625,9.021c0,0,5.35,5.28,7.322,7.251
			l1.971-3.978c0,0,8.448,9.557,17.178,9.839C113.953,325.817,113.249,316.225,114.727,308.129z M50.851,202.545
			c-0.016-0.249-0.031-0.485-0.045-0.702c0.042-0.153,0.069-0.23,0.069-0.23c0.008-0.033,0.019-0.071,0.029-0.106
			C50.882,201.83,50.865,202.177,50.851,202.545z"/>
		<path fill="#C0E5F3" d="M60.733,229.311c-0.021-0.188-0.041-0.374-0.062-0.561l0.162,1.14
			C60.799,229.696,60.766,229.503,60.733,229.311z"/>
		<path fill="#A1D4E9" d="M104.379,199.36c0,0,3.942-2.253,6.758-0.422c0,0,0.282-3.098-3.379-2.816
			C104.097,196.403,104.379,199.36,104.379,199.36z"/>
		<path fill="#5C5B5D" d="M130.089,212.412c0,0-0.549-5.768-1.213-10.194c2.567-0.317,5.263-0.376,5.263-0.376l-0.34-3.174
			c-2.667-0.388-5.57-0.012-5.57-0.012c-2.734,0.303-7.442,1.066-12.884,2.789c-7.08,2.243-12.969,4.847-16.487,6.402
			c-1.05,0.464-1.876,0.828-2.51,1.087l-0.692,0.285c-1.244,0.513-1.805,0.745-2.503,0.859c-0.013,0.04-0.031,0.078-0.044,0.118
			c-0.38,0.103-0.837,0.206-1.458,0.345l-0.731,0.164c-0.668,0.152-1.553,0.327-2.679,0.55c-3.773,0.747-10.089,1.997-17.174,4.225
			c-5.445,1.714-9.738,3.792-12.15,5.114c0,0-2.593,1.358-4.554,3.208l1.544,2.794c0,0,2.241-1.5,4.525-2.715
			c1.997,4.005,4.859,9.043,4.859,9.043l0.076,0.16c0.166,0.245,0.325,0.485,0.498,0.746c1.279,1.924,2.231,2.98,4.484,2.989
			c2.214,0.01,7.059-1.019,11.781-2.503c1.756-0.552,3.672-1.385,5.542-2.407c2.773-1.52,5.132-3.296,5.867-4.422
			c1.069-1.638,0.838-4.674,0.685-6.683l-0.042-0.593c-0.047-0.686-0.128-1.396-0.207-2.085c-0.114-0.988-0.232-2.008-0.155-2.403
			c0.014-0.07,0.108-0.327,0.716-0.661c0.285-0.155,0.638-0.3,1.045-0.437c0.106-0.018,0.21-0.036,0.306-0.047
			c0.691-0.076,0.915,0.081,0.966,0.13c0.29,0.28,0.778,1.182,1.253,2.056c0.331,0.61,0.672,1.238,1.028,1.826l0.306,0.51
			c1.028,1.733,2.583,4.351,4.398,5.078c1.248,0.5,4.199,0.599,7.343,0.252c2.118-0.237,4.165-0.655,5.92-1.211
			c4.717-1.496,9.276-3.436,11.083-4.714c1.84-1.301,2.012-2.712,1.955-5.022c-0.008-0.313-0.016-0.6-0.021-0.897L130.089,212.412z
			 M91.509,224.353c-0.398,1.969-0.602,2.499-3.495,4.17c-0.124,0.071-0.253,0.144-0.39,0.217c-3.15,1.726-9.199,4.073-12.845,4.684
			l-0.252,0.043c-3.722,0.619-5.047,0.786-5.808-0.161c-1.027-1.28-4.468-7.679-5.074-9.1c-0.46-1.079,0.385-1.965,0.637-2.143
			c0.157-0.111,0.422-0.268,0.783-0.466c2.305-1.262,7.505-3.596,10.061-4.42c3.237-1.041,11.418-2.834,13.461-2.7
			c1.519,0.098,1.648,0.628,1.901,1.687l0.012,0.051C90.74,217.218,91.918,222.315,91.509,224.353z M127.502,214.693
			c-0.08,1.212-1.261,1.837-4.663,3.466l-0.232,0.11c-3.335,1.593-9.636,3.144-13.206,3.54c-0.154,0.018-0.303,0.032-0.444,0.046
			c-3.328,0.293-3.799-0.024-5.256-1.408c-1.505-1.434-3.466-6.283-3.846-7.241l-0.019-0.049c-0.401-1.013-0.6-1.52,0.588-2.473
			c1.596-1.283,9.323-4.511,12.571-5.518c2.566-0.793,8.163-1.869,10.775-2.158c0.409-0.045,0.716-0.068,0.908-0.068
			c0.31,0.001,1.511,0.241,1.752,1.389C126.75,205.84,127.607,213.054,127.502,214.693z"/>
		<path fill="#A1D4E9" d="M103.393,192.742c0,0,4.506-3.379,8.026-0.563c0,0,0.141-2.675-3.52-2.816
			C104.238,189.222,103.393,192.742,103.393,192.742z"/>
		<path fill="#B2DEEF" d="M93.303,247.608c0,0,4.036,1.877,5.82,2.159c0,0,2.722-3.566,4.693-4.599c0,0,1.971,4.318,4.787,5.82
			c0,0,3.098-5.538,7.416-7.322c0,0,1.971,2.065,4.13,2.347l-0.094,4.036c0,0-3.004-1.126-4.13-2.159c0,0-4.975,6.852-4.318,9.574
			c0,0-6.289-3.004-9.105-6.008c0,0-2.816,2.066-3.473,3.004C99.028,254.46,95.086,251.175,93.303,247.608z"/>
		<path fill="#85C1CE" d="M55.38,282.855c0,0,6.618,13.235,6.336,19.29c0,0-6.618-0.141-12.39-4.928c0,0,8.87,8.73,16.896,7.603
			C66.222,304.82,64.673,291.866,55.38,282.855z"/>
		<path fill="#5C5B5D" d="M40.269,174.187c-0.479,0.239-2.042,0.93-2.042,0.93c-13.9,6.896-28.988,0.141-28.988,0.141
			s2.627,9.044,11.969,14.068c9.345,5.023,22.481,1.129,22.481,1.129c1.14,1.605,1.883,5.926,1.883,5.926s2.005-5.594-0.241-13.703
			C43.757,176.996,40.565,174.039,40.269,174.187"/>
		<path fill="#747F83" d="M40.269,174.187c-0.463,0.223-2.042,0.93-2.042,0.93c-13.9,6.896-28.988,0.141-28.988,0.141
			s14.334,16.227,35.553,5.735C44.791,180.992,43.952,177.243,40.269,174.187"/>
		<path fill="#CDEAF5" d="M64.376,339.9l-1.445,0.097c-1.168-16.357,13.925-16.194,13.925-16.194
			c-13.504,4.131-11.743,16.062-11.743,16.062L64.376,339.9z"/>
		<path fill="#CDEAF5" d="M88.609,318.383c-0.938-3.379-1.502-12.39-1.502-12.39l-8.543-5.162c0,5.28,1.948,16.028,1.948,16.028
			c-5.773,0.282-20.557,5.21-20.557,5.21c0.915-0.141,2.366,0.554,2.366,0.554c-3.407,1.469-7.365,6.909-7.365,6.909
			c0.493-0.282,2.109-0.989,2.109-0.989c-1.482,1.404-2.39,6.34-2.39,7.466s-0.634,3.098-0.634,3.098l3.179-0.552
			c0.705-0.074,1.411-0.145,2.118-0.197c-0.189-1.582-1.04-10.72,10.236-15.965c0,0-0.089,0.029-0.238,0.081
			C75.954,319.138,88.609,318.383,88.609,318.383z"/>
		<path fill="#ACDBE3" d="M114.727,308.129c0,0-17.107-1.76-33.159-13.024c0,0,11.276,11.195,20.275,14.08
			c9,2.885,11.968,13.446,11.968,13.446S113.742,313.197,114.727,308.129z"/>
	</g>
	<path display="inline" fill="#5C5B5E" d="M575,336.055c0,4.571-5.106,10.151-11.414,10.151H128.822
		c-6.308,0-11.822-5.579-11.822-10.151V50.104c0-4.571,5.514-7.898,11.822-7.898h434.764c6.309,0,11.414,3.327,11.414,7.898V336.055
		z"/>
	<g display="inline">
		<path fill="#098DBA" d="M153.171,155.968c0.257,0.257,0.416,0.414,0.732,0.414h0.731c0.159,0,0.237-0.079,0.237-0.237v-1.225
			c0-0.633,0.257-0.989,0.989-0.989c0.711-0.019,0.988,0.316,0.988,0.949v1.721c0,1.007-0.652,1.72-1.641,1.72h-1.641
			c-0.612,0-1.087-0.218-1.482-0.613l-2.273-2.254c-0.257-0.257-0.416-0.415-0.732-0.415h-0.731c-0.159,0-0.237,0.079-0.237,0.237
			v1.225c0,0.633-0.257,0.989-0.989,0.989c-0.711,0.019-0.988-0.316-0.988-0.949v-1.721c0-1.008,0.652-1.72,1.641-1.72h1.641
			c0.612,0,1.087,0.218,1.482,0.613L153.171,155.968z"/>
		<path fill="#FFFFFF" d="M179.089,154.644h-0.533c-0.554,0-1.305-0.119-1.305-0.949c0-0.811,0.672-0.949,1.305-0.949h0.533v-0.258
			c0-1.087,0.059-1.877,0.909-2.707c0.91-0.87,1.759-0.949,2.926-0.949h1.285c0.652,0,1.384,0.059,1.384,0.949
			c0,0.81-0.652,0.949-1.305,0.949h-1.482c-1.285,0-1.819,0.257-1.819,1.641v0.376h1.681c0.633,0,1.304,0.138,1.304,0.949
			c0,0.83-0.751,0.949-1.304,0.949h-1.681v7.451c0,0.653-0.138,1.305-0.949,1.305s-0.949-0.652-0.949-1.305V154.644z"/>
		<path fill="#FFFFFF" d="M191.03,156.284c0-1.265,0.257-1.699,1.206-2.471c0.929-0.771,1.364-1.066,2.689-1.066h1.501
			c1.324,0,1.759,0.296,2.689,1.066c0.949,0.772,1.206,1.206,1.206,2.471v3.578c0,1.246-0.316,1.72-1.305,2.55
			c-0.988,0.83-1.384,0.989-2.59,0.989h-1.501c-1.206,0-1.602-0.159-2.59-0.989c-0.989-0.83-1.305-1.304-1.305-2.55V156.284z
			 M192.927,159.862c0,0.395,0.138,0.652,0.692,1.127c0.416,0.355,0.711,0.514,1.305,0.514h1.501c0.594,0,0.889-0.159,1.305-0.514
			c0.554-0.475,0.692-0.732,0.692-1.127v-3.578c0-0.395-0.138-0.652-0.692-1.126c-0.416-0.356-0.711-0.514-1.305-0.514h-1.501
			c-0.594,0-0.889,0.158-1.305,0.514c-0.554,0.474-0.692,0.731-0.692,1.126V159.862z"/>
		<path fill="#FFFFFF" d="M215.048,161.997c0,0.435,0.079,1.403-0.929,1.403c-0.811,0-0.949-0.672-0.949-1.324v-0.316l-1.541,1.008
			c-0.613,0.395-1.127,0.633-1.641,0.633h-1.403c-0.534,0-1.127-0.159-1.759-0.692c-0.85-0.732-0.83-1.541-0.87-2.57l-0.198-5.969
			c-0.019-0.692,0.079-1.423,0.949-1.423c0.811,0,0.909,0.692,0.929,1.304l0.198,5.831c0.019,0.435,0.04,0.949,0.198,1.226
			c0.158,0.276,0.652,0.395,1.107,0.395h0.633c0.217,0,0.415-0.059,0.593-0.178l2.787-1.759v-5.515c0-0.652,0.138-1.304,0.949-1.304
			s0.949,0.652,0.949,1.304v7.946L215.048,161.997L215.048,161.997z"/>
		<path fill="#FFFFFF" d="M222.384,156.58v5.515c0,0.653-0.138,1.305-0.949,1.305s-0.949-0.652-0.949-1.305v-7.946
			c0-0.692,0.079-1.403,0.949-1.403c0.851,0,0.949,0.711,0.949,1.383v0.218v0.039l1.541-1.007c0.494-0.316,1.029-0.633,1.641-0.633
			h1.404c0.731,0,1.185,0.198,1.758,0.692c0.851,0.731,0.811,1.541,0.851,2.569l0.198,5.969c0.019,0.672-0.079,1.424-0.929,1.424
			c-0.771,0-0.928-0.652-0.949-1.285l-0.198-5.852c-0.04-1.166-0.138-1.62-1.285-1.62h-0.633c-0.198,0-0.395,0.059-0.594,0.177
			L222.384,156.58z"/>
		<path fill="#FFFFFF" d="M240.412,152.746c0.653,0,1.186,0.355,1.878,1.047l0.316,0.336v-3.993c0-0.652,0.138-1.304,0.949-1.304
			s0.949,0.652,0.949,1.304v11.94c0,0.652-0.138,1.324-0.949,1.324c-0.751,0-0.949-0.633-0.949-1.265v-0.119l-0.416,0.416
			c-0.593,0.553-1.245,0.968-1.818,0.968h-1.838c-0.633,0-1.345-0.435-1.621-0.672l-0.652-0.553
			c-0.791-0.672-1.048-1.186-1.048-2.194v-3.815c0-1.008,0.257-1.522,1.048-2.194l0.652-0.554c0.593-0.514,1.028-0.671,1.819-0.671
			h1.68V152.746z M237.111,159.229c0,0.534,0,1.206,0.297,1.443l0.573,0.454c0.237,0.198,0.474,0.376,0.711,0.376h1.344
			c0.237,0,0.573-0.159,0.929-0.474l1.087-0.929c0.277-0.237,0.554-0.475,0.554-0.83v-2.392c0-0.356-0.276-0.594-0.554-0.83
			l-1.087-0.929c-0.356-0.316-0.692-0.474-0.929-0.474h-1.344c-0.237,0-0.474,0.177-0.711,0.375l-0.573,0.456
			c-0.297,0.236-0.297,0.909-0.297,1.442V159.229z"/>
		<path fill="#FFFFFF" d="M253.124,154.644c-0.553,0-1.304-0.119-1.304-0.949c0-0.811,0.671-0.949,1.304-0.949h2.61
			c0.988,0,1.7,0.098,2.45,0.85c0.732,0.732,0.83,1.305,0.851,2.254l0.198,6.444c0.019,0.553-0.257,1.106-0.889,1.106
			c-0.494,0-0.989-0.416-0.968-0.949l-1.305,0.672c-0.533,0.276-0.554,0.276-1.166,0.276h-1.819c-0.851,0-1.463-0.099-2.155-0.672
			c-0.791-0.652-0.989-1.344-0.989-2.332v-0.831c0-0.909,0.217-1.482,0.929-2.115c0.652-0.573,1.384-0.711,2.214-0.711h4.072v-0.435
			c0-1.424-0.316-1.66-1.68-1.66h-2.353L253.124,154.644L253.124,154.644z M253.104,158.637c-0.514,0-1.265,0.138-1.265,0.83v1.265
			c0,0.633,0.771,0.771,1.225,0.771h2.096l2.095-1.087V160c0-1.047-0.297-1.363-1.345-1.363H253.104z"/>
		<path fill="#FFFFFF" d="M268.485,159.822c0,1.068-0.039,1.681,1.265,1.681h0.969c0.771,0,1.127-0.059,1.324-0.83
			c0.118-0.454,0.474-0.771,0.949-0.771c0.533,0,0.968,0.414,0.968,0.949c0,0.533-0.336,1.206-0.652,1.581
			c-0.692,0.83-1.602,0.968-2.61,0.968h-0.968c-0.949,0-1.779-0.217-2.451-0.949c-0.731-0.811-0.692-1.621-0.692-2.649v-5.159
			h-0.612c-0.554,0-1.305-0.119-1.305-0.949c0-0.811,0.672-0.949,1.305-0.949h0.612v-1.938c0-0.652,0.139-1.305,0.949-1.305
			c0.811,0,0.949,0.653,0.949,1.305v1.938h3.183c0.633,0,1.304,0.138,1.304,0.949c0,0.83-0.751,0.949-1.304,0.949h-3.183
			L268.485,159.822L268.485,159.822z"/>
		<path fill="#FFFFFF" d="M285.032,161.503h1.424c0.633,0,1.304,0.138,1.304,0.949c0,0.83-0.751,0.949-1.304,0.949h-4.824
			c-0.553,0-1.304-0.119-1.304-0.949c0-0.811,0.671-0.949,1.304-0.949h1.503v-6.859h-1.503c-0.553,0-1.304-0.119-1.304-0.949
			c0-0.811,0.671-0.949,1.304-0.949h1.997c1.087,0,1.403,0.198,1.403,1.324L285.032,161.503L285.032,161.503z M282.166,148.911
			c0-0.672,0.376-0.889,0.889-0.889h1.087c0.514,0,0.889,0.217,0.889,0.889v0.909c0,0.672-0.376,0.889-0.889,0.889h-1.087
			c-0.514,0-0.889-0.217-0.889-0.889V148.911z"/>
		<path fill="#FFFFFF" d="M294.128,156.284c0-1.265,0.257-1.699,1.205-2.471c0.928-0.771,1.364-1.066,2.688-1.066h1.503
			c1.326,0,1.759,0.296,2.688,1.066c0.95,0.772,1.207,1.206,1.207,2.471v3.578c0,1.246-0.317,1.72-1.304,2.55
			c-0.989,0.83-1.384,0.989-2.591,0.989h-1.503c-1.205,0-1.6-0.159-2.588-0.989c-0.989-0.83-1.304-1.304-1.304-2.55L294.128,156.284
			L294.128,156.284z M296.026,159.862c0,0.395,0.138,0.652,0.691,1.127c0.414,0.355,0.712,0.514,1.304,0.514h1.503
			c0.594,0,0.889-0.159,1.306-0.514c0.553-0.475,0.691-0.732,0.691-1.127v-3.578c0-0.395-0.138-0.652-0.691-1.126
			c-0.417-0.356-0.712-0.514-1.306-0.514h-1.503c-0.592,0-0.889,0.158-1.304,0.514c-0.553,0.474-0.691,0.731-0.691,1.126V159.862z"
			/>
		<path fill="#FFFFFF" d="M310.753,156.58v5.515c0,0.653-0.14,1.305-0.95,1.305s-0.948-0.652-0.948-1.305v-7.946
			c0-0.692,0.078-1.403,0.948-1.403c0.851,0,0.95,0.711,0.95,1.383v0.218v0.039l1.541-1.007c0.494-0.316,1.028-0.633,1.641-0.633
			h1.403c0.732,0,1.185,0.198,1.759,0.692c0.848,0.731,0.81,1.541,0.848,2.569l0.199,5.969c0.019,0.672-0.08,1.424-0.928,1.424
			c-0.771,0-0.93-0.652-0.95-1.285l-0.196-5.852c-0.041-1.166-0.14-1.62-1.287-1.62h-0.633c-0.196,0-0.395,0.059-0.592,0.177
			L310.753,156.58z"/>
		<path fill="#FFFFFF" d="M340.209,156.58v5.515c0,0.653-0.14,1.305-0.95,1.305s-0.948-0.652-0.948-1.305v-7.946
			c0-0.692,0.078-1.403,0.948-1.403c0.851,0,0.95,0.711,0.95,1.383v0.218v0.039l1.541-1.007c0.494-0.316,1.028-0.633,1.641-0.633
			h1.403c0.732,0,1.185,0.198,1.759,0.692c0.848,0.731,0.81,1.541,0.848,2.569l0.199,5.969c0.019,0.672-0.08,1.424-0.928,1.424
			c-0.771,0-0.93-0.652-0.95-1.285l-0.196-5.852c-0.041-1.166-0.14-1.62-1.287-1.62h-0.633c-0.196,0-0.395,0.059-0.592,0.177
			L340.209,156.58z"/>
		<path fill="#FFFFFF" d="M356.517,163.4c-0.79,0-1.107,0-1.699-0.514l-0.812-0.711c-0.751-0.672-0.967-1.107-0.967-2.135v-3.657
			c0-1.008,0.138-1.601,0.928-2.273l0.671-0.573c0.889-0.771,1.326-0.79,2.096-0.79h1.74c0.928,0,1.362,0.098,2.094,0.692
			l0.771,0.612c0.87,0.692,0.989,1.424,0.989,2.471v1.522c0,1.088-0.177,1.403-1.304,1.403h-6.088v0.633
			c0,0.178,0.138,0.416,0.276,0.554l0.473,0.514c0.259,0.277,0.633,0.356,1.265,0.356h4.074c0.633,0,1.304,0.138,1.304,0.949
			c0,0.83-0.751,0.949-1.304,0.949h-4.507V163.4z M354.937,157.549h5.494v-1.146c0-0.355,0.019-0.652-0.237-0.889l-0.732-0.633
			c-0.237-0.217-0.613-0.236-0.909-0.236h-1.602c-0.354,0-0.652,0-0.967,0.217l-0.652,0.475c-0.237,0.177-0.395,0.315-0.395,0.869
			V157.549z"/>
		<path fill="#FFFFFF" d="M373.362,159.012l1.028,1.758l0.594-1.758l0.196-4.903c0.019-0.652,0.138-1.363,0.95-1.363
			c0.829,0,0.948,0.711,0.928,1.363l-0.199,5.278l-0.928,2.807c-0.199,0.573-0.296,1.206-0.969,1.206h-0.73
			c-0.337,0-0.613-0.356-0.792-0.613l-1.028-1.541l-1.028,1.541c-0.177,0.257-0.453,0.613-0.79,0.613h-0.732
			c-0.671,0-0.771-0.633-0.969-1.206l-0.928-2.807l-0.196-5.278c-0.022-0.652,0.097-1.363,0.928-1.363
			c0.81,0,0.928,0.711,0.948,1.363l0.199,4.903l0.594,1.758l1.028-1.758v-1.74c0-0.652,0.138-1.324,0.948-1.324
			c0.812,0,0.95,0.672,0.95,1.324v1.74H373.362z"/>
		<path fill="#FFFFFF" d="M402.818,155.928v6.167c0,0.653-0.138,1.305-0.95,1.305c-0.81,0-0.948-0.652-0.948-1.305v-6.345
			c0-0.316,0.039-0.909-0.456-0.909c-0.218,0-0.356,0.177-0.514,0.316l-0.829,0.771v6.167c0,0.653-0.14,1.305-0.95,1.305
			s-0.948-0.652-0.948-1.305v-8.005c0-0.672,0.177-1.344,0.987-1.344c0.475,0,0.792,0.316,0.911,0.75l0.158-0.118
			c0.494-0.376,0.79-0.633,1.442-0.633c0.732,0,1.306,0.355,1.74,0.949l0.158-0.159c0.594-0.593,0.831-0.79,1.66-0.79
			c0.633,0,1.207,0.276,1.582,0.771c0.475,0.612,0.434,1.166,0.453,1.898l0.199,6.562c0.019,0.672-0.08,1.424-0.928,1.424
			c-0.771,0-0.93-0.652-0.95-1.285l-0.196-6.266c-0.022-0.337,0.078-1.008-0.436-1.008c-0.276,0-0.633,0.474-0.79,0.652
			L402.818,155.928z"/>
		<path fill="#FFFFFF" d="M419.344,155.137v-1.087c0-0.652,0.138-1.304,0.948-1.304c0.812,0,0.95,0.652,0.95,1.304v0.771
			c0,0.475-0.039,0.791-0.237,1.206l-4.784,10.418c-0.414,0.889-0.633,0.989-1.503,0.989h-1.462c-0.555,0-1.304-0.119-1.304-0.949
			c0-0.811,0.671-0.949,1.304-0.949h1.304l1.403-2.906h-0.099c-0.79,0-0.829-0.356-1.125-1.008l-2.334-5.16
			c-0.257-0.573-0.453-1.008-0.453-1.561v-0.851c0-0.652,0.138-1.304,0.948-1.304s0.95,0.652,0.95,1.304v1.087l2.55,5.595h0.414
			L419.344,155.137z"/>
		<path fill="#FFFFFF" d="M435.969,159.289c0,1.364-0.099,1.878-1.207,2.747l-1.146,0.91c-0.395,0.316-1.008,0.85-1.522,0.85h-1.285
			c-0.851,0-1.246-0.554-1.857-1.127l-0.376-0.355v3.815c0,0.652-0.14,1.305-0.95,1.305s-0.948-0.653-0.948-1.305v-11.978
			c0-0.672,0.078-1.403,0.948-1.403c0.771,0,0.95,0.612,0.95,1.245v0.237l0.376-0.336c0.492-0.435,1.243-1.146,1.779-1.146h1.304
			c0.453,0,1.066,0.474,1.58,0.869l1.146,0.889c1.107,0.87,1.207,1.404,1.207,2.748v2.035L435.969,159.289L435.969,159.289z
			 M434.072,156.996c0-0.356-0.099-0.573-0.395-0.83l-1.423-1.186c-0.179-0.159-0.397-0.336-0.654-0.336h-0.492
			c-0.279,0-0.613,0.355-0.812,0.553l-1.185,1.127c-0.395,0.376-0.533,0.593-0.533,1.008v1.858c0,0.277,0.078,0.633,0.276,0.811
			l1.442,1.364c0.276,0.276,0.574,0.533,0.812,0.533h0.492c0.257,0,0.475-0.178,0.654-0.336l1.423-1.186
			c0.296-0.257,0.395-0.474,0.395-0.83V156.996z"/>
		<path fill="#FFFFFF" d="M441.407,154.149c0-0.692,0.078-1.403,0.948-1.403c0.751,0,0.95,0.633,0.95,1.265v0.771l1.481-1.226
			c0.533-0.435,1.088-0.81,1.682-0.81h1.522c0.73,0,1.343,0.236,1.857,0.75c0.633,0.633,0.851,1.286,0.851,2.155
			c0,0.653-0.119,1.324-0.928,1.324c-0.693,0-0.969-0.553-0.969-1.166c0-0.316,0-0.554-0.199-0.83
			c-0.235-0.336-0.691-0.336-1.146-0.336h-0.553c-0.356,0-0.613,0.177-0.95,0.454l-2.647,2.193v4.803c0,0.653-0.14,1.305-0.95,1.305
			s-0.948-0.652-0.948-1.305L441.407,154.149L441.407,154.149z"/>
		<path fill="#FFFFFF" d="M456.137,156.284c0-1.265,0.257-1.699,1.205-2.471c0.928-0.771,1.364-1.066,2.688-1.066h1.503
			c1.326,0,1.759,0.296,2.688,1.066c0.95,0.772,1.207,1.206,1.207,2.471v3.578c0,1.246-0.317,1.72-1.304,2.55
			c-0.989,0.83-1.384,0.989-2.591,0.989h-1.503c-1.205,0-1.6-0.159-2.588-0.989c-0.989-0.83-1.304-1.304-1.304-2.55L456.137,156.284
			L456.137,156.284z M458.035,159.862c0,0.395,0.138,0.652,0.691,1.127c0.415,0.355,0.712,0.514,1.304,0.514h1.503
			c0.594,0,0.889-0.159,1.306-0.514c0.553-0.475,0.691-0.732,0.691-1.127v-3.578c0-0.395-0.138-0.652-0.691-1.126
			c-0.417-0.356-0.712-0.514-1.306-0.514h-1.503c-0.592,0-0.889,0.158-1.304,0.514c-0.553,0.474-0.691,0.731-0.691,1.126V159.862z"
			/>
		<path fill="#FFFFFF" d="M479.226,163.933c0,1.048,0,1.859-0.771,2.669c-0.773,0.83-1.582,0.83-2.215,0.83h-1.58
			c-0.535,0-1.168-0.059-1.781-0.534c-0.553-0.415-1.086-1.265-1.086-1.976c0-0.514,0.434-0.929,0.928-0.929
			c0.514,0,0.831,0.277,0.969,0.751c0.196,0.712,0.514,0.791,1.226,0.791h1.244c1.207,0,1.168-0.494,1.168-1.602v-9.29h-2.293
			c-0.555,0-1.306-0.119-1.306-0.949c0-0.811,0.671-0.949,1.306-0.949h2.787c1.086,0,1.403,0.198,1.403,1.324L479.226,163.933
			L479.226,163.933z M476.359,148.911c0-0.672,0.376-0.889,0.889-0.889h1.088c0.514,0,0.889,0.217,0.889,0.889v0.909
			c0,0.672-0.376,0.889-0.889,0.889h-1.088c-0.514,0-0.889-0.217-0.889-0.889V148.911z"/>
		<path fill="#FFFFFF" d="M489.071,163.4c-0.79,0-1.108,0-1.699-0.514l-0.812-0.711c-0.751-0.672-0.967-1.107-0.967-2.135v-3.657
			c0-1.008,0.138-1.601,0.928-2.273l0.671-0.573c0.889-0.771,1.326-0.79,2.096-0.79h1.74c0.928,0,1.362,0.098,2.094,0.692
			l0.771,0.612c0.87,0.692,0.989,1.424,0.989,2.471v1.522c0,1.088-0.177,1.403-1.304,1.403h-6.088v0.633
			c0,0.178,0.138,0.416,0.276,0.554l0.473,0.514c0.259,0.277,0.633,0.356,1.265,0.356h4.074c0.633,0,1.304,0.138,1.304,0.949
			c0,0.83-0.751,0.949-1.304,0.949h-4.507V163.4z M487.49,157.549h5.494v-1.146c0-0.355,0.019-0.652-0.237-0.889l-0.732-0.633
			c-0.237-0.217-0.613-0.236-0.909-0.236h-1.602c-0.354,0-0.652,0-0.967,0.217l-0.652,0.475c-0.237,0.177-0.395,0.315-0.395,0.869
			V157.549z"/>
		<path fill="#FFFFFF" d="M500.321,157.154c0-1.166,0.216-1.739,1.125-2.49l1.405-1.167c0.889-0.731,1.343-0.75,2.45-0.75h3.005
			c0.633,0,1.304,0.138,1.304,0.949c0,0.83-0.751,0.949-1.304,0.949h-3.342c-0.376,0-0.751,0.198-1.086,0.474l-1.146,0.968
			c-0.298,0.237-0.514,0.435-0.514,0.811v2.352c0,0.376,0.216,0.573,0.514,0.811l1.146,0.969c0.335,0.276,0.71,0.474,1.086,0.474
			h3.342c0.553,0,1.304,0.119,1.304,0.949c0,0.811-0.671,0.949-1.304,0.949h-3.005c-1.107,0-1.561-0.019-2.45-0.751l-1.405-1.166
			c-0.909-0.751-1.125-1.324-1.125-2.491V157.154z"/>
		<path fill="#FFFFFF" d="M518.863,159.822c0,1.068-0.041,1.681,1.265,1.681h0.967c0.771,0,1.127-0.059,1.326-0.83
			c0.119-0.454,0.475-0.771,0.948-0.771c0.535,0,0.969,0.414,0.969,0.949c0,0.533-0.337,1.206-0.652,1.581
			c-0.693,0.83-1.602,0.968-2.61,0.968h-0.967c-0.95,0-1.781-0.217-2.452-0.949c-0.732-0.811-0.691-1.621-0.691-2.649v-5.159h-0.613
			c-0.555,0-1.304-0.119-1.304-0.949c0-0.811,0.671-0.949,1.304-0.949h0.613v-1.938c0-0.652,0.138-1.305,0.948-1.305
			c0.812,0,0.95,0.653,0.95,1.305v1.938h3.182c0.633,0,1.304,0.138,1.304,0.949c0,0.83-0.751,0.949-1.304,0.949h-3.182v5.179
			H518.863z"/>
	</g>
	<rect x="540" y="129.206" display="inline" fill="#738083" width="11" height="39"/>
	<g display="inline">
		<path fill="#738083" d="M155.117,119.995c0.514,0,0.989,0.276,0.989,0.988s-0.475,0.989-0.989,0.989h-8.777v-14.39
			c0-0.633,0.277-0.989,0.989-0.989c0.711,0,0.989,0.356,0.989,0.989v12.413H155.117z"/>
		<path fill="#738083" d="M164.487,113.215c-0.553,0-1.304-0.119-1.304-0.949c0-0.811,0.671-0.949,1.304-0.949h2.61
			c0.988,0,1.7,0.098,2.45,0.85c0.732,0.732,0.83,1.305,0.851,2.254l0.198,6.444c0.019,0.553-0.257,1.106-0.889,1.106
			c-0.494,0-0.989-0.416-0.968-0.949l-1.305,0.672c-0.533,0.276-0.554,0.276-1.166,0.276h-1.819c-0.851,0-1.463-0.099-2.155-0.672
			c-0.791-0.652-0.989-1.344-0.989-2.332v-0.831c0-0.909,0.217-1.482,0.929-2.115c0.652-0.573,1.384-0.711,2.214-0.711h4.072v-0.435
			c0-1.424-0.316-1.66-1.68-1.66L164.487,113.215L164.487,113.215z M164.468,117.208c-0.514,0-1.265,0.138-1.265,0.83v1.265
			c0,0.633,0.771,0.771,1.225,0.771h2.096l2.095-1.087v-0.416c0-1.047-0.297-1.363-1.345-1.363
			C167.274,117.208,164.468,117.208,164.468,117.208z"/>
		<path fill="#738083" d="M179.276,113.215c-0.395,0-1.068-0.08-1.068,0.533c0,0.316,0.237,0.435,0.515,0.554l4.744,2.155
			c1.225,0.554,1.858,1.324,1.858,2.688c0,1.918-1.305,2.827-3.123,2.827h-2.926c-0.988,0-1.66-0.04-2.372-0.593
			c-0.356-0.277-0.87-0.633-0.87-1.107c0-0.533,0.454-0.949,0.989-0.949c0.296,0,0.514,0.099,0.731,0.336
			c0.337,0.376,0.929,0.416,1.522,0.416h2.57c0.672,0,1.581,0.059,1.581-1.048c0-0.454-0.554-0.75-0.989-0.949l-4.467-2.036
			c-1.048-0.474-1.661-1.087-1.661-2.312c0-1.503,1.186-2.411,2.61-2.411h3.242c1.048,0,1.482,0.059,2.194,0.652
			c0.355,0.297,0.751,0.533,0.751,1.068c0,0.533-0.456,0.949-0.969,0.949c-0.355,0-0.573-0.138-0.811-0.396
			c-0.316-0.336-0.652-0.375-1.166-0.375h-2.885L179.276,113.215L179.276,113.215z"/>
		<path fill="#738083" d="M194.577,118.393c0,1.068-0.039,1.681,1.265,1.681h0.969c0.771,0,1.127-0.059,1.324-0.83
			c0.118-0.454,0.474-0.771,0.949-0.771c0.533,0,0.968,0.415,0.968,0.949c0,0.533-0.336,1.206-0.652,1.581
			c-0.692,0.83-1.602,0.968-2.61,0.968h-0.968c-0.949,0-1.779-0.217-2.451-0.949c-0.731-0.811-0.692-1.621-0.692-2.649v-5.159
			h-0.612c-0.554,0-1.305-0.119-1.305-0.949c0-0.811,0.672-0.949,1.305-0.949h0.612v-1.938c0-0.652,0.139-1.305,0.949-1.305
			c0.811,0,0.949,0.653,0.949,1.305v1.938h3.183c0.633,0,1.304,0.138,1.304,0.949c0,0.83-0.751,0.949-1.304,0.949h-3.183
			L194.577,118.393L194.577,118.393z"/>
		<path fill="#738083" d="M225.852,120.074h1.424c0.633,0,1.304,0.138,1.304,0.949c0,0.83-0.751,0.949-1.304,0.949h-4.824
			c-0.553,0-1.304-0.119-1.304-0.949c0-0.811,0.671-0.949,1.304-0.949h1.503v-10.773h-1.503c-0.553,0-1.304-0.119-1.304-0.949
			c0-0.811,0.671-0.949,1.304-0.949h1.997c1.087,0,1.403,0.198,1.403,1.324L225.852,120.074L225.852,120.074z"/>
		<path fill="#738083" d="M234.946,114.855c0-1.265,0.257-1.699,1.206-2.471c0.929-0.771,1.364-1.066,2.689-1.066h1.501
			c1.324,0,1.759,0.296,2.689,1.066c0.949,0.772,1.206,1.206,1.206,2.471v3.578c0,1.246-0.316,1.72-1.305,2.55
			c-0.988,0.83-1.384,0.989-2.59,0.989h-1.501c-1.206,0-1.602-0.159-2.59-0.989c-0.989-0.83-1.305-1.304-1.305-2.55V114.855z
			 M236.844,118.433c0,0.395,0.138,0.652,0.692,1.127c0.416,0.355,0.711,0.514,1.305,0.514h1.501c0.594,0,0.889-0.159,1.305-0.514
			c0.554-0.475,0.692-0.732,0.692-1.127v-3.578c0-0.395-0.138-0.652-0.692-1.126c-0.416-0.356-0.711-0.514-1.305-0.514h-1.501
			c-0.594,0-0.889,0.158-1.305,0.514c-0.554,0.474-0.692,0.731-0.692,1.126V118.433z"/>
		<path fill="#738083" d="M249.674,114.855c0-0.889,0.257-1.68,0.652-1.996l1.384-1.087c0.396-0.316,0.692-0.454,1.186-0.454h1.838
			c0.514,0,1.127,0.375,1.858,0.949l0.475,0.376v-0.218c0-0.593,0.316-1.106,0.968-1.106c0.83,0,0.929,0.692,0.929,1.324v9.27
			c0,1.72-0.138,2.076-0.929,2.748l-0.633,0.533c-0.83,0.692-1.304,0.811-2.371,0.811h-3.143c-0.554,0-1.305-0.119-1.305-0.949
			c0-0.811,0.672-0.949,1.305-0.949h3.479c0.395,0,0.652-0.178,0.949-0.435l0.475-0.435c0.158-0.159,0.276-0.435,0.276-0.791v-2.609
			l-0.395,0.396c-0.435,0.434-1.029,0.928-1.562,0.928h-2.233c-0.396,0-0.851-0.059-1.424-0.573l-1.186-1.068
			c-0.553-0.514-0.593-1.008-0.593-1.779V114.855z M251.571,117.465c0,0.395,0.019,0.811,0.237,0.988l0.79,0.633
			c0.139,0.119,0.316,0.178,0.554,0.178h1.384c0.237,0,0.514-0.198,0.87-0.494l1.463-1.206c0.138-0.119,0.198-0.376,0.198-0.633
			v-1.384c0-0.257-0.059-0.514-0.198-0.633l-1.463-1.206c-0.356-0.296-0.633-0.493-0.87-0.493h-1.384
			c-0.237,0-0.415,0.059-0.554,0.177l-0.79,0.633c-0.218,0.178-0.237,0.594-0.237,0.989V117.465z"/>
		<path fill="#738083" d="M270.036,120.074h1.424c0.633,0,1.304,0.138,1.304,0.949c0,0.83-0.751,0.949-1.304,0.949h-4.824
			c-0.553,0-1.304-0.119-1.304-0.949c0-0.811,0.671-0.949,1.304-0.949h1.503v-6.859h-1.503c-0.553,0-1.304-0.119-1.304-0.949
			c0-0.811,0.671-0.949,1.304-0.949h1.997c1.087,0,1.403,0.198,1.403,1.324L270.036,120.074L270.036,120.074z M267.17,107.483
			c0-0.672,0.376-0.889,0.889-0.889h1.087c0.514,0,0.889,0.217,0.889,0.889v0.909c0,0.672-0.376,0.889-0.889,0.889h-1.087
			c-0.514,0-0.889-0.217-0.889-0.889V107.483z"/>
		<path fill="#738083" d="M281.028,115.152v5.515c0,0.653-0.138,1.305-0.949,1.305s-0.949-0.652-0.949-1.305v-7.946
			c0-0.692,0.079-1.403,0.949-1.403c0.85,0,0.949,0.711,0.949,1.383v0.218v0.039l1.541-1.007c0.494-0.316,1.029-0.633,1.641-0.633
			h1.404c0.731,0,1.185,0.198,1.758,0.692c0.851,0.731,0.811,1.541,0.851,2.569l0.198,5.969c0.019,0.672-0.079,1.424-0.929,1.424
			c-0.771,0-0.928-0.652-0.949-1.285l-0.198-5.852c-0.039-1.166-0.138-1.62-1.285-1.62h-0.633c-0.198,0-0.395,0.059-0.594,0.177
			L281.028,115.152z"/>
		<path fill="#738083" d="M297.794,112.74c-0.436,0-0.751,0-1.028-0.376c-0.218-0.297-0.218-0.514-0.218-0.889v-1.106
			c0-0.376,0-0.594,0.218-0.889c0.276-0.376,0.592-0.376,1.028-0.376h1.423c0.434,0,0.751,0,1.028,0.376
			c0.218,0.296,0.218,0.514,0.218,0.889v1.106c0,0.376,0,0.593-0.218,0.889c-0.276,0.376-0.594,0.376-1.028,0.376H297.794z
			 M297.794,119.461c-0.436,0-0.751,0-1.028-0.376c-0.218-0.296-0.218-0.514-0.218-0.889v-1.106c0-0.376,0-0.594,0.218-0.889
			c0.276-0.376,0.592-0.376,1.028-0.376h1.423c0.434,0,0.751,0,1.028,0.376c0.218,0.296,0.218,0.514,0.218,0.889v1.106
			c0,0.376,0,0.594-0.218,0.889c-0.276,0.376-0.594,0.376-1.028,0.376H297.794z"/>
		<path fill="#738083" d="M327.13,118.393c0,1.068-0.041,1.681,1.265,1.681h0.967c0.771,0,1.127-0.059,1.326-0.83
			c0.119-0.454,0.475-0.771,0.948-0.771c0.535,0,0.969,0.415,0.969,0.949c0,0.533-0.337,1.206-0.652,1.581
			c-0.693,0.83-1.602,0.968-2.61,0.968h-0.967c-0.95,0-1.781-0.217-2.452-0.949c-0.732-0.811-0.691-1.621-0.691-2.649v-5.159h-0.613
			c-0.555,0-1.304-0.119-1.304-0.949c0-0.811,0.671-0.949,1.304-0.949h0.613v-1.938c0-0.652,0.138-1.305,0.948-1.305
			c0.812,0,0.95,0.653,0.95,1.305v1.938h3.182c0.633,0,1.304,0.138,1.304,0.949c0,0.83-0.751,0.949-1.304,0.949h-3.182v5.179H327.13
			z"/>
		<path fill="#738083" d="M338.043,114.855c0-1.265,0.257-1.699,1.205-2.471c0.928-0.771,1.364-1.066,2.688-1.066h1.503
			c1.326,0,1.759,0.296,2.688,1.066c0.95,0.772,1.207,1.206,1.207,2.471v3.578c0,1.246-0.317,1.72-1.304,2.55
			c-0.989,0.83-1.384,0.989-2.591,0.989h-1.503c-1.205,0-1.6-0.159-2.588-0.989c-0.989-0.83-1.304-1.304-1.304-2.55L338.043,114.855
			L338.043,114.855z M339.941,118.433c0,0.395,0.138,0.652,0.691,1.127c0.415,0.355,0.712,0.514,1.304,0.514h1.503
			c0.594,0,0.889-0.159,1.306-0.514c0.553-0.475,0.691-0.732,0.691-1.127v-3.578c0-0.395-0.138-0.652-0.691-1.126
			c-0.417-0.356-0.712-0.514-1.306-0.514h-1.503c-0.592,0-0.889,0.158-1.304,0.514c-0.553,0.474-0.691,0.731-0.691,1.126V118.433z"
			/>
		<path fill="#738083" d="M357.97,111.318c0.652,0,1.185,0.355,1.876,1.047l0.317,0.336v-3.993c0-0.652,0.138-1.304,0.948-1.304
			c0.812,0,0.95,0.652,0.95,1.304v11.94c0,0.652-0.138,1.324-0.95,1.324c-0.749,0-0.948-0.633-0.948-1.265v-0.119l-0.414,0.416
			c-0.594,0.553-1.246,0.968-1.82,0.968h-1.837c-0.633,0-1.345-0.435-1.621-0.672l-0.652-0.553c-0.79-0.672-1.047-1.186-1.047-2.194
			v-3.815c0-1.008,0.257-1.522,1.047-2.194l0.652-0.554c0.594-0.514,1.028-0.671,1.818-0.671L357.97,111.318L357.97,111.318z
			 M354.669,117.801c0,0.534,0,1.206,0.296,1.443l0.572,0.454c0.237,0.198,0.475,0.376,0.712,0.376h1.345
			c0.237,0,0.572-0.159,0.928-0.474l1.088-0.929c0.276-0.237,0.553-0.475,0.553-0.83v-2.392c0-0.356-0.276-0.594-0.553-0.83
			l-1.088-0.929c-0.356-0.316-0.691-0.474-0.928-0.474h-1.345c-0.237,0-0.475,0.177-0.712,0.375l-0.572,0.456
			c-0.296,0.236-0.296,0.909-0.296,1.442V117.801z"/>
		<path fill="#738083" d="M370.683,113.215c-0.555,0-1.306-0.119-1.306-0.949c0-0.811,0.674-0.949,1.306-0.949h2.608
			c0.989,0,1.701,0.098,2.452,0.85c0.73,0.732,0.829,1.305,0.848,2.254l0.199,6.444c0.019,0.553-0.257,1.106-0.889,1.106
			c-0.494,0-0.989-0.416-0.969-0.949l-1.304,0.672c-0.533,0.276-0.553,0.276-1.166,0.276h-1.82c-0.848,0-1.462-0.099-2.155-0.672
			c-0.79-0.652-0.987-1.344-0.987-2.332v-0.831c0-0.909,0.216-1.482,0.928-2.115c0.652-0.573,1.384-0.711,2.213-0.711h4.074v-0.435
			c0-1.424-0.317-1.66-1.682-1.66L370.683,113.215L370.683,113.215z M370.664,117.208c-0.516,0-1.265,0.138-1.265,0.83v1.265
			c0,0.633,0.771,0.771,1.224,0.771h2.096l2.094-1.087v-0.416c0-1.047-0.296-1.363-1.343-1.363
			C373.47,117.208,370.664,117.208,370.664,117.208z"/>
		<path fill="#738083" d="M389.621,113.709v-1.087c0-0.652,0.138-1.304,0.948-1.304c0.812,0,0.95,0.652,0.95,1.304v0.771
			c0,0.475-0.039,0.791-0.237,1.206l-4.784,10.418c-0.415,0.889-0.633,0.989-1.503,0.989h-1.462c-0.555,0-1.304-0.119-1.304-0.949
			c0-0.811,0.671-0.949,1.304-0.949h1.304l1.403-2.906h-0.099c-0.79,0-0.829-0.356-1.125-1.008l-2.334-5.16
			c-0.257-0.573-0.453-1.008-0.453-1.561v-0.851c0-0.652,0.138-1.304,0.948-1.304s0.95,0.652,0.95,1.304v1.087l2.55,5.595h0.415
			L389.621,113.709z"/>
		<path fill="#738083" d="M411.684,114.855c0-1.265,0.257-1.699,1.205-2.471c0.928-0.771,1.364-1.066,2.688-1.066h1.503
			c1.326,0,1.759,0.296,2.688,1.066c0.95,0.772,1.207,1.206,1.207,2.471v3.578c0,1.246-0.317,1.72-1.304,2.55
			c-0.989,0.83-1.384,0.989-2.591,0.989h-1.503c-1.205,0-1.6-0.159-2.589-0.989c-0.989-0.83-1.304-1.304-1.304-2.55V114.855z
			 M413.582,118.433c0,0.395,0.138,0.652,0.691,1.127c0.414,0.355,0.712,0.514,1.304,0.514h1.503c0.594,0,0.889-0.159,1.304-0.514
			c0.555-0.475,0.693-0.732,0.693-1.127v-3.578c0-0.395-0.138-0.652-0.693-1.126c-0.414-0.356-0.71-0.514-1.304-0.514h-1.503
			c-0.592,0-0.889,0.158-1.304,0.514c-0.553,0.474-0.691,0.731-0.691,1.126V118.433z"/>
		<path fill="#738083" d="M428.31,115.152v5.515c0,0.653-0.14,1.305-0.95,1.305s-0.948-0.652-0.948-1.305v-7.946
			c0-0.692,0.078-1.403,0.948-1.403c0.851,0,0.95,0.711,0.95,1.383v0.218v0.039l1.541-1.007c0.494-0.316,1.028-0.633,1.641-0.633
			h1.403c0.732,0,1.185,0.198,1.759,0.692c0.848,0.731,0.81,1.541,0.848,2.569l0.199,5.969c0.019,0.672-0.08,1.424-0.928,1.424
			c-0.771,0-0.93-0.652-0.95-1.285l-0.196-5.852c-0.041-1.166-0.14-1.62-1.287-1.62h-0.633c-0.196,0-0.395,0.059-0.592,0.177
			L428.31,115.152z"/>
		<path fill="#738083" d="M459.684,118.393c0,1.068-0.041,1.681,1.265,1.681h0.967c0.771,0,1.127-0.059,1.326-0.83
			c0.119-0.454,0.475-0.771,0.948-0.771c0.535,0,0.969,0.415,0.969,0.949c0,0.533-0.337,1.206-0.652,1.581
			c-0.693,0.83-1.602,0.968-2.61,0.968h-0.967c-0.95,0-1.781-0.217-2.452-0.949c-0.732-0.811-0.691-1.621-0.691-2.649v-5.159h-0.613
			c-0.555,0-1.304-0.119-1.304-0.949c0-0.811,0.671-0.949,1.304-0.949h0.613v-1.938c0-0.652,0.138-1.305,0.948-1.305
			c0.812,0,0.95,0.653,0.95,1.305v1.938h3.182c0.633,0,1.304,0.138,1.304,0.949c0,0.83-0.751,0.949-1.304,0.949h-3.182v5.179
			H459.684z"/>
		<path fill="#738083" d="M474.412,118.393c0,1.068-0.041,1.681,1.265,1.681h0.967c0.771,0,1.127-0.059,1.326-0.83
			c0.119-0.454,0.475-0.771,0.948-0.771c0.535,0,0.969,0.415,0.969,0.949c0,0.533-0.337,1.206-0.652,1.581
			c-0.693,0.83-1.602,0.968-2.61,0.968h-0.967c-0.95,0-1.781-0.217-2.452-0.949c-0.732-0.811-0.691-1.621-0.691-2.649v-5.159h-0.613
			c-0.555,0-1.304-0.119-1.304-0.949c0-0.811,0.671-0.949,1.304-0.949h0.613v-1.938c0-0.652,0.138-1.305,0.948-1.305
			c0.812,0,0.95,0.653,0.95,1.305v1.938h3.182c0.633,0,1.304,0.138,1.304,0.949c0,0.83-0.751,0.949-1.304,0.949h-3.182v5.179
			H474.412z"/>
		<path fill="#738083" d="M492.717,113.709v-1.087c0-0.652,0.138-1.304,0.948-1.304c0.812,0,0.95,0.652,0.95,1.304v0.771
			c0,0.475-0.039,0.791-0.237,1.206l-4.784,10.418c-0.414,0.889-0.633,0.989-1.503,0.989h-1.462c-0.555,0-1.304-0.119-1.304-0.949
			c0-0.811,0.671-0.949,1.304-0.949h1.304l1.403-2.906h-0.099c-0.79,0-0.829-0.356-1.125-1.008l-2.334-5.16
			c-0.257-0.573-0.453-1.008-0.453-1.561v-0.851c0-0.652,0.138-1.304,0.948-1.304s0.95,0.652,0.95,1.304v1.087l2.55,5.595h0.414
			L492.717,113.709z"/>
		<path fill="#738083" d="M503.293,113.215c-0.395,0-1.066-0.08-1.066,0.533c0,0.316,0.237,0.435,0.514,0.554l4.743,2.155
			c1.226,0.554,1.859,1.324,1.859,2.688c0,1.918-1.304,2.827-3.124,2.827h-2.925c-0.989,0-1.66-0.04-2.373-0.593
			c-0.354-0.277-0.868-0.633-0.868-1.107c0-0.533,0.453-0.949,0.987-0.949c0.298,0,0.514,0.099,0.732,0.336
			c0.337,0.376,0.928,0.416,1.522,0.416h2.569c0.674,0,1.582,0.059,1.582-1.048c0-0.454-0.553-0.75-0.989-0.949l-4.467-2.036
			c-1.047-0.474-1.66-1.087-1.66-2.312c0-1.503,1.185-2.411,2.608-2.411h3.243c1.047,0,1.483,0.059,2.193,0.652
			c0.356,0.297,0.751,0.533,0.751,1.068c0,0.533-0.453,0.949-0.967,0.949c-0.356,0-0.574-0.138-0.812-0.396
			c-0.315-0.336-0.652-0.375-1.166-0.375h-2.886L503.293,113.215L503.293,113.215z"/>
	</g>
	<path display="inline" fill="#738083" d="M575,76.206H117V50.917c0-5.238,4.543-8.711,10.921-8.711h435.962
		c6.378,0,11.117,3.473,11.117,8.711V76.206z"/>
	<g display="inline">
		<path fill="#CDEAF5" d="M114.329,155.055c0,0-11.077,8.823-6.571,15.206c4.506,6.383-4.506,14.644,0,19.337
			c4.506,4.693-1.127,16.708,9.762,25.532c0,0,7.51-8.26,9.199-15.957l-3.379-0.376c0,0,11.452-4.318,19.149-12.578
			c0,0-9.199-2.065-16.896-2.065c0,0,12.014-6.195,17.834-5.256c0,0-1.69-7.134-9.199-8.824c0,0,7.321-8.448-3.192-12.015
			S116.582,153.553,114.329,155.055z"/>
		<path fill="#EAF7FE" d="M118.272,151.112c0,0-11.077,8.823-6.571,15.206s-4.506,14.644,0,19.337s-1.127,16.708,9.762,25.532
			c0,0,7.51-8.26,9.199-15.957l-3.379-0.376c0,0,11.452-4.318,19.149-12.578c0,0-9.199-2.065-16.896-2.065
			c0,0,12.014-6.195,17.834-5.256c0,0-1.69-7.134-9.199-8.824c0,0,7.321-8.448-3.192-12.015
			C124.467,150.549,120.525,149.61,118.272,151.112z"/>
		<path fill="#CDEAF5" d="M147.37,174.955c0,0-9.199-6.289-23.279,5.538c0,0,2.583-0.422,5.445-0.282
			C129.536,180.211,142.63,173.922,147.37,174.955z"/>
		<path fill="#CDEAF5" d="M138.171,166.131c0,0-8.167-1.126-12.532-0.141c0,0,4.928-6.477,14.362-2.816
			C140.001,163.174,139.158,165.427,138.171,166.131z"/>
		<path fill="#CDEAF5" d="M146.432,182.276c0,0-20.229,8.636-24.735,12.578c0,0,2.207-0.376,5.586,0
			C127.283,194.854,141.176,189.41,146.432,182.276z"/>
		<path fill="#CDEAF5" d="M130.004,197.248c0,0-6.899,8.87-11.123,11.546c0,0,1.221,1.83,2.582,2.394
			C121.463,211.187,128.737,202.669,130.004,197.248z"/>
	</g>
	<g display="inline">
		<circle fill="#E9F7FE" cx="129.58" cy="59.418" r="3.944"/>
		<circle fill="#E9F7FE" cx="142.594" cy="59.418" r="3.944"/>
		<circle fill="#E9F7FE" cx="155.608" cy="59.418" r="3.944"/>
	</g>
</g>
<g>
	<g>
		<g>
			<g>
				<path fill="#738083" d="M502.086,256.595c0,5.42-4.745,9.855-10.543,9.855H85.104c-5.799,0-10.543-4.435-10.543-9.855V25.316
					c0-5.42,4.745-9.855,10.543-9.855h406.439c5.798,0,10.543,4.435,10.543,9.855L502.086,256.595L502.086,256.595z"/>
			</g>
			<rect x="81.2" y="20.865" fill="#5C5B5E" width="414.246" height="222.117"/>
		</g>
	</g>
	<g>
		<path fill="#FFFFFF" d="M163.261,123.898v-17.017h12.042v3.189h-8.419v3.572h8.24v3.189h-8.24v7.067H163.261z"/>
		<path fill="#FFFFFF" d="M178.339,115.403c0-5.128,3.751-8.802,8.904-8.802c5.128,0,8.878,3.674,8.878,8.802
			c0,5.128-3.75,8.802-8.878,8.802C182.09,124.205,178.339,120.531,178.339,115.403z M192.396,115.403
			c0-3.189-2.016-5.587-5.153-5.587c-3.164,0-5.18,2.398-5.18,5.587c0,3.164,2.016,5.587,5.18,5.587
			C190.381,120.99,192.396,118.566,192.396,115.403z"/>
		<path fill="#FFFFFF" d="M200,117.086v-10.205h3.674v10.103c0,2.373,1.378,4.006,4.006,4.006s3.979-1.633,3.979-4.006v-10.103
			h3.699v10.205c0,4.209-2.5,7.118-7.679,7.118S200,121.296,200,117.086z"/>
		<path fill="#FFFFFF" d="M231.79,123.898l-8.113-11.098v11.098h-3.623v-17.017h3.725l7.884,10.69v-10.69h3.623v17.017H231.79z"/>
		<path fill="#FFFFFF" d="M239.979,123.898v-17.017h6.71c5.332,0,9.031,3.393,9.031,8.496c0,5.154-3.699,8.521-9.006,8.521H239.979z
			 M252.021,115.377c0-2.985-1.837-5.307-5.307-5.307h-3.112v10.639h3.087C250.057,120.709,252.021,118.286,252.021,115.377z"/>
		<path fill="#FFFFFF" d="M270.519,123.898l-1.071-2.883h-7.297l-1.071,2.883h-4.107l6.557-17.017h4.541l6.557,17.017H270.519z
			 M265.799,110.504l-2.653,7.322h5.307L265.799,110.504z"/>
		<path fill="#FFFFFF" d="M279.831,123.898V110.07h-4.976v-3.189h13.573v3.189h-4.95v13.828H279.831z"/>
		<path fill="#FFFFFF" d="M292.076,123.898v-17.017h3.623v17.017H292.076z"/>
		<path fill="#FFFFFF" d="M299.577,115.403c0-5.128,3.751-8.802,8.904-8.802c5.128,0,8.878,3.674,8.878,8.802
			c0,5.128-3.75,8.802-8.878,8.802C303.328,124.205,299.577,120.531,299.577,115.403z M313.635,115.403
			c0-3.189-2.016-5.587-5.153-5.587c-3.164,0-5.18,2.398-5.18,5.587c0,3.164,2.016,5.587,5.18,5.587
			C311.619,120.99,313.635,118.566,313.635,115.403z"/>
		<path fill="#FFFFFF" d="M332.975,123.898l-8.113-11.098v11.098h-3.623v-17.017h3.726l7.883,10.69v-10.69h3.623v17.017H332.975z"/>
		<path fill="#FFFFFF" d="M352.542,123.898V111.55l-2.832,2.883l-2.066-2.168l5.358-5.383h3.163v17.017H352.542z"/>
		<path fill="#FFFFFF" d="M360.043,115.403c0-4.388,2.169-8.776,7.042-8.776s7.041,4.388,7.041,8.776s-2.168,8.802-7.041,8.802
			S360.043,119.791,360.043,115.403z M370.427,115.403c0-3.138-0.893-5.562-3.342-5.562c-2.424,0-3.343,2.424-3.343,5.562
			s0.919,5.587,3.343,5.587S370.427,118.541,370.427,115.403z"/>
		<path fill="#FFFFFF" d="M381.499,123.898V111.55l-2.832,2.883l-2.066-2.168l5.358-5.383h3.163v17.017H381.499z"/>
	</g>
	<g>
		<path fill="#738083" d="M526.124,260.352c0,0.372-5.275,0.676-11.722,0.676H62.518c-6.447,0-11.722-0.304-11.722-0.676v-15.867
			c0-0.372,5.275-0.676,11.722-0.676h451.884c6.447,0,11.722,0.304,11.722,0.676L526.124,260.352L526.124,260.352z"/>
	</g>
	<path fill="#FFFFFF" d="M197.786,241.389c0,0.526-0.647,0.953-1.446,0.953h-32.769c-0.798,0-1.446-0.427-1.446-0.953v-5.023
		c0-0.526,0.647-0.953,1.446-0.953h32.769c0.798,0,1.446,0.427,1.446,0.953V241.389z"/>
	<path fill="#FFFFFF" d="M222.845,241.389c0,0.526-0.324,0.953-0.723,0.953h-16.384c-0.399,0-0.723-0.427-0.723-0.953v-5.023
		c0-0.526,0.324-0.953,0.723-0.953h16.384c0.399,0,0.723,0.427,0.723,0.953V241.389z"/>
	<path fill="#FFFFFF" d="M371.714,144.179c-65.461-0.311-132.253-1.604-196.554,0.594c-13.661,0.467-7.853,3.099,5.849,2.63
		c62.193-2.126,127.376-0.798,190.704-0.497C385.909,146.974,385.856,144.246,371.714,144.179z"/>
	<g>
		<rect x="93.773" y="220.297" fill="#404040" width="51.972" height="21.053"/>
		<rect x="93.773" y="231.922" opacity="0.05" fill="#E9F7FE" width="51.972" height="9.428"/>
	</g>
</g>
<g>
	<g>
		<path opacity="0.2" enable-background="new    " d="M309.286,203.214c0,0-8.062,2.602-9.304,10.696
			c-0.373,1.361-0.863,3.689-0.78,6.331l0.974-0.813c0.062,0.312,0.124,0.622,0.204,0.944c2.931,11.842,11.787,19.056,11.787,19.056
			l0.262-6.745c0,0,8.382,12.442,19.777,14.014c0,0-4.322-7.859-5.108-9.823c0,0-0.785-4.715-0.392-6.287
			c0,0,11.395,6.68,20.825-0.392c0,0,4.241,1.537,11.409,3.067c-0.926,0.556-2.306,1.562-3.158,3.024c0,0,8.447-1.622,15.323-0.983
			c0.228,0.021,0.423,0.038,0.597,0.051c2.001,0.232,13.682,0.434,15.864,0.588c0.786,0.098,25.988-2.089,25.988-2.089
			l-21.076-52.379l-4.184,3.73c-1.43-0.019-7.686-0.181-10.115-1.569c0,0-0.149,1.834,1.839,3.076
			c-5.69,0.787-10.897,1.252-17.293,1.574l-3.666-2.226l0.262,2.226c-4.359-0.83-12.023-2.502-15.128-5.043
			c0,0,2.551,3.996,5.828,5.436c-4.771-0.069-9.101-0.358-13.883-0.917c-23.051-2.698-31.147-9.325-31.966-8.221
			C303.354,180.643,304.173,200.403,309.286,203.214z"/>
		<g opacity="0.2" enable-background="new    ">
			<g>
				<path d="M303.994,169.252l10.135,15.019c1.094,1.622,1.485,3.526,0.754,4.065c-0.731,0.538-3.153,2.127-3.536,2.285
					c-0.383,0.158-1.592-1.038-2.686-2.66l-10.135-15.019c-1.094-1.622-1.485-3.526-0.754-4.065
					c0.731-0.538,1.962-1.369,2.735-1.846C301.279,166.554,302.901,167.629,303.994,169.252z"/>
			</g>
			<g opacity="0.2">
				<g>
					<polygon id="SVGID_3_" points="309.317,191.572 295.212,171.32 297.731,167.589 313.882,191.027 					"/>
				</g>
				<g>
					<defs>
						<polygon id="SVGID_1_" points="309.317,191.572 295.212,171.32 297.731,167.589 313.882,191.027 						"/>
					</defs>
					<use xlink:href="#SVGID_1_"  overflow="visible"/>
					<clipPath id="SVGID_2_">
						<use xlink:href="#SVGID_1_"  overflow="visible"/>
					</clipPath>
					<g opacity="0.1" clip-path="url(#SVGID_2_)">
						<path d="M303.994,169.361l10.135,15.019c1.094,1.622,1.485,3.527,0.754,4.065c-0.731,0.538-3.153,2.128-3.536,2.285
							c-0.383,0.158-1.592-1.038-2.686-2.66l-10.135-15.019c-1.094-1.622-1.485-3.526-0.754-4.065
							c0.731-0.538,1.962-1.369,2.735-1.846C301.279,166.664,302.901,167.739,303.994,169.361z"/>
					</g>
				</g>
			</g>
		</g>
	</g>
	<path fill="#E9F6FD" d="M311.657,196.703c0,0-8.062,2.602-9.304,10.696c-0.373,1.361-0.863,3.689-0.78,6.331l0.974-0.813
		c0.062,0.312,0.124,0.622,0.204,0.944c2.931,11.842,11.787,19.056,11.787,19.056l0.262-6.745c0,0,8.382,12.442,19.777,14.014
		c0,0-4.322-7.859-5.108-9.823c0,0-0.785-4.715-0.392-6.287c0,0,11.395,6.68,20.825-0.392c0,0,4.241,1.537,11.409,3.067
		c-0.926,0.556-2.306,1.562-3.158,3.024c0,0,8.447-1.622,15.323-0.983c0.228,0.021,0.423,0.038,0.597,0.051
		c2.001,0.232,4.097,0.434,6.279,0.588c0.786,0.098,2.14,0.095,2.211,0.098c7.661,0.294,16.453-0.541,16.453-0.541l10.609-54.026
		l-18.96,3.73c-1.43-0.019-7.686-0.181-10.115-1.569c0,0-0.149,1.834,1.839,3.076c-5.69,0.787-10.897,1.252-17.293,1.574
		l-3.666-2.226l0.262,2.226c-4.359-0.83-12.023-2.502-15.128-5.043c0,0,2.551,3.996,5.828,5.436
		c-4.771-0.069-9.101-0.358-13.883-0.917c-23.051-2.698-31.147-9.325-31.966-8.221C305.724,174.132,306.543,193.892,311.657,196.703
		z"/>
	<path fill="#5B5A5D" d="M418.119,121.524c-6.082-1.571-17.308-5.466-23.531-13.848c-8.82-11.885-6.774-24.866-6.774-24.866
		s12.644,14.673,31.418,16.766C418.218,106.839,418.046,114.183,418.119,121.524z"/>
	<path fill="#737F82" d="M418.285,110.158c-23.933-5.007-30.471-27.348-30.471-27.348s12.644,14.673,31.418,16.766
		C418.743,103.088,418.449,106.618,418.285,110.158z"/>
	<ellipse fill="#E4E4E4" cx="468.217" cy="333.306" rx="117.391" ry="13.359"/>
	<path fill="#CCE9F4" d="M391.682,218.051c0,0,0.602,6.227,2.335,11.293c5.501-0.088,11.274-0.485,17.18-1.339
		c2.763-0.399,5.124-1.053,7.145-1.91c2.109-7.842,5.698-22.172,6.178-34.103c-3.138-7.882-7.348-14.946-9.786-18.603
		c0,0-4.783,1.482-12.574,3.228l-6.547,4.762c0,0,5.238,6.81,8.382,8.382c0,0-3.668,14.669-14.931,20.694
		c0,0,2.358,6.548,5.763,8.12L391.682,218.051z"/>
	<path fill="#9FD3E8" d="M409.234,324.812c0.034,0.234,0.001,0.42,0.012,0.782l0.156,1.612h6.643l1.03,0.168l0.018,2.396
		c10.741-0.721,26.608-1.403,34.389-1.311c1.719-0.059,3.44-0.097,5.165-0.102c5.559-0.013,11.141,0.141,16.7,0.271
		c4.071,0.095,8.145,0.358,12.168,0.977c0.366-5.043,1.094-16.766,0.91-28.341c-0.244-15.322-15.578-8.217-15.578-8.217
		c-1.006-0.032-1.996-0.058-2.971-0.077c-2.942-0.477-12.796-1.974-18.928-1.742c0,0,1.432,1.146,1.923,2.214
		c-6.456,0.538-11.896,1.482-16.476,2.724l-9.836-0.186l2.287,1.345c-5.53,0.794-12.167,1.776-14.38,2.637
		c0,0,1.853,0.292,2.482,0.946c-2.489,1.27-6.333,3.777-10.136,8.459c0,0,1.192-0.41,2.269-0.706
		c-3.036,4.51-3.72,9.207-3.747,12.928c-0.209,1.076-0.49,2.323-0.824,3.518C404.75,325.038,406.99,324.827,409.234,324.812z"/>
	<path fill="#84BFCD" d="M425.065,301.262c0,0-18.625,4.424-18.858,23.705c0.989-0.038,1.977-0.071,2.967-0.078
		C409.059,322.669,408.88,307.515,425.065,301.262z"/>
	<path fill="#E9F6FD" d="M404.12,79.417c-1.123-0.487-3.66-1.449-6.668-1.688c0,0,6.812,6.309,11.103,14.486
		c4.138,10.969,4.696,26.494,6.683,42.087c-1.591-1.027-3.388-1.646-3.388-1.646c3.755,3.551,4.443,14.881,4.562,20.161
		c-1.49,8.005-0.513,16.893-1.788,19.294c-2.266,4.271-5.294,6.865-6.74,7.616c0,0,2.665,4.354,5.251,4.603
		c0,0,1.171,14.465-0.319,17.6c-1.491,3.133-6.055,8.216-8.293,9.888c0,0,5.542,5.664,8.966,5.636c0,0-0.577,6.914-1.734,8.727
		c-1.157,1.812-4.581-1.189-4.581-1.189s1.043,5.441,1.732,7.304c0.884,2.389,1.61,5.549,1.092,7.316
		c-0.517,1.767-2.878,11.725-2.923,17.135c-0.045,5.41,1.523,9.41,1.523,9.41s1.279-3.119,2.939-3.886c0,0,0.794,11.191,3.702,15.96
		c2.908,4.768,7.125,9.877,8.694,10.846c0,0-1.127-3.813-0.185-5.61c0,0,0.64,1.771,2.435,3.849
		c4.691,5.823,15.545,17.456,61.83,7.289l-3.359-0.501c9.363-2.111,19.24-6.29,30.506-13.998
		c28.788-19.696,22.754-83.533,24.326-125.379c-0.045-0.002-0.088-0.006-0.132-0.008c-0.103-3.983,0.013-6.402,0.456-7.503
		c1.374-3.417,8.756-9.875,8.756-9.875c-4.013-1.272-7.994-0.682-7.994-0.682c0.389-9.813-3.435-53.29-5.277-59.762
		c-5.378-18.883-18.986-32.559-18.986-32.559s0.913,11.741-0.343,15.595c0,0-17.995-27.978-47.679-36.402
		c0,0,7.141,12.663,7.505,19.957c0,0-18.793-18.254-51.836-13.996c0,0,7.002,8.305,7.897,16.125l-17.446,2.447l7.259,13.102
		c0,0-16.046-5.09-25.892,1.872C395.774,63.036,399.509,68.912,404.12,79.417z"/>
	<g>
		<path fill="#B2E1EE" d="M416.813,231.9c0,0.03,0.006,0.041,0.018,0.033C416.861,231.912,416.847,231.903,416.813,231.9z"/>
	</g>
	<ellipse fill="#CCE9F4" cx="440.143" cy="168.147" rx="8.513" ry="10.775"/>
	<ellipse fill="#FFFFFF" cx="440.013" cy="165.269" rx="8.383" ry="10.609"/>
	<path fill="#4E4D50" d="M444.989,165.334c0,2.767-1.804,5.009-4.028,5.009c-2.225,0-4.028-2.243-4.028-5.009
		c0-1.335,0.423-2.545,1.107-3.442c0.184,1.26,1.068,2.218,2.135,2.218c1.201,0,2.175-1.21,2.175-2.705
		c0-0.287-0.046-0.558-0.113-0.819C443.837,161.249,444.989,163.122,444.989,165.334z"/>
	<ellipse fill="#CCE9F4" cx="481.008" cy="168.147" rx="8.513" ry="10.775"/>
	<path fill="#CCE9F4" d="M463.969,333.446l14.257-0.094l1.373,3.734l9.45-0.468l-0.011,2.595l16.483-0.165
		c0,0,0.537-0.024,1.431-0.032l16.886-0.935c0.412-0.004,0.771,0.98,1.102-0.205h11.863c5.501,0,5.231-7.908,5.231-7.908
		l-1.636-15.012c1.223,0.296,2.233-0.705,2.233-0.705c-1.623-1.329-2.803-6.537-3.289-9.047l-3.193-29.46
		c0,0-6.319-20.988-18.893-8.415c-12.573,12.573-33.823,25.964-33.823,25.964l0.72,12.509c0.64,0.107,1.324-0.375,1.964-0.262
		c3.355,0.217,6.758,2.556,10.031,3.371c0.863,0.215,1.737,0.45,2.614,0.699c-0.376-0.032-0.747-0.063-1.124-0.095
		c-8.6-0.717-14.444,0.433-23.082,0.634l-2.336-0.015C467.022,310.835,462.809,316.664,463.969,333.446z"/>
	<ellipse fill="#FFFFFF" cx="480.876" cy="165.269" rx="8.383" ry="10.609"/>
	<path fill="#4E4D50" d="M485.853,164.548c0,2.767-1.803,5.009-4.028,5.009s-4.028-2.243-4.028-5.009
		c0-1.335,0.423-2.545,1.107-3.442c0.184,1.26,1.068,2.218,2.135,2.218c1.201,0,2.175-1.21,2.175-2.705
		c0-0.287-0.046-0.558-0.113-0.819C484.7,160.463,485.853,162.336,485.853,164.548z"/>
	<path fill="#9FD3E8" d="M486.181,133.155c7.647,0.932,7.087,9.271,7.087,9.271c-5.42-8.387-14.888-3.87-14.888-3.87
		S478.533,132.222,486.181,133.155z"/>
	<path fill="#5B5A5D" d="M513.901,157.976c-3.465-1.466-7.516-1.982-7.516-1.982c-3.797-0.555-10.422-1.184-18.376-0.778
		c-10.351,0.532-19.218,1.969-24.516,2.827c-1.581,0.256-2.824,0.458-3.772,0.583l-1.035,0.141c-2.123,0.29-2.917,0.399-4.111,0.225
		c-0.609-0.089-1.332-0.249-2.453-0.516c-0.349-0.082-0.721-0.172-1.12-0.27c-2.001-0.487-4.488-1.095-7.609-1.55
		c-3.391-0.495-6.71-0.69-10.148-0.596c-7.825,0.21-13.343,1.181-15.935,1.74c-0.626,0.135-1.092,0.439-1.421,0.927
		c-0.531,0.786-0.603,1.836-0.632,2.966l-0.004,3.537c0.069,1.494,1.201,2.167,2.061,2.729c0.618,0.407,0.897,0.934,1.037,1.95
		c0.03,0.205,0.766,5.02,1.652,7.901c0.763,2.453,2.508,4.255,8.416,5.116c1.112,0.162,2.387,0.287,3.761,0.375
		c9.833,0.628,13.334-0.366,16.345-2.422c2.833-1.933,4.073-8.666,4.667-11.901c0.084-0.456,0.21-1.128,0.248-1.246
		c0.102-0.294,0.173-0.57,0.242-0.851c0.178-0.729,0.18-0.729,0.928-0.801c0.995-0.091,1.835-0.089,2.5,0.007
		c0.959,0.141,1.206,0.431,1.259,0.516c0.293,0.481,0.634,1.873,0.966,3.219c0.231,0.938,0.469,1.905,0.744,2.826l0.232,0.797
		c0.778,2.701,1.952,6.784,4.148,8.406c1.509,1.115,5.457,2.291,9.823,2.929c2.943,0.428,5.855,0.586,8.419,0.453
		c6.897-0.356,13.735-1.366,16.625-2.456c2.943-1.106,3.673-2.95,4.411-6.089c0.098-0.426,0.19-0.816,0.288-1.217l0.021-0.248
		c0,0,1.293-7.98,1.958-14.19c3.576,0.477,7.237,1.349,7.237,1.349L513.901,157.976z M449.342,165.054
		c0.117,2.49-0.276,5.357-1.24,9.023c-1.049,3.982-1.481,4.171-2.909,4.8c-1.707,0.752-7.163,1.236-13.001,0.711
		c-5.542-0.504-8.405-2.138-9.14-3.269c-0.633-0.978-2.045-12.193-1.935-14.409c0.021-0.459,0.135-0.593,0.184-0.651
		c0.616-0.737,3.197-1.003,5.64-1.168c4.756-0.32,11.604,0.563,14.181,0.894l0.452,0.057c0.212,0.027,0.421,0.056,0.625,0.085
		C446.714,161.786,449.252,163.18,449.342,165.054z M501.961,163.018c-0.103,2.154-1.489,12.196-2.211,14.369
		c-0.533,1.607-2.348,2.035-7.516,3.035l-0.351,0.068c-5.065,0.973-14.118,0.846-19.076,0.122c-0.213-0.031-0.42-0.063-0.616-0.096
		c-4.597-0.776-5.12-1.37-6.598-3.753c-1.527-2.466-2.464-9.705-2.637-11.132l-0.009-0.073c-0.184-1.508-0.274-2.264,1.664-3.132
		c2.607-1.169,14.177-2.802,18.919-3.016c3.743-0.165,11.677,0.357,15.306,0.887c0.569,0.083,0.991,0.16,1.251,0.229
		C500.503,160.635,502.039,161.383,501.961,163.018z"/>
	<path fill="#9FD3E8" d="M489.75,121.487c6.265,1.68,4.958,8.635,4.958,8.635c-3.999-7.962-12.777-3.819-12.777-3.819
		S483.487,119.807,489.75,121.487z"/>
	<path fill="#9FD3E8" d="M439.973,143.402c-5.939,0.724-5.505,7.201-5.505,7.201c4.209-6.514,11.563-3.006,11.563-3.006
		S445.913,142.678,439.973,143.402z"/>
	<path fill="#9FD3E8" d="M437.201,133.12c-4.866,1.304-3.851,6.707-3.851,6.707c3.106-6.183,9.924-2.966,9.924-2.966
		S442.066,131.816,437.201,133.12z"/>
	<path fill="#CCE9F4" d="M468.288,23.53c0,0,3.074,5.452,5.292,11.262c5.847,4.06,37.614,26.033,44.629,45.862
		c0,0,5.377-6.307,4.667-10.996c0,0,1.292,6.074,2.706,17.874c-4.079-0.998-14.419-3.438-19.725-3.862
		c0,0,4.824,12.061,4.824,16.082c0,0-5.094-0.268-8.042,0c0,0,4.938,7.354,9.487,16.472l-4.404,1.761c0,0,3.406,5.239,12.835,20.694
		c4.715,11.265,7.073,16.241,8.318,31.172c0,0,10.74-0.132,13.686,1.44l6.942-8.71l-5.108,0.197c0,0,2.75-10.02,5.305-12.967
		c0,0-6.68,2.358-7.858,4.519c0,0-0.286-6.672,0.612-10.927c2.628-3.017,6.113-6.066,6.113-6.066
		c-4.013-1.272-7.994-0.682-7.994-0.682c0.389-9.813-3.435-53.29-5.277-59.762c-5.378-18.883-18.986-32.559-18.986-32.559
		s0.913,11.741-0.343,15.595C515.967,59.932,497.972,31.952,468.288,23.53z"/>
	<path fill="#5B5A5D" d="M520.321,94.676c-0.456-0.071-3.445,5.213-3.126,13.434c0.453,11.732,5.491,18.318,5.491,18.318
		s-0.844-6.06-0.01-8.677c0,0,19.112-0.396,29.403-11.037c10.288-10.642,9.943-23.777,9.943-23.777s-17.192,15.38-38.592,12.11
		C523.43,95.046,521.058,94.791,520.321,94.676"/>
	<path fill="#737F82" d="M520.321,94.676c-3.6,5.625-3.125,10.964-3.125,10.964c32.655,4.947,44.826-22.703,44.826-22.703
		s-17.192,15.38-38.592,12.11C523.43,95.046,521.031,94.776,520.321,94.676"/>
	<path fill="#5B5A5D" d="M473.993,190.431c0,0-5.949-0.179-7.628-1.694c0,0-13.126,5.74-24.086,2.325
		C442.279,191.063,458.751,209.441,473.993,190.431z"/>
	<path fill="#B1DDEE" d="M428.841,205.442c0.759,5.513,4.494,11.621,4.494,11.621c1.29-0.946,5.936-2.412,5.936-2.412
		c2.374,5.231,9.337,12.02,9.337,12.02c0.352-3.892,9.997-10.716,9.997-10.716c0.455,0.831,1.393,1.853,2.295,2.731
		c3.004,3.257,7.173,5.292,7.173,5.292c5.467-4.747,5.108-13.458,5.108-13.458c-1.081,4.125-4.814,6.384-4.814,6.384
		c-1.168-0.26-2.372-0.881-3.356-1.495l0.015-0.043c-2.725-1.339-4.405-4.952-4.405-4.952c-6.504,0.421-13.081,6.35-13.081,6.35
		c-3.048-3.247-3.716-9.836-3.716-9.836c-3.068,0.481-8.263,3.973-8.263,3.973C433.332,209.731,428.841,205.441,428.841,205.442z"/>
	<path fill="#BEE4F2" d="M537.325,166.579l-8.448,3.274c8.71,1.702,19.712,11.001,19.712,11.001"/>
	<path fill="#CCE9F4" d="M450.096,298.533c0,0,54.224,4.519,76.227-30.059c16.109-27.307,11.787-45.382,11.787-45.382
		s-10.216-4.519-13.162-6.68c0,0,0.42,4.206-0.422,13.185l0.225-1.201c0,0,0.917,5.894,0.262,9.823l-1.401-1.1
		c-1.816,12.056-4.2,24.41-12.482,32.403c0,0-9.757,5.435-14.079,5.827l4.517,1.507c0,0-19.121,12.376-31.433,12.638
		c0,0,2.613,1.655,6.156,1.899C464.326,296.423,454.725,298.433,450.096,298.533z"/>
	<path fill="#E9F6FD" d="M562.569,262.484c4.976-6.549,7.269-15.717,7.269-15.717c1.31,0.786,2.161,4.223,2.161,4.223
		c4.715-9.168,4.028-23.476,4.028-23.476c2.357,0.262,5.599,1.964,5.599,1.964c-1.048-2.62-7.662-9.234-7.662-9.234
		c2.62-0.262,4.715-0.098,4.715-0.098c-3.142-4.191-17.484-18.173-17.484-18.173c3.404-1.31,7.858-1.866,7.858-1.866
		c-5.501-6.811-30.68-28.16-30.68-28.16c-0.424-1.272-0.614-2.326-0.605-3.19c-6.451,6.653-11.472,48.025-3.979,52.567
		c6.483,3.93,9.626,6.287,9.626,6.287c-14.283,12.243-20.825,21.415-21.505,34.117c-0.148,1.26,0.077,2.443,0.533,3.557
		c0.104,0.235,0.217,0.481,0.334,0.735c0.381,0.749,0.843,1.47,1.353,2.159c1.075,1.451,2.226,2.775,2.982,4.434
		c0.682,1.495,0.71,3.236,1.088,4.82c0.528,2.206,2.435,3.69,3.912,5.276c0.786,0.844,1.367,1.786,1.911,2.763
		c-0.18-1.399-0.657-3.247-1.336-5.254C546.18,281.97,558.009,268.485,562.569,262.484z"/>
	<path fill="#CCE9F4" d="M539.68,289.041c16.764,7.072,29.6-0.786,29.6-0.786l-3.144-0.262
		c13.883-6.549,14.931-22.528,14.931-22.528c-4.976,5.239-9.692,6.287-9.692,6.287c3.668-3.404,3.93-9.692,3.93-9.692l-5.468,3.568
		c8.939-8.251,19.875-29.24,19.875-29.24c1.572-0.261,6.287,1.048,6.287,1.048c-1.31-8.906-9.692-13.359-9.692-13.359
		c1.834-1.31,6.81-0.786,6.81-0.786c-2.358-3.668-15.717-15.717-15.717-15.717c1.833-0.786,9.43-0.262,9.43-0.262
		c-6.549-7.858-30.385-26.718-30.385-26.718l5.238-3.668l-22.789-8.251l0.524-0.916c-0.563,0.101-1.115,0.448-1.652,1.002
		c-0.009,0.864,0.539,2.96,1.03,4.728c0,0,6.581,3.83,29.438,26.488c0,0-4.714,0.262-8.12,1.572c0,0,14.408,14.146,17.552,18.337
		c0,0-2.354-0.262-4.974,0c0,0,7.079,6.286,8.127,8.906c0,0-3.131-1.572-5.488-1.834c0,0,1.335,13.882-3.381,23.051
		c0,0-0.736-4.19-2.046-4.976c0,0-3.046,10.476-8.023,17.026c-4.527,5.955-15.914,19.703-28.487,18.207v-0.002
		c0,0-0.216-0.001-0.235-0.004c-1.265-0.145-2.729-0.424-4.05-0.862c0.832,1.222,2.009,2.246,3.001,3.312
		c1.207,1.297,1.942,2.816,2.781,4.356c1.312,2.405,2.953,4.657,5.009,6.411C539.039,291.626,539.683,289.037,539.68,289.041z"/>
	<path fill="#AADAE1" d="M575.308,262.057c0.557,5.273-3.93,9.692-3.93,9.692c3.406-0.557,9.692-6.287,9.692-6.287
		c-5.861,22.92-33.398,17.419-33.398,17.419c13.621-4.976,22.363-17.648,22.363-17.648
		C572.393,263.759,575.308,262.058,575.308,262.057z"/>
	<path fill="#CCE9F4" d="M314.539,232.916c-0.524-10.152,3.668-18.009,3.668-18.009s0.394,5.238,2.62,11.525
		c2.227,6.287,13.753,13.753,13.753,13.753s-3.012-6.548-4.19-8.906s-1.31-7.204-1.31-7.204c2.88,1.834,11.657,6.156,20.825-0.392
		c7.858-4.585,3.536-19.515,3.536-19.515c-2.935,0.354-5.711,0.423-8.345,0.289c-1.562,0.119-7.94,0.544-11.825-0.027l3.333-1.211
		c-16.167-3.979-24.616-15.684-24.616-15.684s1.86,5.858,5.697,10.74c-1.827,0.407-3.798,1.44-3.798,1.44
		C296.99,209.144,314.541,232.916,314.539,232.916z"/>
	<path fill="#AADAE1" d="M524.95,216.413l-0.295,11.297c0,0,6.533,4.027,13.801,5.009c0,0,0.65-4.423-0.168-8.787
		c-1.879-1.164-3.78-2.29-5.689-3.402C529.749,219.156,526.542,217.524,524.95,216.413z"/>
	<path fill="#AADAE1" d="M538.896,301.087c-7.269-2.553-11.984-13.162-12.377-17.681s-3.012-15.979-3.012-15.979
		c4.584,4.453,4.693,10.006,4.693,10.006c1.878,8.958,9.714,14.225,9.714,14.225L538.896,301.087z"/>
	<path fill="#90C9D9" d="M486.942,294.694l0.744,11.83c-34.381-0.197-51.047-11.134-51.047-11.134
		C459.822,303.346,486.943,294.694,486.942,294.694z"/>
	<path fill="#AADAE1" d="M307.47,179.919c0.552,0.358,0.912,0.695,0.912,0.695c8.483,13.198,22.732,18.307,22.732,18.307
		l-3.446,0.836c3.444,1.042,20.076,1.969,20.076,1.969c-6.912,6.479-23.793,0.648-23.793,0.648l3.37-0.679
		c-7.174-1.852-14.463-9.778-14.463-9.778C310.894,189.58,308.062,182.138,307.47,179.919z"/>
	<g>
		<path fill="#E9F6FD" d="M493.086,320.849c-5.725,5.935-4.049,18.371-4.049,18.371l6.017-0.057
			c0.005-15.683,5.717-21.398,5.717-21.398c-0.549,0.006-1.066,0.05-1.566,0.111c-1.739-0.069-5.067,0.063-7.217,1.82
			L493.086,320.849z"/>
		<path fill="#E9F6FD" d="M459.561,333.728l5.89-0.273l2.317-0.02c0.52-22.443,13.781-20.812,13.781-20.812
			c-0.562,0.231-1.077,0.575-1.555,0.992c-1.769,1.266-4.546,3.72-5.616,7.238l1.812-0.04c-2.001,7.196-1.855,16.313-1.855,16.313
			l6.669-0.04c-0.073-2.972,0.09-5.568,0.413-7.845l1.547,0.62c-0.983-2.136,0.665-8.242,0.942-9.229
			c2.034-4.173,4.503-5.832,5.216-6.246l0.027,0.211c0,0,5.744-4.298,14.828-3.056c9.085,1.241,9.863,1.371,9.863,1.371
			s-1.351-1.118-3.497-2.303h9.693c0,0-0.981-18.121-1.964-24.997c0,0-14.539,5.454-22.593,7.026
			c-0.539,0.105-0.984,0.273-1.355,0.482c-2.624,0.612-5.213,1.165-7.181,1.573c0.019,3.142,0.418,7.599,0.729,11.427
			c-2.918-0.816-7.582-1.104-7.582-1.104c1.178,0.785,1.194,2.53,1.194,2.53c-0.533-0.096-1.03-0.173-1.497-0.232
			c-0.424-0.028-0.85-0.052-1.274-0.09c-0.22-0.018-0.439-0.045-0.659-0.066c-2.307-0.058-3.898,0.398-6.186,0.904l0.965,1.639
			c-3.791,0.037-6.226,2.605-7.791,6.038c-0.292,0.418-2.466,3.632-3.119,7.055l1.185-0.576c-0.333,1.797-0.538,3.574-0.663,5.168
			c-0.27,0.966-1.139,3.695-2.232,5.251C459.889,333.014,459.736,333.376,459.561,333.728z M482.449,324.405
			c0.41-1.38,0.884-2.579,1.387-3.628L482.449,324.405z"/>
	</g>
	<path fill="#84BFCD" d="M415.07,320.169c-0.595,2.115-0.972,4.666-1.049,7.036h2.021l1.03,0.168c0,0-1.185-18.975,17.999-23.472
		c0,0-10.576,0.829-16.74,9.498c-0.94,0.963-3.649,3.915-4.776,7.136L415.07,320.169z"/>
	<g>
		<g>
			<defs>
				<polygon id="SVGID_4_" points="316.549,162.124 307.066,157.531 296.546,164.198 310.316,179.918 320.852,180.171 				"/>
			</defs>
			<clipPath id="SVGID_5_">
				<use xlink:href="#SVGID_4_"  overflow="visible"/>
			</clipPath>
			<g clip-path="url(#SVGID_5_)">
				<path fill="#FFFFFF" d="M306.364,162.74l10.135,15.019c1.094,1.622,1.485,3.526,0.754,4.065
					c-0.731,0.538-3.153,2.127-3.536,2.285c-0.383,0.158-1.592-1.038-2.686-2.66l-10.135-15.019
					c-1.094-1.622-1.485-3.526-0.754-4.065s1.962-1.369,2.735-1.846C303.65,160.043,305.271,161.118,306.364,162.74z"/>
			</g>
		</g>
		<g>
			<defs>
				<polygon id="SVGID_6_" points="316.549,162.124 307.066,157.531 296.546,164.198 310.316,179.918 320.852,180.171 				"/>
			</defs>
			<clipPath id="SVGID_7_">
				<use xlink:href="#SVGID_6_"  overflow="visible"/>
			</clipPath>
			<g clip-path="url(#SVGID_7_)">
				<g>
					<defs>
						<polygon id="SVGID_8_" points="311.688,185.061 297.583,164.809 300.102,161.077 316.253,184.516 						"/>
					</defs>
					<clipPath id="SVGID_9_">
						<use xlink:href="#SVGID_8_"  overflow="visible"/>
					</clipPath>
					<g opacity="0.1" clip-path="url(#SVGID_9_)">
						<path d="M306.364,162.849l10.135,15.019c1.094,1.622,1.485,3.526,0.754,4.065c-0.731,0.538-3.153,2.128-3.536,2.285
							c-0.383,0.158-1.592-1.038-2.686-2.66l-10.135-15.019c-1.094-1.622-1.485-3.526-0.754-4.065s1.962-1.369,2.735-1.846
							S305.271,161.228,306.364,162.849z"/>
					</g>
				</g>
			</g>
			<path clip-path="url(#SVGID_7_)" fill="#CCE9F4" d="M307.47,179.92c22.954-2.884,37.608,5.762,37.608,5.762l-1.486,0.032
				c1.617,0.575,3.005,2.31,3.005,2.31c-19.861-8.929-38.118-6.511-38.118-6.511L307.47,179.92z"/>
			<g clip-path="url(#SVGID_7_)">
				<path fill="#FFFFFF" d="M88.129,236.35h8.055c1.956,0,3.675,0.742,3.697,1.649c0.023,0.907,0,3.803-0.05,4.209
					c-0.051,0.407-1.692,0.738-3.647,0.738h-8.055c-1.956,0-3.675-0.742-3.697-1.649s-0.023-2.392,0-3.299
					S86.173,236.35,88.129,236.35z"/>
			</g>
		</g>
	</g>
</g>
<path fill="#E5E5E5" d="M415.361,269.18c0,1.572-1.787,2.847-3.99,2.847H78.341c-2.203,0-3.99-1.275-3.99-2.847l0,0
	c0-1.572,1.787-2.847,3.99-2.847h333.03C413.576,266.334,415.361,267.608,415.361,269.18L415.361,269.18z"/>
</svg>
