<?xml version="1.0" encoding="utf-8"?>
<!-- Generator: Adobe Illustrator 17.0.0, SVG Export Plug-In . SVG Version: 6.00 Build 0)  -->
<!DOCTYPE svg PUBLIC "-//W3C//DTD SVG 1.1//EN" "http://www.w3.org/Graphics/SVG/1.1/DTD/svg11.dtd">
<svg version="1.1" id="Layer_1" xmlns="http://www.w3.org/2000/svg" xmlns:xlink="http://www.w3.org/1999/xlink" x="0px" y="0px"
	 width="600px" height="350px" viewBox="0 0 600 350" enable-background="new 0 0 600 350" xml:space="preserve">
<g id="Layer_2" display="none">
	<path display="inline" fill="#E5E5E5" d="M575.008,346.149c0,1.536-15.293,2.782-34.155,2.782H154.457
		c-18.862,0-34.155-1.245-34.155-2.782l0,0c0-1.536,15.293-2.782,34.155-2.782h386.396
		C559.715,343.367,575.008,344.613,575.008,346.149L575.008,346.149z"/>
	<g display="inline">
		<path fill="#EAF7FE" d="M113.954,330.774c0,0-1.22-16.661,0.844-22.857c2.065-6.195-36.514-13.939-36.514-13.939
			s0.938,18.022,2.628,23.655"/>
		<path fill="#E5E5E5" d="M129.2,328.366c-66.554,0.401-118.877,4.519-118.877,9.542c0,5.064,53.191,9.209,120.528,9.551
			C130.227,341.1,129.62,334.741,129.2,328.366z"/>
		<path fill="#A1D4E9" d="M59.322,235.217l-5.069,7.509l-3.192,1.502l2.628,0.939c0,0-9.95,12.015-11.077,19.149
			c0,0,3.38-1.69,4.881-2.065c0,0-4.694,8.26-4.694,12.766c0,0,3.004-1.878,4.318-1.69c0,0-4.694,4.881-7.134,6.008
			c0,0,2.816,0.376,3.942,0c0,0-5.632,6.571-5.069,20.088c0,0,1.878-2.065,3.192-2.628c0,0,1.502,14.268,23.655,21.965
			c0,0-2.44-6.195-2.44-9.574c0,0,4.318,2.391,9.199,2.579c0,0-3.285-5.558-2.91-7.558h4.225l-0.376-8.4c0,0-6.336-2.791-5.022-9.55
			c0,0-1.431-2.428-5.374-12.566C59.347,264.279,66.541,230.924,59.322,235.217z"/>
		<path fill="#EAF7FE" d="M113.671,315.098c0.025-1.516-1.029-1.736-2.828-1.058c-3.424-2.374-8.913,0.629-8.913,0.629
			c-0.722,0.024-1.431,0.053-2.128,0.086c-2.126-0.2-9.244-0.801-13.619-0.343c0,0,1.08,0.751,1.481,1.492
			c-4.591,0.693-13.505,1.628-16.721,2.735c-2.513,0.697-7.98,2.271-10.443,3.424c0,0,1.338,0.12,1.82,0.558
			c-1.72,1.026-4.349,3.002-6.845,6.532c0,0,0.833-0.35,1.589-0.613c-1.955,3.37-2.221,5.072-2.062,7.734
			c-0.098,0.78-0.239,1.685-0.421,2.555c1.6-0.156,3.195-0.361,4.798-0.479c0.035,0.165,0.024,0.354,0.049,0.613l0.196,1.252
			l4.75-0.317l0.738-0.036l0.12,1.605c0,0,32.575-1.12,47.311-1.308c0,0,2.253,0.07,2.182-1.619
			C114.645,336.567,113.531,323.546,113.671,315.098z"/>
		<path fill="#EAF7FE" d="M119.632,122.764c0,0-9.34,0.563-15.817,8.448l-1.96-8.166l-8.929,4.036c0,0-6.568-11.639-3.47-17.835
			c0,0-16.052-0.563-29.006,26.471c0,0-5.915-7.603-3.943-14.925c0,0-21.965,16.615-16.896,39.706c0,0-4.788-1.408-6.196-6.758
			c0,0-2.534,27.879,18.304,66.458c0,0-3.849-3.191-5.163-3.004c0,0,4.131,5.632,5.82,9.574c0,0-2.628-0.751-4.318-0.188
			c0,0,9.011,3.004,11.264,8.636c1.624,3.393,3.256,14.254,4.13,38.298c6.056,12.111,14.783,37.075,55.945,34.355L119.632,122.764z"
			/>
		
			<ellipse transform="matrix(0.2052 0.9787 -0.9787 0.2052 283.9782 95.4421)" fill="#CDEAF5" cx="83.225" cy="222.568" rx="7.722" ry="6.102"/>
		
			<ellipse transform="matrix(0.2052 0.9787 -0.9787 0.2052 297.5386 60.7188)" fill="#CDEAF5" cx="111.384" cy="213.555" rx="7.722" ry="6.102"/>
		
			<ellipse transform="matrix(0.2052 0.9787 -0.9787 0.2052 295.4715 58.8599)" fill="#FFFFFF" cx="111.495" cy="211.353" rx="7.603" ry="6.008"/>
		<path fill="#4F4E51" d="M110.25,207.279c-0.009,0.193-0.001,0.39,0.041,0.592c0.22,1.049,1.081,1.754,1.923,1.577
			c0.749-0.157,1.228-0.958,1.172-1.87c0.613,0.529,1.086,1.316,1.283,2.252c0.408,1.94-0.528,3.779-2.088,4.106
			s-3.155-0.98-3.562-2.922C108.694,209.464,109.227,207.98,110.25,207.279z"/>
		
			<ellipse transform="matrix(0.2052 0.9787 -0.9787 0.2052 281.9107 93.583)" fill="#FFFFFF" cx="83.336" cy="220.365" rx="7.603" ry="6.008"/>
		<path fill="#4F4E51" d="M82.653,216.291c-0.009,0.193-0.001,0.39,0.041,0.592c0.22,1.049,1.081,1.754,1.923,1.577
			c0.749-0.157,1.228-0.958,1.172-1.87c0.613,0.529,1.086,1.316,1.283,2.252c0.408,1.94-0.528,3.779-2.088,4.106
			s-3.155-0.98-3.562-2.922C81.097,218.475,81.63,216.992,82.653,216.291z"/>
		<path fill="#5C5B5D" d="M99.873,238.127c0,0,3.285-2.721,3.567-4.318c0,0,9.95-2.535,14.643-9.293
			C118.083,224.516,116.863,242.163,99.873,238.127z"/>
		<path fill="#A1D4E9" d="M78.659,198.234c0,0-7.509,0.376-8.072,7.509c0,0-3.192-5.069,1.314-8.26
			C76.406,194.291,78.659,198.234,78.659,198.234z"/>
		<path fill="#A1D4E9" d="M71.713,190.724c0,0-6.946,0.376-6.758,6.758c0,0-3.192-3.943,0.188-7.134
			C68.521,187.157,71.713,190.724,71.713,190.724z"/>
		<path fill="#CDEAF5" d="M114.727,308.129c0,0-22.176-2.6-36.256-15.836l3.661,0.925c0,0-9.293-8.012-14.08-23.012h2.534
			c0,0-1.873-9.468-5.799-20.011c-0.027-0.917-0.02-1.538-0.02-1.538c-1.926-5.175-5.562-17.349-6.801-24.068
			c-1.163-11.116-6.476-20.987-6.727-24.141c1.251-3.657,4.517-10.649,4.517-10.649c-1.315,0.375-5.444,2.621-5.444,2.621
			c-1.69-12.578,7.134-25.535,7.134-25.535c-5.444-0.563-12.39,4.316-12.39,4.316c-2.441-17.459,6.383-32.479,6.383-32.479
			c-0.375,6.383,8.636,15.206,8.636,15.206c6.409-28.669,24.782-39.461,28.453-41.359c0.121-1.149,0.407-2.276,0.93-3.322
			c0,0-16.052-0.563-29.006,26.471c0,0-5.915-7.603-3.943-14.925c0,0-10.717,8.109-15.451,20.869
			c-1.667-1.745-3.135-6.695-3.135-6.695c-2.816,9.574,1.501,25.157,1.501,25.157s0.021-0.105,0.056-0.28
			c0.043,0.218,0.084,0.436,0.133,0.655c0,0-4.788-1.408-6.196-6.758c0,0-2.534,27.879,18.304,66.458c0,0-3.849-3.191-5.163-3.004
			c0,0,4.131,5.632,5.82,9.574c0,0-2.628-0.751-4.318-0.188c0,0,5.905,2.446,8.278,7.047c0.011,0.031,0.018,0.054,0.03,0.086
			c1.69,4.787,2.957,9.574,2.957,9.574l-2.253,5.632l1.83,0.563c0.282,1.126,1.267,12.39,1.267,12.39s0.073-0.453,0.176-1.151
			c0.128,0.965,0.276,1.975,0.45,3.023c-0.665-0.161-1.556-0.365-1.841-0.385c-0.558-0.161-1.032-0.266-1.306-0.22
			c0,0,0.226,1.262,1.979,3.666c0.031,0.225,0.098,0.445,0.178,0.662c1.139,5.42,2.959,11.502,5.862,17.37
			c0.64,2.102,0.717,5.419,1.12,6.462l1.267-1.69c0.791,1.189,0.563,0.892,1.032,2.206l1.924,4.693l0.275-2.611
			c2.122,2.742,4.583,5.306,7.432,7.578c0.485,0.397,0.988,0.776,1.504,1.142c0.168,0.122,0.333,0.247,0.504,0.367
			c0,0-0.014-0.018-0.03-0.039c0.377,0.254,0.767,0.496,1.164,0.733c3.223,4.156,5.536,7.473,5.625,9.021c0,0,5.35,5.28,7.322,7.251
			l1.971-3.978c0,0,8.448,9.557,17.178,9.839C113.953,325.817,113.249,316.225,114.727,308.129z M50.851,202.545
			c-0.016-0.249-0.031-0.485-0.045-0.702c0.042-0.153,0.069-0.23,0.069-0.23c0.008-0.033,0.019-0.071,0.029-0.106
			C50.882,201.83,50.865,202.177,50.851,202.545z"/>
		<path fill="#C0E5F3" d="M60.733,229.311c-0.021-0.188-0.041-0.374-0.062-0.561l0.162,1.14
			C60.799,229.696,60.766,229.503,60.733,229.311z"/>
		<path fill="#A1D4E9" d="M104.379,199.36c0,0,3.942-2.253,6.758-0.422c0,0,0.282-3.098-3.379-2.816
			C104.097,196.403,104.379,199.36,104.379,199.36z"/>
		<path fill="#5C5B5D" d="M130.089,212.412c0,0-0.549-5.768-1.213-10.194c2.567-0.317,5.263-0.376,5.263-0.376l-0.34-3.174
			c-2.667-0.388-5.57-0.012-5.57-0.012c-2.734,0.303-7.442,1.066-12.884,2.789c-7.08,2.243-12.969,4.847-16.487,6.402
			c-1.05,0.464-1.876,0.828-2.51,1.087l-0.692,0.285c-1.244,0.513-1.805,0.745-2.503,0.859c-0.013,0.04-0.031,0.078-0.044,0.118
			c-0.38,0.103-0.837,0.206-1.458,0.345l-0.731,0.164c-0.668,0.152-1.553,0.327-2.679,0.55c-3.773,0.747-10.089,1.997-17.174,4.225
			c-5.445,1.714-9.738,3.792-12.15,5.114c0,0-2.593,1.358-4.554,3.208l1.544,2.794c0,0,2.241-1.5,4.525-2.715
			c1.997,4.005,4.859,9.043,4.859,9.043l0.076,0.16c0.166,0.245,0.325,0.485,0.498,0.746c1.279,1.924,2.231,2.98,4.484,2.989
			c2.214,0.01,7.059-1.019,11.781-2.503c1.756-0.552,3.672-1.385,5.542-2.407c2.773-1.52,5.132-3.296,5.867-4.422
			c1.069-1.638,0.838-4.674,0.685-6.683l-0.042-0.593c-0.047-0.686-0.128-1.396-0.207-2.085c-0.114-0.988-0.232-2.008-0.155-2.403
			c0.014-0.07,0.108-0.327,0.716-0.661c0.285-0.155,0.638-0.3,1.045-0.437c0.106-0.018,0.21-0.036,0.306-0.047
			c0.691-0.076,0.915,0.081,0.966,0.13c0.29,0.28,0.778,1.182,1.253,2.056c0.331,0.61,0.672,1.238,1.028,1.826l0.306,0.51
			c1.028,1.733,2.583,4.351,4.398,5.078c1.248,0.5,4.199,0.599,7.343,0.252c2.118-0.237,4.165-0.655,5.92-1.211
			c4.717-1.496,9.276-3.436,11.083-4.714c1.84-1.301,2.012-2.712,1.955-5.022c-0.008-0.313-0.016-0.6-0.021-0.897L130.089,212.412z
			 M91.509,224.353c-0.398,1.969-0.602,2.499-3.495,4.17c-0.124,0.071-0.253,0.144-0.39,0.217c-3.15,1.726-9.199,4.073-12.845,4.684
			l-0.252,0.043c-3.722,0.619-5.047,0.786-5.808-0.161c-1.027-1.28-4.468-7.679-5.074-9.1c-0.46-1.079,0.385-1.965,0.637-2.143
			c0.157-0.111,0.422-0.268,0.783-0.466c2.305-1.262,7.505-3.596,10.061-4.42c3.237-1.041,11.418-2.834,13.461-2.7
			c1.519,0.098,1.648,0.628,1.901,1.687l0.012,0.051C90.74,217.218,91.918,222.315,91.509,224.353z M127.502,214.693
			c-0.08,1.212-1.261,1.837-4.663,3.466l-0.232,0.11c-3.335,1.593-9.636,3.144-13.206,3.54c-0.154,0.018-0.303,0.032-0.444,0.046
			c-3.328,0.293-3.799-0.024-5.256-1.408c-1.505-1.434-3.466-6.283-3.846-7.241l-0.019-0.049c-0.401-1.013-0.6-1.52,0.588-2.473
			c1.596-1.283,9.323-4.511,12.571-5.518c2.566-0.793,8.163-1.869,10.775-2.158c0.409-0.045,0.716-0.068,0.908-0.068
			c0.31,0.001,1.511,0.241,1.752,1.389C126.75,205.84,127.607,213.054,127.502,214.693z"/>
		<path fill="#A1D4E9" d="M103.393,192.742c0,0,4.506-3.379,8.026-0.563c0,0,0.141-2.675-3.52-2.816
			C104.238,189.222,103.393,192.742,103.393,192.742z"/>
		<path fill="#B2DEEF" d="M93.303,247.608c0,0,4.036,1.877,5.82,2.159c0,0,2.722-3.566,4.693-4.599c0,0,1.971,4.318,4.787,5.82
			c0,0,3.098-5.538,7.416-7.322c0,0,1.971,2.065,4.13,2.347l-0.094,4.036c0,0-3.004-1.126-4.13-2.159c0,0-4.975,6.852-4.318,9.574
			c0,0-6.289-3.004-9.105-6.008c0,0-2.816,2.066-3.473,3.004C99.028,254.46,95.086,251.175,93.303,247.608z"/>
		<path fill="#85C1CE" d="M55.38,282.855c0,0,6.618,13.235,6.336,19.29c0,0-6.618-0.141-12.39-4.928c0,0,8.87,8.73,16.896,7.603
			C66.222,304.82,64.673,291.866,55.38,282.855z"/>
		<path fill="#5C5B5D" d="M40.269,174.187c-0.479,0.239-2.042,0.93-2.042,0.93c-13.9,6.896-28.988,0.141-28.988,0.141
			s2.627,9.044,11.969,14.068c9.345,5.023,22.481,1.129,22.481,1.129c1.14,1.605,1.883,5.926,1.883,5.926s2.005-5.594-0.241-13.703
			C43.757,176.996,40.565,174.039,40.269,174.187"/>
		<path fill="#747F83" d="M40.269,174.187c-0.463,0.223-2.042,0.93-2.042,0.93c-13.9,6.896-28.988,0.141-28.988,0.141
			s14.334,16.227,35.553,5.735C44.791,180.992,43.952,177.243,40.269,174.187"/>
		<path fill="#CDEAF5" d="M64.376,339.9l-1.445,0.097c-1.168-16.357,13.925-16.194,13.925-16.194
			c-13.504,4.131-11.743,16.062-11.743,16.062L64.376,339.9z"/>
		<path fill="#CDEAF5" d="M88.609,318.383c-0.938-3.379-1.502-12.39-1.502-12.39l-8.543-5.162c0,5.28,1.948,16.028,1.948,16.028
			c-5.773,0.282-20.557,5.21-20.557,5.21c0.915-0.141,2.366,0.554,2.366,0.554c-3.407,1.469-7.365,6.909-7.365,6.909
			c0.493-0.282,2.109-0.989,2.109-0.989c-1.482,1.404-2.39,6.34-2.39,7.466s-0.634,3.098-0.634,3.098l3.179-0.552
			c0.705-0.074,1.411-0.145,2.118-0.197c-0.189-1.582-1.04-10.72,10.236-15.965c0,0-0.089,0.029-0.238,0.081
			C75.954,319.138,88.609,318.383,88.609,318.383z"/>
		<path fill="#ACDBE3" d="M114.727,308.129c0,0-17.107-1.76-33.159-13.024c0,0,11.276,11.195,20.275,14.08
			c9,2.885,11.968,13.446,11.968,13.446S113.742,313.197,114.727,308.129z"/>
	</g>
	<path display="inline" fill="#5C5B5E" d="M575,336.055c0,4.571-5.106,10.151-11.414,10.151H128.822
		c-6.308,0-11.822-5.579-11.822-10.151V50.104c0-4.571,5.514-7.898,11.822-7.898h434.764c6.309,0,11.414,3.327,11.414,7.898V336.055
		z"/>
	<g display="inline">
		<path fill="#098DBA" d="M153.171,155.968c0.257,0.257,0.416,0.414,0.732,0.414h0.731c0.159,0,0.237-0.079,0.237-0.237v-1.225
			c0-0.633,0.257-0.989,0.989-0.989c0.711-0.019,0.988,0.316,0.988,0.949v1.721c0,1.007-0.652,1.72-1.641,1.72h-1.641
			c-0.612,0-1.087-0.218-1.482-0.613l-2.273-2.254c-0.257-0.257-0.416-0.415-0.732-0.415h-0.731c-0.159,0-0.237,0.079-0.237,0.237
			v1.225c0,0.633-0.257,0.989-0.989,0.989c-0.711,0.019-0.988-0.316-0.988-0.949v-1.721c0-1.008,0.652-1.72,1.641-1.72h1.641
			c0.612,0,1.087,0.218,1.482,0.613L153.171,155.968z"/>
		<path fill="#FFFFFF" d="M179.089,154.644h-0.533c-0.554,0-1.305-0.119-1.305-0.949c0-0.811,0.672-0.949,1.305-0.949h0.533v-0.258
			c0-1.087,0.059-1.877,0.909-2.707c0.91-0.87,1.759-0.949,2.926-0.949h1.285c0.652,0,1.384,0.059,1.384,0.949
			c0,0.81-0.652,0.949-1.305,0.949h-1.482c-1.285,0-1.819,0.257-1.819,1.641v0.376h1.681c0.633,0,1.304,0.138,1.304,0.949
			c0,0.83-0.751,0.949-1.304,0.949h-1.681v7.451c0,0.653-0.138,1.305-0.949,1.305s-0.949-0.652-0.949-1.305V154.644z"/>
		<path fill="#FFFFFF" d="M191.03,156.284c0-1.265,0.257-1.699,1.206-2.471c0.929-0.771,1.364-1.066,2.689-1.066h1.501
			c1.324,0,1.759,0.296,2.689,1.066c0.949,0.772,1.206,1.206,1.206,2.471v3.578c0,1.246-0.316,1.72-1.305,2.55
			c-0.988,0.83-1.384,0.989-2.59,0.989h-1.501c-1.206,0-1.602-0.159-2.59-0.989c-0.989-0.83-1.305-1.304-1.305-2.55V156.284z
			 M192.927,159.862c0,0.395,0.138,0.652,0.692,1.127c0.416,0.355,0.711,0.514,1.305,0.514h1.501c0.594,0,0.889-0.159,1.305-0.514
			c0.554-0.475,0.692-0.732,0.692-1.127v-3.578c0-0.395-0.138-0.652-0.692-1.126c-0.416-0.356-0.711-0.514-1.305-0.514h-1.501
			c-0.594,0-0.889,0.158-1.305,0.514c-0.554,0.474-0.692,0.731-0.692,1.126V159.862z"/>
		<path fill="#FFFFFF" d="M215.048,161.997c0,0.435,0.079,1.403-0.929,1.403c-0.811,0-0.949-0.672-0.949-1.324v-0.316l-1.541,1.008
			c-0.613,0.395-1.127,0.633-1.641,0.633h-1.403c-0.534,0-1.127-0.159-1.759-0.692c-0.85-0.732-0.83-1.541-0.87-2.57l-0.198-5.969
			c-0.019-0.692,0.079-1.423,0.949-1.423c0.811,0,0.909,0.692,0.929,1.304l0.198,5.831c0.019,0.435,0.04,0.949,0.198,1.226
			c0.158,0.276,0.652,0.395,1.107,0.395h0.633c0.217,0,0.415-0.059,0.593-0.178l2.787-1.759v-5.515c0-0.652,0.138-1.304,0.949-1.304
			s0.949,0.652,0.949,1.304v7.946H215.048z"/>
		<path fill="#FFFFFF" d="M222.384,156.58v5.515c0,0.653-0.138,1.305-0.949,1.305s-0.949-0.652-0.949-1.305v-7.946
			c0-0.692,0.079-1.403,0.949-1.403c0.851,0,0.949,0.711,0.949,1.383v0.218v0.039l1.541-1.007c0.494-0.316,1.029-0.633,1.641-0.633
			h1.404c0.731,0,1.185,0.198,1.758,0.692c0.851,0.731,0.811,1.541,0.851,2.569l0.198,5.969c0.019,0.672-0.079,1.424-0.929,1.424
			c-0.771,0-0.928-0.652-0.949-1.285l-0.198-5.852c-0.04-1.166-0.138-1.62-1.285-1.62h-0.633c-0.198,0-0.395,0.059-0.594,0.177
			L222.384,156.58z"/>
		<path fill="#FFFFFF" d="M240.412,152.746c0.653,0,1.186,0.355,1.878,1.047l0.316,0.336v-3.993c0-0.652,0.138-1.304,0.949-1.304
			s0.949,0.652,0.949,1.304v11.94c0,0.652-0.138,1.324-0.949,1.324c-0.751,0-0.949-0.633-0.949-1.265v-0.119l-0.416,0.416
			c-0.593,0.553-1.245,0.968-1.818,0.968h-1.838c-0.633,0-1.345-0.435-1.621-0.672l-0.652-0.553
			c-0.791-0.672-1.048-1.186-1.048-2.194v-3.815c0-1.008,0.257-1.522,1.048-2.194l0.652-0.554c0.593-0.514,1.028-0.671,1.819-0.671
			h1.68V152.746z M237.111,159.229c0,0.534,0,1.206,0.297,1.443l0.573,0.454c0.237,0.198,0.474,0.376,0.711,0.376h1.344
			c0.237,0,0.573-0.159,0.929-0.474l1.087-0.929c0.277-0.237,0.554-0.475,0.554-0.83v-2.392c0-0.356-0.276-0.594-0.554-0.83
			l-1.087-0.929c-0.356-0.316-0.692-0.474-0.929-0.474h-1.344c-0.237,0-0.474,0.177-0.711,0.375l-0.573,0.456
			c-0.297,0.236-0.297,0.909-0.297,1.442V159.229z"/>
		<path fill="#FFFFFF" d="M253.124,154.644c-0.553,0-1.304-0.119-1.304-0.949c0-0.811,0.671-0.949,1.304-0.949h2.61
			c0.988,0,1.7,0.098,2.45,0.85c0.732,0.732,0.83,1.305,0.851,2.254l0.198,6.444c0.019,0.553-0.257,1.106-0.889,1.106
			c-0.494,0-0.989-0.416-0.968-0.949l-1.305,0.672c-0.533,0.276-0.554,0.276-1.166,0.276h-1.819c-0.851,0-1.463-0.099-2.155-0.672
			c-0.791-0.652-0.989-1.344-0.989-2.332v-0.831c0-0.909,0.217-1.482,0.929-2.115c0.652-0.573,1.384-0.711,2.214-0.711h4.072v-0.435
			c0-1.424-0.316-1.66-1.68-1.66h-2.353V154.644z M253.104,158.637c-0.514,0-1.265,0.138-1.265,0.83v1.265
			c0,0.633,0.771,0.771,1.225,0.771h2.096l2.095-1.087V160c0-1.047-0.297-1.363-1.345-1.363H253.104z"/>
		<path fill="#FFFFFF" d="M268.485,159.822c0,1.068-0.039,1.681,1.265,1.681h0.969c0.771,0,1.127-0.059,1.324-0.83
			c0.118-0.454,0.474-0.771,0.949-0.771c0.533,0,0.968,0.414,0.968,0.949c0,0.533-0.336,1.206-0.652,1.581
			c-0.692,0.83-1.602,0.968-2.61,0.968h-0.968c-0.949,0-1.779-0.217-2.451-0.949c-0.731-0.811-0.692-1.621-0.692-2.649v-5.159
			h-0.612c-0.554,0-1.305-0.119-1.305-0.949c0-0.811,0.672-0.949,1.305-0.949h0.612v-1.938c0-0.652,0.139-1.305,0.949-1.305
			c0.811,0,0.949,0.653,0.949,1.305v1.938h3.183c0.633,0,1.304,0.138,1.304,0.949c0,0.83-0.751,0.949-1.304,0.949h-3.183
			L268.485,159.822L268.485,159.822z"/>
		<path fill="#FFFFFF" d="M285.032,161.503h1.424c0.633,0,1.304,0.138,1.304,0.949c0,0.83-0.751,0.949-1.304,0.949h-4.824
			c-0.553,0-1.304-0.119-1.304-0.949c0-0.811,0.671-0.949,1.304-0.949h1.503v-6.859h-1.503c-0.553,0-1.304-0.119-1.304-0.949
			c0-0.811,0.671-0.949,1.304-0.949h1.997c1.087,0,1.403,0.198,1.403,1.324L285.032,161.503L285.032,161.503z M282.166,148.911
			c0-0.672,0.376-0.889,0.889-0.889h1.087c0.514,0,0.889,0.217,0.889,0.889v0.909c0,0.672-0.376,0.889-0.889,0.889h-1.087
			c-0.514,0-0.889-0.217-0.889-0.889V148.911z"/>
		<path fill="#FFFFFF" d="M294.128,156.284c0-1.265,0.257-1.699,1.205-2.471c0.928-0.771,1.364-1.066,2.688-1.066h1.503
			c1.326,0,1.759,0.296,2.688,1.066c0.95,0.772,1.207,1.206,1.207,2.471v3.578c0,1.246-0.317,1.72-1.304,2.55
			c-0.989,0.83-1.384,0.989-2.591,0.989h-1.503c-1.205,0-1.6-0.159-2.588-0.989c-0.989-0.83-1.304-1.304-1.304-2.55L294.128,156.284
			L294.128,156.284z M296.026,159.862c0,0.395,0.138,0.652,0.691,1.127c0.414,0.355,0.712,0.514,1.304,0.514h1.503
			c0.594,0,0.889-0.159,1.306-0.514c0.553-0.475,0.691-0.732,0.691-1.127v-3.578c0-0.395-0.138-0.652-0.691-1.126
			c-0.417-0.356-0.712-0.514-1.306-0.514h-1.503c-0.592,0-0.889,0.158-1.304,0.514c-0.553,0.474-0.691,0.731-0.691,1.126V159.862z"
			/>
		<path fill="#FFFFFF" d="M310.753,156.58v5.515c0,0.653-0.14,1.305-0.95,1.305s-0.948-0.652-0.948-1.305v-7.946
			c0-0.692,0.078-1.403,0.948-1.403c0.851,0,0.95,0.711,0.95,1.383v0.218v0.039l1.541-1.007c0.494-0.316,1.028-0.633,1.641-0.633
			h1.403c0.732,0,1.185,0.198,1.759,0.692c0.848,0.731,0.81,1.541,0.848,2.569l0.199,5.969c0.019,0.672-0.08,1.424-0.928,1.424
			c-0.771,0-0.93-0.652-0.95-1.285l-0.196-5.852c-0.041-1.166-0.14-1.62-1.287-1.62h-0.633c-0.196,0-0.395,0.059-0.592,0.177
			L310.753,156.58z"/>
		<path fill="#FFFFFF" d="M340.209,156.58v5.515c0,0.653-0.14,1.305-0.95,1.305s-0.948-0.652-0.948-1.305v-7.946
			c0-0.692,0.078-1.403,0.948-1.403c0.851,0,0.95,0.711,0.95,1.383v0.218v0.039l1.541-1.007c0.494-0.316,1.028-0.633,1.641-0.633
			h1.403c0.732,0,1.185,0.198,1.759,0.692c0.848,0.731,0.81,1.541,0.848,2.569l0.199,5.969c0.019,0.672-0.08,1.424-0.928,1.424
			c-0.771,0-0.93-0.652-0.95-1.285l-0.196-5.852c-0.041-1.166-0.14-1.62-1.287-1.62h-0.633c-0.196,0-0.395,0.059-0.592,0.177
			L340.209,156.58z"/>
		<path fill="#FFFFFF" d="M356.517,163.4c-0.79,0-1.107,0-1.699-0.514l-0.812-0.711c-0.751-0.672-0.967-1.107-0.967-2.135v-3.657
			c0-1.008,0.138-1.601,0.928-2.273l0.671-0.573c0.889-0.771,1.326-0.79,2.096-0.79h1.74c0.928,0,1.362,0.098,2.094,0.692
			l0.771,0.612c0.87,0.692,0.989,1.424,0.989,2.471v1.522c0,1.088-0.177,1.403-1.304,1.403h-6.088v0.633
			c0,0.178,0.138,0.416,0.276,0.554l0.473,0.514c0.259,0.277,0.633,0.356,1.265,0.356h4.074c0.633,0,1.304,0.138,1.304,0.949
			c0,0.83-0.751,0.949-1.304,0.949h-4.507V163.4z M354.937,157.549h5.494v-1.146c0-0.355,0.019-0.652-0.237-0.889l-0.732-0.633
			c-0.237-0.217-0.613-0.236-0.909-0.236h-1.602c-0.354,0-0.652,0-0.967,0.217l-0.652,0.475c-0.237,0.177-0.395,0.315-0.395,0.869
			V157.549z"/>
		<path fill="#FFFFFF" d="M373.362,159.012l1.028,1.758l0.594-1.758l0.196-4.903c0.019-0.652,0.138-1.363,0.95-1.363
			c0.829,0,0.948,0.711,0.928,1.363l-0.199,5.278l-0.928,2.807c-0.199,0.573-0.296,1.206-0.969,1.206h-0.73
			c-0.337,0-0.613-0.356-0.792-0.613l-1.028-1.541l-1.028,1.541c-0.177,0.257-0.453,0.613-0.79,0.613h-0.732
			c-0.671,0-0.771-0.633-0.969-1.206l-0.928-2.807l-0.196-5.278c-0.022-0.652,0.097-1.363,0.928-1.363
			c0.81,0,0.928,0.711,0.948,1.363l0.199,4.903l0.594,1.758l1.028-1.758v-1.74c0-0.652,0.138-1.324,0.948-1.324
			c0.812,0,0.95,0.672,0.95,1.324v1.74H373.362z"/>
		<path fill="#FFFFFF" d="M402.818,155.928v6.167c0,0.653-0.138,1.305-0.95,1.305c-0.81,0-0.948-0.652-0.948-1.305v-6.345
			c0-0.316,0.039-0.909-0.456-0.909c-0.218,0-0.356,0.177-0.514,0.316l-0.829,0.771v6.167c0,0.653-0.14,1.305-0.95,1.305
			s-0.948-0.652-0.948-1.305v-8.005c0-0.672,0.177-1.344,0.987-1.344c0.475,0,0.792,0.316,0.911,0.75l0.158-0.118
			c0.494-0.376,0.79-0.633,1.442-0.633c0.732,0,1.306,0.355,1.74,0.949l0.158-0.159c0.594-0.593,0.831-0.79,1.66-0.79
			c0.633,0,1.207,0.276,1.582,0.771c0.475,0.612,0.434,1.166,0.453,1.898l0.199,6.562c0.019,0.672-0.08,1.424-0.928,1.424
			c-0.771,0-0.93-0.652-0.95-1.285l-0.196-6.266c-0.022-0.337,0.078-1.008-0.436-1.008c-0.276,0-0.633,0.474-0.79,0.652
			L402.818,155.928z"/>
		<path fill="#FFFFFF" d="M419.344,155.137v-1.087c0-0.652,0.138-1.304,0.948-1.304c0.812,0,0.95,0.652,0.95,1.304v0.771
			c0,0.475-0.039,0.791-0.237,1.206l-4.784,10.418c-0.414,0.889-0.633,0.989-1.503,0.989h-1.462c-0.555,0-1.304-0.119-1.304-0.949
			c0-0.811,0.671-0.949,1.304-0.949h1.304l1.403-2.906h-0.099c-0.79,0-0.829-0.356-1.125-1.008l-2.334-5.16
			c-0.257-0.573-0.453-1.008-0.453-1.561v-0.851c0-0.652,0.138-1.304,0.948-1.304s0.95,0.652,0.95,1.304v1.087l2.55,5.595h0.414
			L419.344,155.137z"/>
		<path fill="#FFFFFF" d="M435.969,159.289c0,1.364-0.099,1.878-1.207,2.747l-1.146,0.91c-0.395,0.316-1.008,0.85-1.522,0.85h-1.285
			c-0.851,0-1.246-0.554-1.857-1.127l-0.376-0.355v3.815c0,0.652-0.14,1.305-0.95,1.305s-0.948-0.653-0.948-1.305v-11.978
			c0-0.672,0.078-1.403,0.948-1.403c0.771,0,0.95,0.612,0.95,1.245v0.237l0.376-0.336c0.492-0.435,1.243-1.146,1.779-1.146h1.304
			c0.453,0,1.066,0.474,1.58,0.869l1.146,0.889c1.107,0.87,1.207,1.404,1.207,2.748v2.035H435.969z M434.072,156.996
			c0-0.356-0.099-0.573-0.395-0.83l-1.423-1.186c-0.179-0.159-0.397-0.336-0.654-0.336h-0.492c-0.279,0-0.613,0.355-0.812,0.553
			l-1.185,1.127c-0.395,0.376-0.533,0.593-0.533,1.008v1.858c0,0.277,0.078,0.633,0.276,0.811l1.442,1.364
			c0.276,0.276,0.574,0.533,0.812,0.533h0.492c0.257,0,0.475-0.178,0.654-0.336l1.423-1.186c0.296-0.257,0.395-0.474,0.395-0.83
			V156.996z"/>
		<path fill="#FFFFFF" d="M441.407,154.149c0-0.692,0.078-1.403,0.948-1.403c0.751,0,0.95,0.633,0.95,1.265v0.771l1.481-1.226
			c0.533-0.435,1.088-0.81,1.682-0.81h1.522c0.73,0,1.343,0.236,1.857,0.75c0.633,0.633,0.851,1.286,0.851,2.155
			c0,0.653-0.119,1.324-0.928,1.324c-0.693,0-0.969-0.553-0.969-1.166c0-0.316,0-0.554-0.199-0.83
			c-0.235-0.336-0.691-0.336-1.146-0.336h-0.553c-0.356,0-0.613,0.177-0.95,0.454l-2.647,2.193v4.803c0,0.653-0.14,1.305-0.95,1.305
			s-0.948-0.652-0.948-1.305L441.407,154.149L441.407,154.149z"/>
		<path fill="#FFFFFF" d="M456.137,156.284c0-1.265,0.257-1.699,1.205-2.471c0.928-0.771,1.364-1.066,2.688-1.066h1.503
			c1.326,0,1.759,0.296,2.688,1.066c0.95,0.772,1.207,1.206,1.207,2.471v3.578c0,1.246-0.317,1.72-1.304,2.55
			c-0.989,0.83-1.384,0.989-2.591,0.989h-1.503c-1.205,0-1.6-0.159-2.588-0.989c-0.989-0.83-1.304-1.304-1.304-2.55L456.137,156.284
			L456.137,156.284z M458.035,159.862c0,0.395,0.138,0.652,0.691,1.127c0.415,0.355,0.712,0.514,1.304,0.514h1.503
			c0.594,0,0.889-0.159,1.306-0.514c0.553-0.475,0.691-0.732,0.691-1.127v-3.578c0-0.395-0.138-0.652-0.691-1.126
			c-0.417-0.356-0.712-0.514-1.306-0.514h-1.503c-0.592,0-0.889,0.158-1.304,0.514c-0.553,0.474-0.691,0.731-0.691,1.126V159.862z"
			/>
		<path fill="#FFFFFF" d="M479.226,163.933c0,1.048,0,1.859-0.771,2.669c-0.773,0.83-1.582,0.83-2.215,0.83h-1.58
			c-0.535,0-1.168-0.059-1.781-0.534c-0.553-0.415-1.086-1.265-1.086-1.976c0-0.514,0.434-0.929,0.928-0.929
			c0.514,0,0.831,0.277,0.969,0.751c0.196,0.712,0.514,0.791,1.226,0.791h1.244c1.207,0,1.168-0.494,1.168-1.602v-9.29h-2.293
			c-0.555,0-1.306-0.119-1.306-0.949c0-0.811,0.671-0.949,1.306-0.949h2.787c1.086,0,1.403,0.198,1.403,1.324L479.226,163.933
			L479.226,163.933z M476.359,148.911c0-0.672,0.376-0.889,0.889-0.889h1.088c0.514,0,0.889,0.217,0.889,0.889v0.909
			c0,0.672-0.376,0.889-0.889,0.889h-1.088c-0.514,0-0.889-0.217-0.889-0.889V148.911z"/>
		<path fill="#FFFFFF" d="M489.071,163.4c-0.79,0-1.108,0-1.699-0.514l-0.812-0.711c-0.751-0.672-0.967-1.107-0.967-2.135v-3.657
			c0-1.008,0.138-1.601,0.928-2.273l0.671-0.573c0.889-0.771,1.326-0.79,2.096-0.79h1.74c0.928,0,1.362,0.098,2.094,0.692
			l0.771,0.612c0.87,0.692,0.989,1.424,0.989,2.471v1.522c0,1.088-0.177,1.403-1.304,1.403h-6.088v0.633
			c0,0.178,0.138,0.416,0.276,0.554l0.473,0.514c0.259,0.277,0.633,0.356,1.265,0.356h4.074c0.633,0,1.304,0.138,1.304,0.949
			c0,0.83-0.751,0.949-1.304,0.949h-4.507V163.4z M487.49,157.549h5.494v-1.146c0-0.355,0.019-0.652-0.237-0.889l-0.732-0.633
			c-0.237-0.217-0.613-0.236-0.909-0.236h-1.602c-0.354,0-0.652,0-0.967,0.217l-0.652,0.475c-0.237,0.177-0.395,0.315-0.395,0.869
			V157.549z"/>
		<path fill="#FFFFFF" d="M500.321,157.154c0-1.166,0.216-1.739,1.125-2.49l1.405-1.167c0.889-0.731,1.343-0.75,2.45-0.75h3.005
			c0.633,0,1.304,0.138,1.304,0.949c0,0.83-0.751,0.949-1.304,0.949h-3.342c-0.376,0-0.751,0.198-1.086,0.474l-1.146,0.968
			c-0.298,0.237-0.514,0.435-0.514,0.811v2.352c0,0.376,0.216,0.573,0.514,0.811l1.146,0.969c0.335,0.276,0.71,0.474,1.086,0.474
			h3.342c0.553,0,1.304,0.119,1.304,0.949c0,0.811-0.671,0.949-1.304,0.949h-3.005c-1.107,0-1.561-0.019-2.45-0.751l-1.405-1.166
			c-0.909-0.751-1.125-1.324-1.125-2.491V157.154z"/>
		<path fill="#FFFFFF" d="M518.863,159.822c0,1.068-0.041,1.681,1.265,1.681h0.967c0.771,0,1.127-0.059,1.326-0.83
			c0.119-0.454,0.475-0.771,0.948-0.771c0.535,0,0.969,0.414,0.969,0.949c0,0.533-0.337,1.206-0.652,1.581
			c-0.693,0.83-1.602,0.968-2.61,0.968h-0.967c-0.95,0-1.781-0.217-2.452-0.949c-0.732-0.811-0.691-1.621-0.691-2.649v-5.159h-0.613
			c-0.555,0-1.304-0.119-1.304-0.949c0-0.811,0.671-0.949,1.304-0.949h0.613v-1.938c0-0.652,0.138-1.305,0.948-1.305
			c0.812,0,0.95,0.653,0.95,1.305v1.938h3.182c0.633,0,1.304,0.138,1.304,0.949c0,0.83-0.751,0.949-1.304,0.949h-3.182v5.179
			H518.863z"/>
	</g>
	<rect x="540" y="129.206" display="inline" fill="#738083" width="11" height="39"/>
	<g display="inline">
		<path fill="#738083" d="M155.117,119.995c0.514,0,0.989,0.276,0.989,0.988s-0.475,0.989-0.989,0.989h-8.777v-14.39
			c0-0.633,0.277-0.989,0.989-0.989c0.711,0,0.989,0.356,0.989,0.989v12.413H155.117z"/>
		<path fill="#738083" d="M164.487,113.215c-0.553,0-1.304-0.119-1.304-0.949c0-0.811,0.671-0.949,1.304-0.949h2.61
			c0.988,0,1.7,0.098,2.45,0.85c0.732,0.732,0.83,1.305,0.851,2.254l0.198,6.444c0.019,0.553-0.257,1.106-0.889,1.106
			c-0.494,0-0.989-0.416-0.968-0.949l-1.305,0.672c-0.533,0.276-0.554,0.276-1.166,0.276h-1.819c-0.851,0-1.463-0.099-2.155-0.672
			c-0.791-0.652-0.989-1.344-0.989-2.332v-0.831c0-0.909,0.217-1.482,0.929-2.115c0.652-0.573,1.384-0.711,2.214-0.711h4.072v-0.435
			c0-1.424-0.316-1.66-1.68-1.66L164.487,113.215L164.487,113.215z M164.468,117.208c-0.514,0-1.265,0.138-1.265,0.83v1.265
			c0,0.633,0.771,0.771,1.225,0.771h2.096l2.095-1.087v-0.416c0-1.047-0.297-1.363-1.345-1.363
			C167.274,117.208,164.468,117.208,164.468,117.208z"/>
		<path fill="#738083" d="M179.276,113.215c-0.395,0-1.068-0.08-1.068,0.533c0,0.316,0.237,0.435,0.515,0.554l4.744,2.155
			c1.225,0.554,1.858,1.324,1.858,2.688c0,1.918-1.305,2.827-3.123,2.827h-2.926c-0.988,0-1.66-0.04-2.372-0.593
			c-0.356-0.277-0.87-0.633-0.87-1.107c0-0.533,0.454-0.949,0.989-0.949c0.296,0,0.514,0.099,0.731,0.336
			c0.337,0.376,0.929,0.416,1.522,0.416h2.57c0.672,0,1.581,0.059,1.581-1.048c0-0.454-0.554-0.75-0.989-0.949l-4.467-2.036
			c-1.048-0.474-1.661-1.087-1.661-2.312c0-1.503,1.186-2.411,2.61-2.411h3.242c1.048,0,1.482,0.059,2.194,0.652
			c0.355,0.297,0.751,0.533,0.751,1.068c0,0.533-0.456,0.949-0.969,0.949c-0.355,0-0.573-0.138-0.811-0.396
			c-0.316-0.336-0.652-0.375-1.166-0.375h-2.885V113.215z"/>
		<path fill="#738083" d="M194.577,118.393c0,1.068-0.039,1.681,1.265,1.681h0.969c0.771,0,1.127-0.059,1.324-0.83
			c0.118-0.454,0.474-0.771,0.949-0.771c0.533,0,0.968,0.415,0.968,0.949c0,0.533-0.336,1.206-0.652,1.581
			c-0.692,0.83-1.602,0.968-2.61,0.968h-0.968c-0.949,0-1.779-0.217-2.451-0.949c-0.731-0.811-0.692-1.621-0.692-2.649v-5.159
			h-0.612c-0.554,0-1.305-0.119-1.305-0.949c0-0.811,0.672-0.949,1.305-0.949h0.612v-1.938c0-0.652,0.139-1.305,0.949-1.305
			c0.811,0,0.949,0.653,0.949,1.305v1.938h3.183c0.633,0,1.304,0.138,1.304,0.949c0,0.83-0.751,0.949-1.304,0.949h-3.183
			L194.577,118.393L194.577,118.393z"/>
		<path fill="#738083" d="M225.852,120.074h1.424c0.633,0,1.304,0.138,1.304,0.949c0,0.83-0.751,0.949-1.304,0.949h-4.824
			c-0.553,0-1.304-0.119-1.304-0.949c0-0.811,0.671-0.949,1.304-0.949h1.503v-10.773h-1.503c-0.553,0-1.304-0.119-1.304-0.949
			c0-0.811,0.671-0.949,1.304-0.949h1.997c1.087,0,1.403,0.198,1.403,1.324L225.852,120.074L225.852,120.074z"/>
		<path fill="#738083" d="M234.946,114.855c0-1.265,0.257-1.699,1.206-2.471c0.929-0.771,1.364-1.066,2.689-1.066h1.501
			c1.324,0,1.759,0.296,2.689,1.066c0.949,0.772,1.206,1.206,1.206,2.471v3.578c0,1.246-0.316,1.72-1.305,2.55
			c-0.988,0.83-1.384,0.989-2.59,0.989h-1.501c-1.206,0-1.602-0.159-2.59-0.989c-0.989-0.83-1.305-1.304-1.305-2.55V114.855z
			 M236.844,118.433c0,0.395,0.138,0.652,0.692,1.127c0.416,0.355,0.711,0.514,1.305,0.514h1.501c0.594,0,0.889-0.159,1.305-0.514
			c0.554-0.475,0.692-0.732,0.692-1.127v-3.578c0-0.395-0.138-0.652-0.692-1.126c-0.416-0.356-0.711-0.514-1.305-0.514h-1.501
			c-0.594,0-0.889,0.158-1.305,0.514c-0.554,0.474-0.692,0.731-0.692,1.126V118.433z"/>
		<path fill="#738083" d="M249.674,114.855c0-0.889,0.257-1.68,0.652-1.996l1.384-1.087c0.396-0.316,0.692-0.454,1.186-0.454h1.838
			c0.514,0,1.127,0.375,1.858,0.949l0.475,0.376v-0.218c0-0.593,0.316-1.106,0.968-1.106c0.83,0,0.929,0.692,0.929,1.324v9.27
			c0,1.72-0.138,2.076-0.929,2.748l-0.633,0.533c-0.83,0.692-1.304,0.811-2.371,0.811h-3.143c-0.554,0-1.305-0.119-1.305-0.949
			c0-0.811,0.672-0.949,1.305-0.949h3.479c0.395,0,0.652-0.178,0.949-0.435l0.475-0.435c0.158-0.159,0.276-0.435,0.276-0.791v-2.609
			l-0.395,0.396c-0.435,0.434-1.029,0.928-1.562,0.928h-2.233c-0.396,0-0.851-0.059-1.424-0.573l-1.186-1.068
			c-0.553-0.514-0.593-1.008-0.593-1.779V114.855z M251.571,117.465c0,0.395,0.019,0.811,0.237,0.988l0.79,0.633
			c0.139,0.119,0.316,0.178,0.554,0.178h1.384c0.237,0,0.514-0.198,0.87-0.494l1.463-1.206c0.138-0.119,0.198-0.376,0.198-0.633
			v-1.384c0-0.257-0.059-0.514-0.198-0.633l-1.463-1.206c-0.356-0.296-0.633-0.493-0.87-0.493h-1.384
			c-0.237,0-0.415,0.059-0.554,0.177l-0.79,0.633c-0.218,0.178-0.237,0.594-0.237,0.989V117.465z"/>
		<path fill="#738083" d="M270.036,120.074h1.424c0.633,0,1.304,0.138,1.304,0.949c0,0.83-0.751,0.949-1.304,0.949h-4.824
			c-0.553,0-1.304-0.119-1.304-0.949c0-0.811,0.671-0.949,1.304-0.949h1.503v-6.859h-1.503c-0.553,0-1.304-0.119-1.304-0.949
			c0-0.811,0.671-0.949,1.304-0.949h1.997c1.087,0,1.403,0.198,1.403,1.324L270.036,120.074L270.036,120.074z M267.17,107.483
			c0-0.672,0.376-0.889,0.889-0.889h1.087c0.514,0,0.889,0.217,0.889,0.889v0.909c0,0.672-0.376,0.889-0.889,0.889h-1.087
			c-0.514,0-0.889-0.217-0.889-0.889V107.483z"/>
		<path fill="#738083" d="M281.028,115.152v5.515c0,0.653-0.138,1.305-0.949,1.305s-0.949-0.652-0.949-1.305v-7.946
			c0-0.692,0.079-1.403,0.949-1.403c0.85,0,0.949,0.711,0.949,1.383v0.218v0.039l1.541-1.007c0.494-0.316,1.029-0.633,1.641-0.633
			h1.404c0.731,0,1.185,0.198,1.758,0.692c0.851,0.731,0.811,1.541,0.851,2.569l0.198,5.969c0.019,0.672-0.079,1.424-0.929,1.424
			c-0.771,0-0.928-0.652-0.949-1.285l-0.198-5.852c-0.039-1.166-0.138-1.62-1.285-1.62h-0.633c-0.198,0-0.395,0.059-0.594,0.177
			L281.028,115.152z"/>
		<path fill="#738083" d="M297.794,112.74c-0.436,0-0.751,0-1.028-0.376c-0.218-0.297-0.218-0.514-0.218-0.889v-1.106
			c0-0.376,0-0.594,0.218-0.889c0.276-0.376,0.592-0.376,1.028-0.376h1.423c0.434,0,0.751,0,1.028,0.376
			c0.218,0.296,0.218,0.514,0.218,0.889v1.106c0,0.376,0,0.593-0.218,0.889c-0.276,0.376-0.594,0.376-1.028,0.376H297.794z
			 M297.794,119.461c-0.436,0-0.751,0-1.028-0.376c-0.218-0.296-0.218-0.514-0.218-0.889v-1.106c0-0.376,0-0.594,0.218-0.889
			c0.276-0.376,0.592-0.376,1.028-0.376h1.423c0.434,0,0.751,0,1.028,0.376c0.218,0.296,0.218,0.514,0.218,0.889v1.106
			c0,0.376,0,0.594-0.218,0.889c-0.276,0.376-0.594,0.376-1.028,0.376H297.794z"/>
		<path fill="#738083" d="M327.13,118.393c0,1.068-0.041,1.681,1.265,1.681h0.967c0.771,0,1.127-0.059,1.326-0.83
			c0.119-0.454,0.475-0.771,0.948-0.771c0.535,0,0.969,0.415,0.969,0.949c0,0.533-0.337,1.206-0.652,1.581
			c-0.693,0.83-1.602,0.968-2.61,0.968h-0.967c-0.95,0-1.781-0.217-2.452-0.949c-0.732-0.811-0.691-1.621-0.691-2.649v-5.159h-0.613
			c-0.555,0-1.304-0.119-1.304-0.949c0-0.811,0.671-0.949,1.304-0.949h0.613v-1.938c0-0.652,0.138-1.305,0.948-1.305
			c0.812,0,0.95,0.653,0.95,1.305v1.938h3.182c0.633,0,1.304,0.138,1.304,0.949c0,0.83-0.751,0.949-1.304,0.949h-3.182v5.179H327.13
			z"/>
		<path fill="#738083" d="M338.043,114.855c0-1.265,0.257-1.699,1.205-2.471c0.928-0.771,1.364-1.066,2.688-1.066h1.503
			c1.326,0,1.759,0.296,2.688,1.066c0.95,0.772,1.207,1.206,1.207,2.471v3.578c0,1.246-0.317,1.72-1.304,2.55
			c-0.989,0.83-1.384,0.989-2.591,0.989h-1.503c-1.205,0-1.6-0.159-2.588-0.989c-0.989-0.83-1.304-1.304-1.304-2.55L338.043,114.855
			L338.043,114.855z M339.941,118.433c0,0.395,0.138,0.652,0.691,1.127c0.415,0.355,0.712,0.514,1.304,0.514h1.503
			c0.594,0,0.889-0.159,1.306-0.514c0.553-0.475,0.691-0.732,0.691-1.127v-3.578c0-0.395-0.138-0.652-0.691-1.126
			c-0.417-0.356-0.712-0.514-1.306-0.514h-1.503c-0.592,0-0.889,0.158-1.304,0.514c-0.553,0.474-0.691,0.731-0.691,1.126V118.433z"
			/>
		<path fill="#738083" d="M357.97,111.318c0.652,0,1.185,0.355,1.876,1.047l0.317,0.336v-3.993c0-0.652,0.138-1.304,0.948-1.304
			c0.812,0,0.95,0.652,0.95,1.304v11.94c0,0.652-0.138,1.324-0.95,1.324c-0.749,0-0.948-0.633-0.948-1.265v-0.119l-0.414,0.416
			c-0.594,0.553-1.246,0.968-1.82,0.968h-1.837c-0.633,0-1.345-0.435-1.621-0.672l-0.652-0.553c-0.79-0.672-1.047-1.186-1.047-2.194
			v-3.815c0-1.008,0.257-1.522,1.047-2.194l0.652-0.554c0.594-0.514,1.028-0.671,1.818-0.671L357.97,111.318L357.97,111.318z
			 M354.669,117.801c0,0.534,0,1.206,0.296,1.443l0.572,0.454c0.237,0.198,0.475,0.376,0.712,0.376h1.345
			c0.237,0,0.572-0.159,0.928-0.474l1.088-0.929c0.276-0.237,0.553-0.475,0.553-0.83v-2.392c0-0.356-0.276-0.594-0.553-0.83
			l-1.088-0.929c-0.356-0.316-0.691-0.474-0.928-0.474h-1.345c-0.237,0-0.475,0.177-0.712,0.375l-0.572,0.456
			c-0.296,0.236-0.296,0.909-0.296,1.442V117.801z"/>
		<path fill="#738083" d="M370.683,113.215c-0.555,0-1.306-0.119-1.306-0.949c0-0.811,0.674-0.949,1.306-0.949h2.608
			c0.989,0,1.701,0.098,2.452,0.85c0.73,0.732,0.829,1.305,0.848,2.254l0.199,6.444c0.019,0.553-0.257,1.106-0.889,1.106
			c-0.494,0-0.989-0.416-0.969-0.949l-1.304,0.672c-0.533,0.276-0.553,0.276-1.166,0.276h-1.82c-0.848,0-1.462-0.099-2.155-0.672
			c-0.79-0.652-0.987-1.344-0.987-2.332v-0.831c0-0.909,0.216-1.482,0.928-2.115c0.652-0.573,1.384-0.711,2.213-0.711h4.074v-0.435
			c0-1.424-0.317-1.66-1.682-1.66L370.683,113.215L370.683,113.215z M370.664,117.208c-0.516,0-1.265,0.138-1.265,0.83v1.265
			c0,0.633,0.771,0.771,1.224,0.771h2.096l2.094-1.087v-0.416c0-1.047-0.296-1.363-1.343-1.363
			C373.47,117.208,370.664,117.208,370.664,117.208z"/>
		<path fill="#738083" d="M389.621,113.709v-1.087c0-0.652,0.138-1.304,0.948-1.304c0.812,0,0.95,0.652,0.95,1.304v0.771
			c0,0.475-0.039,0.791-0.237,1.206l-4.784,10.418c-0.415,0.889-0.633,0.989-1.503,0.989h-1.462c-0.555,0-1.304-0.119-1.304-0.949
			c0-0.811,0.671-0.949,1.304-0.949h1.304l1.403-2.906h-0.099c-0.79,0-0.829-0.356-1.125-1.008l-2.334-5.16
			c-0.257-0.573-0.453-1.008-0.453-1.561v-0.851c0-0.652,0.138-1.304,0.948-1.304s0.95,0.652,0.95,1.304v1.087l2.55,5.595h0.415
			L389.621,113.709z"/>
		<path fill="#738083" d="M411.684,114.855c0-1.265,0.257-1.699,1.205-2.471c0.928-0.771,1.364-1.066,2.688-1.066h1.503
			c1.326,0,1.759,0.296,2.688,1.066c0.95,0.772,1.207,1.206,1.207,2.471v3.578c0,1.246-0.317,1.72-1.304,2.55
			c-0.989,0.83-1.384,0.989-2.591,0.989h-1.503c-1.205,0-1.6-0.159-2.589-0.989c-0.989-0.83-1.304-1.304-1.304-2.55V114.855z
			 M413.582,118.433c0,0.395,0.138,0.652,0.691,1.127c0.414,0.355,0.712,0.514,1.304,0.514h1.503c0.594,0,0.889-0.159,1.304-0.514
			c0.555-0.475,0.693-0.732,0.693-1.127v-3.578c0-0.395-0.138-0.652-0.693-1.126c-0.414-0.356-0.71-0.514-1.304-0.514h-1.503
			c-0.592,0-0.889,0.158-1.304,0.514c-0.553,0.474-0.691,0.731-0.691,1.126V118.433z"/>
		<path fill="#738083" d="M428.31,115.152v5.515c0,0.653-0.14,1.305-0.95,1.305s-0.948-0.652-0.948-1.305v-7.946
			c0-0.692,0.078-1.403,0.948-1.403c0.851,0,0.95,0.711,0.95,1.383v0.218v0.039l1.541-1.007c0.494-0.316,1.028-0.633,1.641-0.633
			h1.403c0.732,0,1.185,0.198,1.759,0.692c0.848,0.731,0.81,1.541,0.848,2.569l0.199,5.969c0.019,0.672-0.08,1.424-0.928,1.424
			c-0.771,0-0.93-0.652-0.95-1.285l-0.196-5.852c-0.041-1.166-0.14-1.62-1.287-1.62h-0.633c-0.196,0-0.395,0.059-0.592,0.177
			L428.31,115.152z"/>
		<path fill="#738083" d="M459.684,118.393c0,1.068-0.041,1.681,1.265,1.681h0.967c0.771,0,1.127-0.059,1.326-0.83
			c0.119-0.454,0.475-0.771,0.948-0.771c0.535,0,0.969,0.415,0.969,0.949c0,0.533-0.337,1.206-0.652,1.581
			c-0.693,0.83-1.602,0.968-2.61,0.968h-0.967c-0.95,0-1.781-0.217-2.452-0.949c-0.732-0.811-0.691-1.621-0.691-2.649v-5.159h-0.613
			c-0.555,0-1.304-0.119-1.304-0.949c0-0.811,0.671-0.949,1.304-0.949h0.613v-1.938c0-0.652,0.138-1.305,0.948-1.305
			c0.812,0,0.95,0.653,0.95,1.305v1.938h3.182c0.633,0,1.304,0.138,1.304,0.949c0,0.83-0.751,0.949-1.304,0.949h-3.182v5.179
			H459.684z"/>
		<path fill="#738083" d="M474.412,118.393c0,1.068-0.041,1.681,1.265,1.681h0.967c0.771,0,1.127-0.059,1.326-0.83
			c0.119-0.454,0.475-0.771,0.948-0.771c0.535,0,0.969,0.415,0.969,0.949c0,0.533-0.337,1.206-0.652,1.581
			c-0.693,0.83-1.602,0.968-2.61,0.968h-0.967c-0.95,0-1.781-0.217-2.452-0.949c-0.732-0.811-0.691-1.621-0.691-2.649v-5.159h-0.613
			c-0.555,0-1.304-0.119-1.304-0.949c0-0.811,0.671-0.949,1.304-0.949h0.613v-1.938c0-0.652,0.138-1.305,0.948-1.305
			c0.812,0,0.95,0.653,0.95,1.305v1.938h3.182c0.633,0,1.304,0.138,1.304,0.949c0,0.83-0.751,0.949-1.304,0.949h-3.182v5.179
			H474.412z"/>
		<path fill="#738083" d="M492.717,113.709v-1.087c0-0.652,0.138-1.304,0.948-1.304c0.812,0,0.95,0.652,0.95,1.304v0.771
			c0,0.475-0.039,0.791-0.237,1.206l-4.784,10.418c-0.414,0.889-0.633,0.989-1.503,0.989h-1.462c-0.555,0-1.304-0.119-1.304-0.949
			c0-0.811,0.671-0.949,1.304-0.949h1.304l1.403-2.906h-0.099c-0.79,0-0.829-0.356-1.125-1.008l-2.334-5.16
			c-0.257-0.573-0.453-1.008-0.453-1.561v-0.851c0-0.652,0.138-1.304,0.948-1.304s0.95,0.652,0.95,1.304v1.087l2.55,5.595h0.414
			L492.717,113.709z"/>
		<path fill="#738083" d="M503.293,113.215c-0.395,0-1.066-0.08-1.066,0.533c0,0.316,0.237,0.435,0.514,0.554l4.743,2.155
			c1.226,0.554,1.859,1.324,1.859,2.688c0,1.918-1.304,2.827-3.124,2.827h-2.925c-0.989,0-1.66-0.04-2.373-0.593
			c-0.354-0.277-0.868-0.633-0.868-1.107c0-0.533,0.453-0.949,0.987-0.949c0.298,0,0.514,0.099,0.732,0.336
			c0.337,0.376,0.928,0.416,1.522,0.416h2.569c0.674,0,1.582,0.059,1.582-1.048c0-0.454-0.553-0.75-0.989-0.949l-4.467-2.036
			c-1.047-0.474-1.66-1.087-1.66-2.312c0-1.503,1.185-2.411,2.608-2.411h3.243c1.047,0,1.483,0.059,2.193,0.652
			c0.356,0.297,0.751,0.533,0.751,1.068c0,0.533-0.453,0.949-0.967,0.949c-0.356,0-0.574-0.138-0.812-0.396
			c-0.315-0.336-0.652-0.375-1.166-0.375h-2.886V113.215z"/>
	</g>
	<path display="inline" fill="#738083" d="M575,76.206H117V50.917c0-5.238,4.543-8.711,10.921-8.711h435.962
		c6.378,0,11.117,3.473,11.117,8.711V76.206z"/>
	<g display="inline">
		<path fill="#CDEAF5" d="M114.329,155.055c0,0-11.077,8.823-6.571,15.206c4.506,6.383-4.506,14.644,0,19.337
			c4.506,4.693-1.127,16.708,9.762,25.532c0,0,7.51-8.26,9.199-15.957l-3.379-0.376c0,0,11.452-4.318,19.149-12.578
			c0,0-9.199-2.065-16.896-2.065c0,0,12.014-6.195,17.834-5.256c0,0-1.69-7.134-9.199-8.824c0,0,7.321-8.448-3.192-12.015
			S116.582,153.553,114.329,155.055z"/>
		<path fill="#EAF7FE" d="M118.272,151.112c0,0-11.077,8.823-6.571,15.206s-4.506,14.644,0,19.337s-1.127,16.708,9.762,25.532
			c0,0,7.51-8.26,9.199-15.957l-3.379-0.376c0,0,11.452-4.318,19.149-12.578c0,0-9.199-2.065-16.896-2.065
			c0,0,12.014-6.195,17.834-5.256c0,0-1.69-7.134-9.199-8.824c0,0,7.321-8.448-3.192-12.015
			C124.467,150.549,120.525,149.61,118.272,151.112z"/>
		<path fill="#CDEAF5" d="M147.37,174.955c0,0-9.199-6.289-23.279,5.538c0,0,2.583-0.422,5.445-0.282
			C129.536,180.211,142.63,173.922,147.37,174.955z"/>
		<path fill="#CDEAF5" d="M138.171,166.131c0,0-8.167-1.126-12.532-0.141c0,0,4.928-6.477,14.362-2.816
			C140.001,163.174,139.158,165.427,138.171,166.131z"/>
		<path fill="#CDEAF5" d="M146.432,182.276c0,0-20.229,8.636-24.735,12.578c0,0,2.207-0.376,5.586,0
			C127.283,194.854,141.176,189.41,146.432,182.276z"/>
		<path fill="#CDEAF5" d="M130.004,197.248c0,0-6.899,8.87-11.123,11.546c0,0,1.221,1.83,2.582,2.394
			C121.463,211.187,128.737,202.669,130.004,197.248z"/>
	</g>
	<g display="inline">
		<circle fill="#E9F7FE" cx="129.58" cy="59.418" r="3.944"/>
		<circle fill="#E9F7FE" cx="142.594" cy="59.418" r="3.944"/>
		<circle fill="#E9F7FE" cx="155.608" cy="59.418" r="3.944"/>
	</g>
</g>
<g>
	<path fill="#E5E5E5" d="M433.719,310.591c0,1.571-1.259,2.846-2.812,2.846H196.173c-1.553,0-2.812-1.274-2.812-2.846l0,0
		c0-1.571,1.259-2.846,2.812-2.846h234.733C432.46,307.745,433.719,309.02,433.719,310.591L433.719,310.591z"/>
	<g>
		<rect x="204.029" y="262.456" fill="#738083" width="102.658" height="40.258"/>
		<g>
			<path fill="#5C5B5D" d="M460.198,266.265c0,5.535-4.529,10.064-10.064,10.064H62.146c-5.535,0-10.064-4.529-10.064-10.064V30.071
				c0-5.535,4.529-10.064,10.064-10.064h387.988c5.535,0,10.064,4.529,10.064,10.064L460.198,266.265L460.198,266.265z"/>
		</g>
		<rect x="64.125" y="32.34" fill="#747F83" width="384.028" height="210.777"/>
		<rect x="194.971" y="299.694" fill="#738083" width="120.773" height="8.051"/>
	</g>
	<g opacity="0.1">
		<rect x="76.21" y="41.038" fill="#E9F7FE" width="77.496" height="19.123"/>
		<rect x="76.21" y="66.2" fill="#E9F7FE" width="360.306" height="120.773"/>
		<rect x="159.745" y="41.038" fill="#E9F7FE" width="276.771" height="19.123"/>
		<rect x="76.21" y="194.018" fill="#E9F7FE" width="84.541" height="40.258"/>
		<rect x="258.377" y="194.018" fill="#E9F7FE" width="85.547" height="40.258"/>
		<rect x="349.963" y="194.018" fill="#E9F7FE" width="86.554" height="40.258"/>
		<rect x="166.79" y="194.018" fill="#E9F7FE" width="85.547" height="40.258"/>
	</g>
</g>
<path fill="#E5E5E5" d="M168.96,343.187c0,1.434-2.549,2.598-5.692,2.598H98.886c-3.143,0-5.692-1.163-5.692-2.598l0,0
	c0-1.434,2.549-2.598,5.692-2.598h64.383C166.413,340.589,168.96,341.752,168.96,343.187L168.96,343.187z"/>
<g>
	<g>
		<g>
			<g>
				<path fill="#5C5B5D" d="M545.338,329.205c0,5.72-4.68,10.402-10.401,10.402H316.702c-5.72,0-10.402-4.68-10.402-10.402V175.297
					c0-5.72,4.68-10.402,10.402-10.402h218.236c5.72,0,10.401,4.68,10.401,10.402L545.338,329.205L545.338,329.205z"/>
			</g>
			<rect x="327.156" y="179.924" fill="#747F83" width="196.852" height="144.654"/>
		</g>
		<path fill="#404040" d="M323.244,252.252c0,2.653-2.15,4.803-4.803,4.803l0,0c-2.653,0-4.803-2.15-4.803-4.803l0,0
			c0-2.653,2.15-4.803,4.803-4.803l0,0C321.094,247.449,323.244,249.599,323.244,252.252L323.244,252.252z"/>
		
			<line fill="none" stroke="#404040" stroke-width="2" stroke-linecap="round" stroke-miterlimit="10" x1="533.196" y1="242.647" x2="533.196" y2="261.856"/>
	</g>
	<g opacity="0.2">
		<rect x="332.548" y="183.636" fill="#E9F7FE" width="187.221" height="12.482"/>
		<rect x="332.548" y="200.278" fill="#E9F7FE" width="187.221" height="61.367"/>
		<rect x="332.548" y="266.646" fill="#E9F7FE" width="43.891" height="51.542"/>
		<rect x="380.179" y="266.646" fill="#E9F7FE" width="43.891" height="51.542"/>
		<rect x="428.246" y="266.646" fill="#E9F7FE" width="43.891" height="51.542"/>
		<rect x="475.878" y="266.646" fill="#E9F7FE" width="43.891" height="51.542"/>
	</g>
</g>
<g>
	<g>
		<g>
			<path fill="#5C5B5D" d="M168.826,334.349c0,3.433-2.809,6.24-6.24,6.24H99.301c-3.433,0-6.24-2.809-6.24-6.24V210.283
				c0-3.433,2.809-6.24,6.24-6.24h63.285c3.433,0,6.24,2.809,6.24,6.24V334.349z"/>
		</g>
		<rect x="99.286" y="227.829" fill="#747F83" width="63.317" height="91.774"/>
		<path fill="#404040" d="M135.746,330.577c0,2.653-2.15,4.803-4.802,4.803l0,0c-2.653,0-4.802-2.15-4.802-4.803l0,0
			c0-2.653,2.15-4.803,4.802-4.803l0,0C133.596,325.774,135.746,327.924,135.746,330.577L135.746,330.577z"/>
		
			<line fill="none" stroke="#404040" stroke-width="2" stroke-linecap="round" stroke-miterlimit="10" x1="121.34" y1="217.574" x2="140.547" y2="217.574"/>
	</g>
	<g opacity="0.2">
		<rect x="102.976" y="247.953" fill="#E9F7FE" width="56.203" height="40.898"/>
		<g>
			<rect x="102.976" y="293.614" fill="#E9F7FE" width="16.008" height="11.244"/>
			<g>
				<rect x="123.207" y="293.614" fill="#E9F7FE" width="35.971" height="4.269"/>
				<rect x="123.207" y="300.59" fill="#E9F7FE" width="35.971" height="4.269"/>
			</g>
		</g>
		<g>
			<rect x="102.976" y="309.127" fill="#E9F7FE" width="16.008" height="11.244"/>
			<g>
				<rect x="123.207" y="309.127" fill="#E9F7FE" width="35.971" height="4.269"/>
				<rect x="123.207" y="316.103" fill="#E9F7FE" width="35.971" height="4.269"/>
			</g>
		</g>
		<rect x="102.71" y="237.733" fill="#E9F7FE" width="56.203" height="5.709"/>
	</g>
</g>
<path fill="#E5E5E5" d="M547.003,342.756c0,1.571-1.26,2.846-2.812,2.846H309.457c-1.553,0-2.812-1.274-2.812-2.846l0,0
	c0-1.571,1.259-2.846,2.812-2.846H544.19C545.744,339.91,547.003,341.185,547.003,342.756L547.003,342.756z"/>
</svg>
