<?xml version="1.0" encoding="utf-8"?>
<!-- Generator: Adobe Illustrator 19.1.0, SVG Export Plug-In . SVG Version: 6.00 Build 0)  -->
<svg version="1.1" id="Layer_1" xmlns="http://www.w3.org/2000/svg" xmlns:xlink="http://www.w3.org/1999/xlink" x="0px" y="0px"
	 viewBox="476 -176.8 600 400" style="enable-background:new 476 -176.8 600 400;" xml:space="preserve">
<style type="text/css">
	.st0{fill:#E6E7E8;}
	.st1{display:none;}
	.st2{display:inline;fill:#012B31;}
	.st3{fill:#E8A2B0;}
	.st4{fill:#E9BAA9;}
	.st5{fill:#DD90A2;}
	.st6{fill:#DFA696;}
	.st7{fill:#FECDC5;}
	.st8{fill:#FFC2D6;}
	.st9{fill:#CC7691;}
	.st10{fill:#B75978;}
	.st11{fill:#FFFFFF;}
	.st12{fill:#3A3A3A;}
	.st13{fill:none;}
	.st14{fill:#EFEFEF;}
	.st15{opacity:0.46;enable-background:new    ;}
	.st16{opacity:0.1;enable-background:new    ;}
	.st17{opacity:0.7;enable-background:new    ;}
</style>
<ellipse class="st0" cx="775.9" cy="206.6" rx="118.8" ry="15"/>
<g id="Bg" class="st1">
	<polygon class="st2" points="1180,-371.9 1117,-371.9 537,-371.9 537,220.1 857,220.1 857,328.1 1180,328.1 1180,-21.9 1756,-21.9 
		1756,-371.9 	"/>
</g>
<g id="_x32_">
</g>
<g id="_x33_">
</g>
<g id="_x34_">
</g>
<g id="_x35__1_">
</g>
<g id="_x36_">
</g>
<g id="_x37_">
</g>
<g>
	<path class="st3" d="M912.7,104.9c1.7-1.6,3.2-3.3,4.4-5.2c3.8-7.2,3.1-16.9,2.4-22.6c-1.3-10.4-0.2-15.9-0.2-15.9
		c-5,5.8,0.8,23-12.8,35.3c-13.6,12.4-41.9,0.8-41.9,0.8s-5.9-7.3-13.3-16.7c-0.8,1.7-1.4,2.3-2.5,3.9c-0.5,0.7-1.8-0.1-1.3-0.9
		c1.2-1.7,1.9-2.4,2.8-4.2c-10.8-13.8-24.1-31.5-26.5-37.4c-4.2-10.3-31.2,19.8-26.5,28.4c5.9,10.8,3.2,23.9,3.2,23.9l-19.1-16.9
		c-2.9,25.1,14.6,32.8,14.6,32.8c-2.9,9.4-13.1,14.9-33.8,32.5c-20.7,17.7-21.3,26.6-18.8,45.6c2.5,18.8,15.1,28.3,14.8,27.8
		c-0.3-0.5-10.2-24.8-8-40.5c2.2-15.7,18-24.2,40.3-37.6c22.3-13.4,21.7-25.4,21.7-25.4c2.6,0.2,5.8-0.5,5.8-0.5
		c1.1,7.2-1.1,19.3-1.1,19.3c-5,25.2-29.2,21.5-29.2,21.5s-3.9,7.2,15.3,7.7s24.2-17.3,24.2-17.3c7.3-0.6,17-0.8,20.2-4.8
		c2.7-3.4,1.3-6.9-4.2-10.8c-5.5-3.9-11.9,1.1-11.9,1.1c1-7.1-0.6-20.2-0.6-20.2c5-1.4,9.3-5.6,9.3-5.6c6.6,4.7,9.3,7.7,27,12.2
		c11.5,2.9,26.3,0.2,37.9-4.9C907.5,108.5,910.3,107.2,912.7,104.9z"/>
	<path class="st4" d="M912.7,104.9c1.7-1.6,3.2-3.3,4.4-5.2c3.8-7.2,3.1-16.9,2.4-22.6c-1.3-10.4-0.2-15.9-0.2-15.9
		c-5,5.8,0.8,23-12.8,35.3c-13.6,12.4-41.9,0.8-41.9,0.8s-5.9-7.3-13.3-16.7c-0.8,1.7-1.4,2.3-2.5,3.9c-0.5,0.7-1.8-0.1-1.3-0.9
		c1.2-1.7,1.9-2.4,2.8-4.2c-10.8-13.8-24.1-31.5-26.5-37.4c-4.2-10.3-31.2,19.8-26.5,28.4c5.9,10.8,3.2,23.9,3.2,23.9l-19.1-16.9
		c-2.9,25.1,14.6,32.8,14.6,32.8c-2.9,9.4-13.1,14.9-33.8,32.5c-20.7,17.7-21.3,26.6-18.8,45.6c2.5,18.8,15.1,28.3,14.8,27.8
		c-0.3-0.5-10.2-24.8-8-40.5c2.2-15.7,18-24.2,40.3-37.6c22.3-13.4,21.7-25.4,21.7-25.4c2.6,0.2,5.8-0.5,5.8-0.5
		c1.1,7.2-1.1,19.3-1.1,19.3c-5,25.2-29.2,21.5-29.2,21.5s-3.9,7.2,15.3,7.7s24.2-17.3,24.2-17.3c7.3-0.6,17-0.8,20.2-4.8
		c2.7-3.4,1.3-6.9-4.2-10.8c-5.5-3.9-11.9,1.1-11.9,1.1c1-7.1-0.6-20.2-0.6-20.2c5-1.4,9.3-5.6,9.3-5.6c6.6,4.7,9.3,7.7,27,12.2
		c11.5,2.9,26.3,0.2,37.9-4.9C907.5,108.5,910.3,107.2,912.7,104.9z"/>
	<path class="st5" d="M871.4,113.8c-0.5-0.1-1.7-0.4-2.9-0.7c-1.1-0.2-2.3-0.5-3.4-0.9c-0.2,0-0.4,0-0.6-0.1c-0.2,0-0.4-0.1-0.5-0.3
		c-0.1,0-0.3-0.1-0.4-0.1c0,2,0.1,0.4-0.1,2.4c1.1,0.3,2.2,0.6,3.4,0.9c6,1.5,12.9,1.5,19.7,0.4C881.5,115.4,876.4,115,871.4,113.8z
		"/>
	<path class="st6" d="M800.2,77.6c0.7-1,1.4-2,2.2-3c1.1-1.4,2.3-2.7,3.8-3.7c0.3-0.2,2.3-1.8,3.2-2.2c0.8-0.4,1-0.6,1.5-0.7
		c0.4,1.1,1.6,4.1,2,5.2c2.8-3.6,7.5-6.2,11.9-6.4c0.5,0.7,2.2,3.3,3.1,4.4c3.7,3.8,4.2,4.2,7.5,6.3c2.2-3,4.6-5.9,7-8.8
		c-8.5-11.2-16.6-22.4-18.4-26.9c-4.2-10.3-31.2,19.8-26.5,28.4C798.7,72.7,799.6,75.2,800.2,77.6z"/>
	<path class="st6" d="M819.4,144.6c7.4-9.4,11.7-22.4,11.3-34.4c0-0.2,0-0.3,0.1-0.4c0-0.2-0.1-0.5-0.1-0.7
		c-0.2-0.1-0.3-0.2-0.5-0.4c-0.1-0.1-0.1-0.1-0.1-0.2c-3.9,1.6-8,2.5-12.2,3.2c0,0.1-0.1,0.2-0.1,0.2c0.1,0,0.1,0,0.1,0
		c1.1,7.2-1.1,19.3-1.1,19.3c-5,25.2-30.4,21.1-30.4,21.1s0.1,1,0.9,1.2C797.6,159.1,812.7,153.1,819.4,144.6z"/>
	<path class="st6" d="M844.6,126.3c-1.7-1.2-4.9-0.2-6.6-0.1c-5,2.7-10.5,11.3-8,16.7c12.6-1.4,14.7-1.2,17.4-4.5
		C850.1,135,850,130.1,844.6,126.3z"/>
	<path class="st6" d="M750.1,187.2c-1.6-10.2,0.2-21.4,5.6-30.2c6-9.7,15.3-13.8,25.6-17.7c6-2.2,11.9-4.8,17.1-8.5
		c3.6-2.6,7-5.6,10.1-8.8c3.1-4.6,3.5-8.4,3.6-9.5c-5.4,0.2-11.4,0-16.1-2.5c-3.2,9-13.5,15.2-33.8,32.5
		c-20.7,17.7-21.3,26.6-18.8,45.6c2.5,18.8,15.1,28.3,14.8,27.8c-0.2-0.3-5.4-13.1-7.5-26.1C750.5,188.9,750.3,188.1,750.1,187.2z"
		/>
	<path class="st6" d="M863.9,112.1c-1.1-0.1-2.3-0.3-3.4-0.7c-0.2-0.1-0.3-0.2-0.4-0.4c-1.5-0.5-2.9-1.1-4-2.3
		c-0.7-0.8-1.4-1.5-2-2.3c-2.4-2.6-3.1-6.3-3.3-10.1c-0.1-1.3-0.1-2.5,0-3.5c0-0.5,0-1.1,0.1-1.6c-0.9-2.9,1-5.2,3.5-6.8
		c-1-1.2-2-2.5-3-3.8c-0.4,0.8-0.7,1.5-1.1,2.2l0,0c-0.3,4.7-1,7.1-3.3,11c-1.7,2.3-3.1,4.3-4.7,6.2c-0.8,0.8-1.9,2.1-2.4,2.8
		c6.1,4.3,9.2,7.4,24.3,11.5C864.1,113.6,864,112.8,863.9,112.1z"/>
	<path class="st4" d="M717.9-100.2c0,0,9.5,4.4,10.9,8.5c6.5,7.6,28.9,35.2,3.8,70.1c-3.8,2.2-14,5.3-17.5,17s-4,30.8,3.4,41.3
		c7.4,10.4,31.3,24.6,51.2,17.5c0,0-32.1,1.4-41.4-20.9s-4.5-31,0.3-38.1s18-11.6,18.6-18C763.1-41.6,741.6-102.1,717.9-100.2"/>
	<path class="st6" d="M716.9-100.4c0,0,12.6,9.5,14,13.7c6.9,8.2,25.9,30.2,3.8,61.1c-3.8,2.2-16,9.3-19.5,21
		c-1.9,6.4-3,15.1-2.2,23.4c0.7-2.3,1.6-4.6,2.6-6.7c2.6-5.3,6.2-11.3,11.3-14.6c0.1-0.1,0.3-0.1,0.4-0.1c0.5-0.7,0.9-1.4,1.4-2.1
		c4.8-7.1,18-11.6,18.6-18C754-54.4,731-116.3,716.9-100.4z"/>
	<path class="st4" d="M894-37.5c0,0-5.5,3.5-5.5,7.9s6.1,10.1,12.7,13.2S918.7-1.5,917.1,17c-1.6,18.5-8.5,36.8-33.6,41.4
		c0,0,10.1,22-8.7,26c0,0,9.2-9.6,4.2-16.9s-16.1-6.3-26,3.9l-8.8-7.5c0,0,12.7-11.7,35.2-15.7s27.9-21,25.9-33.6
		s-6.1-18.3-16.1-24.1S881.2-39.4,894-37.5z"/>
	<path class="st6" d="M880.6,61.8c3.8,4.5,4.7,11.2,3.4,17.1c4.1-5.9,1.8-14.5,0.4-18.4c-4.9-5.5-12.4-8.4-20.1-8.2
		c-6.9,2.7-12.2,5.7-15.5,8.1c0.1,0.1,0.1,0.2,0.2,0.2C858.7,57.3,872.8,52.7,880.6,61.8z"/>
	<path class="st6" d="M889.2-9.5c5.1,3,8.7,6,11.2,9.8c0.1,0,0.3,0,0.5,0.1c9.1,5.9,6.5,20.4,15,25.5c0.6-3,1-6,1.3-8.9
		c1.6-18.5-9.3-30.3-15.9-33.4c-6.6-3.1-12.7-8.8-12.7-13.2s5.5-7.9,5.5-7.9C881.2-39.4,879.2-15.3,889.2-9.5z"/>
	<path class="st4" d="M945.7,64.5c0,0,0.8,4.5-4,4.2c-2.9-0.3,0.5-4.8-1.1-7.9c-1.6-3.1-1.3-6.3-9.8-5.6
		C922.3,55.8,945.6,46,945.7,64.5"/>
	<path class="st6" d="M940.8,65.1c0.7,1.6,2.5,2.6,4.3,2.4c1-1.2,0.6-3,0.6-3c-0.2-18.5-23.4-8.7-14.9-9.3s8.2,2.6,9.8,5.6
		C941.3,62.1,941,63.7,940.8,65.1z"/>
	<path class="st4" d="M682.3,72.1c0,0,7.5-0.6,18.4,6.4c10.9,7.1,15.8,9.6,32.3,8.8c16.5-0.9,19.5-9.8,18.4-10.1
		c-1.1-0.2-23.8,0.9-34.3-4.1C706.8,68.2,694.3,66.5,682.3,72.1"/>
	<path class="st6" d="M684.7,72.2c9.4-2.7,16.2,2.1,25.8,7.7c5.6,3.3,11.1,4.7,19.9,4.8c5,0.1,10.6-0.7,15.6-0.7
		c5.2-2.9,6.2-6.7,5.5-6.8c-1.1-0.2-23.8,0.9-34.3-4.1c-10.5-4.9-22.9-6.6-34.9-1.1C682.3,72.1,683.2,72,684.7,72.2z"/>
	<path class="st4" d="M765.4,88.4c0,0-12.4,15.6-8.6,42.6c3.9,27,15.6,54.4,21.6,61.4c6,7.1,9.2,4.3,6.4-2.1
		c-2.8-6.4-18-41.3-15.6-73.2c2.4-31.9,16.8-38,16.8-38S786.2,61.6,765.4,88.4z"/>
	<path class="st6" d="M782.4,76.6c0.1-1,0.2-2,0.4-3c-2.7-0.4-7.8,2.5-17.4,14.8c0,0-5.5,7-8.1,19.6c1-1.1,2-2.1,3.3-2.9
		c3.6-2.5,7.5-4.4,11.7-5.6c2.5-8.5,6-13.6,8.8-16.5c0.1-1.9,0.3-3.8,0.5-5.7C781.7,76.7,782.1,76.5,782.4,76.6z"/>
	<path class="st3" d="M729,146.8c-1.4-6.2-6.6-7.6-8.7-6.7c1.3,2.2,2.5,4.3,3.3,6.6c1.4,2.7,1.7,6,0.9,12.4
		c-0.1,0.7-0.2,1.1-0.4,1.8c-0.5,1.8-1.4,3.3-2.5,4.7c-1.7,2-3.7,3.9-6.3,4.3c-1.9,0.3-3.8,0.6-5.8,0.5c-4.1-0.3-6.1-2-7.5-4.6
		c-0.9-1.1-1.6-2.5-2-3.9c-1.1-2.2-1.9-4.4-4.2-3.9c-1,0.2-1.6,0.7-2,1.3c-0.4,1.4-0.6,2.9-0.6,4.3c0.1,0.6,0.2,1.1,0.2,1.1
		c6,15.8,22.3,14.3,31.3,9C733.7,168.2,731.2,156,729,146.8z"/>
	<path class="st5" d="M729,146.8c-1.4-6.2-6.6-7.6-8.7-6.7c1.3,2.2,2.5,4.3,3.3,6.6c0.8,1.5,1.2,3.2,1.3,5.6c2,6.7-1,15.2-7.7,17.7
		c-4.8,1.8-9.9,1.9-14.3-1c-3.9-2.5-7.1-6.1-8.1-10.7c-0.5,0.2-0.8,0.6-1.1,0.9c-0.4,1.4-0.6,2.9-0.6,4.3c0.1,0.6,0.2,1.1,0.2,1.1
		c6,15.8,22.3,14.3,31.3,9C733.7,168.2,731.2,156,729,146.8z"/>
	<path class="st5" d="M816.8,96.3c0,0,1.1-10.1,0-14.3c0,0,4.2,7.1,9,9.5C825.8,91.5,823,95,816.8,96.3z"/>
	<path class="st4" d="M842.1,139.5c0,0-3.7-2.2-3.3-5.5c0,0-3.7,2.1-1.7,5.5c2,3.3,0,0,0,0S839.7,140.3,842.1,139.5"/>
	<path class="st4" d="M783.6-140.5c0,0-19.3-8.6-27.4,5.6c-8.1,14.1-1.7,27-13.3,30.4c0,0,18,9,36-1.7S783.6-140.5,783.6-140.5z"/>
	<path class="st6" d="M783.6-140.5c0,0-2.9-1.3-6.8-2c-3.9,6.7-5.6,15.6-5.6,22.8c0,5.3,0.6,11.1,2,16.2c1.9-0.7,3.8-1.6,5.7-2.8
		C796.9-116.9,783.6-140.5,783.6-140.5z"/>
	<path class="st4" d="M886.6-28.5c1-0.2,1.3,0.8,1.5,2.2c0.3,1.4,0.7,2.7-0.3,2.9c-1,0.2-3.1-0.7-3.3-2.1
		C884.2-26.9,885.6-28.4,886.6-28.5z"/>
	
		<ellipse transform="matrix(-0.4009 0.9161 -0.9161 -0.4009 1305.9479 -698.8145)" class="st7" cx="881.5" cy="77.6" rx="2.1" ry="1.1"/>
	
		<ellipse transform="matrix(-0.6856 0.728 -0.728 -0.6856 1540.6851 -500.2273)" class="st8" cx="878.4" cy="82.6" rx="2.1" ry="1.1"/>
	<path class="st9" d="M940.7,49c-0.4-0.2-0.8-0.3-1.2-0.4c-7.1-2-16.4-2.7-22.8-0.6c-1.5,0.8-3,1.8-4.4,3c-5,6.2-5.7,16.1-3.9,25
		c1.6,8,1.7,12.2-0.5,15.3c-0.7,1.4-1.8,2.6-3,3.6c-2.1,1.9-4.9,3.4-7.8,4.2c-1.3,0.4-2.7,0.6-4.1,0.8c-12.1,2.6-27.9-5.6-27.9-5.6
		v0.1c-0.5-2.2-1.1-4.3-1.7-6.5c-2.3-8.6-9.7-17.4-16.2-23.9c0.9-1.2,1.9-2.1,2.9-2.8c7.1-4.7,23.1-11.3,30.2-2.1
		c7.1,9.2,3.9,21-3.9,24c-4.1,1.9-5.8,4.3-4.5,5.4s7.3,0.4,12.6-5.6c5.4-6,8.2-16.4-0.6-26.5c-1.4-1.7-1.9-2.5-3.8-3.6
		c7.5-1.7,21.6-9.5,25.4-24.2c3.7-16.9,2.5-22.3-0.9-28.1c-1.2-2.9-3.6-4.8-4.5-5.3c-12.1-6.1-13.8-11.4-13.2-16.3
		c0-0.7,0-1.5,0.2-2.3c0.5-2.7,1.2-6,2.7-8.5c1.6-3.7,4.8-5.4,9.8-5.7c7.4-0.4,15.5,4.2,20.6,9.3c6.4,6.5,7.7,15.1,11.3,23
		c5.8,11.1,16.8,15.2,16.8,15.2c-4.7-4.3-2.8-17.3-1.1-23.1s0.9-15-3.9-25c-4.7-10.1-7.7-13.7-29.1-15c-21.4-1.3-24.8,5.4-29.1,17.1
		c-4.3,11.8-6.4,23.5,3.9,29.3c3.4,1.9,7.4,5.5,9.6,7.7c4.8,6.2,5.8,16.7,2,26.7c-3.9,10.3-16.1,19.5-32.3,19.1
		c-16.3-0.4-28.7-8.8-31-19.1c-2.1-9.2,0.6-27.4,1.2-31.2c5.3-5.1,6.5-11.9,5.4-17.9c0.3,0,0.6,0.1,0.9,0.1c3.3,0,6-2.7,6-6
		s-2.7-6-6-6c-1.9,0-3.5,0.9-4.6,2.2c0.1-5.3,0.3-14.3,0.4-19.2c3.4-0.6,5.5-1,5.5-1s6.2-9-2.4-13.5c0,0,4.9-15.6-11.3-33.2
		c-13.3-14.8-12.4-24-12.4-24s14.1-2.8,21-14.1s9-22.7-4.3-33.2s-22.5-5.1-33.8,1.5s-32.1,27-25.7,70c3.2,18.6,5.8,26.8,7.9,31.7
		c0,0-11.3,5.4-5.4,15.8c1.1,1.9,3.9,3,7.8,3.7l-0.3,18.8c-1.1-1.3-2.8-2.1-4.6-2.1c-3.4,0-6.2,2.8-6.2,6.2s2.8,6.2,6.2,6.2
		c0.3,0,0.7,0,1-0.1c0,2.3,0.5,6.7,3.1,10.9c0.3,5.2,0.9,26.5-5.4,34.4c-7.3,9-22,22.7-37.9,13.9c-15.8-8.8-17.1-16.9-16.3-30.2
		C728-2,736.9-8.4,745.7-16.3c21.5-19.3,9-59.3-4.4-74.4c-8.3-9.4-17.7-26.4-39.1-25.1c-21.4,1.3-24.4,4.9-29.1,15s-5.6,19.3-3.9,25
		c1.7,5.8,3.6,18.8-1.1,23.1c0,0,11-4.1,16.8-15.2c3.6-8,4.9-16.5,11.3-23c5.1-5.1,13.1-9.7,20.6-9.3c5,0.3,15.2,9,16.8,12.7
		c12.3,14.9,12.4,23.9,13,38.5c0.1,0.8,0.2,1.5,0.2,2.3c0.7,4.9-3.1,29.1-15.2,35.3c-13.5,6.9-11.1,35.3-9.2,40.2
		c1.9,4.9,20.8,39.8,54.8,21.8c0,0-6.8,8.7-14.7,15.6c-3.8,4.6-10,6.6-15.7,7.4c-3.7,0.5-7.1,0.9-10.4,0.6c-2.9,0.2-5.8,0-8.6-0.4
		c-8.1-1.2-14.6-4.4-21.9-7.8c-9-4.2-19.3-3.2-28.6-0.6c-4.3,1.2-8.3,2.7-11.2,6.3c-1.7,2.1-2.6,4.4-3.3,6.9
		c-0.2,1.6-0.2,3.3-0.1,5.2c0.9,15.2,6.6,18.8,16.7,20.8c10.1,1.9,13.7-3,15.4-6.9c1.7-3.9-1.9-6.4-6-3.2c0,0-0.1,0-0.1,0.1
		c-2,1.6-4.1,2.5-6.2,2.3c-0.6,0.1-1.3,0.1-1.9,0c-3.4-0.6-6.2-3.2-7.8-6.2c-3.8-7.3-1.2-15,6.7-17.1c0.4-0.2,0.8-0.3,1.2-0.4
		c11.6-3.6,18.2-4.1,36,2.4c11.8,4.7,30.2,3.2,30.2,3.2l0,0c-0.3,0.1-0.6,0.3-0.9,0.4c0,0-16.5,4.9-29.2,12.1
		c-0.1,0.1-0.2,0.1-0.4,0.2c-2.4,2.1-4.5,4.5-6.3,7.1c-1.1,2.3-1.8,4.8-2.2,7.3c-1,7,1.1,14.5,4.1,20.9c2.8,6,7.6,11.6,10.4,17.6
		c3.2,5.3,5.1,9.4,5.1,14.4c0,7.3-3.5,15.1-11.4,16.5c-9.6,1.8-18.2-0.9-23-12.5c-0.1,1.3,0,2.5,0.1,3.8c0.8,3.6,2.9,8.4,8.8,10.8
		c9.5,3.8,17.8,3.9,25.2-2.7c5.5-4.7,6.5-10.7,6.6-13.6c0.5-3.5,0.5-7.1,0.3-10.3c-0.5-6.2-2.5-11.5-5.8-16.8
		c-2.2-3.5-5.4-6.7-7-10.5c-1.9-2.6-2.9-5.3-2.4-9.2c1.3-10.3,12.4-10.1,20.3-13.1s34.5-12.8,42-23.8c0,0,0.4,13.7,15.6,20.6
		c15.2,6.9,29.3,1.5,35.5-6.9c2.6-3.6,4.9-8.7,7.3-13.7c2.9,2.5,5.7,5,8.2,8c10.1,12.2,10.5,28.7,8.6,36.8
		c-1.7,7.3-5.8,11.4-6.7,12.1c-0.4,0.5-0.8,0.9-1.1,1.3c-1.8,1.8-6,5.3-10.4,4.8c-0.1,0-0.2,0-0.2,0c-2.9-0.1-6.3-1.9-6.5-5.2
		c-0.1-2.1,0.6-4.9,2.7-5.8c0.5-0.9,1.3-1.7,2.5-2.4c2.7-1.4,6.2-3,8.3,0.1c0.2,0.3,0.4,0.6,0.6,0.9c1.7,1.7,2.6,4.4,2.1,6.6
		c0.2-0.3,0.3-0.6,0.5-0.9c-0.1-0.2-0.1-0.4,0-0.6c0.3-0.5,0.6-0.9,0.9-1.4c-2.8-12.8-13.7-8.5-16.9-5.9c-3.1,2.5-14.8,15.4,1.3,24
		c1.2,0.6,2.3,1.1,3.4,1.5c-1.2,1.4-4.9,5.4-7.5,5.9c-3.2,0.6,0.6,4.1,4.3,2.8c3-1.1,8-5.7,11-9c8.5-1.3,13.6-9.1,18.8-18.2
		c5.2-9.1,5-20.4,2.8-32.1c6,2.9,18.2,7,31.8,1.9c19.3-7.3,20.1-23.8,20.1-28S914,57.3,930,55c14.3-2.1,15.5,8.7,15.6,11.1
		c0,0.1,0.1,0.2,0.1,0.3C947.7,62.1,947.8,53.9,940.7,49z M815.7,95.8c-16.2,2.6-21-8.8-19.9-20.1c1.1-11.2,19.3-24.9,25.2-31.3
		c0,0-1.8,19.1,14.8,29.2C835.7,73.6,831.9,93.2,815.7,95.8z M843.8,60.4c-3.9-3.6-6.9-6-7.6-6.5c1.9,1.1,3.8,1.9,5.9,2.2
		c1.6,0.3,3.5,0.4,6.5,0.1c-0.4,0.4-2,1-2.5,1.4C845.3,58.6,844.5,59.5,843.8,60.4z"/>
	<path class="st10" d="M845.7,76.4c-0.5,1.5-1,3.1-1.6,4.6c1.4,1.3,2.7,2.7,3.9,4.1c2.9,3.5,4.7,5.5,6.2,9.4
		c1.2-3.6,1.8-5.5,2.4-9.3c0.4-2.6,1.5-4.7,2.5-7c-2.6-4.2-5.9-8.2-9.2-11.7C848,69.6,846.9,73,845.7,76.4z"/>
	<path class="st10" d="M757.4,92.1c0,0-10.6,30.2,1.6,63.9s20.9,42.1,25,40.5c0,0-4.9-0.9-11.8-15.4c-6.9-14.6-16.7-44.5-14.6-62.3
		c2.1-17.8,4.9-24.6,10.5-32.8L757.4,92.1z"/>
	<path class="st10" d="M745.3,193.9c-4-15.9-1.6-32.9,11.8-44.3c0.6-0.6,1.3-1.3,1.9-1.9c-0.6-1.8-1.1-3.6-1.4-5.4
		c-9,8.1-16.6,20-18,32.8c-1.9,17.8,2.6,31.7,9.8,39c7.3,7.3,9.6,4.9,8.6,1.9C758.1,215.9,749.4,210.2,745.3,193.9z"/>
	<path class="st10" d="M769.9,137.5c3.6-3.3,7.2-6.5,10.6-9.9c-1,0.5-2.2,1.6-3.2,2.1c-2.6,1.7-5.3,3.3-7.8,4.5
		C769.6,135.4,769.7,136.3,769.9,137.5z"/>
	<path class="st10" d="M831.4,126.7c1.1-1,3-2.2,4.5-2.8c0-9.9-2.4-17-2.4-17l-3.6,1.7c0.4,1.6,0.7,3.2,0.9,5.4
		C831.4,118.3,831.7,122.5,831.4,126.7z"/>
	<path class="st10" d="M827.5,143.9c-0.2-0.1-0.5-0.2-0.7-0.3c-1.2,3.7-3.4,6.9-6.4,9.5c-2.7,3.1-6.2,5.2-10.9,6.1
		c-11.6,2.1-19.5,0.4-23.5-7.7c-4.1-8.1,2.6-10.7,4.7-11.3s3.4-8.8-7.1-3s-3.2,21.6,5.8,26.5s32.4,3.9,41.2-16.1
		c0-0.1-0.5-2-0.5-2.1C829.2,145.1,828.2,144.6,827.5,143.9z"/>
	
		<ellipse transform="matrix(0.9959 -9.000747e-02 9.000747e-02 0.9959 7.014 71.2156)" class="st11" cx="793.1" cy="-42.2" rx="15" ry="14.3"/>
	
		<ellipse transform="matrix(0.9932 0.1161 -0.1161 0.9932 0.7674 -97.0017)" class="st11" cx="833" cy="-41.9" rx="14.6" ry="13.9"/>
	<path class="st12" d="M804.6-47.1c-0.7,2.1-2.6,3.6-5,3.6c-2.7,0-4.8-2-5.2-4.5c-2.7,1.4-4.5,4.1-4.5,7.1c0,4.5,4,8.2,8.9,8.2
		s8.9-3.7,8.9-8.2C807.6-43.4,806.4-45.6,804.6-47.1z"/>
	<path class="st12" d="M833.6-50c-0.2,2.4-1.8,4.5-4.3,5.2c-2.8,0.7-5.7-0.8-6.7-3.5c-2.5,2.2-3.7,5.5-2.9,8.8
		c1.2,4.8,6.4,7.6,11.6,6.3c5.2-1.3,8.5-6.2,7.3-11C837.8-46.8,836-48.9,833.6-50z"/>
	<path class="st12" d="M853.2-52c0,0-2.3,3.3-6.1,2.1c-0.2-0.3-0.4-0.6-0.6-0.9c0.9-0.4,3.4-1.8,3.3-5.8c0,0-1.3,3.7-5.2,3.6
		c-0.2-0.2-0.5-0.5-0.8-0.7c0.8-0.5,3-2.4,2.1-6.4c0,0-0.6,4-4.6,4.6c-1.9-1.1-4.1-1.9-6.5-2.2c-5.6-0.7-10.9,1.5-14.3,5.2
		c-6.3-3.1-12.7-0.8-14.6,0c-3.3-3.7-8.4-5.8-13.8-5.3c-2.6,0.2-4.9,1-7,2.2c-4.1-0.5-4.7-4.6-4.7-4.6c-0.9,4.2,1.5,6,2.2,6.4
		c-0.2,0.2-0.5,0.4-0.7,0.7c-4,0.2-5.4-3.6-5.4-3.6c-0.1,4.2,2.6,5.5,3.4,5.8c-0.2,0.3-0.4,0.5-0.5,0.8c-3.9,1.3-6.2-2.1-6.2-2.1
		c1,4.2,4.1,4.7,4.9,4.8c-0.7,2-1,4.2-0.8,6.4c0.8,8.5,8.7,14.8,17.7,14s15.6-8.4,14.9-16.9c-0.2-2.3-1-4.5-2.1-6.4
		c6.7-1.9,10-0.4,11.1,0.3c-1,1.7-1.6,3.6-1.9,5.7c-1,8.5,5.5,16.3,14.4,17.3c9,1,17-5,18-13.5c0.3-2.4,0-4.7-0.8-6.8
		C849.4-47.3,852.2-47.9,853.2-52z M794.6-30.3c-6.7,0.6-12.6-4.5-13.1-10.8c-0.6-6.3,4.4-12,11-12.6c6.7-0.6,12.6,4.1,13.1,10.4
		C806.2-37,801.2-30.9,794.6-30.3z M845.1-40.8c-0.7,6.3-6.8,11.2-13.5,10.5c-6.6-0.8-11.4-7-10.6-13.3s6.7-10.8,13.4-10
		C841.1-52.9,845.9-47.1,845.1-40.8z"/>
	<path class="st10" d="M735.6,46.4c0,0,33.6,18.7,54.8-19.7l-13.6,24.2C776.8,51,756.5,64.3,735.6,46.4z"/>
	<path class="st10" d="M821.3,34.1c-1.2,2.4-3.1,4.5-4.7,6.7c-3.6,4.7-7.7,9-11.5,13.5c-5.3,6.3-12.3,14.4-13.3,22.9
		c0.1,2.3,0.6,4.6,1.4,6.9c4,10.9,12.7,12,16.1,12c0,0-15.4-1-13.3-20.1c1.3-10.6,18.7-25.4,25-31.2
		C820.9,44.8,820.6,42.4,821.3,34.1z"/>
	<path class="st10" d="M803.9,36.6c-0.7,0.8-1.4,1.6-2.1,2.3c-2.1,2.7-4.2,5.3-6.6,7.8c-1.6,1.7-3.2,3.3-4.8,5
		c-1.4,1.8-2.6,3.6-3.8,5.5c-3.7,5.8-5.6,12.7-9.4,16.8c-3.4,3.6-7.7,6.6-12.2,8.7c-5.1,3.4-11.5,6.6-19,9.5
		c-14.1,5.5-22,6.7-26.8,13.3c-2.8,6.5,0.2,13.7,0.2,13.7c-1-13.8,14.2-14.7,24.2-19.3c35.2-14.3,37.7-22.3,37.7-22.3
		c0-12.8,8.7-24.4,15.6-31.5c3.4-3.5,6.8-8.1,9.3-11.8C805.4,35.2,804.5,35.9,803.9,36.6z"/>
	<path class="st10" d="M749.7,73c-4.4,2.6-8.3,4.1-13.2,5.3c-0.5,0.2-0.9,0.3-1.4,0.4c6.9,0.2,12-0.2,12-0.2s8.1-3.6,12.7-9.7
		C756.8,70.9,753.2,72.2,749.7,73z"/>
	<path class="st10" d="M694,93.2L694,93.2c0.8,0.8,1,1.9-0.2,3.4c-0.7,0.9-1.6,1.6-2.5,2.3c-0.5,0.5-1.1,0.8-1.6,1.2
		c-5.4,4-13.2,3.3-18.3-0.3c-6.9-4.9-9.4-14.1-8-22.3c-0.2,0.5-0.3,1.1-0.4,1.6c-2.7,17.5,5,22.3,13,25.1c8.7,3.1,13.8,0.6,18.1-4.2
		C698.3,95.1,694,93.2,694,93.2z"/>
	<path class="st10" d="M836.9,70.8c-10.6-6.6-15-16.6-15-16.6c0.9,7.1,3.7,12.1,13.8,20.2C836,73.2,836.4,72,836.9,70.8z"/>
	<path class="st10" d="M841.8,73.7c-0.6,1.3-1.3,2.7-2,4c21.1,16.4,17.3,41,17.3,41C861.9,98.5,853.3,81,841.8,73.7z"/>
	<path class="st10" d="M895.1,43.5c-3.1,2.5-7,4.4-11,5.2c-4.8,1-9.6,0.3-14.4,0.1c-0.7,0-1.5,0.1-2.2,0.1c-3,0.4-6,0.9-9,1.7
		c-3.5,1-7,1.2-10.5,0c-3.3-1.1-6.7-2.7-9.3-5.1c-2.4-2.2-3.6-4.8-5.2-7.5c-0.2,3.8-1.1,12.5,3.1,16.4c0,0,6.5,3.2,11.7,2.1
		c0,0,18-12.2,32.2-4c0,0,18-3.6,24.6-22.7C902.6,34.9,899.6,39.9,895.1,43.5z"/>
	<path class="st10" d="M845.7,124.7c-5.3-4-12.9,2.6-15.5,7.4c-1.9,3.5,0.4,6.6,4.2,8.4c3.2,1.1,6.8,0.3,9.8-1.4
		c-2.7,0.8-5.1,1-7.1,0.5c-2.3-0.2-4.3-2.4-4.4-4.4c-0.2-3.7,2.8-6.3,5.8-7.8c3.5-1.6,8.6-2.6,9.6,8.7v0.2c0.1-0.1,0.6-0.6,0.9-0.9
		c0.9-1,1.1-1.2,1.1-1.2S851,128.7,845.7,124.7z"/>
	<path class="st10" d="M803-10.2c0,0,10.8,5,23.3,0.5C826.3-9.7,818.6,2.2,803-10.2z"/>
	<path class="st10" d="M797.4-70.8c-4.3-0.7-8.9,0.2-13.1,2l0.9,2.3c0,0,13.5-2.5,20.6,0.9C805.7-65.6,803.8-68.9,797.4-70.8z"/>
	<path class="st10" d="M822.7-67.1c-1.5,1.2-1.9,2.2-1.9,2.2c12.9-5.1,23-0.2,23-0.2c0.3-0.8,0.5-2.4,0.6-3.6
		C837.6-71.7,829.2-70.9,822.7-67.1z"/>
	<g>
		<path class="st10" d="M925.8,51.8c-11.7,2.4-12.2,11.2-11.7,21.5c0.5,10.3-4.6,25.3-21,26.5c-0.1,0-0.3,0-0.4,0
			c-2.4,0.2-4.8,0.2-7.2-0.1c-14-1-20.6-7-20.6-7l1.6,8.2c0,0,6,3.5,14.2,4.5c2.9,0.3,5.2,0.4,8.2,0.4c5.7-0.1,12.9-1,17.9-4.2
			c7.1-4.6,10.4-13.4,11.6-20.9c0-0.1,0.1-0.2,0.1-0.3c2.6-11.6-4.5-21.5,9.2-24.6c13-2.9,17.1,4.6,17.9,9.7
			c0.1,0.1,0.1,0.3,0.2,0.4C946.1,63.5,948.6,46.9,925.8,51.8z"/>
	</g>
	<path class="st4" d="M859.8,61.4c-2.4,1.5-4.1,2.3-5.3,2.9c-0.7-2.3-2.1-4.4-5-2.9c-5.6,2.9-13.5,23.9-13.5,23.9
		s-5.8,23.4-0.5,20.9c5.4-2.5,12.4-8.8,14-17.8c0.8-4.5,2.2-9.3,3.4-13c1.5-3.3,4.9-9.1,10.7-11.5c8.2-3.4,8.2-3.4,8.2-3.4
		S866.4,57.3,859.8,61.4z"/>
	<path class="st10" d="M845.6,146.9c-3.8,0.9-7.6,0.5-10.8-0.3c-3.7-1.1-8.2-3.3-9.3-7.5c0,0,0,9.9,10.9,12.1
		c0.5,0.1-1.7-0.5-1.7-0.5c-1.4,1.7-3.3,4.3-5.3,4.7c-2,0.3-3.3,4.3,1.9,5.2c5.2,0.9,13.1-8.8,13.1-8.8c9.1,0.2,18.5-17.4,18.5-17.4
		S855.2,144.7,845.6,146.9z"/>
	<path class="st10" d="M926.9-30.1c-5.7-6.3-16.5-9.2-26.1-7.8c7.1,0,14.6,4.4,19.5,9.3c6.4,6.5,7.7,15.1,11.3,23
		c3.1,5.9,7.6,9.8,11.1,12.1C939.2,2.8,937-2,935.4-7c-1.3-4.2-2.3-8.4-3.6-12.6C930.6-23.2,929.5-27.2,926.9-30.1z"/>
	<path class="st13" d="M842,56.2c-2-0.4-4-1.1-5.9-2.2c0.6,0.5,3.7,2.9,7.6,6.5c0.7-1,1.5-1.9,2.4-2.7c0.4-0.4,2-1.1,2.5-1.4
		C845.5,56.6,843.6,56.5,842,56.2z"/>
	<path class="st13" d="M821,44.4c-5.9,6.4-24.1,20.1-25.2,31.3s3.7,22.6,19.9,20.1c16.2-2.5,20.1-22.2,20.1-22.2
		C819.2,63.5,821,44.4,821,44.4z"/>
	<path class="st4" d="M823.6-86.5c0,0-9.6-9.2-24.5-4.9c-13.3,3.9-12.3,14.9-12.3,14.9S793.9-89.5,823.6-86.5z"/>
	<path class="st4" d="M810-108.4c0,0-8.9-8.3-20.9-3.5c-10.1,4-7.1,14.3-7.1,14.3S788.2-112.1,810-108.4z"/>
	<path class="st4" d="M803.5-125.1c0,0-7.2-8.2-19.3-4.3c-8.2,2.6-6.3,11.7-6.3,11.7C778.4-117.6,783.6-127.9,803.5-125.1z"/>
	<path class="st4" d="M800.5-140.7c0,0-6-6.6-18.3-3.7c-0.8,1.7-1.5,3.5-2.2,5.4C788.1-142.5,800.5-140.7,800.5-140.7z"/>
	<path class="st4" d="M799.8-155.3c0,0-1.3-5.3-6.3-5.5c-1.1,1.1-2.2,2.3-3.2,3.6C796.2-157.2,799.8-155.3,799.8-155.3z"/>
	<path class="st4" d="M836.4-145.1c0,0,4.9,0.7,8.7,0.2c1.1-3.2,1.6-6.4,1.2-9.5C845.5-152,842.8-145.5,836.4-145.1z"/>
	<path class="st4" d="M826.6-136.4c0,0,2.8,5.1,7.7,7.3c2-1.6,4-3.5,5.6-5.8C838.5-134.5,832.4-133.1,826.6-136.4z"/>
	<path class="st10" d="M820-122.2c0,0-1.9-23.4,4-30.2c0,0-5.1,13.2,3.9,27.3C827.8-125.1,824.5-123.4,820-122.2z"/>
	<path class="st13" d="M842,56.2c-2-0.4-4-1.1-5.9-2.2c0.6,0.5,3.7,2.9,7.6,6.5c0.7-1,1.5-1.9,2.4-2.7c0.4-0.4,2-1.1,2.5-1.4
		C845.5,56.6,843.6,56.5,842,56.2z"/>
	<path class="st13" d="M821,44.4c-5.9,6.4-24.1,20.1-25.2,31.3s3.7,22.6,19.9,20.1c16.2-2.5,20.1-22.2,20.1-22.2
		C819.2,63.5,821,44.4,821,44.4z"/>
	<path class="st4" d="M928.7-41.8c5.3-3.7,9.5-3.4,11.4-3c0.9,1.2,1.7,2.6,2.4,4.2C936.8-42.1,928.7-41.8,928.7-41.8z"/>
	<path class="st4" d="M944.3-36.7c0.5,1.2,1,2.4,1.4,3.6c-4.3-1.5-9.3-2.2-9.3-2.2C939.7-36.9,942.4-37,944.3-36.7z"/>
	<path class="st4" d="M947-28.6c0.3,1.1,0.5,2.1,0.6,3.2c-3.5-1.8-7.6-2.9-7.6-2.9C943.1-29.3,945.5-29,947-28.6z"/>
	<path class="st12" d="M822.6-23.4c0,0,1.2,0.3,2.4,1l0.1,0.3c0,0.9-0.5,1.3-0.9,1.4c-1.1,0.5-5.6,1.5-12,0.4c0,0,4.2,2.8,11,1.5
		c0,0,0.6-0.1,1.1-0.4c0.3-0.1,0.6-0.3,0.9-0.4c0.1-0.1,0.3-0.2,0.4-0.3l0.1-0.1l0,0c0.3-0.4,0.6-0.9,0.7-1.6c0.7,0.5,1.5,1.1,2,2.1
		C828.5-19.6,828.1-24.9,822.6-23.4z"/>
	
		<ellipse transform="matrix(0.9819 -0.1896 0.1896 0.9819 -5.1523 157.2863)" class="st7" cx="819.5" cy="105.6" rx="4.2" ry="3.7"/>
	
		<ellipse transform="matrix(-9.379834e-02 -0.9956 0.9956 -9.379834e-02 785.3584 949.0552)" class="st4" cx="824.6" cy="117.1" rx="4.2" ry="3.7"/>
	
		<ellipse transform="matrix(-0.8593 -0.5115 0.5115 -0.8593 1530.0638 623.8884)" class="st4" cx="850.8" cy="101.5" rx="4.9" ry="4.4"/>
	
		<ellipse transform="matrix(0.1007 -0.9949 0.9949 0.1007 613.6287 935.8607)" class="st4" cx="824.5" cy="128.5" rx="4.3" ry="3.8"/>
	
		<ellipse transform="matrix(0.3387 -0.9409 0.9409 0.3387 411.572 865.3599)" class="st4" cx="821.4" cy="139.9" rx="4.3" ry="3.8"/>
	
		<ellipse transform="matrix(0.7097 -0.7045 0.7045 0.7097 131.4958 617.2954)" class="st4" cx="814.8" cy="149.1" rx="4.3" ry="3.8"/>
	
		<ellipse transform="matrix(0.9564 -0.2921 0.2921 0.9564 -10.0668 241.8517)" class="st4" cx="804.9" cy="154.6" rx="3.7" ry="3.3"/>
	
		<ellipse transform="matrix(0.9993 3.779889e-02 -3.779889e-02 0.9993 6.4735 -29.9529)" class="st4" cx="795.4" cy="156.2" rx="3.3" ry="2.9"/>
	
		<ellipse transform="matrix(0.9974 7.239651e-02 -7.239651e-02 0.9974 9.8609 -58.21)" class="st7" cx="807.9" cy="106.9" rx="4.2" ry="3.7"/>
	<ellipse transform="matrix(0.914 0.4057 -0.4057 0.914 110.7455 -314.1822)" class="st7" cx="796.5" cy="104.1" rx="4" ry="3.6"/>
	<ellipse transform="matrix(0.7074 0.7068 -0.7068 0.7074 299.5365 -528.7242)" class="st7" cx="788.4" cy="97.4" rx="3.4" ry="3"/>
	<path class="st7" d="M784.2,93.1c1-0.8,1-2.5,0.1-4.1c-0.7-1.3-1.8-2-2.9-1.9c0,0,0.3,3.2,1.3,6.3
		C783.1,93.5,783.6,93.4,784.2,93.1z"/>
	
		<ellipse transform="matrix(0.8162 -0.5778 0.5778 0.8162 94.5436 498.9597)" class="st7" cx="831.5" cy="100.9" rx="4.4" ry="3.9"/>
	<ellipse transform="matrix(0.5257 -0.8507 0.8507 0.5257 320.3169 758.4613)" class="st7" cx="840.3" cy="92" rx="4.6" ry="4.1"/>
	
		<ellipse transform="matrix(0.9798 0.1999 -0.1999 0.9798 39.6148 -172.442)" class="st7" cx="873.7" cy="109.9" rx="4.1" ry="3.7"/>
	
		<ellipse transform="matrix(0.9972 -7.499755e-02 7.499755e-02 0.9972 -5.8341 66.7463)" class="st7" cx="885.8" cy="111.1" rx="3.7" ry="3.3"/>
	<path class="st7" d="M899.8,112.2c0.4-0.6,0.5-1.5,0.4-2.2c-0.3-1.8-2.2-2.9-4.2-2.6c-2,0.4-3.4,2.1-3.1,3.9c0.2,1,1,1.9,1.9,2.4
		C896.9,113.1,897.8,112.9,899.8,112.2z"/>
	<path class="st7" d="M904.1,110.5c2.1-0.8,4.2-2.1,6.1-3.5c0-0.2-0.1-0.4-0.2-0.6c-0.7-1.7-2.9-2.3-4.7-1.5c-1.9,0.8-2.8,2.9-2,4.5
		C903.4,109.8,903.7,110.2,904.1,110.5z"/>
	<path class="st7" d="M917.3,99.4c-0.2-0.3-0.3-0.5-0.6-0.7c-1.4-1.1-3.6-0.8-4.9,0.8c-1.3,1.6-1.2,3.8,0.2,5
		c0.2,0.2,0.4,0.3,0.6,0.4C914.4,103.1,915.9,102.1,917.3,99.4z"/>
	<path class="st7" d="M919.5,93.1c0.2-1.2,0.3-2.5,0.4-3.6c-1.4,0.1-2.6,1.1-3.2,2.6c-0.6,1.8,0.2,3.7,1.7,4.4
		C918.9,95.4,919.3,94.2,919.5,93.1z"/>
	<path class="st8" d="M920,81.6c-0.5,0.6-0.8,1.3-0.9,2.1c-0.1,1.2,0.3,2.3,1,3.1C920.2,84.9,920.3,83.4,920,81.6z"/>
	<path class="st4" d="M816.2,49.1c-1.2,1.1-2.5,2.3-3.7,3.4c-0.8,0.7-1.6,1.6-2.5,2.5c1,0.9,2.6,1.6,4,1.3c2.3-0.5,3.7-2.7,3.2-5.1
		C817.1,50.4,816.7,49.6,816.2,49.1z"/>
	<path class="st4" d="M804.1,61.4c-1,1.2-2.1,2.6-3.1,3.9c-0.6,0.8-1.3,2-2,2.9c1.1,0.8,2.7,1.1,4.1,0.6c2.1-0.8,3.2-3.3,2.3-5.5
		C805.2,62.6,804.6,61.8,804.1,61.4z"/>
	<ellipse transform="matrix(-0.4155 -0.9096 0.9096 -0.4155 1097.739 832.022)" class="st4" cx="816.2" cy="63.3" rx="4.2" ry="4"/>
	<ellipse transform="matrix(-0.482 -0.8762 0.8762 -0.482 1152.0295 829.864)" class="st7" cx="821.3" cy="74.4" rx="4.2" ry="4"/>
	
		<ellipse transform="matrix(-0.1758 -0.9844 0.9844 -0.1758 873.2524 885.9139)" class="st7" cx="807.5" cy="77.4" rx="4.2" ry="4"/>
	
		<ellipse transform="matrix(-1.800136e-02 -0.9998 0.9998 -1.800136e-02 734.8672 899.3484)" class="st7" cx="809.1" cy="88.8" rx="4.2" ry="4"/>
	<ellipse transform="matrix(0.5346 -0.8451 0.8451 0.5346 272.6679 731.9216)" class="st4" cx="800.9" cy="118.4" rx="4.2" ry="4"/>
	<ellipse transform="matrix(0.7737 -0.6336 0.6336 0.7737 99.5921 530.818)" class="st4" cx="792.8" cy="126" rx="4.2" ry="3.9"/>
	<path class="st4" d="M785.6,136.2c0.7-0.3,1.4-0.6,2.1-0.8c0.6-1.3,0.6-2.8-0.2-4c-1.2-1.8-3.8-2.2-5.7-0.9
		c-1.9,1.3-2.4,3.8-1.2,5.6c0.6,0.8,1.4,1.3,2.3,1.5C783.7,137,784.6,136.6,785.6,136.2z"/>
	
		<ellipse transform="matrix(0.8234 -0.5674 0.5674 0.8234 57.2515 464.9619)" class="st4" cx="775.7" cy="140.5" rx="3.8" ry="3.6"/>
	<ellipse transform="matrix(0.591 -0.8066 0.8066 0.591 181.5809 673.5045)" class="st4" cx="755" cy="157.7" rx="3.3" ry="2.6"/>
	<path class="st7" d="M829.9,86.6c1.1-1.5,2-2.7,2.9-4.7l0.1-0.3c-0.2-0.7-0.5-1.2-1.1-1.8c-1.6-1.6-4.2-1.7-5.8-0.1
		s-1.5,4.2,0.1,5.8C827.2,86.5,828.6,86.9,829.9,86.6z"/>
	<ellipse transform="matrix(0.3955 -0.9185 0.9185 0.3955 437.0539 824.8266)" class="st7" cx="845.1" cy="80.4" rx="4" ry="3.6"/>
	<ellipse transform="matrix(0.4694 -0.883 0.883 0.4694 389.3447 787.7101)" class="st7" cx="850.1" cy="69.9" rx="3.5" ry="3.1"/>
	
		<ellipse transform="matrix(0.8342 -0.5514 0.5514 0.8342 107.6918 483.1206)" class="st7" cx="857.4" cy="62.4" rx="3.2" ry="2.8"/>
	
		<ellipse transform="matrix(0.9995 -3.100120e-02 3.100120e-02 0.9995 -1.4102 26.8857)" class="st7" cx="866.3" cy="58.9" rx="3.1" ry="2.9"/>
	
		<ellipse transform="matrix(0.9092 0.4164 -0.4164 0.9092 104.3181 -358.9507)" class="st7" cx="875.1" cy="59.7" rx="2.8" ry="2.6"/>
	<path class="st3" d="M867.9,56.4c-0.5-0.3-1-0.4-1.7-0.4c-0.7,0-1.3,0.2-1.8,0.6C864.5,56.6,865.5,56.5,867.9,56.4z"/>
	<path class="st3" d="M877.7,59.2c-0.2-0.7-0.8-1.4-1.6-1.8c-0.8-0.4-1.7-0.4-2.4-0.1C873.7,57.3,875.4,57.9,877.7,59.2z"/>
	<ellipse transform="matrix(0.4986 0.8668 -0.8668 0.4986 497.7737 -730.6454)" class="st7" cx="880.5" cy="65" rx="2.5" ry="1.8"/>
	
		<ellipse transform="matrix(9.799059e-03 1 -1 9.799059e-03 945.0654 -811.7682)" class="st7" cx="882.4" cy="71.3" rx="2.1" ry="1.3"/>
	<ellipse transform="matrix(0.9288 -0.3706 0.3706 0.9288 43.1467 333.0732)" class="st7" cx="888.3" cy="54.3" rx="2.8" ry="2.2"/>
	<ellipse transform="matrix(0.8189 -0.5739 0.5739 0.8189 133.5157 523.3218)" class="st7" cx="896" cy="50.1" rx="2.8" ry="2.3"/>
	
		<ellipse transform="matrix(0.6568 -0.7541 0.7541 0.6568 276.0909 695.8276)" class="st7" cx="902.4" cy="44.6" rx="2.9" ry="2.5"/>
	<ellipse transform="matrix(0.5505 -0.8349 0.8349 0.5505 376.589 774.8381)" class="st7" cx="907.8" cy="37.7" rx="2.9" ry="2.7"/>
	
		<ellipse transform="matrix(0.2239 -0.9746 0.9746 0.2239 677.6576 910.6059)" class="st7" cx="910.6" cy="29.8" rx="2.9" ry="2.7"/>
	
		<ellipse transform="matrix(0.1242 -0.9923 0.9923 0.1242 777.5809 924.1747)" class="st7" cx="912.3" cy="21.6" rx="2.8" ry="2.7"/>
	<path class="st4" d="M912.7,18.8c-0.8-0.1-1.5,0.1-2,0.6c0.6,1.2,1.1,2.4,1.9,3.5c0.3,0.4,0.7,0.9,1.1,1.3c0.7-0.4,1.3-1.2,1.4-2.2
		C915.2,20.4,914.2,19,912.7,18.8z"/>
	
		<ellipse transform="matrix(1.000100e-02 -0.9999 0.9999 1.000100e-02 890.7443 926.097)" class="st4" cx="913.1" cy="13.2" rx="2.9" ry="2.8"/>
	
		<ellipse transform="matrix(-0.2201 -0.9755 0.9755 -0.2201 1108.0774 895.6987)" class="st4" cx="912.1" cy="4.9" rx="2.8" ry="2.7"/>
	<ellipse transform="matrix(-0.48 -0.8773 0.8773 -0.48 1347.5754 792.9982)" class="st4" cx="908.8" cy="-2.9" rx="2.9" ry="2.8"/>
	
		<ellipse transform="matrix(-0.8185 -0.5745 0.5745 -0.8185 1648.0256 501.6822)" class="st4" cx="903.3" cy="-9.5" rx="2.9" ry="2.8"/>
	
		<ellipse transform="matrix(-0.8185 -0.5745 0.5745 -0.8185 1638.0958 489.0012)" class="st4" cx="896.3" cy="-14.3" rx="2.9" ry="2.6"/>
	<path class="st4" d="M889-22c1-0.7,2.2-0.2,3.1,1c0.9,1.2,1,2.7,0,3.4c-1,0.7-2.5,0.3-3.3-0.9C888-19.7,888-21.3,889-22z"/>
	<path class="st4" d="M743.6-33.7c-0.1-0.5-0.1-0.9-0.2-1.4c-0.4-0.6-1.1-1.1-1.6-1.2c-1-0.2-1.3,0.8-1.5,2.3
		c-0.3,1.5-0.7,2.8,0.3,3c0.8,0.2,2.5-0.5,3.1-1.6C743.7-32.9,743.6-33.3,743.6-33.7z"/>
	<path class="st7" d="M743.8,53.6c-0.2-0.8-0.9-1.4-1.8-1.8c-1-0.4-1.9-0.3-2.6,0.2C740.7,52.8,742.2,53.2,743.8,53.6z"/>
	<path class="st7" d="M735.9,50.4c0.4-1.1,0.1-2.5-1.1-3.4c-1.3-0.9-2.9-0.8-3.7,0.3c-0.1,0.1-0.1,0.2-0.2,0.3
		C732.6,48.7,734,49.5,735.9,50.4z"/>
	<path class="st7" d="M726.6,44.7c0.5,0.4,1.2,0.8,1.7,1.2c0.2-0.1,0.4-0.2,0.6-0.4c1-0.9,1-2.7,0-3.9s-2.7-1.5-3.8-0.5
		c-0.5,0.4-0.8,1.1-0.8,1.8C725.2,43.6,725.8,44.1,726.6,44.7z"/>
	<path class="st7" d="M720.1,33.6c-1.3,0.9-1.6,2.7-0.7,4c0.9,1.4,2.6,1.8,3.8,0.9c1.3-0.9,1.6-2.7,0.7-4
		C723.1,33.2,721.4,32.8,720.1,33.6z"/>
	<path class="st7" d="M718.3,25.1c-1.5,0.3-2.4,1.9-2,3.5s1.8,2.6,3.3,2.3c1.5-0.3,2.4-1.9,2-3.5S719.7,24.7,718.3,25.1z"/>
	<path class="st7" d="M716.8,16.6c-1.5,0.2-2.5,1.6-2.3,3.3c0.2,1.6,1.6,2.8,3,2.6c1.5-0.2,2.5-1.6,2.3-3.3
		C719.6,17.6,718.3,16.4,716.8,16.6z"/>
	
		<ellipse transform="matrix(-9.699088e-03 -1 1 -9.699088e-03 712.5626 727.2855)" class="st4" cx="716.4" cy="10.8" rx="3" ry="2.8"/>
	<path class="st4" d="M718-0.5c-1.5-0.3-2.9,0.7-3.3,2.2c-0.3,1.6,0.6,3.1,2,3.5c1.5,0.3,2.9-0.7,3.3-2.2
		C720.4,1.4,719.5-0.2,718-0.5z"/>
	<path class="st4" d="M722-8.4c-1.3-0.8-3-0.2-3.8,1.3s-0.3,3.2,1,4s3,0.2,3.8-1.3S723.4-7.6,722-8.4z"/>
	<path class="st4" d="M728.6-14.3c-0.9-1.3-2.6-1.6-4-0.6c-1.3,1-1.7,2.8-0.8,4.1c0.9,1.3,2.6,1.6,4,0.6
		C729.1-11.2,729.4-13,728.6-14.3z"/>
	<path class="st4" d="M735.5-19.2c-0.8-1.2-2.6-1.4-3.9-0.5c-1.3,1-1.7,2.7-0.9,3.9c0.8,1.2,2.6,1.4,3.9,0.5
		C736-16.2,736.4-18,735.5-19.2z"/>
	<path class="st4" d="M740.4-25.5c-1-0.7-2.2-0.2-3.1,1s-1,2.7,0,3.5c1,0.7,2.5,0.3,3.3-0.9C741.5-23.2,741.4-24.8,740.4-25.5z"/>
	<ellipse transform="matrix(0.3801 -0.9249 0.9249 0.3801 311.6848 796.6704)" class="st4" cx="750.2" cy="165.8" rx="3.1" ry="2"/>
	
		<ellipse transform="matrix(0.1539 -0.9881 0.9881 0.1539 460.7186 885.8356)" class="st4" cx="747.6" cy="173.9" rx="2.8" ry="1.9"/>
	
		<ellipse transform="matrix(-5.440208e-02 -0.9985 0.9985 -5.440208e-02 606.0101 937.8821)" class="st4" cx="747.1" cy="182" rx="2.8" ry="1.9"/>
	
		<ellipse transform="matrix(-0.1911 -0.9816 0.9816 -0.1911 704.8452 960.0768)" class="st4" cx="748" cy="189.6" rx="2.8" ry="1.9"/>
	
		<ellipse transform="matrix(-0.2664 -0.9639 0.9639 -0.2664 759.6079 972.5519)" class="st4" cx="749.9" cy="197.2" rx="2.8" ry="1.9"/>
	<path class="st4" d="M753.9,203.8c-0.2-0.5-0.3-0.9-0.4-1.5c-0.6-0.5-1.2-0.7-1.8-0.5c-0.9,0.4-1.1,1.8-0.5,3.1s1.8,2.1,2.7,1.7
		c0.3-0.1,0.5-0.4,0.7-0.7C754.3,205.2,754.1,204.5,753.9,203.8z"/>
	<path class="st4" d="M755.1,207.7c-0.1,0-0.3,0.1-0.4,0.1c-0.7,0.5-0.7,1.7-0.1,2.8c0.5,0.8,1.3,1.3,1.9,1.3
		C756.1,210.7,755.7,209.5,755.1,207.7z"/>
	
		<ellipse transform="matrix(9.680074e-02 -0.9953 0.9953 9.680074e-02 581.9789 859.9258)" class="st7" cx="764.8" cy="109.3" rx="4.2" ry="3.2"/>
	
		<ellipse transform="matrix(-1.080090e-02 -0.9999 0.9999 -1.080090e-02 651.1478 885.9415)" class="st7" cx="763.8" cy="120.9" rx="4.2" ry="3.2"/>
	
		<ellipse transform="matrix(-0.1279 -0.9918 0.9918 -0.1279 730.2277 906.1215)" class="st7" cx="763.5" cy="132" rx="4.2" ry="3.2"/>
	
		<ellipse transform="matrix(-0.2205 -0.9754 0.9754 -0.2205 794.3546 922.0134)" class="st7" cx="765.6" cy="143.6" rx="4.2" ry="3.1"/>
	
		<ellipse transform="matrix(-0.2685 -0.9633 0.9633 -0.2685 825.3818 936.578)" class="st7" cx="768.3" cy="154.9" rx="3.9" ry="3.1"/>
	
		<ellipse transform="matrix(-0.2685 -0.9633 0.9633 -0.2685 819.2292 953.1115)" class="st7" cx="771.5" cy="165.5" rx="3.3" ry="2.8"/>
	
		<ellipse transform="matrix(-0.325 -0.9457 0.9457 -0.325 861.3386 964.5529)" class="st7" cx="774.9" cy="174.9" rx="3.3" ry="2.6"/>
	
		<ellipse transform="matrix(-0.4748 -0.8801 0.8801 -0.4748 986.5287 954.9643)" class="st7" cx="778.2" cy="183.1" rx="2.6" ry="2.3"/>
	
		<ellipse transform="matrix(-0.4748 -0.8801 0.8801 -0.4748 986.3685 968.6069)" class="st7" cx="782.2" cy="190" rx="2.5" ry="1.9"/>
	<ellipse transform="matrix(0.3189 -0.9478 0.9478 0.3189 429.903 794.4403)" class="st4" cx="767.7" cy="98.1" rx="3.8" ry="3.3"/>
	<path class="st4" d="M768.3,88.3c0.1,1.4,0.8,2.7,2,3.1c1.7,0.6,3.8-0.6,4.6-2.7c0.6-1.6,0.3-3.2-0.6-4.2
		C771.9,86.1,770.3,87,768.3,88.3z"/>
	<path class="st4" d="M735.1,82.7c-0.3-1.6-1.8-2.4-3.7-2.4c-2.1,0-3.8,1.5-3.8,3.4c0,0.7,0.2,1.2,0.7,1.8
		C730.4,84.6,732.3,83.8,735.1,82.7z"/>
	<ellipse transform="matrix(0.9856 0.1692 -0.1692 0.9856 24.286 -120.8102)" class="st4" cx="721" cy="82.1" rx="3.6" ry="3.1"/>
	
		<ellipse transform="matrix(0.9009 0.4341 -0.4341 0.9009 104.5387 -300.6986)" class="st4" cx="710.7" cy="78.5" rx="3.8" ry="3.1"/>
	<ellipse transform="matrix(0.9314 0.364 -0.364 0.9314 74.9467 -249.6467)" class="st4" cx="699.8" cy="74" rx="3.2" ry="2.5"/>
	<path class="st4" d="M692.8,70.3c-1.9,0.1-3.9,0.2-5.7,0.9c-0.1,0.2-0.1,0.4-0.1,0.6c0,0.3,0.1,0.5,0.2,0.7
		c1.2,0.2,2.3,0.4,3.5,0.8c0.5,0.1,0.9,0.3,1.2,0.6c1-0.4,1.6-1.2,1.6-2.1C693.4,71.1,693.2,70.8,692.8,70.3z"/>
	<path class="st3" d="M724.7,157.6c-0.1,1-0.2,1.8-0.4,2.6c-0.3,1.3-0.6,2.5-1.1,3.7c1.3,0.2,2.7-0.9,3.1-2.6
		C726.7,159.7,725.9,158,724.7,157.6z"/>
	<path class="st3" d="M722.3,166.9c-0.2-0.2-0.4-0.4-0.7-0.5c-0.3,0.7-1.3,1.3-1.8,1.7c-1,0.7-2,1.3-3.1,1.8c0,0.4,0.2,0.7,0.4,1
		c0.9,1.1,2.7,1.1,4.2,0S723.2,168.1,722.3,166.9z"/>
	<path class="st3" d="M713.5,170.1c-1.9,0.4-3.8,0.7-5.7,0.5c-0.1,0.2-0.2,0.4-0.2,0.6c-0.1,1.4,1.2,2.7,3,2.8
		c1.8,0.2,3.4-0.8,3.5-2.2C714.2,171.2,714,170.6,713.5,170.1z"/>
	<path class="st3" d="M702.1,166.3c-1-0.1-1.9,0.2-2.4,0.9c-0.8,1.2-0.2,2.9,1.2,4c1.5,1,3.3,0.9,4.2-0.2c0.2-0.3,0.3-0.6,0.3-0.9
		C703.9,169.3,702.6,168.1,702.1,166.3z"/>
	
		<ellipse transform="matrix(0.4099 0.9121 -0.9121 0.4099 559.7106 -540.1279)" class="st3" cx="697.3" cy="162.5" rx="2.5" ry="1.9"/>
</g>
<g>
	<g>
		<rect x="599.8" y="-91.8" class="st14" width="149.5" height="181.3"/>
		<rect x="639.3" y="-73.5" class="st15" width="21" height="7.7"/>
		<rect x="672.3" y="-72.2" class="st16" width="37.8" height="5"/>
		<rect x="638.9" y="77.5" class="st16" width="71.2" height="5"/>
		<rect x="599.6" y="-91.8" class="st17" width="149.6" height="13.4"/>
		<rect x="639.3" y="-14.5" class="st15" width="68.3" height="3.1"/>
		<rect x="639.3" y="-8.5" class="st16" width="65" height="3.1"/>
		<rect x="639.3" y="51.8" class="st15" width="27" height="3.1"/>
		<rect x="639.3" y="57.8" class="st16" width="30.3" height="3.1"/>
		<rect x="639.3" y="63.8" class="st16" width="33.3" height="3.1"/>
		<rect x="677.9" y="51.8" class="st15" width="32.3" height="3.1"/>
		<rect x="677.9" y="57.8" class="st16" width="30.3" height="3.1"/>
		<rect x="677.9" y="63.8" class="st16" width="28.3" height="3.1"/>
		<rect x="639.3" y="-2.4" class="st16" width="56" height="3.1"/>
		<rect x="639.3" y="4.1" class="st16" width="68.3" height="3.1"/>
		<rect x="639.3" y="10.2" class="st16" width="65" height="3.1"/>
		<rect x="639.3" y="16.2" class="st16" width="56" height="3.1"/>
		<rect x="639.1" y="-60.9" class="st16" width="71" height="41.7"/>
		<rect x="639.1" y="24.5" class="st16" width="34.7" height="24"/>
		<rect x="677.4" y="24.5" class="st16" width="32.7" height="24"/>
	</g>
	<g>
		<path class="st9" d="M684.9-68.1c3.5-7.9,4.8-16.3,11-22.7v-24.7c-15.8,1.6-18.7,5.5-22.9,14.5c-4.7,10.1-5.6,19.3-3.9,25
			c1.7,5.8,3.6,18.8-1.1,23.1C668.1-52.9,679.1-57,684.9-68.1z"/>
	</g>
	<path class="st10" d="M689.5-94.1c-8.7,12.5-5.8,32.8-20.8,40.6c-0.2,0.2-0.3,0.4-0.5,0.5c0,0,11-4.1,16.8-15.2
		c3.6-8,4.9-16.5,11.3-23c5.1-5.1,13.1-9.7,20.6-9.3c1.7,0.1,3.2,0.4,4.6,0.9c-0.5-0.4-1-0.7-1.5-1.1l0,0
		C709.8-104,696.2-103.7,689.5-94.1z"/>
	<path class="st4" d="M687.9-104.3c-5.3-3.7-9.5-3.4-11.4-3c-0.9,1.2-1.7,2.6-2.4,4.2C679.8-104.6,687.9-104.3,687.9-104.3z"/>
	<path class="st4" d="M672.3-99.2c-0.5,1.2-1,2.4-1.4,3.6c4.3-1.5,9.3-2.2,9.3-2.2C676.9-99.4,674.2-99.5,672.3-99.2z"/>
	<path class="st4" d="M669.6-91.1c-0.3,1.1-0.5,2.1-0.6,3.2c3.5-1.8,7.6-2.9,7.6-2.9C673.5-91.8,671.1-91.5,669.6-91.1z"/>
</g>
</svg>
