<?xml version="1.0" encoding="utf-8"?>
<!-- Generator: Adobe Illustrator 19.1.0, SVG Export Plug-In . SVG Version: 6.00 Build 0)  -->
<svg version="1.1" id="Layer_1" xmlns="http://www.w3.org/2000/svg" xmlns:xlink="http://www.w3.org/1999/xlink" x="0px" y="0px"
	 viewBox="476 -176.8 600 400" style="enable-background:new 476 -176.8 600 400;" xml:space="preserve">
<style type="text/css">
	.st0{fill:#E6E7E8;}
	.st1{fill:#333333;}
	.st2{fill:#0B4F69;}
	.st3{fill:#F9F9F9;}
	.st4{fill:#F3F3F3;}
	.st5{fill:#E6E6E5;}
	.st6{fill:#09313A;}
	.st7{clip-path:url(#SVGID_2_);}
	.st8{opacity:0.1;}
	.st9{clip-path:url(#SVGID_50_);}
	.st10{clip-path:url(#SVGID_51_);}
	.st11{clip-path:url(#SVGID_52_);}
	.st12{clip-path:url(#SVGID_53_);}
	.st13{clip-path:url(#SVGID_54_);}
	.st14{clip-path:url(#SVGID_55_);}
	.st15{clip-path:url(#SVGID_56_);}
	.st16{clip-path:url(#SVGID_57_);}
	.st17{clip-path:url(#SVGID_58_);}
	.st18{clip-path:url(#SVGID_59_);}
	.st19{clip-path:url(#SVGID_60_);}
	.st20{clip-path:url(#SVGID_61_);}
	.st21{clip-path:url(#SVGID_62_);}
	.st22{clip-path:url(#SVGID_63_);}
	.st23{clip-path:url(#SVGID_64_);}
	.st24{clip-path:url(#SVGID_65_);}
	.st25{clip-path:url(#SVGID_66_);}
	.st26{clip-path:url(#SVGID_67_);}
	.st27{clip-path:url(#SVGID_68_);}
	.st28{clip-path:url(#SVGID_69_);}
	.st29{clip-path:url(#SVGID_70_);}
	.st30{clip-path:url(#SVGID_71_);}
	.st31{clip-path:url(#SVGID_72_);}
	.st32{clip-path:url(#SVGID_73_);}
	.st33{clip-path:url(#SVGID_74_);}
	.st34{clip-path:url(#SVGID_75_);}
	.st35{clip-path:url(#SVGID_76_);}
	.st36{clip-path:url(#SVGID_77_);}
	.st37{clip-path:url(#SVGID_78_);}
	.st38{clip-path:url(#SVGID_79_);}
	.st39{clip-path:url(#SVGID_80_);}
	.st40{clip-path:url(#SVGID_81_);}
	.st41{clip-path:url(#SVGID_82_);}
	.st42{clip-path:url(#SVGID_83_);}
	.st43{clip-path:url(#SVGID_84_);}
	.st44{clip-path:url(#SVGID_85_);}
	.st45{clip-path:url(#SVGID_86_);}
	.st46{clip-path:url(#SVGID_87_);}
	.st47{clip-path:url(#SVGID_88_);}
	.st48{clip-path:url(#SVGID_89_);}
	.st49{clip-path:url(#SVGID_90_);}
	.st50{clip-path:url(#SVGID_91_);}
	.st51{clip-path:url(#SVGID_92_);}
	.st52{clip-path:url(#SVGID_93_);}
	.st53{clip-path:url(#SVGID_94_);}
	.st54{clip-path:url(#SVGID_95_);}
	.st55{clip-path:url(#SVGID_96_);fill:#231F20;}
	.st56{fill:#EAF7FE;}
	.st57{fill:#A1D4E9;}
	.st58{fill:#85C1CE;}
	.st59{fill:#CDEAF5;}
	.st60{fill:#5C5B5D;}
	.st61{fill:#4F4E51;}
	.st62{fill:#FFFFFF;}
	.st63{fill:#747F83;}
</style>
<ellipse class="st0" cx="770.5" cy="187.8" rx="250.5" ry="32.9"/>
<g>
	<rect x="663.9" y="-47" class="st1" width="310.6" height="14.6"/>
	<rect x="663.9" y="-32.4" class="st2" width="310.6" height="43.5"/>
	<rect x="663.9" y="11.1" class="st3" width="310.6" height="179.3"/>
	<g>
		<rect x="678.8" y="27.5" class="st4" width="59" height="41"/>
		<rect x="678.9" y="58" class="st5" width="59" height="10.5"/>
	</g>
	<g>
		<rect x="750.4" y="27.5" class="st2" width="39.3" height="5.8"/>
		<rect x="750.4" y="39.4" class="st5" width="115.1" height="5.3"/>
	</g>
	<g>
		<rect x="678.9" y="83.9" class="st4" width="59" height="41"/>
		<rect x="679" y="114.4" class="st5" width="59" height="10.5"/>
	</g>
	<g>
		<rect x="679" y="136.5" class="st4" width="59" height="41"/>
		<rect x="679.1" y="166.9" class="st5" width="59" height="10.5"/>
	</g>
	<g>
		<rect x="894.1" y="30" class="st5" width="57.6" height="2.2"/>
		<rect x="894.1" y="36.3" class="st5" width="46.6" height="2.2"/>
		<rect x="894.5" y="42.6" class="st5" width="57.6" height="2.2"/>
		<rect x="894.5" y="48.9" class="st5" width="57.6" height="2.2"/>
		<rect x="894.5" y="55.1" class="st5" width="46.3" height="2.2"/>
		<rect x="894.5" y="61.4" class="st5" width="57.6" height="2.2"/>
		<rect x="894.9" y="67.7" class="st5" width="57.6" height="2.2"/>
		<rect x="894.9" y="73.9" class="st5" width="38.6" height="2.2"/>
	</g>
	<g>
		<rect x="750.4" y="83.9" class="st2" width="52.7" height="5.8"/>
		<rect x="750.4" y="95.8" class="st5" width="100.7" height="5.3"/>
	</g>
	<g>
		<rect x="750.4" y="136.5" class="st2" width="30.3" height="5.8"/>
		<rect x="750.4" y="148.4" class="st5" width="81.9" height="5.3"/>
	</g>
	<g>
		<g>
			<rect x="859.9" y="-15.1" class="st6" width="23.3" height="9.4"/>
			<rect x="865.7" y="-11.5" class="st5" width="11.7" height="2.2"/>
		</g>
		<rect x="889.9" y="-11.9" class="st5" width="11.7" height="2.2"/>
		<rect x="913.9" y="-11.9" class="st5" width="11.7" height="2.2"/>
		<rect x="937.9" y="-11.9" class="st5" width="11.7" height="2.2"/>
	</g>
	<g>
		<g>
			<defs>
				<rect id="SVGID_1_" x="663.9" y="-47" width="310.6" height="237.3"/>
			</defs>
			<clipPath id="SVGID_2_">
				<use xlink:href="#SVGID_1_"  style="overflow:visible;"/>
			</clipPath>
			<g class="st7">
				<g class="st8">
					<g>
						<defs>
							<rect id="SVGID_3_" x="532" y="-172.8" width="207.9" height="374.5"/>
						</defs>
						<defs>
							<rect id="SVGID_4_" x="532" y="-172.8" width="207.9" height="374.5"/>
						</defs>
						<defs>
							<rect id="SVGID_5_" x="532" y="-172.8" width="207.9" height="374.5"/>
						</defs>
						<defs>
							<rect id="SVGID_6_" x="532" y="-172.8" width="207.9" height="374.5"/>
						</defs>
						<defs>
							<rect id="SVGID_7_" x="532" y="-172.8" width="207.9" height="374.5"/>
						</defs>
						<defs>
							<rect id="SVGID_8_" x="532" y="-172.8" width="207.9" height="374.5"/>
						</defs>
						<defs>
							<rect id="SVGID_9_" x="532" y="-172.8" width="207.9" height="374.5"/>
						</defs>
						<defs>
							<rect id="SVGID_10_" x="532" y="-172.8" width="207.9" height="374.5"/>
						</defs>
						<defs>
							<rect id="SVGID_11_" x="532" y="-172.8" width="207.9" height="374.5"/>
						</defs>
						<defs>
							<rect id="SVGID_12_" x="532" y="-172.8" width="207.9" height="374.5"/>
						</defs>
						<defs>
							<rect id="SVGID_13_" x="532" y="-172.8" width="207.9" height="374.5"/>
						</defs>
						<defs>
							<rect id="SVGID_14_" x="532" y="-172.8" width="207.9" height="374.5"/>
						</defs>
						<defs>
							<rect id="SVGID_15_" x="532" y="-172.8" width="207.9" height="374.5"/>
						</defs>
						<defs>
							<rect id="SVGID_16_" x="532" y="-172.8" width="207.9" height="374.5"/>
						</defs>
						<defs>
							<rect id="SVGID_17_" x="532" y="-172.8" width="207.9" height="374.5"/>
						</defs>
						<defs>
							<rect id="SVGID_18_" x="532" y="-172.8" width="207.9" height="374.5"/>
						</defs>
						<defs>
							<rect id="SVGID_19_" x="532" y="-172.8" width="207.9" height="374.5"/>
						</defs>
						<defs>
							<rect id="SVGID_20_" x="532" y="-172.8" width="207.9" height="374.5"/>
						</defs>
						<defs>
							<rect id="SVGID_21_" x="532" y="-172.8" width="207.9" height="374.5"/>
						</defs>
						<defs>
							<rect id="SVGID_22_" x="532" y="-172.8" width="207.9" height="374.5"/>
						</defs>
						<defs>
							<rect id="SVGID_23_" x="532" y="-172.8" width="207.9" height="374.5"/>
						</defs>
						<defs>
							<rect id="SVGID_24_" x="532" y="-172.8" width="207.9" height="374.5"/>
						</defs>
						<defs>
							<rect id="SVGID_25_" x="532" y="-172.8" width="207.9" height="374.5"/>
						</defs>
						<defs>
							<rect id="SVGID_26_" x="532" y="-172.8" width="207.9" height="374.5"/>
						</defs>
						<defs>
							<rect id="SVGID_27_" x="532" y="-172.8" width="207.9" height="374.5"/>
						</defs>
						<defs>
							<rect id="SVGID_28_" x="532" y="-172.8" width="207.9" height="374.5"/>
						</defs>
						<defs>
							<rect id="SVGID_29_" x="532" y="-172.8" width="207.9" height="374.5"/>
						</defs>
						<defs>
							<rect id="SVGID_30_" x="532" y="-172.8" width="207.9" height="374.5"/>
						</defs>
						<defs>
							<rect id="SVGID_31_" x="532" y="-172.8" width="207.9" height="374.5"/>
						</defs>
						<defs>
							<rect id="SVGID_32_" x="532" y="-172.8" width="207.9" height="374.5"/>
						</defs>
						<defs>
							<rect id="SVGID_33_" x="532" y="-172.8" width="207.9" height="374.5"/>
						</defs>
						<defs>
							<rect id="SVGID_34_" x="532" y="-172.8" width="207.9" height="374.5"/>
						</defs>
						<defs>
							<rect id="SVGID_35_" x="532" y="-172.8" width="207.9" height="374.5"/>
						</defs>
						<defs>
							<rect id="SVGID_36_" x="532" y="-172.8" width="207.9" height="374.5"/>
						</defs>
						<defs>
							<rect id="SVGID_37_" x="532" y="-172.8" width="207.9" height="374.5"/>
						</defs>
						<defs>
							<rect id="SVGID_38_" x="532" y="-172.8" width="207.9" height="374.5"/>
						</defs>
						<defs>
							<rect id="SVGID_39_" x="532" y="-172.8" width="207.9" height="374.5"/>
						</defs>
						<defs>
							<rect id="SVGID_40_" x="532" y="-172.8" width="207.9" height="374.5"/>
						</defs>
						<defs>
							<rect id="SVGID_41_" x="532" y="-172.8" width="207.9" height="374.5"/>
						</defs>
						<defs>
							<rect id="SVGID_42_" x="532" y="-172.8" width="207.9" height="374.5"/>
						</defs>
						<defs>
							<rect id="SVGID_43_" x="532" y="-172.8" width="207.9" height="374.5"/>
						</defs>
						<defs>
							<rect id="SVGID_44_" x="532" y="-172.8" width="207.9" height="374.5"/>
						</defs>
						<defs>
							<rect id="SVGID_45_" x="532" y="-172.8" width="207.9" height="374.5"/>
						</defs>
						<defs>
							<rect id="SVGID_46_" x="532" y="-172.8" width="207.9" height="374.5"/>
						</defs>
						<defs>
							<rect id="SVGID_47_" x="532" y="-172.8" width="207.9" height="374.5"/>
						</defs>
						<defs>
							<rect id="SVGID_48_" x="532" y="-172.8" width="207.9" height="374.5"/>
						</defs>
						<defs>
							<rect id="SVGID_49_" x="532" y="-172.8" width="207.9" height="374.5"/>
						</defs>
						<clipPath id="SVGID_50_">
							<use xlink:href="#SVGID_3_"  style="overflow:visible;"/>
						</clipPath>
						<clipPath id="SVGID_51_" class="st9">
							<use xlink:href="#SVGID_4_"  style="overflow:visible;"/>
						</clipPath>
						<clipPath id="SVGID_52_" class="st10">
							<use xlink:href="#SVGID_5_"  style="overflow:visible;"/>
						</clipPath>
						<clipPath id="SVGID_53_" class="st11">
							<use xlink:href="#SVGID_6_"  style="overflow:visible;"/>
						</clipPath>
						<clipPath id="SVGID_54_" class="st12">
							<use xlink:href="#SVGID_7_"  style="overflow:visible;"/>
						</clipPath>
						<clipPath id="SVGID_55_" class="st13">
							<use xlink:href="#SVGID_8_"  style="overflow:visible;"/>
						</clipPath>
						<clipPath id="SVGID_56_" class="st14">
							<use xlink:href="#SVGID_9_"  style="overflow:visible;"/>
						</clipPath>
						<clipPath id="SVGID_57_" class="st15">
							<use xlink:href="#SVGID_10_"  style="overflow:visible;"/>
						</clipPath>
						<clipPath id="SVGID_58_" class="st16">
							<use xlink:href="#SVGID_11_"  style="overflow:visible;"/>
						</clipPath>
						<clipPath id="SVGID_59_" class="st17">
							<use xlink:href="#SVGID_12_"  style="overflow:visible;"/>
						</clipPath>
						<clipPath id="SVGID_60_" class="st18">
							<use xlink:href="#SVGID_13_"  style="overflow:visible;"/>
						</clipPath>
						<clipPath id="SVGID_61_" class="st19">
							<use xlink:href="#SVGID_14_"  style="overflow:visible;"/>
						</clipPath>
						<clipPath id="SVGID_62_" class="st20">
							<use xlink:href="#SVGID_15_"  style="overflow:visible;"/>
						</clipPath>
						<clipPath id="SVGID_63_" class="st21">
							<use xlink:href="#SVGID_16_"  style="overflow:visible;"/>
						</clipPath>
						<clipPath id="SVGID_64_" class="st22">
							<use xlink:href="#SVGID_17_"  style="overflow:visible;"/>
						</clipPath>
						<clipPath id="SVGID_65_" class="st23">
							<use xlink:href="#SVGID_18_"  style="overflow:visible;"/>
						</clipPath>
						<clipPath id="SVGID_66_" class="st24">
							<use xlink:href="#SVGID_19_"  style="overflow:visible;"/>
						</clipPath>
						<clipPath id="SVGID_67_" class="st25">
							<use xlink:href="#SVGID_20_"  style="overflow:visible;"/>
						</clipPath>
						<clipPath id="SVGID_68_" class="st26">
							<use xlink:href="#SVGID_21_"  style="overflow:visible;"/>
						</clipPath>
						<clipPath id="SVGID_69_" class="st27">
							<use xlink:href="#SVGID_22_"  style="overflow:visible;"/>
						</clipPath>
						<clipPath id="SVGID_70_" class="st28">
							<use xlink:href="#SVGID_23_"  style="overflow:visible;"/>
						</clipPath>
						<clipPath id="SVGID_71_" class="st29">
							<use xlink:href="#SVGID_24_"  style="overflow:visible;"/>
						</clipPath>
						<clipPath id="SVGID_72_" class="st30">
							<use xlink:href="#SVGID_25_"  style="overflow:visible;"/>
						</clipPath>
						<clipPath id="SVGID_73_" class="st31">
							<use xlink:href="#SVGID_26_"  style="overflow:visible;"/>
						</clipPath>
						<clipPath id="SVGID_74_" class="st32">
							<use xlink:href="#SVGID_27_"  style="overflow:visible;"/>
						</clipPath>
						<clipPath id="SVGID_75_" class="st33">
							<use xlink:href="#SVGID_28_"  style="overflow:visible;"/>
						</clipPath>
						<clipPath id="SVGID_76_" class="st34">
							<use xlink:href="#SVGID_29_"  style="overflow:visible;"/>
						</clipPath>
						<clipPath id="SVGID_77_" class="st35">
							<use xlink:href="#SVGID_30_"  style="overflow:visible;"/>
						</clipPath>
						<clipPath id="SVGID_78_" class="st36">
							<use xlink:href="#SVGID_31_"  style="overflow:visible;"/>
						</clipPath>
						<clipPath id="SVGID_79_" class="st37">
							<use xlink:href="#SVGID_32_"  style="overflow:visible;"/>
						</clipPath>
						<clipPath id="SVGID_80_" class="st38">
							<use xlink:href="#SVGID_33_"  style="overflow:visible;"/>
						</clipPath>
						<clipPath id="SVGID_81_" class="st39">
							<use xlink:href="#SVGID_34_"  style="overflow:visible;"/>
						</clipPath>
						<clipPath id="SVGID_82_" class="st40">
							<use xlink:href="#SVGID_35_"  style="overflow:visible;"/>
						</clipPath>
						<clipPath id="SVGID_83_" class="st41">
							<use xlink:href="#SVGID_36_"  style="overflow:visible;"/>
						</clipPath>
						<clipPath id="SVGID_84_" class="st42">
							<use xlink:href="#SVGID_37_"  style="overflow:visible;"/>
						</clipPath>
						<clipPath id="SVGID_85_" class="st43">
							<use xlink:href="#SVGID_38_"  style="overflow:visible;"/>
						</clipPath>
						<clipPath id="SVGID_86_" class="st44">
							<use xlink:href="#SVGID_39_"  style="overflow:visible;"/>
						</clipPath>
						<clipPath id="SVGID_87_" class="st45">
							<use xlink:href="#SVGID_40_"  style="overflow:visible;"/>
						</clipPath>
						<clipPath id="SVGID_88_" class="st46">
							<use xlink:href="#SVGID_41_"  style="overflow:visible;"/>
						</clipPath>
						<clipPath id="SVGID_89_" class="st47">
							<use xlink:href="#SVGID_42_"  style="overflow:visible;"/>
						</clipPath>
						<clipPath id="SVGID_90_" class="st48">
							<use xlink:href="#SVGID_43_"  style="overflow:visible;"/>
						</clipPath>
						<clipPath id="SVGID_91_" class="st49">
							<use xlink:href="#SVGID_44_"  style="overflow:visible;"/>
						</clipPath>
						<clipPath id="SVGID_92_" class="st50">
							<use xlink:href="#SVGID_45_"  style="overflow:visible;"/>
						</clipPath>
						<clipPath id="SVGID_93_" class="st51">
							<use xlink:href="#SVGID_46_"  style="overflow:visible;"/>
						</clipPath>
						<clipPath id="SVGID_94_" class="st52">
							<use xlink:href="#SVGID_47_"  style="overflow:visible;"/>
						</clipPath>
						<clipPath id="SVGID_95_" class="st53">
							<use xlink:href="#SVGID_48_"  style="overflow:visible;"/>
						</clipPath>
						<clipPath id="SVGID_96_" class="st54">
							<use xlink:href="#SVGID_49_"  style="overflow:visible;"/>
						</clipPath>
						<path class="st55" d="M735.5,8.9c9.7-14.2,0.6-32.3,0.6-32.3S732.3-34,728-39.6c4.4-2.6,3.6-6.5,3.6-6.5c-5.5-0.2-9-6.1-9-6.1
							c-1.3-1.5-3.7-4.2-3.7-4.2c4.5-3.3,3-9.8,3-9.8c-2.3,3.2-7.3,0-7.3,0c3.7-3.7,1.7-8.8,1.7-8.8c-7.3,4.9-13-9.8-13-9.8l-5.6-19
							c-4.9-12.1,3.5-28.7,3.5-28.7c-3.3-1.3-8.5-0.8-8.5-0.8c0-4.4,4.6-13.9,4.6-13.9c-5.1-1.3-13.1,0-13.1,0
							c0.8-3.8,4.4-14.4,4.4-14.4s-11.5-1-21.1,2.1c-10,3.3-15.8,8.9-15.8,8.9c-2.6-7.4-1.3-22.3-1.3-22.3
							c-21.6,7.3-34.4,39.3-34.4,39.3c-4.6-5.6-6.7-15.4-6.7-15.4c-15.6,17.7-8.2,41-8.2,41c-4.6,0-11-4.1-11-4.1
							c5.1,23.6,22.1,38.7,22.1,38.7s-1.9,15.3-0.9,23.2c0,0-3.4-0.9-8.6-0.8c-3.3,0-7.7,0.4-12.7,2.1l4.7,3.9
							c-11.6,4.6-13.9,17-14,17.1c-0.2-0.1-0.4-0.1-0.6-0.2H580c-0.2-0.1-0.3-0.1-0.5-0.2c-0.1,0-0.1-0.1-0.2-0.1
							c-0.1-0.1-0.3-0.2-0.4-0.3c-0.1,0-0.1-0.1-0.2-0.1c-0.1-0.1-0.3-0.2-0.4-0.3c-0.1-0.1-0.2-0.2-0.3-0.2
							c-0.1-0.1-0.2-0.2-0.3-0.3s-0.2-0.2-0.3-0.3c-0.1-0.1-0.2-0.2-0.3-0.3c-0.1-0.2-0.2-0.3-0.3-0.5c-0.1-0.1-0.1-0.2-0.2-0.3
							c-0.2-0.3-0.3-0.6-0.5-0.9c0,0-0.5,4.9,1.3,8c0,0-18.3,6.3-26.8,18.5l4.4,2.6c0,0-14.1,0.8-23.3,12.8c0,0,5.3-1.5,8.7,0.1
							c0,0-11.7,9.7-8.1,27.6c0,0,4.1-3.6,6.8-3.6c3.5,4.6,4.2,8.3,4.2,8.3s2.2,7.3,2.4,13.1c0,0,3-1.4,5.1-3.4
							c0,0,5.4,16.4,23.3,15.7l2.1-4.8l0.9-0.5l2.6,0.4c0,0,1.7,10.3,5.5,16.6l4.4,1.8c0,0-1.3,4,0.8,8.7c0,0-8.6,21.2-12.7,35
							l3.5-1c0,0,11.2,11.5,17.9,12.3l2.9-7.7c0,0,15.4,19.2,25.2,21.4c0,0,0.2-5.6,1.3-7.5l9-0.8c0,0-5.6-7.1-6.5-11.5
							c0,0,8.1-4.4,12.1-3.5c0,0-0.1-4.8-0.4-6.7c0,0,9.8-2.7,12.8-2.5l0,0c4.6-0.5,4-0.7,6.3-1c4.8-9,12.1-16.7,12.1-16.7
							c10.4-13.5,16.7-25.5,20.2-34.7l5.1,2.8c1.5-5.6,1.4-16.1,1.2-21.8c13.8-5.2,16-15.3,16-15.3l-3.3-3.1
							c21,0.9,26.1-18.7,26.1-18.7C736.9,9.8,735.5,8.9,735.5,8.9"/>
						<path class="st55" d="M629.6,176.2c-1.8-2.6-3.1-5.5-3.9-8.6c-1.5-0.7-3.6-0.9-6.4-0.4c-14,2.2-25.6,10.6-15.1,28.1
							c0,0,2.2,1.7,6.8,0c4.6-1.7,6.2-3.1,10.4-3.1c4.1,0,9-4.4,8.2-9C629.2,181.5,629.6,178.9,629.6,176.2"/>
						<path class="st55" d="M621.2,166.9c0.6,0,1.1,0,1.7,0C622.3,166.8,621.8,166.8,621.2,166.9"/>
						<path class="st55" d="M601.8,176.7c-2.4-0.7-4.9-1-7.3-0.7c-0.1,0.1-0.3,0.1-0.4,0.2c-2.2,0.4-4.3,1-6.2,2.3
							c-0.2,0.1-0.4,0.2-0.6,0.2c-1.4,0.8-2.8,1.7-4,2.8c6,2.9,13.7,2.5,16.9,2.1C600.1,181,600.7,178.7,601.8,176.7"/>
						<path class="st55" d="M625.7,167.5c-0.8-0.3-1.7-0.6-2.8-0.6c-0.6,0-1.1,0-1.7,0c-0.6,0-1.2,0.1-1.9,0.2
							c-6.4,1-12.4,3.4-15.9,7.3c1.7,0.6,3.4,1.3,4.8,2.1c0.4,0.2,0.6,0.5,0.6,0.8l5.3,4.6l3-7c4.2,5.3,8.9,5.5,12.2,4.8
							c0.1-1.1,0.1-2.3,0.1-3.5C627.8,173.5,626.5,170.6,625.7,167.5"/>
						<path class="st55" d="M557.7,184.1c0.6,5.3,0.7,9.2,6.8,10.7s9.9-1.8,12-5.4s0.8-15.3-8.3-16.2c-9.1-0.9-12.6,9-12.6,9
							l2.3,0.1L557.7,184.1z"/>
						<path class="st55" d="M566.9,184.5c0.9-3.5,2.7-7.9,5.9-9.6c4.9,3.6,5.3,11.7,3.7,14.5c-1.6,2.8-4.4,5.5-8.6,5.7
							C566.5,191.8,566,188.2,566.9,184.5"/>
						<path class="st55" d="M606.5,131.7L597,160c-1.6,2.4-6.8,3.4-6.8,3.4c0.7,2.9,4.1,5.3,4.1,5.3c-0.7,5.5-9.7,6.1-9.7,6.1
							c4.5,9.6,21.2,5.8,21.2,5.8l5-5.7l5.2,4.5l2.5-5.7c5.9,7.4,13.3,2.6,13.3,2.6c-3.2-2.9-3-6.9-3-6.9c-0.1-1.4-0.1-2.8-0.2-4.2
							c0.4-1.5,0.8-2.9,1.4-4.2c1.7-4.4,3.9-8.7,6.7-12.6c0.3-0.4,0.7-0.6,1.1-0.6C632.1,135.4,620.5,126,606.5,131.7"/>
						<path class="st55" d="M571,186.8c0.6,5.9,0.7,10.3,6.8,11.9c6.1,1.6,9.9-2.1,12-6c2.1-4,0.8-17-8.3-18.1
							c-9.1-1-12.6,10-12.6,10l2.3,0.1L571,186.8z"/>
						<path class="st55" d="M581.1,192.3c0-1.4,0.2-2.8,0.6-4.2c0.9-3.4,3.2-7.7,6.3-9.6c3.1,4.5,3.3,11.4,1.9,14.1
							c-1.4,2.8-3.8,5.4-7.1,6.2C582,196.7,581.4,194.5,581.1,192.3"/>
						<path class="st55" d="M586.7,189.4c0.6,5.9,0.7,10.3,6.8,11.9s10-2.1,12-6c2.1-4,0.8-17-8.3-18.1c-9.1-1-12.6,10-12.6,10
							l2.3,0.1L586.7,189.4z"/>
						<path class="st55" d="M557.8,182.3l2.7,0.1l-2.8,1.8C557.7,184.1,557.6,183,557.8,182.3"/>
						<polygon class="st55" points="568.9,185.2 573.7,185.2 570.8,187.2 						"/>
						<polygon class="st55" points="584.7,187.2 589.2,187.4 586.7,189.4 						"/>
						<path class="st55" d="M657.7,117.4c0,0,9,3.5,13.5,6.9c4.4,3.5,5.6,6,2.5,17.7s-6.7,20.8-7.1,31.6
							c-0.4,10.8,2.5,16.3-3.5,19.2c-6,2.9-13.5,7.1-22.7,7.7c-9.2,0.6-13.9-0.4-16.7,0c-2.9,0.4-5.6-3.7-5.2-8.1s6-5.6,6-5.6
							s1-6.9,7.7-7.1c0,0,3.3-14.4,1.5-26l-7.5-7.7C626.2,146.1,618.3,109.5,657.7,117.4"/>
						<path class="st55" d="M673.9,131.4c-0.9-2.5-2.3-4.1-4.9-3.5c-6.8,1.7-10,7.3-12.7,13.2c-1.7,7.3-1.6,15.4-2.7,22.4
							c-1,6.6-2.5,13.5-6,19.3c-0.3,0.5-0.6,0.9-0.9,1.4c-1,3.9-3.6,9.3-1.2,12.8c0.7,1.1,1.8,1.7,3.1,2c5.6-1.6,10.4-4.2,14.5-6.2
							c6-2.9,3.1-8.5,3.5-19.2c0.4-10.8,4-19.8,7.1-31.6l0,0c0.3-2.5,0.5-5.1,0.7-7.6C674.3,133.4,674.2,132.4,673.9,131.4"/>
						<path class="st55" d="M677.1,74.5c0.2-3.9-0.8-7.7-0.8-7.7c-1.6,3.2-4.3,6.5-7.6,9.6c-12.5,9.8-25.7,11.3-37.5,8.2l-5.6,2.3
							V83c-9.1-3.3-16.3-8.9-23.6-15.3h0.3l-8.9-4l3-1.7l0,0c-6.7-6.6-12.3-13.5-16.5-19.2l0.2-0.3c-3.1-5.3-6.6-9.2-9-11.9h-0.5
							l0,0c-1.5-3.4-4.6-4.9-4.6-4.9l-3.2,1.2c1.6-4.7,4.2-6.8,5.7-8.6c0.6-1.7,2-4.7,4.9-5.1L570,8.5c6.3-6.8,13.2-9.2,13.2-9.2
							c0.5-3.8,0.1-6.9,0.1-6.9c1.5,0.2,2.7,0.6,3.9,1c1.9,0.8,4.7,3.9,6.7,6.9c0,0,7.5-1.5,13.7,8.7c0,0,1.2-1.2,2.9-4.2
							c0,0,4.4,11.7,4,18.5c0,0,9.2,1.5,18.6,6.4c3.7,1.1,7.1,3.3,10.4,5.4c2,1.2,3.2,2.4,5.6,5.7c-0.5-6.6-2.1-15.3-7.1-18
							c-4,2.4-6.5,4.2-6.5,4.2s-7.9-3.8-13.8-5.9h0.1c-2-10.1,3.9-24.6,3.9-24.6c-7.1,5.3-9.4,18.3-9.4,18.3v1.1
							c0-4.7-2.4-12.2-7.2-17.4c0,0-0.7,3.3-1.8,4.8c0,0-5.8-6.9-11.8-6.9c0,0-2.7-4.5-5.9-6.8c1.6-7.2,6.2-14.1,11.2-19.1
							c3.5-3.5,7.4-6,11.6-7.7c-0.4-2-0.6-4-0.8-6c-0.1-2.4-0.2-4.7-1-7c-0.2,0-0.4-0.1-0.7-0.1v0.1c-0.1,0.3-0.3,0.6-0.5,0.8
							c0.6,2,0.6,4.1,0.7,6.2c0.1,2,0,1.3,0.4,3.3c-4.2,1.7-8.1,4.2-11.6,7.7c-6.1,6.1-10.3,12.2-11.9,21.4c-1.5-0.7-4.7-0.5-7-0.9
							c0,0,0.4,5.4,0.7,9.7c0,0-6.6,1-12.9,7.9L564.3,8c-2.9,0.3-12.3,4.9-12.9,6.6c3.8,0.2,9.2,2.5,12.1,4.6c0,0-4.3,6.7-5.8,13.2
							c0,0,2.2-0.7,4.5-0.9c3,2.5,7.4,6.8,11.1,14c2.9,5.2,6.7,10.9,6.7,10.9l0.4-0.1c1.2,1.3,2.3,2.6,2.7,3l-6.7,3.9l-0.2,0.4
							c0.3,0.9,4.2,10.4,7.6,18.9l2.5-1.6c0,0,1.4,6.2,4.5,9.1c0,0-3,6.3-4.8,11.3c2.1,1.8,3.9,3.9,6.2,5.5
							c3.4,2.3,7.7,3.6,11.4,5.2c8.1,3.5,16,5.3,24.7,5.9c6.7,0.4,13.5,0.8,20.2,1.7c2.6-0.3,5.6-0.6,7.7-0.5l3.1-0.5
							c1.7,0.8,1.7,0.8,2.8,1.3c5.6-11.6,12.3-19.7,12.3-19.7c0.3-0.3,0.3-0.3,0.7-0.6c5.6-4.2,9.5-12.2,13.4-21l0,0
							c0,0,2.3-4.4,3.4-7.3c0,0,0,0,0-0.1c1-2.1,1.5-3.7,2.5-5.7C687,71.8,677.1,74.5,677.1,74.5"/>
						<path class="st55" d="M635.6,26.8c0,0,2.4-6.9,12.3-7.1c0,0-0.3-12.3,9.1-13.7c0,0,0.8-10.8,13.8-11c13.1-0.2,27.5,11,27.5,11
							s-5,11.9-17.7,11.4c0,0,3.5,2.4,5.4,7c0,0-6.5,11.5-19,8.6l5.2,9.4c0,0-12.5,10.5-19.4,0.4C652.7,42.8,647.8,28.6,635.6,26.8"
							/>
						<path class="st55" d="M618.8,196.1c0,0-1.8-8.3,5.6-9.2c2.6,0,3.9,0.7,3.9,0.7s-1.3-2.5-2.9-2.6c0,0,1.7-3.7,6.7-5.2
							c0,0-4.3-2.9-9.1,4.8c0,0-8.6,1.2-7.2,13.5C615.8,198,618.4,196.8,618.8,196.1"/>
						<path class="st55" d="M666.9,33c0,0-1.5-7.2-7.3-9.4c0,0,8.7,0.8,10.6,9.8C670.3,33.4,668.8,33.4,666.9,33"/>
						<path class="st55" d="M661.4,119c0,0-8.6,1.1-14.5,3.9c0,0,0.3,4.1-2,7.5c0,0-6.7-0.4-10.4,1.2c0,0,5.6,9.9,7.7,12.4
							c0,0-8,1.8-11,1.1l-0.6,6.2l-3.5-4l2.6-23.4C629.7,123.9,653.7,114,661.4,119"/>
						<path class="st55" d="M660.7,116.9c0,0-12-5.4-18.5-5l1.1-1.8c-12.2,1.6-21.5,1-32.4-3.8l1.4-2.5c0,0-12.7-6.3-20.3-16.3
							c0,0-12.4,28.4-13.6,37.4l3.5-1c0,0,8.3,10.9,18.3,13.8l2.4-3c0,0,13.7,14.5,25,15.7l1.5-8c0,0,5.8,0.3,9-0.8
							c0,0-5.6-8.2-6.5-11.5c0,0,5.3-2.1,9.9-2.5h2.4c1.3-4.2,0.9-6.2,0.9-6.2S651.6,118.4,660.7,116.9"/>
						<path class="st55" d="M614.8-70c-0.5-4-1.2-9.7-5.1-11.9c-2,0.3-4.1,0.8-6,1.7C592.3-75,588-64,588-64s13.8-5,27.3,0.5
							C615.2-65.6,615.1-67.8,614.8-70"/>
						<path class="st55" d="M614.8-70c-0.1-0.9-0.2-1.9-0.4-2.9C599-74.9,588-64,588-64s13.8-5,27.3,0.5
							C615.2-65.6,615.1-67.8,614.8-70"/>
						<path class="st55" d="M735.5,8.9c9.7-14.2,0.6-32.3,0.6-32.3S732.3-34,728-39.6c4.4-2.6,3.6-6.5,3.6-6.5c-5.5-0.2-9-6.1-9-6.1
							c-1.3-1.5-3.7-4.2-3.7-4.2c4.5-3.3,3-9.8,3-9.8c-2.3,3.2-7.3,0-7.3,0c3.7-3.7,1.7-8.8,1.7-8.8c-7.3,4.9-13-9.8-13-9.8l-5.6-19
							c-4.9-12.1,3.5-28.7,3.5-28.7c-3.3-1.3-8.5-0.8-8.5-0.8c0-4.4,4.6-13.9,4.6-13.9c-5.1-1.3-13.1,0-13.1,0
							c0.8-3.8,4.4-14.4,4.4-14.4s-11.5-1-21.1,2.1c-10,3.3-15.8,8.9-15.8,8.9c-2.6-7.4-1.3-22.3-1.3-22.3
							c-21.6,7.3-34.4,39.3-34.4,39.3c-4.6-5.6-6.7-15.4-6.7-15.4c-15.6,17.7-8.2,41-8.2,41c-4.6,0-11-4.1-11-4.1
							c5.1,23.6,22.1,38.7,22.1,38.7s-1.9,15.3-0.9,23.2c0,0-3.4-0.9-8.6-0.8c-3.3,0-7.7,0.4-12.7,2.1l4.7,3.9
							c-11.6,4.6-13.9,17-14,17.1c-0.2-0.1-0.4-0.1-0.6-0.2H580c-0.2-0.1-0.3-0.1-0.5-0.2c-0.1,0-0.1-0.1-0.2-0.1
							c-0.1-0.1-0.3-0.2-0.4-0.3c-0.1,0-0.1-0.1-0.2-0.1c-0.1-0.1-0.3-0.2-0.4-0.3c-0.1-0.1-0.2-0.2-0.3-0.2
							c-0.1-0.1-0.2-0.2-0.3-0.3s-0.2-0.2-0.3-0.3c-0.1-0.1-0.2-0.2-0.3-0.3c-0.1-0.2-0.2-0.3-0.3-0.5c-0.1-0.1-0.1-0.2-0.2-0.3
							c-0.2-0.3-0.3-0.6-0.5-0.9c0,0-0.5,4.9,1.3,8c0,0-18.3,6.3-26.8,18.5l4.4,2.6c0,0-14.1,0.8-23.3,12.8c0,0,5.3-1.5,8.7,0.1
							c0,0-11.7,9.7-8.1,27.6c0,0,4.1-3.6,6.8-3.6c3.5,4.6,4.2,8.3,4.2,8.3s2.2,7.3,2.4,13.1c0,0,3-1.4,5.1-3.4
							c0,0,5.4,16.4,23.3,15.7l2.1-4.8l0.9-0.5l2.6,0.4c0,0,1.7,10.3,5.5,16.6l4.4,1.8c0,0-1.3,4,0.8,8.7c0,0-0.5-2.8-4.6,11.1
							c0,0,10.8,14.4,56.9,19c0,0,0.4,1.9,0,0c0,0,9.8-2.7,12.8-2.5l0,0c4.6-0.5,4-0.7,6.3-1c4.8-9,12.1-16.7,12.1-16.7
							c10.4-13.5,16.7-25.5,20.2-34.7l5.1,2.8c1.5-5.6,1.4-16.1,1.2-21.8c13.8-5.2,16-15.3,16-15.3l-3.3-3.1
							c21,0.9,26.1-18.7,26.1-18.7C736.9,9.8,735.5,8.9,735.5,8.9"/>
						<path class="st55" d="M687.2-64.2c0,0,0-6.4-13.9-22.1c0,0-0.6-17.9-2.1-25.4c0,0-16.7-4-39,4.9c-1-3.6-4.5-3.6-4.5-3.6
							l-1.3,3.3c-4.2-3.7-8.1-1.7-8.1-1.7c2.1,1.5,3.7,6.9,3.7,6.9l1-0.6c-4.9,2.7-10,6-15.2,10.2c0,0,2.5,9.6,11.5,17.5
							c0,0-2.3,19.2,0,34.8c0,0,8.7-3.3,12.7-2.1c0,0,0.6,8.8,2.1,12.7c0,0,7.5-4.6,10-5.4c0,0,2.1,6.2,5.4,9.8
							c0,0,7.4-11.3,12-15.3c0,0,4.8,2.1,6.1,5.6c0,0,6.3-8.6,8.2-16.4c0,0,6.5-0.9,9,1.4c0,0,1-8.7-3.5-12.5
							C681.4-62.3,684.9-64.8,687.2-64.2"/>
						<path class="st55" d="M658.9-85.6c0,4.2-2.7,7.5-6,7.5c-3.3,0-5.9-3.4-5.9-7.5c0-4.2,2.7-7.5,5.9-7.5
							C656.3-93.2,658.9-89.8,658.9-85.6"/>
						<path class="st55" d="M658.3-87.7c0,4.1-2.6,7.4-5.9,7.4c-3.2,0-5.9-3.3-5.9-7.4s2.6-7.4,5.9-7.4
							C655.7-95.1,658.3-91.8,658.3-87.7"/>
						<path class="st55" d="M654-91.5c0,0.2,0.1,0.4,0.1,0.6c0,1-0.7,1.9-1.5,1.9c-0.7,0-1.4-0.7-1.5-1.5c-0.5,0.6-0.8,1.5-0.8,2.4
							c0,1.9,1.3,3.5,2.8,3.5c1.6,0,2.8-1.6,2.8-3.5C655.9-89.8,655.1-91.1,654-91.5"/>
						<path class="st55" d="M646.3-102.9c0,0,6.7-3.3,13.3-1C659.6-103.9,653.3-112,646.3-102.9"/>
						<path class="st55" d="M640.5-79.5c0,4.2-2.7,7.5-6,7.5s-6-3.4-6-7.5c0-4.2,2.7-7.5,6-7.5S640.5-83.6,640.5-79.5"/>
						<path class="st55" d="M639.8-81.6c0,4.1-2.6,7.4-5.9,7.4c-3.2,0-5.9-3.3-5.9-7.4s2.6-7.4,5.9-7.4
							C637.2-89,639.8-85.7,639.8-81.6"/>
						<path class="st55" d="M635.5-85.4c0,0.2,0.1,0.4,0.1,0.6c0,1-0.7,1.9-1.5,1.9c-0.7,0-1.4-0.7-1.5-1.6
							c-0.5,0.6-0.8,1.5-0.8,2.4c0,1.9,1.3,3.5,2.8,3.5c1.6,0,2.8-1.6,2.8-3.5C637.5-83.6,636.7-84.9,635.5-85.4"/>
						<path class="st55" d="M618.9-83.1c0,0,8.6-7.9,19.6-6.4c0,0,7.5-16.4,26.2-11.8l-3.9,2.9l4.6,4.2c0,0-10.9-4.3-25.6,8.7
							c0,0-11.9,0.6-18.5,7.7C621.3-77.8,620.2-80.1,618.9-83.1"/>
						<path class="st55" d="M656.5-98.5c1.4,0,2.9-0.1,4.3,0.2l4.6-3.2c-18.7-4.7-27.9,8.3-27.9,8.3c-11-1.5-19.3,8.9-19.3,8.9
							c0.3,0.8,1.4,2.6,1.7,3.3c4.2-4.5,13.1-9.5,18.7-8.4C643.1-95.9,648.4-98.7,656.5-98.5"/>
						<path class="st55" d="M620.3-91.7c0,0,5.3-5.2,12.3-5.3C632.6-96.9,624.1-102.5,620.3-91.7"/>
						<path class="st55" d="M677.1,74.5c0.2-3.9-0.8-7.7-0.8-7.7c-1.6,3.2-4.3,6.5-7.6,9.6c-12.5,9.8-25.7,11.3-37.5,8.2l-5.6,2.3
							V83c-9.1-3.3-16.3-8.9-23.6-15.3h0.3l-8.9-4l3-1.7l0,0c-6.7-6.6-12.3-13.5-16.5-19.2l0.2-0.3c-3.1-5.3-6.6-9.2-9-11.9h-0.5
							l0,0c-1.5-3.4-4.6-4.9-4.6-4.9l-3.2,1.2c1.6-4.7,4.2-6.8,5.7-8.6c0.6-1.7,2-4.7,4.9-5.1L570,8.5c6.3-6.8,13.2-9.2,13.2-9.2
							c0.5-3.8,0.1-6.9,0.1-6.9c1.5,0.2,2.7,0.6,3.9,1c1.9,0.8,4.7,3.9,6.7,6.9c0,0,7.5-1.5,13.7,8.7c0,0,1.2-1.2,2.9-4.2
							c0,0,4.4,11.7,4,18.5c0,0,9.2,1.5,18.6,6.4c3.7,1.1,7.1,3.3,10.4,5.4c2,1.2,3.2,2.4,5.6,5.7c-0.5-6.6-2.1-15.3-7.1-18
							c-4,2.4-6.5,4.2-6.5,4.2s-7.9-3.8-13.8-5.9h0.1c-2-10.1,3.9-24.6,3.9-24.6c-7.1,5.3-9.4,18.3-9.4,18.3v1.1
							c0-4.7-2.4-12.2-7.2-17.4c0,0-0.7,3.3-1.8,4.8c0,0-5.8-6.9-11.8-6.9c0,0-2.7-4.5-5.9-6.8c1.6-7.2,6.2-14.1,11.2-19.1
							c3.5-3.5,7.4-6,11.6-7.7c-0.4-2-0.6-4-0.8-6c-0.1-2.4-0.2-4.7-1-7c-0.2,0-0.4-0.1-0.7-0.1v0.1c-0.1,0.3-0.3,0.6-0.5,0.8
							c0.6,2,0.6,4.1,0.7,6.2c0.1,2,0,1.3,0.4,3.3c-4.2,1.7-8.1,4.2-11.6,7.7c-6.1,6.1-10.3,12.2-11.9,21.4c-1.5-0.7-4.7-0.5-7-0.9
							c0,0,0.4,5.4,0.7,9.7c0,0-6.6,1-12.9,7.9L564.3,8c-2.9,0.3-12.3,4.9-12.9,6.6c3.8,0.2,9.2,2.5,12.1,4.6c0,0-4.3,6.7-5.8,13.2
							c0,0,2.2-0.7,4.5-0.9c3,2.5,7.4,6.8,11.1,14c2.9,5.2,6.7,10.9,6.7,10.9l0.4-0.1c1.2,1.3,2.3,2.6,2.7,3l-6.7,3.9l-0.2,0.4
							c0.3,0.9,4.2,10.4,7.6,18.9l2.5-1.6c0,0,1.4,6.2,4.5,9.1c0,0-3,6.3-4.8,11.3c2.1,1.8,3.9,3.9,6.2,5.5
							c3.4,2.3,7.7,3.6,11.4,5.2c8.1,3.5,16,5.3,24.7,5.9c6.7,0.4,13.5,0.8,20.2,1.7c2.6-0.3,5.6-0.6,7.7-0.5l3.1-0.5
							c1.7,0.8,1.7,0.8,2.8,1.3c5.6-11.6,12.3-19.7,12.3-19.7c0.3-0.3,0.3-0.3,0.7-0.6c5.6-4.2,9.5-12.2,13.4-21l0,0
							c0,0,2.3-4.4,3.4-7.3c0,0,0,0,0-0.1c1-2.1,1.5-3.7,2.5-5.7C687,71.8,677.1,74.5,677.1,74.5"/>
						<path class="st55" d="M611.3-50.2c0,0,1.7,18.4,6.1,26.1c0,0,5.3-5.4,10.6-4.1c0,0,0.5,10.8,3.7,16.9c0,0,3.9-5,6.8-5.6
							c0,0,7.4,9.2,13.8,11.4c0,0,2.8-14.3,10.2-19.1c0,0,4.4,1.7,5.6,6.1c0,0,8.5-7.6,13.2-17.6c0,0,3.3-1.2,10.5,5
							c0,0,4.5-4.6,5.4-9.2c0,0,1.3,9.9-4.6,15.1c0,0-4-4.9-10-6.6c0,0-5.9,13-16.1,19.5c0,0,0-4.2-3.7-7.1c0,0-6.7,5.7-7.9,19.8
							c0,0-14.4-7.7-17.6-12.9c0,0-2.5,1.5-5.6,6.2c0,0-5.5-3.4-6.5-17.4c0,0-3.6-0.3-9,4.9c0,0-6.4-16.9-6.5-31.5L611.3-50.2z"/>
						<path class="st55" d="M668.8,2c0,0-0.8-9.5,6.7-17.2c0,0-3.1,8.2-1.3,19.2C674.2,4,670.6,4.5,668.8,2"/>
						<path class="st55" d="M583.4-0.7c-0.1-0.7,0.1-0.9,0-1.6c-1.1-0.1-4.7,0.1-7.8,0.6c-11.4,2.1-15.8,15.6-15.8,15.6l8.6,4.8
							c1.3-3.1,5.2-5.5,5.2-5.5l-3.4-4.7C575.5,2.4,582.5-0.3,583.4-0.7"/>
						<path class="st55" d="M635.6,26.8c0,0,2.4-6.9,12.3-7.1c0,0-0.3-12.3,9.1-13.7c0,0,0.8-10.8,13.8-11c13.1-0.2,27.5,11,27.5,11
							s-5,11.9-17.7,11.4c0,0,3.5,2.4,5.4,7c0,0-6.5,11.5-19,8.6l5.2,9.4c0,0-12.5,10.5-19.4,0.4C652.7,42.8,647.8,28.6,635.6,26.8"
							/>
						<path class="st55" d="M680.6,17.4c0,0-5.1-6.3-11.8-8.4c0,0,11,0.9,15.9,8.1C684.7,17.1,682.9,17.3,680.6,17.4"/>
						<path class="st55" d="M666.9,33c0,0-1.5-7.2-7.3-9.4c0,0,8.7,0.8,10.6,9.8C670.3,33.4,668.8,33.4,666.9,33"/>
						<path class="st55" d="M701.1-109.6c-7-0.1-13.5,3.6-17.8,6.8c-0.7,5-0.4,10.5,2,14.8c1.2,2.1,2.7,3.8,4.3,5.3
							c1.2,0.5,1.9,0.6,2,0.5c0.3-0.5,1.4-2.2,1.4-2.2c9.5-15.4,28.8-16.6,28.8-16.6S713.6-109.4,701.1-109.6"/>
						<path class="st55" d="M721.9-101c0,0-22.7-9-37.3,11.3c0.2,0.6,0.5,1.1,0.8,1.6c1,1.8,2.3,3.4,3.7,4.7l0,0
							c0.1,0.1,0.2,0.2,0.3,0.3l0.1,0.1l0,0c0.1,0.1,0.1,0.1,0.2,0.2c1.1,0.5,2.9,1.3,4.5,1.4c0,0-0.9-1.1-1.7-2.2
							c0.3-0.5,0.6-0.9,0.6-0.9C702.6-99.8,721.9-101,721.9-101"/>
						<path class="st55" d="M632-63.4c0,0,0.3-3.8,2-5.8c0,0,3.4,2.5,5,6.3C639-63,633.9-62.9,632-63.4"/>
						<path class="st55" d="M661.1-76.4c1.1,0.1,3.4,3.8,3.4,3.8c-1.8,1.7-5.9,4-10.3,5.9c0,0-11.2,4.5-23.2,3.2
							c0,0,14.7,5.4,35-7.2l1.4,2.2C667.4-75.5,661.1-76.4,661.1-76.4"/>
					</g>
				</g>
			</g>
		</g>
		<g>
			<path class="st56" d="M727.9,8.9c9.7-14.2,0.6-32.3,0.6-32.3s-3.8-10.6-8.1-16.2c4.4-2.6,3.6-6.5,3.6-6.5c-5.5-0.2-9-6.1-9-6.1
				c-1.3-1.5-3.7-4.2-3.7-4.2c4.5-3.3,3-9.8,3-9.8c-2.3,3.2-7.3,0-7.3,0c3.7-3.7,1.7-8.8,1.7-8.8c-7.3,4.9-13.1-9.8-13.1-9.8
				l-5.6-19c-4.9-12.1,3.5-28.7,3.5-28.7c-3.3-1.3-8.5-0.8-8.5-0.8c0-4.4,4.6-13.9,4.6-13.9c-5.1-1.3-13.1,0-13.1,0
				c0.8-3.8,4.4-14.4,4.4-14.4s-11.5-1-21.1,2.1c-10,3.3-15.8,8.9-15.8,8.9c-2.6-7.4-1.3-22.3-1.3-22.3
				c-21.5,7.2-34.4,39.2-34.4,39.2c-4.6-5.6-6.7-15.4-6.7-15.4c-15.6,17.7-8.2,41-8.2,41c-4.6,0-11-4.1-11-4.1
				c5.1,23.6,22.1,38.7,22.1,38.7s-1.9,15.3-0.9,23.2c0,0-3.4-0.9-8.6-0.8c-3.3,0-7.7,0.4-12.7,2.1l4.7,3.9
				c-11.6,4.6-13.9,17-14,17.1c-0.2-0.1-0.4-0.1-0.6-0.2h-0.1c-0.2-0.1-0.3-0.1-0.5-0.2c-0.1,0-0.1-0.1-0.2-0.1
				c-0.1-0.1-0.3-0.2-0.4-0.3c-0.1,0-0.1-0.1-0.2-0.1c-0.1-0.1-0.3-0.2-0.4-0.3c-0.1-0.1-0.2-0.2-0.3-0.2c-0.1-0.1-0.2-0.2-0.3-0.3
				c-0.1-0.1-0.2-0.2-0.3-0.3c-0.1-0.1-0.2-0.2-0.3-0.3c-0.1-0.2-0.2-0.3-0.3-0.5c-0.1-0.1-0.1-0.2-0.2-0.3
				c-0.2-0.3-0.3-0.6-0.5-0.9c0,0-0.5,4.9,1.3,8c0,0-18.3,6.3-26.8,18.5l4.4,2.6c0,0-14.1,0.8-23.3,12.8c0,0,5.3-1.5,8.7,0.1
				c0,0-11.7,9.7-8.1,27.6c0,0,4.1-3.6,6.8-3.6c3.5,4.6,4.2,8.3,4.2,8.3s2.2,7.3,2.4,13.1c0,0,3-1.4,5.1-3.4c0,0,5.4,16.4,23.3,15.7
				l2.1-4.8l0.9-0.5l2.6,0.4c0,0,1.7,10.3,5.5,16.6l4.4,1.8c0,0-1.3,4,0.8,8.7c0,0-8.6,21.2-12.7,35l3.5-1c0,0,11.2,11.5,17.9,12.3
				l2.9-7.7c0,0,15.4,19.2,25.2,21.4c0,0,0.2-5.6,1.3-7.5l9-0.8c0,0-5.6-7.1-6.5-11.5c0,0,8.1-4.4,12.1-3.5c0,0-0.1-4.8-0.4-6.7
				c0,0,9.8-2.7,12.8-2.5l0,0c4.6-0.5,4-0.7,6.3-1c4.8-9,12.1-16.7,12.1-16.7c10.4-13.5,16.7-25.5,20.2-34.7l5.1,2.8
				c1.5-5.6,1.4-16.1,1.2-21.8c13.8-5.2,16-15.3,16-15.3l-3.3-3.1c21,0.9,26.1-18.7,26.1-18.7C729.3,9.8,727.9,8.9,727.9,8.9"/>
			<path class="st57" d="M622,176.2c-1.8-2.6-3.1-5.5-3.9-8.6c-1.5-0.7-3.6-0.9-6.4-0.4c-14,2.2-25.6,10.6-15.1,28.1
				c0,0,2.2,1.7,6.8,0c4.6-1.7,6.2-3.1,10.4-3.1s9-4.4,8.2-9C621.6,181.5,622,178.9,622,176.2"/>
			<path class="st57" d="M613.5,166.9c0.6,0,1.1,0,1.7,0C614.7,166.8,614.1,166.8,613.5,166.9"/>
			<path class="st58" d="M594.1,176.7c-2.4-0.7-4.9-1-7.3-0.7c-0.1,0.1-0.3,0.1-0.4,0.2c-2.2,0.4-4.3,1-6.2,2.3
				c-0.2,0.1-0.4,0.2-0.6,0.2c-1.4,0.8-2.8,1.7-4,2.8c6,2.9,13.7,2.5,16.9,2.1C592.4,181,593,178.7,594.1,176.7"/>
			<path class="st58" d="M618.1,167.5c-0.8-0.3-1.7-0.6-2.8-0.6c-0.6,0-1.1,0-1.7,0c-0.6,0-1.2,0.1-1.9,0.2
				c-6.4,1-12.4,3.4-15.9,7.3c1.7,0.6,3.4,1.3,4.8,2.1c0.4,0.2,0.6,0.5,0.6,0.8l5.3,4.6l3-7c4.2,5.3,8.9,5.5,12.2,4.8
				c0.1-1.1,0.1-2.3,0.1-3.5C620.2,173.5,618.8,170.6,618.1,167.5"/>
			<path class="st57" d="M550.1,184.1c0.6,5.3,0.7,9.2,6.8,10.7c6.1,1.5,9.9-1.8,12-5.4c2.1-3.6,0.8-15.3-8.3-16.2
				c-9.1-0.9-12.6,9-12.6,9l2.3,0.1L550.1,184.1z"/>
			<path class="st58" d="M559.3,184.5c0.9-3.5,2.7-7.9,5.9-9.6c4.9,3.6,5.3,11.7,3.7,14.5c-1.6,2.8-4.4,5.5-8.6,5.7
				C558.9,191.8,558.4,188.2,559.3,184.5"/>
			<path class="st59" d="M598.9,131.7l-9.5,28.3c-1.6,2.4-6.8,3.4-6.8,3.4c0.7,2.9,4.1,5.3,4.1,5.3c-0.7,5.5-9.7,6.1-9.7,6.1
				c4.5,9.6,21.2,5.8,21.2,5.8l5-5.7l5.2,4.5l2.5-5.7c5.9,7.4,13.3,2.6,13.3,2.6c-3.2-2.9-3-6.9-3-6.9c-0.1-1.4-0.1-2.8-0.2-4.2
				c0.4-1.5,0.8-2.9,1.4-4.2c1.7-4.4,3.9-8.7,6.7-12.6c0.3-0.4,0.7-0.6,1.1-0.6C624.4,135.4,612.9,126,598.9,131.7"/>
			<path class="st57" d="M563.4,186.8c0.6,5.9,0.7,10.3,6.8,11.9c6.1,1.6,10-2.1,12-6c2.1-4,0.8-17-8.3-18.1c-9.1-1-12.6,10-12.6,10
				l2.3,0.1L563.4,186.8z"/>
			<path class="st58" d="M573.4,192.3c0-1.4,0.2-2.8,0.6-4.2c0.9-3.4,3.2-7.7,6.3-9.6c3.1,4.5,3.3,11.4,1.9,14.1
				c-1.4,2.8-3.8,5.4-7.1,6.2C574.4,196.7,573.8,194.5,573.4,192.3"/>
			<path class="st57" d="M579.1,189.4c0.6,5.9,0.7,10.3,6.8,11.9c6.1,1.6,9.9-2.1,12-6c2.1-4,0.8-17-8.3-18.1
				c-9.1-1-12.6,10-12.6,10l2.3,0.1L579.1,189.4z"/>
			<path class="st58" d="M550.2,182.3l2.7,0.1l-2.8,1.8C550.1,184.1,550,183,550.2,182.3"/>
			<polygon class="st58" points="561.3,185.2 566.1,185.2 563.2,187.2 			"/>
			<polygon class="st58" points="577,187.2 581.6,187.4 579.1,189.4 			"/>
			<path class="st57" d="M650.1,117.4c0,0,9,3.5,13.5,6.9c4.4,3.5,5.6,6,2.5,17.7c-3.1,11.7-6.7,20.8-7.1,31.6
				c-0.4,10.8,2.5,16.3-3.5,19.2c-6,2.9-13.5,7.1-22.7,7.7s-13.9-0.4-16.7,0c-2.9,0.4-5.6-3.7-5.2-8.1c0.4-4.4,6-5.6,6-5.6
				s1-6.9,7.7-7.1c0,0,3.3-14.4,1.5-26l-7.5-7.7C618.5,146.1,610.6,109.5,650.1,117.4"/>
			<path class="st58" d="M666.3,131.4c-0.9-2.5-2.3-4.1-4.9-3.5c-6.8,1.7-10,7.3-12.7,13.2c-1.7,7.3-1.6,15.4-2.7,22.4
				c-1,6.6-2.5,13.5-6,19.3c-0.3,0.5-0.6,0.9-0.9,1.4c-1,3.9-3.6,9.3-1.2,12.8c0.7,1.1,1.8,1.7,3.1,2c5.6-1.6,10.4-4.2,14.5-6.2
				c6-2.9,3.1-8.5,3.5-19.2c0.4-10.8,4-19.8,7.1-31.6l0,0c0.3-2.5,0.5-5.1,0.7-7.6C666.7,133.4,666.6,132.4,666.3,131.4"/>
			<path class="st59" d="M669.5,74.5c0.2-3.9-0.8-7.7-0.8-7.7c-1.6,3.2-4.3,6.5-7.6,9.6c-12.5,9.8-25.7,11.3-37.5,8.2l-5.6,2.3V83
				c-9.1-3.3-16.3-8.9-23.6-15.3h0.3l-8.9-4l3-1.7l0,0c-6.7-6.6-12.3-13.5-16.5-19.2l0.2-0.3c-3.1-5.3-6.6-9.2-9-11.9H563l0,0
				c-1.5-3.4-4.6-4.9-4.6-4.9l-3.2,1.2c1.6-4.7,4.2-6.8,5.7-8.6c0.6-1.7,2-4.7,4.9-5.1l-3.4-4.7c6.3-6.8,13.2-9.2,13.2-9.2
				c0.5-3.8,0.1-6.9,0.1-6.9c1.5,0.2,2.7,0.6,3.9,1c1.9,0.8,4.7,3.9,6.7,6.9c0,0,7.5-1.5,13.7,8.7c0,0,1.2-1.2,2.9-4.2
				c0,0,4.4,11.7,4,18.5c0,0,9.2,1.5,18.6,6.4c3.7,1.1,7.1,3.3,10.4,5.4c2,1.2,3.2,2.4,5.6,5.7c-0.5-6.6-2.2-15.3-7.1-18
				c-4,2.4-6.5,4.2-6.5,4.2s-7.9-3.8-13.8-5.9h0.1c-2-10.1,3.9-24.6,3.9-24.6c-7.1,5.3-9.4,18.3-9.4,18.3v1.1
				c0-4.7-2.4-12.2-7.2-17.4c0,0-0.7,3.3-1.8,4.8c0,0-5.8-6.9-11.8-6.9c0,0-2.7-4.5-5.9-6.8c1.6-7.2,6.2-14.1,11.2-19.1
				c3.5-3.5,7.4-6,11.6-7.7c-0.4-2-0.6-4-0.8-6c-0.1-2.4-0.2-4.7-1-7c-0.2,0-0.4-0.1-0.7-0.1v0.1c-0.1,0.3-0.3,0.6-0.5,0.8
				c0.6,2,0.6,4.1,0.7,6.2c0.1,2,0,1.3,0.4,3.3c-4.2,1.7-8.1,4.2-11.6,7.7c-6.1,6.1-10.3,12.2-11.9,21.4c-1.5-0.7-4.7-0.5-7-0.9
				c0,0,0.4,5.4,0.7,9.7c0,0-6.6,1-12.9,7.9L556.7,8c-2.9,0.3-12.3,4.9-12.9,6.6c3.8,0.2,9.2,2.5,12.1,4.6c0,0-4.3,6.7-5.8,13.2
				c0,0,2.2-0.7,4.5-0.9c3,2.5,7.4,6.8,11.1,14c2.9,5.2,6.7,10.9,6.7,10.9l0.4-0.1c1.2,1.3,2.3,2.6,2.7,3l-6.7,3.9l-0.2,0.4
				c0.3,0.9,4.2,10.4,7.6,18.9l2.5-1.6c0,0,1.4,6.2,4.5,9.1c0,0-3,6.3-4.8,11.3c2.1,1.8,3.9,3.9,6.2,5.5c3.4,2.3,7.7,3.6,11.4,5.2
				c8.1,3.5,16,5.3,24.7,5.9c6.7,0.4,13.5,0.8,20.2,1.7c2.6-0.3,5.6-0.6,7.7-0.5l3.1-0.5c1.7,0.8,1.7,0.8,2.8,1.3
				c5.6-11.6,12.3-19.7,12.3-19.7c0.3-0.3,0.3-0.3,0.7-0.6c5.6-4.2,9.5-12.2,13.4-21l0,0c0,0,2.3-4.4,3.4-7.3c0,0,0,0,0-0.1
				c1-2.1,1.5-3.7,2.5-5.7C679.3,71.8,669.5,74.5,669.5,74.5"/>
			<path class="st57" d="M628,26.8c0,0,2.4-6.9,12.3-7.1c0,0-0.3-12.3,9.1-13.7c0,0,0.8-10.8,13.9-11s27.5,11,27.5,11
				s-5,11.9-17.7,11.4c0,0,3.5,2.4,5.4,7c0,0-6.5,11.5-19,8.6l5.2,9.4c0,0-12.6,10.5-19.4,0.4C645.1,42.8,640.2,28.6,628,26.8"/>
			<path class="st58" d="M611.2,196.1c0,0-1.8-8.3,5.6-9.2c2.6,0,3.8,0.7,3.8,0.7s-1.3-2.5-2.9-2.6c0,0,1.7-3.7,6.7-5.2
				c0,0-4.3-2.9-9.1,4.8c0,0-8.6,1.2-7.2,13.5C608.1,198,610.7,196.8,611.2,196.1"/>
			<path class="st58" d="M659.3,33c0,0-1.5-7.2-7.3-9.4c0,0,8.7,0.8,10.6,9.8C662.6,33.4,661.2,33.4,659.3,33"/>
			<path class="st58" d="M653.8,119c0,0-8.6,1.1-14.5,3.9c0,0,0.3,4.1-2,7.5c0,0-6.7-0.4-10.4,1.2c0,0,5.6,9.9,7.7,12.4
				c0,0-8,1.8-11,1.1l-0.6,6.2l-3.5-4l2.6-23.4C622.1,123.9,646,114,653.8,119"/>
			<path class="st56" d="M653.1,116.9c0,0-12.1-5.4-18.5-5l1.1-1.8c-12.2,1.6-21.5,1-32.4-3.8l1.4-2.5c0,0-12.7-6.3-20.3-16.3
				c0,0-12.4,28.4-13.6,37.4l3.5-1c0,0,8.3,10.9,18.3,13.8l2.4-3c0,0,13.7,14.5,25,15.7l1.5-8c0,0,5.8,0.3,9-0.8
				c0,0-5.6-8.2-6.5-11.5c0,0,5.3-2.1,9.9-2.5h2.4c1.3-4.2,0.9-6.2,0.9-6.2S644,118.4,653.1,116.9"/>
			<path class="st60" d="M607.2-70c-0.5-4-1.2-9.7-5.1-11.9c-2,0.3-4.1,0.8-6,1.7C584.7-75,580.4-64,580.4-64s13.8-5,27.3,0.5
				C607.6-65.6,607.5-67.8,607.2-70"/>
			<path class="st61" d="M607.2-70c-0.1-0.9-0.2-1.9-0.4-2.9c-15.4-2-26.4,8.9-26.4,8.9s13.8-5,27.3,0.5
				C607.6-65.6,607.5-67.8,607.2-70"/>
			<path class="st56" d="M727.9,8.9c9.7-14.2,0.6-32.3,0.6-32.3s-3.8-10.6-8.1-16.2c4.4-2.6,3.6-6.5,3.6-6.5c-5.5-0.2-9-6.1-9-6.1
				c-1.3-1.5-3.7-4.2-3.7-4.2c4.5-3.3,3-9.8,3-9.8c-2.3,3.2-7.3,0-7.3,0c3.7-3.7,1.7-8.8,1.7-8.8c-7.3,4.9-13.1-9.8-13.1-9.8
				l-5.6-19c-4.9-12.1,3.5-28.7,3.5-28.7c-3.3-1.3-8.5-0.8-8.5-0.8c0-4.4,4.6-13.9,4.6-13.9c-5.1-1.3-13.1,0-13.1,0
				c0.8-3.8,4.4-14.4,4.4-14.4s-11.5-1-21.1,2.1c-10,3.3-15.8,8.9-15.8,8.9c-2.6-7.4-1.3-22.3-1.3-22.3
				c-21.5,7.2-34.4,39.2-34.4,39.2c-4.6-5.6-6.7-15.4-6.7-15.4c-15.6,17.7-8.2,41-8.2,41c-4.6,0-11-4.1-11-4.1
				c5.1,23.6,22.1,38.7,22.1,38.7s-1.9,15.3-0.9,23.2c0,0-3.4-0.9-8.6-0.8c-3.3,0-7.7,0.4-12.7,2.1l4.7,3.9
				c-11.6,4.6-13.9,17-14,17.1c-0.2-0.1-0.4-0.1-0.6-0.2h-0.1c-0.2-0.1-0.3-0.1-0.5-0.2c-0.1,0-0.1-0.1-0.2-0.1
				c-0.1-0.1-0.3-0.2-0.4-0.3c-0.1,0-0.1-0.1-0.2-0.1c-0.1-0.1-0.3-0.2-0.4-0.3c-0.1-0.1-0.2-0.2-0.3-0.2c-0.1-0.1-0.2-0.2-0.3-0.3
				c-0.1-0.1-0.2-0.2-0.3-0.3c-0.1-0.1-0.2-0.2-0.3-0.3c-0.1-0.2-0.2-0.3-0.3-0.5c-0.1-0.1-0.1-0.2-0.2-0.3
				c-0.2-0.3-0.3-0.6-0.5-0.9c0,0-0.5,4.9,1.3,8c0,0-18.3,6.3-26.8,18.5l4.4,2.6c0,0-14.1,0.8-23.3,12.8c0,0,5.3-1.5,8.7,0.1
				c0,0-11.7,9.7-8.1,27.6c0,0,4.1-3.6,6.8-3.6c3.5,4.6,4.2,8.3,4.2,8.3s2.2,7.3,2.4,13.1c0,0,3-1.4,5.1-3.4c0,0,5.4,16.4,23.3,15.7
				l2.1-4.8l0.9-0.5l2.6,0.4c0,0,1.7,10.3,5.5,16.6l4.4,1.8c0,0-1.3,4,0.8,8.7c0,0-0.5-2.8-4.6,11.1c0,0,10.8,14.4,56.9,19
				c0,0,0.4,1.9,0,0c0,0,9.8-2.7,12.8-2.5l0,0c4.6-0.5,4-0.7,6.3-1c4.8-9,12.1-16.7,12.1-16.7c10.4-13.5,16.7-25.5,20.2-34.7
				l5.1,2.8c1.5-5.6,1.4-16.1,1.2-21.8c13.8-5.2,16-15.3,16-15.3l-3.3-3.1c21,0.9,26.1-18.7,26.1-18.7
				C729.3,9.8,727.9,8.9,727.9,8.9"/>
			<path class="st57" d="M679.6-64.2c0,0,0-6.4-13.9-22.1c0,0-0.6-17.9-2.1-25.4c0,0-16.7-4-39,4.9c-1-3.6-4.5-3.6-4.5-3.6l-1.3,3.3
				c-4.2-3.7-8.1-1.7-8.1-1.7c2.1,1.5,3.7,6.9,3.7,6.9l1-0.6c-4.9,2.7-10,6-15.2,10.2c0,0,2.5,9.6,11.5,17.5c0,0-2.3,19.2,0,34.8
				c0,0,8.7-3.3,12.7-2.1c0,0,0.6,8.8,2.1,12.7c0,0,7.5-4.6,10-5.4c0,0,2.1,6.2,5.4,9.8c0,0,7.4-11.3,12-15.3c0,0,4.8,2.1,6.1,5.6
				c0,0,6.3-8.6,8.2-16.4c0,0,6.5-0.9,9,1.4c0,0,1-8.7-3.5-12.5C673.7-62.3,677.3-64.8,679.6-64.2"/>
			<path class="st58" d="M651.3-85.6c0,4.2-2.7,7.5-6,7.5s-5.9-3.4-5.9-7.5c0-4.2,2.7-7.5,5.9-7.5C648.7-93.2,651.3-89.8,651.3-85.6
				"/>
			<path class="st62" d="M650.7-87.7c0,4.1-2.6,7.4-5.9,7.4c-3.2,0-5.9-3.3-5.9-7.4s2.6-7.4,5.9-7.4
				C648.1-95.1,650.7-91.8,650.7-87.7"/>
			<path class="st61" d="M646.4-91.5c0,0.2,0.1,0.4,0.1,0.6c0,1-0.7,1.9-1.5,1.9c-0.7,0-1.4-0.7-1.5-1.5c-0.5,0.6-0.8,1.5-0.8,2.4
				c0,1.9,1.3,3.5,2.8,3.5s2.8-1.6,2.8-3.5C648.3-89.8,647.5-91.1,646.4-91.5"/>
			<path class="st58" d="M638.6-102.9c0,0,6.7-3.3,13.3-1C652-103.9,645.7-112,638.6-102.9"/>
			<path class="st58" d="M632.9-79.5c0,4.2-2.7,7.5-6,7.5c-3.3,0-6-3.4-6-7.5c0-4.2,2.7-7.5,6-7.5C630.2-87,632.9-83.6,632.9-79.5"
				/>
			<path class="st62" d="M632.2-81.6c0,4.1-2.6,7.4-5.9,7.4c-3.2,0-5.9-3.3-5.9-7.4s2.6-7.4,5.9-7.4C629.6-89,632.2-85.7,632.2-81.6
				"/>
			<path class="st61" d="M627.9-85.4c0,0.2,0.1,0.4,0.1,0.6c0,1-0.7,1.9-1.5,1.9c-0.7,0-1.4-0.7-1.5-1.6c-0.5,0.6-0.8,1.5-0.8,2.4
				c0,1.9,1.3,3.5,2.8,3.5c1.6,0,2.8-1.6,2.8-3.5C629.8-83.6,629-84.9,627.9-85.4"/>
			<path class="st61" d="M611.3-83.1c0,0,8.6-7.9,19.6-6.4c0,0,7.5-16.4,26.2-11.8l-3.9,2.9l4.6,4.2c0,0-10.9-4.3-25.6,8.7
				c0,0-11.9,0.6-18.5,7.7C613.6-77.8,612.6-80.1,611.3-83.1"/>
			<path class="st63" d="M648.9-98.5c1.4,0,2.9-0.1,4.3,0.2l4.6-3.2c-18.7-4.7-27.9,8.3-27.9,8.3c-11-1.5-19.3,8.9-19.3,8.9
				c0.3,0.8,1.4,2.6,1.7,3.3c4.2-4.5,13.1-9.5,18.7-8.4C635.5-95.9,640.8-98.7,648.9-98.5"/>
			<path class="st58" d="M612.7-91.7c0,0,5.3-5.2,12.3-5.3C625-96.9,616.4-102.5,612.7-91.7"/>
			<path class="st59" d="M669.5,74.5c0.2-3.9-0.8-7.7-0.8-7.7c-1.6,3.2-4.3,6.5-7.6,9.6c-12.5,9.8-25.7,11.3-37.5,8.2l-5.6,2.3V83
				c-9.1-3.3-16.3-8.9-23.6-15.3h0.3l-8.9-4l3-1.7l0,0c-6.7-6.6-12.3-13.5-16.5-19.2l0.2-0.3c-3.1-5.3-6.6-9.2-9-11.9H563l0,0
				c-1.5-3.4-4.6-4.9-4.6-4.9l-3.2,1.2c1.6-4.7,4.2-6.8,5.7-8.6c0.6-1.7,2-4.7,4.9-5.1l-3.4-4.7c6.3-6.8,13.2-9.2,13.2-9.2
				c0.5-3.8,0.1-6.9,0.1-6.9c1.5,0.2,2.7,0.6,3.9,1c1.9,0.8,4.7,3.9,6.7,6.9c0,0,7.5-1.5,13.7,8.7c0,0,1.2-1.2,2.9-4.2
				c0,0,4.4,11.7,4,18.5c0,0,9.2,1.5,18.6,6.4c3.7,1.1,7.1,3.3,10.4,5.4c2,1.2,3.2,2.4,5.6,5.7c-0.5-6.6-2.2-15.3-7.1-18
				c-4,2.4-6.5,4.2-6.5,4.2s-7.9-3.8-13.8-5.9h0.1c-2-10.1,3.9-24.6,3.9-24.6c-7.1,5.3-9.4,18.3-9.4,18.3v1.1
				c0-4.7-2.4-12.2-7.2-17.4c0,0-0.7,3.3-1.8,4.8c0,0-5.8-6.9-11.8-6.9c0,0-2.7-4.5-5.9-6.8c1.6-7.2,6.2-14.1,11.2-19.1
				c3.5-3.5,7.4-6,11.6-7.7c-0.4-2-0.6-4-0.8-6c-0.1-2.4-0.2-4.7-1-7c-0.2,0-0.4-0.1-0.7-0.1v0.1c-0.1,0.3-0.3,0.6-0.5,0.8
				c0.6,2,0.6,4.1,0.7,6.2c0.1,2,0,1.3,0.4,3.3c-4.2,1.7-8.1,4.2-11.6,7.7c-6.1,6.1-10.3,12.2-11.9,21.4c-1.5-0.7-4.7-0.5-7-0.9
				c0,0,0.4,5.4,0.7,9.7c0,0-6.6,1-12.9,7.9L556.7,8c-2.9,0.3-12.3,4.9-12.9,6.6c3.8,0.2,9.2,2.5,12.1,4.6c0,0-4.3,6.7-5.8,13.2
				c0,0,2.2-0.7,4.5-0.9c3,2.5,7.4,6.8,11.1,14c2.9,5.2,6.7,10.9,6.7,10.9l0.4-0.1c1.2,1.3,2.3,2.6,2.7,3l-6.7,3.9l-0.2,0.4
				c0.3,0.9,4.2,10.4,7.6,18.9l2.5-1.6c0,0,1.4,6.2,4.5,9.1c0,0-3,6.3-4.8,11.3c2.1,1.8,3.9,3.9,6.2,5.5c3.4,2.3,7.7,3.6,11.4,5.2
				c8.1,3.5,16,5.3,24.7,5.9c6.7,0.4,13.5,0.8,20.2,1.7c2.6-0.3,5.6-0.6,7.7-0.5l3.1-0.5c1.7,0.8,1.7,0.8,2.8,1.3
				c5.6-11.6,12.3-19.7,12.3-19.7c0.3-0.3,0.3-0.3,0.7-0.6c5.6-4.2,9.5-12.2,13.4-21l0,0c0,0,2.3-4.4,3.4-7.3c0,0,0,0,0-0.1
				c1-2.1,1.5-3.7,2.5-5.7C679.3,71.8,669.5,74.5,669.5,74.5"/>
			<path class="st59" d="M603.7-50.2c0,0,1.7,18.4,6.2,26.1c0,0,5.3-5.4,10.6-4.1c0,0,0.5,10.8,3.7,16.9c0,0,3.9-5,6.8-5.6
				c0,0,7.4,9.2,13.8,11.4c0,0,2.8-14.3,10.2-19.1c0,0,4.4,1.7,5.6,6.1c0,0,8.5-7.6,13.2-17.6c0,0,3.3-1.2,10.5,5
				c0,0,4.5-4.6,5.5-9.2c0,0,1.3,9.9-4.6,15.1c0,0-4-4.9-10-6.6c0,0-5.9,13-16.1,19.5c0,0,0-4.2-3.7-7.1c0,0-6.7,5.7-7.9,19.8
				c0,0-14.4-7.7-17.6-12.9c0,0-2.5,1.5-5.6,6.2c0,0-5.5-3.4-6.5-17.4c0,0-3.6-0.3-9,4.9c0,0-6.4-16.9-6.5-31.5L603.7-50.2z"/>
			<path class="st59" d="M661.2,2c0,0-0.8-9.5,6.7-17.2c0,0-3.1,8.2-1.3,19.2C666.6,4,662.9,4.5,661.2,2"/>
			<path class="st57" d="M575.8-0.7c-0.1-0.7,0.1-0.9,0-1.6c-1.1-0.1-4.7,0.1-7.8,0.6c-11.4,2.1-15.8,15.6-15.8,15.6l8.6,4.8
				c1.3-3.1,5.2-5.5,5.2-5.5l-3.4-4.7C567.8,2.4,574.9-0.3,575.8-0.7"/>
			<path class="st57" d="M628,26.8c0,0,2.4-6.9,12.3-7.1c0,0-0.3-12.3,9.1-13.7c0,0,0.8-10.8,13.9-11s27.5,11,27.5,11
				s-5,11.9-17.7,11.4c0,0,3.5,2.4,5.4,7c0,0-6.5,11.5-19,8.6l5.2,9.4c0,0-12.6,10.5-19.4,0.4C645.1,42.8,640.2,28.6,628,26.8"/>
			<path class="st58" d="M673,17.4c0,0-5.1-6.3-11.8-8.4c0,0,11,0.9,15.9,8.1C677.1,17.1,675.3,17.3,673,17.4"/>
			<path class="st58" d="M659.3,33c0,0-1.5-7.2-7.3-9.4c0,0,8.7,0.8,10.6,9.8C662.6,33.4,661.2,33.4,659.3,33"/>
			<path class="st63" d="M693.5-109.6c-7-0.1-13.5,3.6-17.8,6.8c-0.7,5-0.4,10.5,2,14.8c1.2,2.1,2.7,3.8,4.3,5.3
				c1.2,0.5,1.9,0.6,2,0.5c0.3-0.5,1.4-2.2,1.4-2.2c9.5-15.4,28.8-16.6,28.8-16.6S706-109.4,693.5-109.6"/>
			<path class="st60" d="M714.3-101c0,0-22.7-9-37.3,11.3c0.2,0.6,0.5,1.1,0.8,1.6c1,1.8,2.3,3.4,3.7,4.7l0,0
				c0.1,0.1,0.2,0.2,0.3,0.3l0.1,0.1l0,0c0.1,0.1,0.1,0.1,0.2,0.2c1,0.5,2.9,1.3,4.5,1.4c0,0-0.9-1.1-1.7-2.2
				c0.3-0.5,0.6-0.9,0.6-0.9C695-99.8,714.3-101,714.3-101"/>
			<path class="st62" d="M624.4-63.4c0,0,0.3-3.8,2-5.8c0,0,3.4,2.5,5,6.3C631.4-63,626.3-62.9,624.4-63.4"/>
			<path class="st61" d="M653.5-76.4c1.1,0.1,3.4,3.8,3.4,3.8c-1.8,1.7-5.9,4-10.3,5.9c0,0-11.2,4.5-23.2,3.2c0,0,14.7,5.4,35-7.2
				l1.4,2.2C659.8-75.5,653.5-76.4,653.5-76.4"/>
		</g>
	</g>
</g>
</svg>
